G75*
G70*
%OFA0B0*%
%FSLAX24Y24*%
%IPPOS*%
%LPD*%
%AMOC8*
5,1,8,0,0,1.08239X$1,22.5*
%
%ADD10R,0.0710X0.0710*%
%ADD11C,0.0710*%
%ADD12OC8,0.0710*%
%ADD13C,0.0860*%
%ADD14R,0.0513X0.0474*%
%ADD15R,0.0600X0.0600*%
%ADD16C,0.0600*%
%ADD17R,0.0257X0.0513*%
%ADD18R,0.0277X0.0277*%
D10*
X002718Y003526D03*
X005718Y003526D03*
X008718Y003526D03*
X011718Y003526D03*
X011718Y006085D03*
X008718Y006085D03*
X005718Y006085D03*
X002718Y006085D03*
X007406Y017707D03*
X018406Y022207D03*
X027006Y022207D03*
X027006Y019207D03*
X027006Y014207D03*
X027006Y010307D03*
X027006Y009107D03*
X027006Y007907D03*
D11*
X028006Y007907D03*
X028006Y009107D03*
X028006Y010307D03*
X028006Y012207D03*
X027006Y012207D03*
X027006Y013207D03*
X028006Y013207D03*
X028006Y014207D03*
X028006Y016207D03*
X027006Y016207D03*
X027006Y017207D03*
X028006Y017207D03*
X028006Y018207D03*
X027006Y018207D03*
X028006Y019207D03*
X027006Y021207D03*
X026006Y021207D03*
X026006Y022207D03*
X025006Y022207D03*
X025006Y021207D03*
X024006Y021207D03*
X024006Y022207D03*
X023006Y022207D03*
X022006Y022207D03*
X022006Y021207D03*
X023006Y021207D03*
X021006Y021207D03*
X021006Y022207D03*
X020006Y022207D03*
X020006Y021207D03*
X018406Y021207D03*
X017406Y021207D03*
X017406Y022207D03*
X016406Y022207D03*
X016406Y021207D03*
X015406Y021207D03*
X015406Y022207D03*
X014406Y022207D03*
X014406Y021207D03*
X013406Y021207D03*
X013406Y022207D03*
X012406Y022207D03*
X011406Y022207D03*
X011406Y021207D03*
X012406Y021207D03*
X007406Y016707D03*
X008006Y012267D03*
X008006Y010707D03*
X008006Y009147D03*
X011006Y009147D03*
X011006Y010707D03*
X011006Y012267D03*
X014006Y012267D03*
X014006Y010707D03*
X014006Y009147D03*
X017006Y009147D03*
X017006Y010707D03*
X017006Y012267D03*
X013490Y006085D03*
X010490Y006085D03*
X007490Y006085D03*
X004490Y006085D03*
X004490Y003526D03*
X007490Y003526D03*
X010490Y003526D03*
X013490Y003526D03*
X016006Y003207D03*
X017006Y003207D03*
X018006Y003207D03*
X019006Y003207D03*
X020006Y003207D03*
X023006Y003207D03*
X024006Y003207D03*
X025006Y003207D03*
X026006Y003207D03*
X027006Y003207D03*
D12*
X022006Y003207D03*
X015006Y003207D03*
D13*
X003506Y008323D03*
X003506Y010291D03*
X003506Y012523D03*
X003506Y014491D03*
X003506Y016723D03*
X003506Y018691D03*
X003321Y021707D03*
X005290Y021707D03*
X007521Y021707D03*
X009490Y021707D03*
D14*
X015106Y006142D03*
X015106Y005473D03*
X016606Y005473D03*
X016606Y006142D03*
X018106Y006142D03*
X018106Y005473D03*
X019606Y005473D03*
X019606Y006142D03*
X021106Y006142D03*
X021106Y005473D03*
X022606Y005473D03*
X022606Y006142D03*
X024106Y006142D03*
X024106Y005473D03*
X025606Y005473D03*
X025606Y006142D03*
D15*
X021006Y009207D03*
D16*
X022006Y009207D03*
X023006Y009207D03*
D17*
X027322Y006554D03*
X027578Y006554D03*
X027834Y006554D03*
X028090Y006554D03*
X028090Y004861D03*
X027834Y004861D03*
X027578Y004861D03*
X027322Y004861D03*
D18*
X027509Y004207D03*
X027903Y004207D03*
M02*
