G75*
G70*
%OFA0B0*%
%FSLAX24Y24*%
%IPPOS*%
%LPD*%
%AMOC8*
5,1,8,0,0,1.08239X$1,22.5*
%
%ADD10R,0.2200X0.5200*%
%ADD11C,0.0630*%
%ADD12C,0.0780*%
%ADD13C,0.0520*%
%ADD14C,0.0250*%
%ADD15C,0.0100*%
D10*
X022006Y016707D03*
D11*
X027006Y016207D03*
X028006Y016207D03*
X028006Y017207D03*
X027006Y017207D03*
X027006Y018207D03*
X028006Y018207D03*
X028006Y019207D03*
X027006Y019207D03*
X027006Y021207D03*
X027006Y022207D03*
X026006Y022207D03*
X026006Y021207D03*
X025006Y021207D03*
X025006Y022207D03*
X024006Y022207D03*
X024006Y021207D03*
X023006Y021207D03*
X022006Y021207D03*
X022006Y022207D03*
X023006Y022207D03*
X021006Y022207D03*
X021006Y021207D03*
X020006Y021207D03*
X020006Y022207D03*
X018406Y022207D03*
X017406Y022207D03*
X017406Y021207D03*
X018406Y021207D03*
X016406Y021207D03*
X016406Y022207D03*
X015406Y022207D03*
X015406Y021207D03*
X014406Y021207D03*
X014406Y022207D03*
X013406Y022207D03*
X013406Y021207D03*
X012406Y021207D03*
X011406Y021207D03*
X011406Y022207D03*
X012406Y022207D03*
X007406Y017707D03*
X007406Y016707D03*
X008006Y012267D03*
X008006Y010707D03*
X008006Y009147D03*
X011006Y009147D03*
X011006Y010707D03*
X011006Y012267D03*
X014006Y012267D03*
X014006Y010707D03*
X014006Y009147D03*
X017006Y009147D03*
X017006Y010707D03*
X017006Y012267D03*
X013490Y006085D03*
X011718Y006085D03*
X010490Y006085D03*
X008718Y006085D03*
X007490Y006085D03*
X005718Y006085D03*
X004490Y006085D03*
X002718Y006085D03*
X002718Y003526D03*
X004490Y003526D03*
X005718Y003526D03*
X007490Y003526D03*
X008718Y003526D03*
X010490Y003526D03*
X011718Y003526D03*
X013490Y003526D03*
X015006Y003207D03*
X016006Y003207D03*
X017006Y003207D03*
X018006Y003207D03*
X019006Y003207D03*
X020006Y003207D03*
X022006Y003207D03*
X023006Y003207D03*
X024006Y003207D03*
X025006Y003207D03*
X026006Y003207D03*
X027006Y003207D03*
X027006Y007907D03*
X028006Y007907D03*
X028006Y009107D03*
X027006Y009107D03*
X027006Y010307D03*
X028006Y010307D03*
X028006Y012207D03*
X027006Y012207D03*
X027006Y013207D03*
X028006Y013207D03*
X028006Y014207D03*
X027006Y014207D03*
D12*
X009490Y021707D03*
X007521Y021707D03*
X005290Y021707D03*
X003321Y021707D03*
X003506Y018691D03*
X003506Y016723D03*
X003506Y014491D03*
X003506Y012523D03*
X003506Y010291D03*
X003506Y008323D03*
D13*
X021006Y009207D03*
X022006Y009207D03*
X023006Y009207D03*
D14*
X024906Y008807D03*
X024906Y009607D03*
X025406Y009607D03*
X027006Y008507D03*
X027206Y007007D03*
X026706Y006107D03*
X026106Y005807D03*
X025606Y006507D03*
X024606Y005807D03*
X024106Y006507D03*
X023106Y005807D03*
X022606Y006507D03*
X021606Y005807D03*
X021106Y006507D03*
X020106Y005807D03*
X019606Y006507D03*
X018606Y005807D03*
X018106Y006507D03*
X017106Y005807D03*
X016606Y006507D03*
X015606Y005807D03*
X015106Y006507D03*
X015106Y004907D03*
X016606Y004907D03*
X018106Y004907D03*
X019606Y004907D03*
X021106Y004907D03*
X022606Y004907D03*
X024106Y004907D03*
X025606Y004907D03*
X027106Y004807D03*
X027306Y005707D03*
X027506Y004007D03*
X027906Y004007D03*
X024906Y007507D03*
X024506Y007507D03*
X027006Y011007D03*
X018506Y016907D03*
X018206Y016207D03*
X018406Y017607D03*
X018206Y018507D03*
X018906Y019207D03*
X019606Y020007D03*
X020006Y020607D03*
X015606Y017707D03*
X015506Y018207D03*
X015506Y018707D03*
X013406Y019207D03*
X012006Y019507D03*
X010906Y019807D03*
X010506Y020407D03*
X010106Y020707D03*
X009706Y020107D03*
X012906Y021707D03*
X014906Y021707D03*
X012906Y017607D03*
X013906Y017207D03*
X015006Y016807D03*
X015606Y016907D03*
X015206Y016007D03*
X014306Y016307D03*
X014706Y015107D03*
X015706Y014607D03*
X016006Y015907D03*
X006506Y014607D03*
X006006Y014607D03*
X005606Y014607D03*
X005206Y014607D03*
X006006Y013607D03*
X006506Y013607D03*
X005606Y012807D03*
X005206Y012807D03*
X005206Y010107D03*
X005606Y010107D03*
X006006Y010107D03*
X006506Y010107D03*
X006506Y009107D03*
X006006Y009107D03*
X005606Y008307D03*
X005206Y008307D03*
X004006Y004307D03*
X007006Y004307D03*
X010006Y004307D03*
X013006Y004307D03*
D15*
X002256Y002457D02*
X002256Y022927D01*
X028748Y022927D01*
X028748Y002457D01*
X002256Y002457D01*
X002256Y002503D02*
X028748Y002503D01*
X028748Y002601D02*
X002256Y002601D01*
X002256Y002700D02*
X028748Y002700D01*
X028748Y002799D02*
X027129Y002799D01*
X027090Y002782D02*
X027246Y002847D01*
X027366Y002966D01*
X027431Y003123D01*
X027431Y003292D01*
X027366Y003448D01*
X027246Y003568D01*
X027090Y003632D01*
X026921Y003632D01*
X026765Y003568D01*
X026645Y003448D01*
X026581Y003292D01*
X026581Y003123D01*
X026645Y002966D01*
X026765Y002847D01*
X026921Y002782D01*
X027090Y002782D01*
X026882Y002799D02*
X026129Y002799D01*
X026090Y002782D02*
X026246Y002847D01*
X026366Y002966D01*
X026431Y003123D01*
X026431Y003292D01*
X026366Y003448D01*
X026246Y003568D01*
X026090Y003632D01*
X025921Y003632D01*
X025765Y003568D01*
X025645Y003448D01*
X025581Y003292D01*
X025581Y003123D01*
X025645Y002966D01*
X025765Y002847D01*
X025921Y002782D01*
X026090Y002782D01*
X025882Y002799D02*
X025129Y002799D01*
X025090Y002782D02*
X025246Y002847D01*
X025366Y002966D01*
X025431Y003123D01*
X025431Y003292D01*
X025366Y003448D01*
X025246Y003568D01*
X025090Y003632D01*
X024921Y003632D01*
X024765Y003568D01*
X024645Y003448D01*
X024581Y003292D01*
X024581Y003123D01*
X024645Y002966D01*
X024765Y002847D01*
X024921Y002782D01*
X025090Y002782D01*
X024882Y002799D02*
X024129Y002799D01*
X024090Y002782D02*
X024246Y002847D01*
X024366Y002966D01*
X024431Y003123D01*
X024431Y003292D01*
X024366Y003448D01*
X024246Y003568D01*
X024090Y003632D01*
X023921Y003632D01*
X023765Y003568D01*
X023645Y003448D01*
X023581Y003292D01*
X023581Y003123D01*
X023645Y002966D01*
X023765Y002847D01*
X023921Y002782D01*
X024090Y002782D01*
X023882Y002799D02*
X023129Y002799D01*
X023090Y002782D02*
X023246Y002847D01*
X023366Y002966D01*
X023431Y003123D01*
X023431Y003292D01*
X023366Y003448D01*
X023246Y003568D01*
X023090Y003632D01*
X022921Y003632D01*
X022765Y003568D01*
X022645Y003448D01*
X022581Y003292D01*
X022581Y003123D01*
X022645Y002966D01*
X022765Y002847D01*
X022921Y002782D01*
X023090Y002782D01*
X022882Y002799D02*
X022129Y002799D01*
X022090Y002782D02*
X022246Y002847D01*
X022366Y002966D01*
X022431Y003123D01*
X022431Y003292D01*
X022366Y003448D01*
X022246Y003568D01*
X022090Y003632D01*
X021921Y003632D01*
X021765Y003568D01*
X021645Y003448D01*
X021581Y003292D01*
X021581Y003123D01*
X021645Y002966D01*
X021765Y002847D01*
X021921Y002782D01*
X022090Y002782D01*
X021882Y002799D02*
X020129Y002799D01*
X020090Y002782D02*
X020246Y002847D01*
X020366Y002966D01*
X020431Y003123D01*
X020431Y003292D01*
X020366Y003448D01*
X020246Y003568D01*
X020090Y003632D01*
X019921Y003632D01*
X019765Y003568D01*
X019645Y003448D01*
X019581Y003292D01*
X019581Y003123D01*
X019645Y002966D01*
X019765Y002847D01*
X019921Y002782D01*
X020090Y002782D01*
X019882Y002799D02*
X019129Y002799D01*
X019090Y002782D02*
X019246Y002847D01*
X019366Y002966D01*
X019431Y003123D01*
X019431Y003292D01*
X019366Y003448D01*
X019246Y003568D01*
X019090Y003632D01*
X018921Y003632D01*
X018765Y003568D01*
X018645Y003448D01*
X018581Y003292D01*
X018581Y003123D01*
X018645Y002966D01*
X018765Y002847D01*
X018921Y002782D01*
X019090Y002782D01*
X018882Y002799D02*
X018129Y002799D01*
X018090Y002782D02*
X018246Y002847D01*
X018366Y002966D01*
X018431Y003123D01*
X018431Y003292D01*
X018366Y003448D01*
X018246Y003568D01*
X018090Y003632D01*
X017921Y003632D01*
X017765Y003568D01*
X017645Y003448D01*
X017581Y003292D01*
X017581Y003123D01*
X017645Y002966D01*
X017765Y002847D01*
X017921Y002782D01*
X018090Y002782D01*
X017882Y002799D02*
X017129Y002799D01*
X017090Y002782D02*
X017246Y002847D01*
X017366Y002966D01*
X017431Y003123D01*
X017431Y003292D01*
X017366Y003448D01*
X017246Y003568D01*
X017090Y003632D01*
X016921Y003632D01*
X016765Y003568D01*
X016645Y003448D01*
X016581Y003292D01*
X016581Y003123D01*
X016645Y002966D01*
X016765Y002847D01*
X016921Y002782D01*
X017090Y002782D01*
X016882Y002799D02*
X016228Y002799D01*
X016249Y002810D02*
X016309Y002853D01*
X016360Y002904D01*
X016403Y002964D01*
X016437Y003029D01*
X016459Y003098D01*
X016469Y003157D01*
X016056Y003157D01*
X016056Y003257D01*
X016469Y003257D01*
X016459Y003316D01*
X016437Y003386D01*
X016403Y003451D01*
X016360Y003510D01*
X016309Y003562D01*
X016249Y003605D01*
X016184Y003638D01*
X016115Y003661D01*
X016056Y003670D01*
X016056Y003257D01*
X015956Y003257D01*
X015956Y003670D01*
X015897Y003661D01*
X015827Y003638D01*
X015762Y003605D01*
X015703Y003562D01*
X015651Y003510D01*
X015608Y003451D01*
X015575Y003386D01*
X015552Y003316D01*
X015543Y003257D01*
X015955Y003257D01*
X015955Y003157D01*
X015543Y003157D01*
X015552Y003098D01*
X015575Y003029D01*
X015608Y002964D01*
X015651Y002904D01*
X015703Y002853D01*
X015762Y002810D01*
X015827Y002776D01*
X015897Y002754D01*
X015956Y002744D01*
X015956Y003157D01*
X016056Y003157D01*
X016056Y002744D01*
X016115Y002754D01*
X016184Y002776D01*
X016249Y002810D01*
X016353Y002897D02*
X016715Y002897D01*
X016633Y002996D02*
X016420Y002996D01*
X016458Y003094D02*
X016592Y003094D01*
X016581Y003193D02*
X016056Y003193D01*
X016056Y003291D02*
X015956Y003291D01*
X015955Y003193D02*
X015431Y003193D01*
X015431Y003123D02*
X015366Y002966D01*
X015246Y002847D01*
X015090Y002782D01*
X014921Y002782D01*
X014765Y002847D01*
X014645Y002966D01*
X014581Y003123D01*
X014581Y003292D01*
X014645Y003448D01*
X014765Y003568D01*
X014921Y003632D01*
X015090Y003632D01*
X015246Y003568D01*
X015366Y003448D01*
X015431Y003292D01*
X015431Y003123D01*
X015419Y003094D02*
X015553Y003094D01*
X015592Y002996D02*
X015378Y002996D01*
X015296Y002897D02*
X015658Y002897D01*
X015784Y002799D02*
X015129Y002799D01*
X014882Y002799D02*
X002256Y002799D01*
X002256Y002897D02*
X014715Y002897D01*
X014633Y002996D02*
X002256Y002996D01*
X002256Y003094D02*
X004315Y003094D01*
X004311Y003095D02*
X004381Y003073D01*
X004440Y003063D01*
X004440Y003476D01*
X004540Y003476D01*
X004540Y003576D01*
X004953Y003576D01*
X004943Y003635D01*
X004921Y003705D01*
X004888Y003770D01*
X004845Y003829D01*
X004793Y003881D01*
X004734Y003924D01*
X004668Y003957D01*
X004599Y003980D01*
X004540Y003989D01*
X004540Y003576D01*
X004440Y003576D01*
X004440Y003476D01*
X004027Y003476D01*
X004036Y003417D01*
X004059Y003348D01*
X004092Y003282D01*
X004135Y003223D01*
X004187Y003171D01*
X004246Y003128D01*
X004311Y003095D01*
X004440Y003094D02*
X004540Y003094D01*
X004540Y003063D02*
X004599Y003073D01*
X004668Y003095D01*
X004734Y003128D01*
X004793Y003171D01*
X004845Y003223D01*
X004888Y003282D01*
X004921Y003348D01*
X004943Y003417D01*
X004953Y003476D01*
X004540Y003476D01*
X004540Y003063D01*
X004665Y003094D02*
X007315Y003094D01*
X007311Y003095D02*
X007381Y003073D01*
X007440Y003063D01*
X007440Y003476D01*
X007540Y003476D01*
X007540Y003576D01*
X007953Y003576D01*
X007943Y003635D01*
X007921Y003705D01*
X007888Y003770D01*
X007845Y003829D01*
X007793Y003881D01*
X007734Y003924D01*
X007668Y003957D01*
X007599Y003980D01*
X007540Y003989D01*
X007540Y003576D01*
X007440Y003576D01*
X007440Y003476D01*
X007027Y003476D01*
X007036Y003417D01*
X007059Y003348D01*
X007092Y003282D01*
X007135Y003223D01*
X007187Y003171D01*
X007246Y003128D01*
X007311Y003095D01*
X007440Y003094D02*
X007540Y003094D01*
X007540Y003063D02*
X007599Y003073D01*
X007668Y003095D01*
X007734Y003128D01*
X007793Y003171D01*
X007845Y003223D01*
X007888Y003282D01*
X007921Y003348D01*
X007943Y003417D01*
X007953Y003476D01*
X007540Y003476D01*
X007540Y003063D01*
X007665Y003094D02*
X010315Y003094D01*
X010311Y003095D02*
X010381Y003073D01*
X010440Y003063D01*
X010440Y003476D01*
X010540Y003476D01*
X010540Y003576D01*
X010953Y003576D01*
X010943Y003635D01*
X010921Y003705D01*
X010888Y003770D01*
X010845Y003829D01*
X010793Y003881D01*
X010734Y003924D01*
X010668Y003957D01*
X010599Y003980D01*
X010540Y003989D01*
X010540Y003576D01*
X010440Y003576D01*
X010440Y003476D01*
X010027Y003476D01*
X010036Y003417D01*
X010059Y003348D01*
X010092Y003282D01*
X010135Y003223D01*
X010187Y003171D01*
X010246Y003128D01*
X010311Y003095D01*
X010440Y003094D02*
X010540Y003094D01*
X010540Y003063D02*
X010599Y003073D01*
X010668Y003095D01*
X010734Y003128D01*
X010793Y003171D01*
X010845Y003223D01*
X010888Y003282D01*
X010921Y003348D01*
X010943Y003417D01*
X010953Y003476D01*
X010540Y003476D01*
X010540Y003063D01*
X010665Y003094D02*
X013315Y003094D01*
X013311Y003095D02*
X013381Y003073D01*
X013440Y003063D01*
X013440Y003476D01*
X013540Y003476D01*
X013540Y003576D01*
X013953Y003576D01*
X013943Y003635D01*
X013921Y003705D01*
X013888Y003770D01*
X013845Y003829D01*
X013793Y003881D01*
X013734Y003924D01*
X013668Y003957D01*
X013599Y003980D01*
X013540Y003989D01*
X013540Y003576D01*
X013440Y003576D01*
X013440Y003476D01*
X013027Y003476D01*
X013036Y003417D01*
X013059Y003348D01*
X013092Y003282D01*
X013135Y003223D01*
X013187Y003171D01*
X013246Y003128D01*
X013311Y003095D01*
X013440Y003094D02*
X013540Y003094D01*
X013540Y003063D02*
X013599Y003073D01*
X013668Y003095D01*
X013734Y003128D01*
X013793Y003171D01*
X013845Y003223D01*
X013888Y003282D01*
X013921Y003348D01*
X013943Y003417D01*
X013953Y003476D01*
X013540Y003476D01*
X013540Y003063D01*
X013665Y003094D02*
X014592Y003094D01*
X014581Y003193D02*
X013814Y003193D01*
X013892Y003291D02*
X014581Y003291D01*
X014621Y003390D02*
X013934Y003390D01*
X013951Y003587D02*
X014812Y003587D01*
X014686Y003488D02*
X013540Y003488D01*
X013540Y003390D02*
X013440Y003390D01*
X013440Y003488D02*
X012143Y003488D01*
X012143Y003442D02*
X012079Y003285D01*
X011959Y003166D01*
X011803Y003101D01*
X011634Y003101D01*
X011478Y003166D01*
X011358Y003285D01*
X011293Y003442D01*
X011293Y003611D01*
X011358Y003767D01*
X011478Y003886D01*
X011634Y003951D01*
X011803Y003951D01*
X011959Y003886D01*
X012079Y003767D01*
X012143Y003611D01*
X012143Y003442D01*
X012122Y003390D02*
X013045Y003390D01*
X013088Y003291D02*
X012081Y003291D01*
X011986Y003193D02*
X013166Y003193D01*
X013440Y003193D02*
X013540Y003193D01*
X013540Y003291D02*
X013440Y003291D01*
X013440Y003576D02*
X013027Y003576D01*
X013036Y003635D01*
X013059Y003705D01*
X013092Y003770D01*
X013135Y003829D01*
X013187Y003881D01*
X013246Y003924D01*
X013311Y003957D01*
X013381Y003980D01*
X013440Y003989D01*
X013440Y003576D01*
X013440Y003587D02*
X013540Y003587D01*
X013540Y003685D02*
X013440Y003685D01*
X013440Y003784D02*
X013540Y003784D01*
X013540Y003882D02*
X013440Y003882D01*
X013440Y003981D02*
X013540Y003981D01*
X013590Y003981D02*
X027251Y003981D01*
X027251Y003956D02*
X027289Y003863D01*
X027361Y003791D01*
X027455Y003752D01*
X027556Y003752D01*
X027650Y003791D01*
X027722Y003863D01*
X027761Y003956D01*
X027761Y004058D01*
X027722Y004152D01*
X027650Y004223D01*
X027556Y004262D01*
X027455Y004262D01*
X027361Y004223D01*
X027289Y004152D01*
X027251Y004058D01*
X027251Y003956D01*
X027281Y003882D02*
X013791Y003882D01*
X013877Y003784D02*
X027378Y003784D01*
X027633Y003784D02*
X028748Y003784D01*
X028748Y003882D02*
X027730Y003882D01*
X027761Y003981D02*
X028748Y003981D01*
X028748Y004080D02*
X027752Y004080D01*
X027695Y004178D02*
X028748Y004178D01*
X028748Y004277D02*
X013261Y004277D01*
X013261Y004256D02*
X013222Y004163D01*
X013150Y004091D01*
X013056Y004052D01*
X012955Y004052D01*
X012861Y004091D01*
X012789Y004163D01*
X012751Y004256D01*
X012751Y004358D01*
X012789Y004452D01*
X012861Y004523D01*
X012955Y004562D01*
X013056Y004562D01*
X013150Y004523D01*
X013222Y004452D01*
X013261Y004358D01*
X013261Y004256D01*
X013228Y004178D02*
X027316Y004178D01*
X027260Y004080D02*
X013122Y004080D01*
X013189Y003882D02*
X011963Y003882D01*
X012061Y003784D02*
X013102Y003784D01*
X013053Y003685D02*
X012112Y003685D01*
X012143Y003587D02*
X013029Y003587D01*
X013390Y003981D02*
X010590Y003981D01*
X010540Y003981D02*
X010440Y003981D01*
X010440Y003989D02*
X010381Y003980D01*
X010311Y003957D01*
X010246Y003924D01*
X010187Y003881D01*
X010135Y003829D01*
X010092Y003770D01*
X010059Y003705D01*
X010036Y003635D01*
X010027Y003576D01*
X010440Y003576D01*
X010440Y003989D01*
X010390Y003981D02*
X007590Y003981D01*
X007540Y003981D02*
X007440Y003981D01*
X007440Y003989D02*
X007381Y003980D01*
X007311Y003957D01*
X007246Y003924D01*
X007187Y003881D01*
X007135Y003829D01*
X007092Y003770D01*
X007059Y003705D01*
X007036Y003635D01*
X007027Y003576D01*
X007440Y003576D01*
X007440Y003989D01*
X007390Y003981D02*
X004590Y003981D01*
X004540Y003981D02*
X004440Y003981D01*
X004440Y003989D02*
X004381Y003980D01*
X004311Y003957D01*
X004246Y003924D01*
X004187Y003881D01*
X004135Y003829D01*
X004092Y003770D01*
X004059Y003705D01*
X004036Y003635D01*
X004027Y003576D01*
X004440Y003576D01*
X004440Y003989D01*
X004390Y003981D02*
X002256Y003981D01*
X002256Y003882D02*
X002474Y003882D01*
X002478Y003886D02*
X002358Y003767D01*
X002293Y003611D01*
X002293Y003442D01*
X002358Y003285D01*
X002478Y003166D01*
X002634Y003101D01*
X002803Y003101D01*
X002959Y003166D01*
X003079Y003285D01*
X003143Y003442D01*
X003143Y003611D01*
X003079Y003767D01*
X002959Y003886D01*
X002803Y003951D01*
X002634Y003951D01*
X002478Y003886D01*
X002375Y003784D02*
X002256Y003784D01*
X002256Y003685D02*
X002324Y003685D01*
X002293Y003587D02*
X002256Y003587D01*
X002256Y003488D02*
X002293Y003488D01*
X002315Y003390D02*
X002256Y003390D01*
X002256Y003291D02*
X002356Y003291D01*
X002451Y003193D02*
X002256Y003193D01*
X002986Y003193D02*
X004166Y003193D01*
X004088Y003291D02*
X003081Y003291D01*
X003122Y003390D02*
X004045Y003390D01*
X004029Y003587D02*
X003143Y003587D01*
X003143Y003488D02*
X004440Y003488D01*
X004440Y003390D02*
X004540Y003390D01*
X004540Y003488D02*
X005293Y003488D01*
X005293Y003442D02*
X005358Y003285D01*
X005478Y003166D01*
X005634Y003101D01*
X005803Y003101D01*
X005959Y003166D01*
X006079Y003285D01*
X006143Y003442D01*
X006143Y003611D01*
X006079Y003767D01*
X005959Y003886D01*
X005803Y003951D01*
X005634Y003951D01*
X005478Y003886D01*
X005358Y003767D01*
X005293Y003611D01*
X005293Y003442D01*
X005315Y003390D02*
X004934Y003390D01*
X004892Y003291D02*
X005356Y003291D01*
X005451Y003193D02*
X004814Y003193D01*
X004540Y003193D02*
X004440Y003193D01*
X004440Y003291D02*
X004540Y003291D01*
X004540Y003587D02*
X004440Y003587D01*
X004440Y003685D02*
X004540Y003685D01*
X004540Y003784D02*
X004440Y003784D01*
X004440Y003882D02*
X004540Y003882D01*
X004791Y003882D02*
X005474Y003882D01*
X005375Y003784D02*
X004877Y003784D01*
X004927Y003685D02*
X005324Y003685D01*
X005293Y003587D02*
X004951Y003587D01*
X004189Y003882D02*
X002963Y003882D01*
X003061Y003784D02*
X004102Y003784D01*
X004053Y003685D02*
X003112Y003685D01*
X003789Y004163D02*
X003861Y004091D01*
X003955Y004052D01*
X004056Y004052D01*
X004150Y004091D01*
X004222Y004163D01*
X004261Y004256D01*
X004261Y004358D01*
X004222Y004452D01*
X004150Y004523D01*
X004056Y004562D01*
X003955Y004562D01*
X003861Y004523D01*
X003789Y004452D01*
X003751Y004358D01*
X003751Y004256D01*
X003789Y004163D01*
X003783Y004178D02*
X002256Y004178D01*
X002256Y004080D02*
X003889Y004080D01*
X004122Y004080D02*
X006889Y004080D01*
X006861Y004091D02*
X006955Y004052D01*
X007056Y004052D01*
X007150Y004091D01*
X007222Y004163D01*
X007261Y004256D01*
X007261Y004358D01*
X007222Y004452D01*
X007150Y004523D01*
X007056Y004562D01*
X006955Y004562D01*
X006861Y004523D01*
X006789Y004452D01*
X006751Y004358D01*
X006751Y004256D01*
X006789Y004163D01*
X006861Y004091D01*
X006783Y004178D02*
X004228Y004178D01*
X004261Y004277D02*
X006751Y004277D01*
X006758Y004375D02*
X004254Y004375D01*
X004200Y004474D02*
X006812Y004474D01*
X007200Y004474D02*
X009812Y004474D01*
X009789Y004452D02*
X009751Y004358D01*
X009751Y004256D01*
X009789Y004163D01*
X009861Y004091D01*
X009955Y004052D01*
X010056Y004052D01*
X010150Y004091D01*
X010222Y004163D01*
X010261Y004256D01*
X010261Y004358D01*
X010222Y004452D01*
X010150Y004523D01*
X010056Y004562D01*
X009955Y004562D01*
X009861Y004523D01*
X009789Y004452D01*
X009758Y004375D02*
X007254Y004375D01*
X007261Y004277D02*
X009751Y004277D01*
X009783Y004178D02*
X007228Y004178D01*
X007122Y004080D02*
X009889Y004080D01*
X010122Y004080D02*
X012889Y004080D01*
X012783Y004178D02*
X010228Y004178D01*
X010261Y004277D02*
X012751Y004277D01*
X012758Y004375D02*
X010254Y004375D01*
X010200Y004474D02*
X012812Y004474D01*
X013200Y004474D02*
X028748Y004474D01*
X028748Y004572D02*
X027205Y004572D01*
X027250Y004591D02*
X027322Y004663D01*
X027361Y004756D01*
X027361Y004858D01*
X027322Y004952D01*
X027250Y005023D01*
X027156Y005062D01*
X027055Y005062D01*
X026961Y005023D01*
X026889Y004952D01*
X026851Y004858D01*
X026851Y004756D01*
X026889Y004663D01*
X026961Y004591D01*
X027055Y004552D01*
X027156Y004552D01*
X027250Y004591D01*
X027325Y004671D02*
X028748Y004671D01*
X028748Y004769D02*
X027361Y004769D01*
X027357Y004868D02*
X028748Y004868D01*
X028748Y004966D02*
X027307Y004966D01*
X027007Y004572D02*
X002256Y004572D01*
X002256Y004474D02*
X003812Y004474D01*
X003758Y004375D02*
X002256Y004375D01*
X002256Y004277D02*
X003751Y004277D01*
X002256Y004671D02*
X015010Y004671D01*
X015055Y004652D02*
X015156Y004652D01*
X015250Y004691D01*
X015322Y004763D01*
X015361Y004856D01*
X015361Y004958D01*
X015322Y005052D01*
X015250Y005123D01*
X015156Y005162D01*
X015055Y005162D01*
X014961Y005123D01*
X014889Y005052D01*
X014851Y004958D01*
X014851Y004856D01*
X014889Y004763D01*
X014961Y004691D01*
X015055Y004652D01*
X015201Y004671D02*
X016510Y004671D01*
X016555Y004652D02*
X016656Y004652D01*
X016750Y004691D01*
X016822Y004763D01*
X016861Y004856D01*
X016861Y004958D01*
X016822Y005052D01*
X016750Y005123D01*
X016656Y005162D01*
X016555Y005162D01*
X016461Y005123D01*
X016389Y005052D01*
X016351Y004958D01*
X016351Y004856D01*
X016389Y004763D01*
X016461Y004691D01*
X016555Y004652D01*
X016701Y004671D02*
X018010Y004671D01*
X018055Y004652D02*
X018156Y004652D01*
X018250Y004691D01*
X018322Y004763D01*
X018361Y004856D01*
X018361Y004958D01*
X018322Y005052D01*
X018250Y005123D01*
X018156Y005162D01*
X018055Y005162D01*
X017961Y005123D01*
X017889Y005052D01*
X017851Y004958D01*
X017851Y004856D01*
X017889Y004763D01*
X017961Y004691D01*
X018055Y004652D01*
X018201Y004671D02*
X019510Y004671D01*
X019555Y004652D02*
X019656Y004652D01*
X019750Y004691D01*
X019822Y004763D01*
X019861Y004856D01*
X019861Y004958D01*
X019822Y005052D01*
X019750Y005123D01*
X019656Y005162D01*
X019555Y005162D01*
X019461Y005123D01*
X019389Y005052D01*
X019351Y004958D01*
X019351Y004856D01*
X019389Y004763D01*
X019461Y004691D01*
X019555Y004652D01*
X019701Y004671D02*
X021010Y004671D01*
X021055Y004652D02*
X021156Y004652D01*
X021250Y004691D01*
X021322Y004763D01*
X021361Y004856D01*
X021361Y004958D01*
X021322Y005052D01*
X021250Y005123D01*
X021156Y005162D01*
X021055Y005162D01*
X020961Y005123D01*
X020889Y005052D01*
X020851Y004958D01*
X020851Y004856D01*
X020889Y004763D01*
X020961Y004691D01*
X021055Y004652D01*
X021201Y004671D02*
X022510Y004671D01*
X022555Y004652D02*
X022656Y004652D01*
X022750Y004691D01*
X022822Y004763D01*
X022861Y004856D01*
X022861Y004958D01*
X022822Y005052D01*
X022750Y005123D01*
X022656Y005162D01*
X022555Y005162D01*
X022461Y005123D01*
X022389Y005052D01*
X022351Y004958D01*
X022351Y004856D01*
X022389Y004763D01*
X022461Y004691D01*
X022555Y004652D01*
X022701Y004671D02*
X024010Y004671D01*
X024055Y004652D02*
X024156Y004652D01*
X024250Y004691D01*
X024322Y004763D01*
X024361Y004856D01*
X024361Y004958D01*
X024322Y005052D01*
X024250Y005123D01*
X024156Y005162D01*
X024055Y005162D01*
X023961Y005123D01*
X023889Y005052D01*
X023851Y004958D01*
X023851Y004856D01*
X023889Y004763D01*
X023961Y004691D01*
X024055Y004652D01*
X024201Y004671D02*
X025510Y004671D01*
X025555Y004652D02*
X025461Y004691D01*
X025389Y004763D01*
X025351Y004856D01*
X025351Y004958D01*
X025389Y005052D01*
X025461Y005123D01*
X025555Y005162D01*
X025656Y005162D01*
X025750Y005123D01*
X025822Y005052D01*
X025861Y004958D01*
X025861Y004856D01*
X025822Y004763D01*
X025750Y004691D01*
X025656Y004652D01*
X025555Y004652D01*
X025701Y004671D02*
X026886Y004671D01*
X026851Y004769D02*
X025825Y004769D01*
X025861Y004868D02*
X026855Y004868D01*
X026904Y004966D02*
X025857Y004966D01*
X025808Y005065D02*
X028748Y005065D01*
X028748Y005164D02*
X002256Y005164D01*
X002256Y005262D02*
X028748Y005262D01*
X028748Y005361D02*
X002256Y005361D01*
X002256Y005459D02*
X027238Y005459D01*
X027255Y005452D02*
X027356Y005452D01*
X027450Y005491D01*
X027522Y005563D01*
X027561Y005656D01*
X028748Y005656D01*
X028748Y005558D02*
X027517Y005558D01*
X027561Y005656D02*
X027561Y005758D01*
X027522Y005852D01*
X027450Y005923D01*
X027356Y005962D01*
X027255Y005962D01*
X027161Y005923D01*
X027089Y005852D01*
X027051Y005758D01*
X027051Y005656D01*
X026315Y005656D01*
X026322Y005663D02*
X026361Y005756D01*
X026361Y005858D01*
X026322Y005952D01*
X026250Y006023D01*
X026156Y006062D01*
X026055Y006062D01*
X025961Y006023D01*
X025889Y005952D01*
X025851Y005858D01*
X025851Y005756D01*
X025889Y005663D01*
X025961Y005591D01*
X026055Y005552D01*
X026156Y005552D01*
X026250Y005591D01*
X026322Y005663D01*
X026360Y005755D02*
X027051Y005755D01*
X027051Y005656D02*
X027089Y005563D01*
X027161Y005491D01*
X027255Y005452D01*
X027373Y005459D02*
X028748Y005459D01*
X028748Y005755D02*
X027561Y005755D01*
X027520Y005853D02*
X028748Y005853D01*
X028748Y005952D02*
X027381Y005952D01*
X027230Y005952D02*
X026322Y005952D01*
X026361Y005853D02*
X027091Y005853D01*
X027095Y005558D02*
X026170Y005558D01*
X026042Y005558D02*
X024670Y005558D01*
X024656Y005552D02*
X024750Y005591D01*
X024822Y005663D01*
X024861Y005756D01*
X024861Y005858D01*
X024822Y005952D01*
X024750Y006023D01*
X024656Y006062D01*
X024555Y006062D01*
X024461Y006023D01*
X024389Y005952D01*
X024351Y005858D01*
X024351Y005756D01*
X024389Y005663D01*
X024461Y005591D01*
X024555Y005552D01*
X024656Y005552D01*
X024542Y005558D02*
X023170Y005558D01*
X023156Y005552D02*
X023250Y005591D01*
X023322Y005663D01*
X023361Y005756D01*
X023361Y005858D01*
X023322Y005952D01*
X023250Y006023D01*
X023156Y006062D01*
X023055Y006062D01*
X022961Y006023D01*
X022889Y005952D01*
X022851Y005858D01*
X022851Y005756D01*
X022889Y005663D01*
X022961Y005591D01*
X023055Y005552D01*
X023156Y005552D01*
X023042Y005558D02*
X021670Y005558D01*
X021656Y005552D02*
X021750Y005591D01*
X021822Y005663D01*
X021861Y005756D01*
X021861Y005858D01*
X021822Y005952D01*
X021750Y006023D01*
X021656Y006062D01*
X021555Y006062D01*
X021461Y006023D01*
X021389Y005952D01*
X021351Y005858D01*
X021351Y005756D01*
X021389Y005663D01*
X021461Y005591D01*
X021555Y005552D01*
X021656Y005552D01*
X021542Y005558D02*
X020170Y005558D01*
X020156Y005552D02*
X020250Y005591D01*
X020322Y005663D01*
X020361Y005756D01*
X020361Y005858D01*
X020322Y005952D01*
X020250Y006023D01*
X020156Y006062D01*
X020055Y006062D01*
X019961Y006023D01*
X019889Y005952D01*
X019851Y005858D01*
X019851Y005756D01*
X019889Y005663D01*
X019961Y005591D01*
X020055Y005552D01*
X020156Y005552D01*
X020042Y005558D02*
X018670Y005558D01*
X018656Y005552D02*
X018750Y005591D01*
X018822Y005663D01*
X018861Y005756D01*
X018861Y005858D01*
X018822Y005952D01*
X018750Y006023D01*
X018656Y006062D01*
X018555Y006062D01*
X018461Y006023D01*
X018389Y005952D01*
X018351Y005858D01*
X018351Y005756D01*
X018389Y005663D01*
X018461Y005591D01*
X018555Y005552D01*
X018656Y005552D01*
X018542Y005558D02*
X017170Y005558D01*
X017156Y005552D02*
X017250Y005591D01*
X017322Y005663D01*
X017361Y005756D01*
X017361Y005858D01*
X017322Y005952D01*
X017250Y006023D01*
X017156Y006062D01*
X017055Y006062D01*
X016961Y006023D01*
X016889Y005952D01*
X016851Y005858D01*
X016851Y005756D01*
X016889Y005663D01*
X016961Y005591D01*
X017055Y005552D01*
X017156Y005552D01*
X017042Y005558D02*
X015670Y005558D01*
X015656Y005552D02*
X015750Y005591D01*
X015822Y005663D01*
X015861Y005756D01*
X015861Y005858D01*
X015822Y005952D01*
X015750Y006023D01*
X015656Y006062D01*
X015555Y006062D01*
X015461Y006023D01*
X015389Y005952D01*
X015351Y005858D01*
X015351Y005756D01*
X015389Y005663D01*
X015461Y005591D01*
X015555Y005552D01*
X015656Y005552D01*
X015542Y005558D02*
X002256Y005558D01*
X002256Y005656D02*
X004307Y005656D01*
X004311Y005654D02*
X004381Y005632D01*
X004440Y005622D01*
X004440Y006035D01*
X004540Y006035D01*
X004540Y005622D01*
X004599Y005632D01*
X004668Y005654D01*
X004734Y005687D01*
X004793Y005731D01*
X004845Y005782D01*
X004888Y005841D01*
X004921Y005907D01*
X004943Y005976D01*
X004953Y006035D01*
X004540Y006035D01*
X004540Y006135D01*
X004953Y006135D01*
X004943Y006194D01*
X004921Y006264D01*
X004888Y006329D01*
X004845Y006388D01*
X004793Y006440D01*
X004734Y006483D01*
X004668Y006516D01*
X004599Y006539D01*
X004540Y006548D01*
X004540Y006135D01*
X004440Y006135D01*
X004440Y006035D01*
X004027Y006035D01*
X004036Y005976D01*
X004059Y005907D01*
X004092Y005841D01*
X004135Y005782D01*
X004187Y005731D01*
X004246Y005687D01*
X004311Y005654D01*
X004440Y005656D02*
X004540Y005656D01*
X004540Y005755D02*
X004440Y005755D01*
X004440Y005853D02*
X004540Y005853D01*
X004540Y005952D02*
X004440Y005952D01*
X004440Y006050D02*
X003143Y006050D01*
X003143Y006001D02*
X003079Y005844D01*
X002959Y005725D01*
X002803Y005660D01*
X002634Y005660D01*
X002478Y005725D01*
X002358Y005844D01*
X002293Y006001D01*
X002293Y006170D01*
X002358Y006326D01*
X002478Y006445D01*
X002634Y006510D01*
X002803Y006510D01*
X002959Y006445D01*
X003079Y006326D01*
X003143Y006170D01*
X003143Y006001D01*
X003123Y005952D02*
X004044Y005952D01*
X004086Y005853D02*
X003082Y005853D01*
X002989Y005755D02*
X004163Y005755D01*
X004540Y006050D02*
X005293Y006050D01*
X005293Y006001D02*
X005358Y005844D01*
X005478Y005725D01*
X005634Y005660D01*
X005803Y005660D01*
X005959Y005725D01*
X006079Y005844D01*
X006143Y006001D01*
X006143Y006170D01*
X006079Y006326D01*
X005959Y006445D01*
X005803Y006510D01*
X005634Y006510D01*
X005478Y006445D01*
X005358Y006326D01*
X005293Y006170D01*
X005293Y006001D01*
X005313Y005952D02*
X004935Y005952D01*
X004894Y005853D02*
X005354Y005853D01*
X005448Y005755D02*
X004817Y005755D01*
X004672Y005656D02*
X007307Y005656D01*
X007311Y005654D02*
X007381Y005632D01*
X007440Y005622D01*
X007440Y006035D01*
X007540Y006035D01*
X007540Y005622D01*
X007599Y005632D01*
X007668Y005654D01*
X007734Y005687D01*
X007793Y005731D01*
X007845Y005782D01*
X007888Y005841D01*
X007921Y005907D01*
X007943Y005976D01*
X007953Y006035D01*
X007540Y006035D01*
X007540Y006135D01*
X007953Y006135D01*
X007943Y006194D01*
X007921Y006264D01*
X007888Y006329D01*
X007845Y006388D01*
X007793Y006440D01*
X007734Y006483D01*
X007668Y006516D01*
X007599Y006539D01*
X007540Y006548D01*
X007540Y006135D01*
X007440Y006135D01*
X007440Y006035D01*
X007027Y006035D01*
X007036Y005976D01*
X007059Y005907D01*
X007092Y005841D01*
X007135Y005782D01*
X007187Y005731D01*
X007246Y005687D01*
X007311Y005654D01*
X007440Y005656D02*
X007540Y005656D01*
X007540Y005755D02*
X007440Y005755D01*
X007440Y005853D02*
X007540Y005853D01*
X007540Y005952D02*
X007440Y005952D01*
X007440Y006050D02*
X006143Y006050D01*
X006143Y006149D02*
X007029Y006149D01*
X007027Y006135D02*
X007440Y006135D01*
X007440Y006548D01*
X007381Y006539D01*
X007311Y006516D01*
X007246Y006483D01*
X007187Y006440D01*
X007135Y006388D01*
X007092Y006329D01*
X007059Y006264D01*
X007036Y006194D01*
X007027Y006135D01*
X007054Y006248D02*
X006111Y006248D01*
X006058Y006346D02*
X007105Y006346D01*
X007194Y006445D02*
X005960Y006445D01*
X005477Y006445D02*
X004786Y006445D01*
X004875Y006346D02*
X005378Y006346D01*
X005326Y006248D02*
X004926Y006248D01*
X004951Y006149D02*
X005293Y006149D01*
X004540Y006149D02*
X004440Y006149D01*
X004440Y006135D02*
X004440Y006548D01*
X004381Y006539D01*
X004311Y006516D01*
X004246Y006483D01*
X004187Y006440D01*
X004135Y006388D01*
X004092Y006329D01*
X004059Y006264D01*
X004036Y006194D01*
X004027Y006135D01*
X004440Y006135D01*
X004440Y006248D02*
X004540Y006248D01*
X004540Y006346D02*
X004440Y006346D01*
X004440Y006445D02*
X004540Y006445D01*
X004540Y006543D02*
X004440Y006543D01*
X004409Y006543D02*
X002256Y006543D01*
X002256Y006445D02*
X002477Y006445D01*
X002378Y006346D02*
X002256Y006346D01*
X002256Y006248D02*
X002326Y006248D01*
X002293Y006149D02*
X002256Y006149D01*
X002256Y006050D02*
X002293Y006050D01*
X002313Y005952D02*
X002256Y005952D01*
X002256Y005853D02*
X002354Y005853D01*
X002448Y005755D02*
X002256Y005755D01*
X002256Y005065D02*
X014903Y005065D01*
X014854Y004966D02*
X002256Y004966D01*
X002256Y004868D02*
X014851Y004868D01*
X014887Y004769D02*
X002256Y004769D01*
X003143Y006149D02*
X004029Y006149D01*
X004054Y006248D02*
X003111Y006248D01*
X003058Y006346D02*
X004105Y006346D01*
X004194Y006445D02*
X002960Y006445D01*
X002256Y006642D02*
X014885Y006642D01*
X014889Y006652D02*
X014851Y006558D01*
X014851Y006456D01*
X014889Y006363D01*
X014961Y006291D01*
X015055Y006252D01*
X015156Y006252D01*
X015250Y006291D01*
X015322Y006363D01*
X015361Y006456D01*
X015361Y006558D01*
X015322Y006652D01*
X015250Y006723D01*
X015156Y006762D01*
X015055Y006762D01*
X014961Y006723D01*
X014889Y006652D01*
X014851Y006543D02*
X013571Y006543D01*
X013599Y006539D02*
X013540Y006548D01*
X013540Y006135D01*
X013953Y006135D01*
X013943Y006194D01*
X013921Y006264D01*
X013888Y006329D01*
X013845Y006388D01*
X013793Y006440D01*
X013734Y006483D01*
X013668Y006516D01*
X013599Y006539D01*
X013540Y006543D02*
X013440Y006543D01*
X013440Y006548D02*
X013381Y006539D01*
X013311Y006516D01*
X013246Y006483D01*
X013187Y006440D01*
X013135Y006388D01*
X013092Y006329D01*
X013059Y006264D01*
X013036Y006194D01*
X013027Y006135D01*
X013440Y006135D01*
X013440Y006035D01*
X013540Y006035D01*
X013540Y005622D01*
X013599Y005632D01*
X013668Y005654D01*
X013734Y005687D01*
X013793Y005731D01*
X013845Y005782D01*
X013888Y005841D01*
X013921Y005907D01*
X013943Y005976D01*
X013953Y006035D01*
X013540Y006035D01*
X013540Y006135D01*
X013440Y006135D01*
X013440Y006548D01*
X013409Y006543D02*
X010571Y006543D01*
X010599Y006539D02*
X010540Y006548D01*
X010540Y006135D01*
X010953Y006135D01*
X010943Y006194D01*
X010921Y006264D01*
X010888Y006329D01*
X010845Y006388D01*
X010793Y006440D01*
X010734Y006483D01*
X010668Y006516D01*
X010599Y006539D01*
X010540Y006543D02*
X010440Y006543D01*
X010440Y006548D02*
X010381Y006539D01*
X010311Y006516D01*
X010246Y006483D01*
X010187Y006440D01*
X010135Y006388D01*
X010092Y006329D01*
X010059Y006264D01*
X010036Y006194D01*
X010027Y006135D01*
X010440Y006135D01*
X010440Y006035D01*
X010540Y006035D01*
X010540Y005622D01*
X010599Y005632D01*
X010668Y005654D01*
X010734Y005687D01*
X010793Y005731D01*
X010845Y005782D01*
X010888Y005841D01*
X010921Y005907D01*
X010943Y005976D01*
X010953Y006035D01*
X010540Y006035D01*
X010540Y006135D01*
X010440Y006135D01*
X010440Y006548D01*
X010409Y006543D02*
X007571Y006543D01*
X007540Y006543D02*
X007440Y006543D01*
X007409Y006543D02*
X004571Y006543D01*
X005989Y005755D02*
X007163Y005755D01*
X007086Y005853D02*
X006082Y005853D01*
X006123Y005952D02*
X007044Y005952D01*
X007440Y006149D02*
X007540Y006149D01*
X007540Y006248D02*
X007440Y006248D01*
X007440Y006346D02*
X007540Y006346D01*
X007540Y006445D02*
X007440Y006445D01*
X007786Y006445D02*
X008477Y006445D01*
X008478Y006445D02*
X008358Y006326D01*
X008293Y006170D01*
X008293Y006001D01*
X008358Y005844D01*
X008478Y005725D01*
X008634Y005660D01*
X008803Y005660D01*
X008959Y005725D01*
X009079Y005844D01*
X009143Y006001D01*
X009143Y006170D01*
X009079Y006326D01*
X008959Y006445D01*
X008803Y006510D01*
X008634Y006510D01*
X008478Y006445D01*
X008378Y006346D02*
X007875Y006346D01*
X007926Y006248D02*
X008326Y006248D01*
X008293Y006149D02*
X007951Y006149D01*
X007935Y005952D02*
X008313Y005952D01*
X008293Y006050D02*
X007540Y006050D01*
X007894Y005853D02*
X008354Y005853D01*
X008448Y005755D02*
X007817Y005755D01*
X007672Y005656D02*
X010307Y005656D01*
X010311Y005654D02*
X010381Y005632D01*
X010440Y005622D01*
X010440Y006035D01*
X010027Y006035D01*
X010036Y005976D01*
X010059Y005907D01*
X010092Y005841D01*
X010135Y005782D01*
X010187Y005731D01*
X010246Y005687D01*
X010311Y005654D01*
X010440Y005656D02*
X010540Y005656D01*
X010540Y005755D02*
X010440Y005755D01*
X010440Y005853D02*
X010540Y005853D01*
X010540Y005952D02*
X010440Y005952D01*
X010440Y006050D02*
X009143Y006050D01*
X009143Y006149D02*
X010029Y006149D01*
X010054Y006248D02*
X009111Y006248D01*
X009058Y006346D02*
X010105Y006346D01*
X010194Y006445D02*
X008960Y006445D01*
X009123Y005952D02*
X010044Y005952D01*
X010086Y005853D02*
X009082Y005853D01*
X008989Y005755D02*
X010163Y005755D01*
X010540Y006050D02*
X011293Y006050D01*
X011293Y006001D02*
X011358Y005844D01*
X011478Y005725D01*
X011634Y005660D01*
X011803Y005660D01*
X011959Y005725D01*
X012079Y005844D01*
X012143Y006001D01*
X012143Y006170D01*
X012079Y006326D01*
X011959Y006445D01*
X011803Y006510D01*
X011634Y006510D01*
X011478Y006445D01*
X011358Y006326D01*
X011293Y006170D01*
X011293Y006001D01*
X011313Y005952D02*
X010935Y005952D01*
X010894Y005853D02*
X011354Y005853D01*
X011448Y005755D02*
X010817Y005755D01*
X010672Y005656D02*
X013307Y005656D01*
X013311Y005654D02*
X013381Y005632D01*
X013440Y005622D01*
X013440Y006035D01*
X013027Y006035D01*
X013036Y005976D01*
X013059Y005907D01*
X013092Y005841D01*
X013135Y005782D01*
X013187Y005731D01*
X013246Y005687D01*
X013311Y005654D01*
X013440Y005656D02*
X013540Y005656D01*
X013540Y005755D02*
X013440Y005755D01*
X013440Y005853D02*
X013540Y005853D01*
X013540Y005952D02*
X013440Y005952D01*
X013440Y006050D02*
X012143Y006050D01*
X012143Y006149D02*
X013029Y006149D01*
X013054Y006248D02*
X012111Y006248D01*
X012058Y006346D02*
X013105Y006346D01*
X013194Y006445D02*
X011960Y006445D01*
X011477Y006445D02*
X010786Y006445D01*
X010875Y006346D02*
X011378Y006346D01*
X011326Y006248D02*
X010926Y006248D01*
X010951Y006149D02*
X011293Y006149D01*
X010540Y006149D02*
X010440Y006149D01*
X010440Y006248D02*
X010540Y006248D01*
X010540Y006346D02*
X010440Y006346D01*
X010440Y006445D02*
X010540Y006445D01*
X011989Y005755D02*
X013163Y005755D01*
X013086Y005853D02*
X012082Y005853D01*
X012123Y005952D02*
X013044Y005952D01*
X013440Y006149D02*
X013540Y006149D01*
X013540Y006248D02*
X013440Y006248D01*
X013440Y006346D02*
X013540Y006346D01*
X013540Y006445D02*
X013440Y006445D01*
X013786Y006445D02*
X014856Y006445D01*
X014906Y006346D02*
X013875Y006346D01*
X013926Y006248D02*
X028748Y006248D01*
X028748Y006346D02*
X025805Y006346D01*
X025822Y006363D02*
X025861Y006456D01*
X025861Y006558D01*
X025822Y006652D01*
X025750Y006723D01*
X025656Y006762D01*
X025555Y006762D01*
X025461Y006723D01*
X025389Y006652D01*
X025351Y006558D01*
X025351Y006456D01*
X025389Y006363D01*
X025461Y006291D01*
X025555Y006252D01*
X025656Y006252D01*
X025750Y006291D01*
X025822Y006363D01*
X025856Y006445D02*
X028748Y006445D01*
X028748Y006543D02*
X025861Y006543D01*
X025826Y006642D02*
X028748Y006642D01*
X028748Y006740D02*
X025709Y006740D01*
X025502Y006740D02*
X024209Y006740D01*
X024250Y006723D02*
X024156Y006762D01*
X024055Y006762D01*
X023961Y006723D01*
X023889Y006652D01*
X023851Y006558D01*
X023851Y006456D01*
X023889Y006363D01*
X023961Y006291D01*
X024055Y006252D01*
X024156Y006252D01*
X024250Y006291D01*
X024322Y006363D01*
X024361Y006456D01*
X024361Y006558D01*
X024322Y006652D01*
X024250Y006723D01*
X024326Y006642D02*
X025385Y006642D01*
X025351Y006543D02*
X024361Y006543D01*
X024356Y006445D02*
X025356Y006445D01*
X025406Y006346D02*
X024305Y006346D01*
X023906Y006346D02*
X022805Y006346D01*
X022822Y006363D02*
X022861Y006456D01*
X022861Y006558D01*
X022822Y006652D01*
X022750Y006723D01*
X022656Y006762D01*
X022555Y006762D01*
X022461Y006723D01*
X022389Y006652D01*
X022351Y006558D01*
X022351Y006456D01*
X022389Y006363D01*
X022461Y006291D01*
X022555Y006252D01*
X022656Y006252D01*
X022750Y006291D01*
X022822Y006363D01*
X022856Y006445D02*
X023856Y006445D01*
X023851Y006543D02*
X022861Y006543D01*
X022826Y006642D02*
X023885Y006642D01*
X024002Y006740D02*
X022709Y006740D01*
X022502Y006740D02*
X021209Y006740D01*
X021250Y006723D02*
X021156Y006762D01*
X021055Y006762D01*
X020961Y006723D01*
X020889Y006652D01*
X020851Y006558D01*
X020851Y006456D01*
X020889Y006363D01*
X020961Y006291D01*
X021055Y006252D01*
X021156Y006252D01*
X021250Y006291D01*
X021322Y006363D01*
X021361Y006456D01*
X021361Y006558D01*
X021322Y006652D01*
X021250Y006723D01*
X021326Y006642D02*
X022385Y006642D01*
X022351Y006543D02*
X021361Y006543D01*
X021356Y006445D02*
X022356Y006445D01*
X022406Y006346D02*
X021305Y006346D01*
X021002Y006740D02*
X019709Y006740D01*
X019750Y006723D02*
X019656Y006762D01*
X019555Y006762D01*
X019461Y006723D01*
X019389Y006652D01*
X019351Y006558D01*
X019351Y006456D01*
X019389Y006363D01*
X019461Y006291D01*
X019555Y006252D01*
X019656Y006252D01*
X019750Y006291D01*
X019822Y006363D01*
X019861Y006456D01*
X019861Y006558D01*
X019822Y006652D01*
X019750Y006723D01*
X019826Y006642D02*
X020885Y006642D01*
X020851Y006543D02*
X019861Y006543D01*
X019856Y006445D02*
X020856Y006445D01*
X020906Y006346D02*
X019805Y006346D01*
X019406Y006346D02*
X018305Y006346D01*
X018322Y006363D02*
X018361Y006456D01*
X018361Y006558D01*
X018322Y006652D01*
X018250Y006723D01*
X018156Y006762D01*
X018055Y006762D01*
X017961Y006723D01*
X017889Y006652D01*
X017851Y006558D01*
X017851Y006456D01*
X017889Y006363D01*
X017961Y006291D01*
X018055Y006252D01*
X018156Y006252D01*
X018250Y006291D01*
X018322Y006363D01*
X018356Y006445D02*
X019356Y006445D01*
X019351Y006543D02*
X018361Y006543D01*
X018326Y006642D02*
X019385Y006642D01*
X019502Y006740D02*
X018209Y006740D01*
X018002Y006740D02*
X016709Y006740D01*
X016750Y006723D02*
X016656Y006762D01*
X016555Y006762D01*
X016461Y006723D01*
X016389Y006652D01*
X016351Y006558D01*
X016351Y006456D01*
X016389Y006363D01*
X016461Y006291D01*
X016555Y006252D01*
X016656Y006252D01*
X016750Y006291D01*
X016822Y006363D01*
X016861Y006456D01*
X016861Y006558D01*
X016822Y006652D01*
X016750Y006723D01*
X016826Y006642D02*
X017885Y006642D01*
X017851Y006543D02*
X016861Y006543D01*
X016856Y006445D02*
X017856Y006445D01*
X017906Y006346D02*
X016805Y006346D01*
X016406Y006346D02*
X015305Y006346D01*
X015356Y006445D02*
X016356Y006445D01*
X016351Y006543D02*
X015361Y006543D01*
X015326Y006642D02*
X016385Y006642D01*
X016502Y006740D02*
X015209Y006740D01*
X015002Y006740D02*
X002256Y006740D01*
X002256Y006839D02*
X027014Y006839D01*
X026989Y006863D02*
X027061Y006791D01*
X027155Y006752D01*
X027256Y006752D01*
X027350Y006791D01*
X027422Y006863D01*
X027461Y006956D01*
X027461Y007058D01*
X027422Y007152D01*
X027350Y007223D01*
X027256Y007262D01*
X027155Y007262D01*
X027061Y007223D01*
X026989Y007152D01*
X026951Y007058D01*
X026951Y006956D01*
X026989Y006863D01*
X026959Y006937D02*
X002256Y006937D01*
X002256Y007036D02*
X026951Y007036D01*
X026982Y007134D02*
X002256Y007134D01*
X002256Y007233D02*
X027084Y007233D01*
X027327Y007233D02*
X028748Y007233D01*
X028748Y007331D02*
X025091Y007331D01*
X025122Y007363D02*
X025161Y007456D01*
X025161Y007558D01*
X025122Y007652D01*
X025050Y007723D01*
X024956Y007762D01*
X024855Y007762D01*
X024761Y007723D01*
X024689Y007652D01*
X024651Y007558D01*
X024651Y007456D01*
X024689Y007363D01*
X024761Y007291D01*
X024855Y007252D01*
X024956Y007252D01*
X025050Y007291D01*
X025122Y007363D01*
X025150Y007430D02*
X028748Y007430D01*
X028748Y007529D02*
X028202Y007529D01*
X028246Y007547D02*
X028366Y007666D01*
X028431Y007823D01*
X028431Y007992D01*
X028366Y008148D01*
X028246Y008268D01*
X028090Y008332D01*
X027921Y008332D01*
X027765Y008268D01*
X027645Y008148D01*
X027581Y007992D01*
X027581Y007823D01*
X027645Y007666D01*
X027765Y007547D01*
X027921Y007482D01*
X028090Y007482D01*
X028246Y007547D01*
X028327Y007627D02*
X028748Y007627D01*
X028748Y007726D02*
X028390Y007726D01*
X028431Y007824D02*
X028748Y007824D01*
X028748Y007923D02*
X028431Y007923D01*
X028418Y008021D02*
X028748Y008021D01*
X028748Y008120D02*
X028378Y008120D01*
X028296Y008218D02*
X028748Y008218D01*
X028748Y008317D02*
X028127Y008317D01*
X027884Y008317D02*
X027127Y008317D01*
X027090Y008332D02*
X027246Y008268D01*
X027366Y008148D01*
X027431Y007992D01*
X027431Y007823D01*
X027366Y007666D01*
X027246Y007547D01*
X027090Y007482D01*
X026921Y007482D01*
X026765Y007547D01*
X026645Y007666D01*
X026581Y007823D01*
X026581Y007992D01*
X026645Y008148D01*
X026765Y008268D01*
X026921Y008332D01*
X027090Y008332D01*
X026884Y008317D02*
X005861Y008317D01*
X005861Y008358D02*
X005861Y008256D01*
X005822Y008163D01*
X005750Y008091D01*
X005656Y008052D01*
X005555Y008052D01*
X005461Y008091D01*
X005406Y008147D01*
X005350Y008091D01*
X005256Y008052D01*
X005155Y008052D01*
X005061Y008091D01*
X004989Y008163D01*
X004951Y008256D01*
X004951Y008358D01*
X004989Y008452D01*
X005061Y008523D01*
X005155Y008562D01*
X005256Y008562D01*
X005350Y008523D01*
X005406Y008468D01*
X005461Y008523D01*
X005555Y008562D01*
X005656Y008562D01*
X005750Y008523D01*
X005822Y008452D01*
X005861Y008358D01*
X005837Y008415D02*
X028748Y008415D01*
X028748Y008514D02*
X005759Y008514D01*
X005452Y008514D02*
X005359Y008514D01*
X005052Y008514D02*
X003968Y008514D01*
X004006Y008422D02*
X003930Y008606D01*
X003789Y008747D01*
X003605Y008823D01*
X003406Y008823D01*
X003222Y008747D01*
X003082Y008606D01*
X003006Y008422D01*
X003006Y008224D01*
X003082Y008040D01*
X003222Y007899D01*
X003406Y007823D01*
X003605Y007823D01*
X003789Y007899D01*
X003930Y008040D01*
X004006Y008224D01*
X004006Y008422D01*
X004006Y008415D02*
X004975Y008415D01*
X004951Y008317D02*
X004006Y008317D01*
X004004Y008218D02*
X004966Y008218D01*
X005032Y008120D02*
X003963Y008120D01*
X003911Y008021D02*
X026593Y008021D01*
X026581Y007923D02*
X003813Y007923D01*
X003608Y007824D02*
X026581Y007824D01*
X026621Y007726D02*
X025045Y007726D01*
X025132Y007627D02*
X026685Y007627D01*
X026809Y007529D02*
X025161Y007529D01*
X024767Y007726D02*
X002256Y007726D01*
X002256Y007824D02*
X003403Y007824D01*
X003199Y007923D02*
X002256Y007923D01*
X002256Y008021D02*
X003100Y008021D01*
X003049Y008120D02*
X002256Y008120D01*
X002256Y008218D02*
X003008Y008218D01*
X003006Y008317D02*
X002256Y008317D01*
X002256Y008415D02*
X003006Y008415D01*
X003044Y008514D02*
X002256Y008514D01*
X002256Y008613D02*
X003088Y008613D01*
X003187Y008711D02*
X002256Y008711D01*
X002256Y008810D02*
X003374Y008810D01*
X003637Y008810D02*
X007742Y008810D01*
X007765Y008787D02*
X007921Y008722D01*
X008090Y008722D01*
X008246Y008787D01*
X008366Y008906D01*
X008431Y009063D01*
X008431Y009232D01*
X008366Y009388D01*
X008246Y009508D01*
X008090Y009572D01*
X007921Y009572D01*
X007765Y009508D01*
X007645Y009388D01*
X007581Y009232D01*
X007581Y009063D01*
X007645Y008906D01*
X007765Y008787D01*
X007645Y008908D02*
X006667Y008908D01*
X006650Y008891D02*
X006722Y008963D01*
X006761Y009056D01*
X006761Y009158D01*
X006722Y009252D01*
X006650Y009323D01*
X006556Y009362D01*
X006455Y009362D01*
X006361Y009323D01*
X006289Y009252D01*
X006256Y009170D01*
X006222Y009252D01*
X006150Y009323D01*
X006056Y009362D01*
X005955Y009362D01*
X005861Y009323D01*
X005789Y009252D01*
X005751Y009158D01*
X005751Y009056D01*
X005789Y008963D01*
X005861Y008891D01*
X005955Y008852D01*
X006056Y008852D01*
X006150Y008891D01*
X006222Y008963D01*
X006256Y009045D01*
X006289Y008963D01*
X006361Y008891D01*
X006455Y008852D01*
X006556Y008852D01*
X006650Y008891D01*
X006740Y009007D02*
X007604Y009007D01*
X007581Y009105D02*
X006761Y009105D01*
X006742Y009204D02*
X007581Y009204D01*
X007610Y009302D02*
X006671Y009302D01*
X006340Y009302D02*
X006171Y009302D01*
X006242Y009204D02*
X006270Y009204D01*
X006271Y009007D02*
X006240Y009007D01*
X006167Y008908D02*
X006344Y008908D01*
X005844Y008908D02*
X002256Y008908D01*
X002256Y009007D02*
X005771Y009007D01*
X005751Y009105D02*
X002256Y009105D01*
X002256Y009204D02*
X005770Y009204D01*
X005840Y009302D02*
X002256Y009302D01*
X002256Y009401D02*
X007658Y009401D01*
X007757Y009499D02*
X002256Y009499D01*
X002256Y009598D02*
X022882Y009598D01*
X022910Y009607D02*
X022848Y009587D01*
X022791Y009558D01*
X022739Y009520D01*
X022693Y009474D01*
X022655Y009422D01*
X022626Y009365D01*
X022606Y009303D01*
X022596Y009240D01*
X022596Y009237D01*
X022975Y009237D01*
X022975Y009177D01*
X022596Y009177D01*
X022596Y009175D01*
X022606Y009111D01*
X022626Y009050D01*
X022655Y008992D01*
X022693Y008940D01*
X022739Y008894D01*
X022791Y008857D01*
X022848Y008827D01*
X022910Y008807D01*
X022973Y008797D01*
X022976Y008797D01*
X022976Y009177D01*
X023036Y009177D01*
X023036Y009237D01*
X023416Y009237D01*
X023416Y009240D01*
X023406Y009303D01*
X023386Y009365D01*
X023356Y009422D01*
X023318Y009474D01*
X023273Y009520D01*
X023221Y009558D01*
X023163Y009587D01*
X023102Y009607D01*
X023038Y009617D01*
X023036Y009617D01*
X023036Y009237D01*
X022976Y009237D01*
X022976Y009617D01*
X022973Y009617D01*
X022910Y009607D01*
X022976Y009598D02*
X023036Y009598D01*
X023130Y009598D02*
X024651Y009598D01*
X024651Y009556D02*
X024651Y009658D01*
X024689Y009752D01*
X024761Y009823D01*
X024855Y009862D01*
X024956Y009862D01*
X025050Y009823D01*
X025122Y009752D01*
X025156Y009670D01*
X025189Y009752D01*
X025261Y009823D01*
X025355Y009862D01*
X025456Y009862D01*
X025550Y009823D01*
X025622Y009752D01*
X025661Y009658D01*
X025661Y009556D01*
X025622Y009463D01*
X025550Y009391D01*
X025456Y009352D01*
X025355Y009352D01*
X025261Y009391D01*
X025189Y009463D01*
X025156Y009544D01*
X025122Y009463D01*
X025050Y009391D01*
X024956Y009352D01*
X024855Y009352D01*
X024761Y009391D01*
X024689Y009463D01*
X024651Y009556D01*
X024674Y009499D02*
X023293Y009499D01*
X023367Y009401D02*
X024751Y009401D01*
X024667Y009697D02*
X002256Y009697D01*
X002256Y009795D02*
X003398Y009795D01*
X003406Y009791D02*
X003605Y009791D01*
X003789Y009868D01*
X003930Y010008D01*
X004006Y010192D01*
X004006Y010391D01*
X003930Y010575D01*
X003789Y010715D01*
X003605Y010791D01*
X003406Y010791D01*
X003222Y010715D01*
X003082Y010575D01*
X003006Y010391D01*
X003006Y010192D01*
X003082Y010008D01*
X003222Y009868D01*
X003406Y009791D01*
X003614Y009795D02*
X024733Y009795D01*
X025078Y009795D02*
X025233Y009795D01*
X025167Y009697D02*
X025145Y009697D01*
X025137Y009499D02*
X025174Y009499D01*
X025251Y009401D02*
X025060Y009401D01*
X024956Y009062D02*
X024855Y009062D01*
X024761Y009023D01*
X024689Y008952D01*
X024651Y008858D01*
X024651Y008756D01*
X024689Y008663D01*
X024761Y008591D01*
X024855Y008552D01*
X024956Y008552D01*
X025050Y008591D01*
X025122Y008663D01*
X025161Y008756D01*
X025161Y008858D01*
X025122Y008952D01*
X025050Y009023D01*
X024956Y009062D01*
X025067Y009007D02*
X026587Y009007D01*
X026581Y009023D02*
X026645Y008866D01*
X026765Y008747D01*
X026921Y008682D01*
X027090Y008682D01*
X027246Y008747D01*
X027366Y008866D01*
X027431Y009023D01*
X027431Y009192D01*
X027366Y009348D01*
X027246Y009468D01*
X027090Y009532D01*
X026921Y009532D01*
X026765Y009468D01*
X026645Y009348D01*
X026581Y009192D01*
X026581Y009023D01*
X026581Y009105D02*
X023404Y009105D01*
X023406Y009111D02*
X023416Y009175D01*
X023416Y009177D01*
X023036Y009177D01*
X023036Y008797D01*
X023038Y008797D01*
X023102Y008807D01*
X023163Y008827D01*
X023221Y008857D01*
X023273Y008894D01*
X023318Y008940D01*
X023356Y008992D01*
X023386Y009050D01*
X023406Y009111D01*
X023364Y009007D02*
X024745Y009007D01*
X024671Y008908D02*
X023286Y008908D01*
X023109Y008810D02*
X024651Y008810D01*
X024669Y008711D02*
X003825Y008711D01*
X003923Y008613D02*
X024740Y008613D01*
X025072Y008613D02*
X028748Y008613D01*
X028748Y008711D02*
X028160Y008711D01*
X028090Y008682D02*
X028246Y008747D01*
X028366Y008866D01*
X028431Y009023D01*
X028431Y009192D01*
X028366Y009348D01*
X028246Y009468D01*
X028090Y009532D01*
X027921Y009532D01*
X027765Y009468D01*
X027645Y009348D01*
X027581Y009192D01*
X027581Y009023D01*
X027645Y008866D01*
X027765Y008747D01*
X027921Y008682D01*
X028090Y008682D01*
X027851Y008711D02*
X027160Y008711D01*
X027309Y008810D02*
X027702Y008810D01*
X027628Y008908D02*
X027383Y008908D01*
X027424Y009007D02*
X027587Y009007D01*
X027581Y009105D02*
X027431Y009105D01*
X027426Y009204D02*
X027586Y009204D01*
X027626Y009302D02*
X027385Y009302D01*
X027313Y009401D02*
X027698Y009401D01*
X027842Y009499D02*
X027169Y009499D01*
X026842Y009499D02*
X025637Y009499D01*
X025661Y009598D02*
X028748Y009598D01*
X028748Y009697D02*
X025645Y009697D01*
X025578Y009795D02*
X028748Y009795D01*
X028748Y009894D02*
X028118Y009894D01*
X028090Y009882D02*
X028246Y009947D01*
X028366Y010066D01*
X028431Y010223D01*
X028431Y010392D01*
X028366Y010548D01*
X028246Y010668D01*
X028090Y010732D01*
X027921Y010732D01*
X027765Y010668D01*
X027645Y010548D01*
X027581Y010392D01*
X027581Y010223D01*
X027645Y010066D01*
X027765Y009947D01*
X027921Y009882D01*
X028090Y009882D01*
X027894Y009894D02*
X027118Y009894D01*
X027090Y009882D02*
X027246Y009947D01*
X027366Y010066D01*
X027431Y010223D01*
X027431Y010392D01*
X027366Y010548D01*
X027246Y010668D01*
X027090Y010732D01*
X026921Y010732D01*
X026765Y010668D01*
X026645Y010548D01*
X026581Y010392D01*
X026581Y010223D01*
X026645Y010066D01*
X026765Y009947D01*
X026921Y009882D01*
X027090Y009882D01*
X026894Y009894D02*
X006653Y009894D01*
X006650Y009891D02*
X006722Y009963D01*
X006761Y010056D01*
X006761Y010158D01*
X006722Y010252D01*
X006650Y010323D01*
X006556Y010362D01*
X006455Y010362D01*
X006361Y010323D01*
X006289Y010252D01*
X006256Y010170D01*
X006222Y010252D01*
X006150Y010323D01*
X006056Y010362D01*
X005955Y010362D01*
X005861Y010323D01*
X005806Y010268D01*
X005750Y010323D01*
X005656Y010362D01*
X005555Y010362D01*
X005461Y010323D01*
X005406Y010268D01*
X005350Y010323D01*
X005256Y010362D01*
X005155Y010362D01*
X005061Y010323D01*
X004989Y010252D01*
X004951Y010158D01*
X004951Y010056D01*
X004989Y009963D01*
X005061Y009891D01*
X005155Y009852D01*
X005256Y009852D01*
X005350Y009891D01*
X005406Y009947D01*
X005461Y009891D01*
X005555Y009852D01*
X005656Y009852D01*
X005750Y009891D01*
X005806Y009947D01*
X005861Y009891D01*
X005955Y009852D01*
X006056Y009852D01*
X006150Y009891D01*
X006222Y009963D01*
X006256Y010045D01*
X006289Y009963D01*
X006361Y009891D01*
X006455Y009852D01*
X006556Y009852D01*
X006650Y009891D01*
X006734Y009992D02*
X026720Y009992D01*
X026635Y010091D02*
X006761Y010091D01*
X006748Y010189D02*
X026594Y010189D01*
X026581Y010288D02*
X017104Y010288D01*
X017090Y010282D02*
X017246Y010347D01*
X017366Y010466D01*
X017431Y010623D01*
X017431Y010792D01*
X017366Y010948D01*
X017246Y011068D01*
X017090Y011132D01*
X016921Y011132D01*
X016765Y011068D01*
X016645Y010948D01*
X016581Y010792D01*
X016581Y010623D01*
X016645Y010466D01*
X016765Y010347D01*
X016921Y010282D01*
X017090Y010282D01*
X016908Y010288D02*
X014104Y010288D01*
X014090Y010282D02*
X014246Y010347D01*
X014366Y010466D01*
X014431Y010623D01*
X014431Y010792D01*
X014366Y010948D01*
X014246Y011068D01*
X014090Y011132D01*
X013921Y011132D01*
X013765Y011068D01*
X013645Y010948D01*
X013581Y010792D01*
X013581Y010623D01*
X013645Y010466D01*
X013765Y010347D01*
X013921Y010282D01*
X014090Y010282D01*
X013908Y010288D02*
X011104Y010288D01*
X011090Y010282D02*
X011246Y010347D01*
X011366Y010466D01*
X011431Y010623D01*
X011431Y010792D01*
X011366Y010948D01*
X011246Y011068D01*
X011090Y011132D01*
X010921Y011132D01*
X010765Y011068D01*
X010645Y010948D01*
X010581Y010792D01*
X010581Y010623D01*
X010645Y010466D01*
X010765Y010347D01*
X010921Y010282D01*
X011090Y010282D01*
X010908Y010288D02*
X008104Y010288D01*
X008090Y010282D02*
X008246Y010347D01*
X008366Y010466D01*
X008431Y010623D01*
X008431Y010792D01*
X008366Y010948D01*
X008246Y011068D01*
X008090Y011132D01*
X007921Y011132D01*
X007765Y011068D01*
X007645Y010948D01*
X007581Y010792D01*
X007581Y010623D01*
X007645Y010466D01*
X007765Y010347D01*
X007921Y010282D01*
X008090Y010282D01*
X007908Y010288D02*
X006686Y010288D01*
X006326Y010288D02*
X006186Y010288D01*
X006248Y010189D02*
X006264Y010189D01*
X006277Y009992D02*
X006234Y009992D01*
X006153Y009894D02*
X006359Y009894D01*
X005859Y009894D02*
X005753Y009894D01*
X005459Y009894D02*
X005353Y009894D01*
X005059Y009894D02*
X003815Y009894D01*
X003913Y009992D02*
X004977Y009992D01*
X004951Y010091D02*
X003964Y010091D01*
X004004Y010189D02*
X004964Y010189D01*
X005026Y010288D02*
X004006Y010288D01*
X004006Y010386D02*
X007726Y010386D01*
X007638Y010485D02*
X003967Y010485D01*
X003921Y010583D02*
X007597Y010583D01*
X007581Y010682D02*
X003822Y010682D01*
X003632Y010781D02*
X007581Y010781D01*
X007617Y010879D02*
X002256Y010879D01*
X002256Y010781D02*
X003380Y010781D01*
X003189Y010682D02*
X002256Y010682D01*
X002256Y010583D02*
X003091Y010583D01*
X003045Y010485D02*
X002256Y010485D01*
X002256Y010386D02*
X003006Y010386D01*
X003006Y010288D02*
X002256Y010288D01*
X002256Y010189D02*
X003007Y010189D01*
X003048Y010091D02*
X002256Y010091D01*
X002256Y009992D02*
X003098Y009992D01*
X003196Y009894D02*
X002256Y009894D01*
X002256Y010978D02*
X007675Y010978D01*
X007786Y011076D02*
X002256Y011076D01*
X002256Y011175D02*
X028748Y011175D01*
X028748Y011273D02*
X002256Y011273D01*
X002256Y011372D02*
X028748Y011372D01*
X028748Y011470D02*
X002256Y011470D01*
X002256Y011569D02*
X028748Y011569D01*
X028748Y011667D02*
X002256Y011667D01*
X002256Y011766D02*
X028748Y011766D01*
X028748Y011864D02*
X028264Y011864D01*
X028246Y011847D02*
X028366Y011966D01*
X028431Y012123D01*
X028431Y012292D01*
X028366Y012448D01*
X028246Y012568D01*
X028090Y012632D01*
X027921Y012632D01*
X027765Y012568D01*
X027645Y012448D01*
X027581Y012292D01*
X027581Y012123D01*
X027645Y011966D01*
X027765Y011847D01*
X027921Y011782D01*
X028090Y011782D01*
X028246Y011847D01*
X028362Y011963D02*
X028748Y011963D01*
X028748Y012062D02*
X028405Y012062D01*
X028431Y012160D02*
X028748Y012160D01*
X028748Y012259D02*
X028431Y012259D01*
X028404Y012357D02*
X028748Y012357D01*
X028748Y012456D02*
X028358Y012456D01*
X028260Y012554D02*
X028748Y012554D01*
X028748Y012653D02*
X017266Y012653D01*
X017249Y012665D02*
X017184Y012698D01*
X017115Y012721D01*
X017056Y012730D01*
X017056Y012317D01*
X017469Y012317D01*
X017459Y012376D01*
X017437Y012446D01*
X017403Y012511D01*
X017360Y012570D01*
X017309Y012622D01*
X017249Y012665D01*
X017372Y012554D02*
X026752Y012554D01*
X026765Y012568D02*
X026645Y012448D01*
X026581Y012292D01*
X026581Y012123D01*
X026645Y011966D01*
X026765Y011847D01*
X026921Y011782D01*
X027090Y011782D01*
X027246Y011847D01*
X027366Y011966D01*
X027431Y012123D01*
X027431Y012292D01*
X027366Y012448D01*
X027246Y012568D01*
X027090Y012632D01*
X026921Y012632D01*
X026765Y012568D01*
X026653Y012456D02*
X017431Y012456D01*
X017462Y012357D02*
X026608Y012357D01*
X026581Y012259D02*
X017056Y012259D01*
X017056Y012217D02*
X017056Y012317D01*
X016956Y012317D01*
X016956Y012730D01*
X016897Y012721D01*
X016827Y012698D01*
X016762Y012665D01*
X016703Y012622D01*
X016651Y012570D01*
X016608Y012511D01*
X016575Y012446D01*
X016552Y012376D01*
X016543Y012317D01*
X016955Y012317D01*
X016955Y012217D01*
X016543Y012217D01*
X016552Y012158D01*
X016575Y012089D01*
X016608Y012024D01*
X016651Y011964D01*
X016703Y011913D01*
X016762Y011870D01*
X016827Y011836D01*
X016897Y011814D01*
X016956Y011804D01*
X016956Y012217D01*
X017056Y012217D01*
X017469Y012217D01*
X017459Y012158D01*
X017437Y012089D01*
X017403Y012024D01*
X017360Y011964D01*
X017309Y011913D01*
X017249Y011870D01*
X017184Y011836D01*
X017115Y011814D01*
X017056Y011804D01*
X017056Y012217D01*
X017056Y012160D02*
X016956Y012160D01*
X016956Y012062D02*
X017056Y012062D01*
X017056Y011963D02*
X016956Y011963D01*
X016956Y011864D02*
X017056Y011864D01*
X017239Y011864D02*
X026747Y011864D01*
X026649Y011963D02*
X017359Y011963D01*
X017423Y012062D02*
X026606Y012062D01*
X026581Y012160D02*
X017459Y012160D01*
X017056Y012357D02*
X016956Y012357D01*
X016955Y012259D02*
X014056Y012259D01*
X014056Y012217D02*
X014056Y012317D01*
X014469Y012317D01*
X014459Y012376D01*
X014437Y012446D01*
X014403Y012511D01*
X014360Y012570D01*
X014309Y012622D01*
X014249Y012665D01*
X014184Y012698D01*
X014115Y012721D01*
X014056Y012730D01*
X014056Y012317D01*
X013956Y012317D01*
X013956Y012730D01*
X013897Y012721D01*
X013827Y012698D01*
X013762Y012665D01*
X013703Y012622D01*
X013651Y012570D01*
X013608Y012511D01*
X013575Y012446D01*
X013552Y012376D01*
X013543Y012317D01*
X013955Y012317D01*
X013955Y012217D01*
X013543Y012217D01*
X013552Y012158D01*
X013575Y012089D01*
X013608Y012024D01*
X013651Y011964D01*
X013703Y011913D01*
X013762Y011870D01*
X013827Y011836D01*
X013897Y011814D01*
X013956Y011804D01*
X013956Y012217D01*
X014056Y012217D01*
X014469Y012217D01*
X014459Y012158D01*
X014437Y012089D01*
X014403Y012024D01*
X014360Y011964D01*
X014309Y011913D01*
X014249Y011870D01*
X014184Y011836D01*
X014115Y011814D01*
X014056Y011804D01*
X014056Y012217D01*
X014056Y012160D02*
X013956Y012160D01*
X013956Y012062D02*
X014056Y012062D01*
X014056Y011963D02*
X013956Y011963D01*
X013956Y011864D02*
X014056Y011864D01*
X014239Y011864D02*
X016772Y011864D01*
X016652Y011963D02*
X014359Y011963D01*
X014423Y012062D02*
X016589Y012062D01*
X016552Y012160D02*
X014459Y012160D01*
X014462Y012357D02*
X016549Y012357D01*
X016580Y012456D02*
X014431Y012456D01*
X014372Y012554D02*
X016639Y012554D01*
X016745Y012653D02*
X014266Y012653D01*
X014056Y012653D02*
X013956Y012653D01*
X013956Y012554D02*
X014056Y012554D01*
X014056Y012456D02*
X013956Y012456D01*
X013956Y012357D02*
X014056Y012357D01*
X013955Y012259D02*
X011056Y012259D01*
X011056Y012217D02*
X011056Y012317D01*
X011469Y012317D01*
X011459Y012376D01*
X011437Y012446D01*
X011403Y012511D01*
X011360Y012570D01*
X011309Y012622D01*
X011249Y012665D01*
X011184Y012698D01*
X011115Y012721D01*
X011056Y012730D01*
X011056Y012317D01*
X010956Y012317D01*
X010956Y012730D01*
X010897Y012721D01*
X010827Y012698D01*
X010762Y012665D01*
X010703Y012622D01*
X010651Y012570D01*
X010608Y012511D01*
X010575Y012446D01*
X010552Y012376D01*
X010543Y012317D01*
X010955Y012317D01*
X010955Y012217D01*
X010543Y012217D01*
X010552Y012158D01*
X010575Y012089D01*
X010608Y012024D01*
X010651Y011964D01*
X010703Y011913D01*
X010762Y011870D01*
X010827Y011836D01*
X010897Y011814D01*
X010956Y011804D01*
X010956Y012217D01*
X011056Y012217D01*
X011469Y012217D01*
X011459Y012158D01*
X011437Y012089D01*
X011403Y012024D01*
X011360Y011964D01*
X011309Y011913D01*
X011249Y011870D01*
X011184Y011836D01*
X011115Y011814D01*
X011056Y011804D01*
X011056Y012217D01*
X011056Y012160D02*
X010956Y012160D01*
X010956Y012062D02*
X011056Y012062D01*
X011056Y011963D02*
X010956Y011963D01*
X010956Y011864D02*
X011056Y011864D01*
X011239Y011864D02*
X013772Y011864D01*
X013652Y011963D02*
X011359Y011963D01*
X011423Y012062D02*
X013589Y012062D01*
X013552Y012160D02*
X011459Y012160D01*
X011462Y012357D02*
X013549Y012357D01*
X013580Y012456D02*
X011431Y012456D01*
X011372Y012554D02*
X013639Y012554D01*
X013745Y012653D02*
X011266Y012653D01*
X011056Y012653D02*
X010956Y012653D01*
X010956Y012554D02*
X011056Y012554D01*
X011056Y012456D02*
X010956Y012456D01*
X010956Y012357D02*
X011056Y012357D01*
X010955Y012259D02*
X008056Y012259D01*
X008056Y012217D02*
X008056Y012317D01*
X008469Y012317D01*
X008459Y012376D01*
X008437Y012446D01*
X008403Y012511D01*
X008360Y012570D01*
X008309Y012622D01*
X008249Y012665D01*
X008184Y012698D01*
X008115Y012721D01*
X008056Y012730D01*
X008056Y012317D01*
X007956Y012317D01*
X007956Y012730D01*
X007897Y012721D01*
X007827Y012698D01*
X007762Y012665D01*
X007703Y012622D01*
X007651Y012570D01*
X007608Y012511D01*
X007575Y012446D01*
X007552Y012376D01*
X007543Y012317D01*
X007955Y012317D01*
X007955Y012217D01*
X007543Y012217D01*
X007552Y012158D01*
X007575Y012089D01*
X007608Y012024D01*
X007651Y011964D01*
X007703Y011913D01*
X007762Y011870D01*
X007827Y011836D01*
X007897Y011814D01*
X007956Y011804D01*
X007956Y012217D01*
X008056Y012217D01*
X008469Y012217D01*
X008459Y012158D01*
X008437Y012089D01*
X008403Y012024D01*
X008360Y011964D01*
X008309Y011913D01*
X008249Y011870D01*
X008184Y011836D01*
X008115Y011814D01*
X008056Y011804D01*
X008056Y012217D01*
X008056Y012160D02*
X007956Y012160D01*
X007956Y012062D02*
X008056Y012062D01*
X008056Y011963D02*
X007956Y011963D01*
X007956Y011864D02*
X008056Y011864D01*
X008239Y011864D02*
X010772Y011864D01*
X010652Y011963D02*
X008359Y011963D01*
X008423Y012062D02*
X010589Y012062D01*
X010552Y012160D02*
X008459Y012160D01*
X008462Y012357D02*
X010549Y012357D01*
X010580Y012456D02*
X008431Y012456D01*
X008372Y012554D02*
X010639Y012554D01*
X010745Y012653D02*
X008266Y012653D01*
X008056Y012653D02*
X007956Y012653D01*
X007956Y012554D02*
X008056Y012554D01*
X008056Y012456D02*
X007956Y012456D01*
X007956Y012357D02*
X008056Y012357D01*
X007955Y012259D02*
X003937Y012259D01*
X003930Y012240D02*
X004006Y012424D01*
X004006Y012622D01*
X003930Y012806D01*
X003789Y012947D01*
X003605Y013023D01*
X003406Y013023D01*
X003222Y012947D01*
X003082Y012806D01*
X003006Y012622D01*
X003006Y012424D01*
X003082Y012240D01*
X003222Y012099D01*
X003406Y012023D01*
X003605Y012023D01*
X003789Y012099D01*
X003930Y012240D01*
X003850Y012160D02*
X007552Y012160D01*
X007589Y012062D02*
X003698Y012062D01*
X003313Y012062D02*
X002256Y012062D01*
X002256Y012160D02*
X003161Y012160D01*
X003074Y012259D02*
X002256Y012259D01*
X002256Y012357D02*
X003033Y012357D01*
X003006Y012456D02*
X002256Y012456D01*
X002256Y012554D02*
X003006Y012554D01*
X003018Y012653D02*
X002256Y012653D01*
X002256Y012751D02*
X003059Y012751D01*
X003126Y012850D02*
X002256Y012850D01*
X002256Y012948D02*
X003226Y012948D01*
X003785Y012948D02*
X004988Y012948D01*
X004989Y012952D02*
X004951Y012858D01*
X004951Y012756D01*
X004989Y012663D01*
X005061Y012591D01*
X005155Y012552D01*
X005256Y012552D01*
X005350Y012591D01*
X005406Y012647D01*
X005461Y012591D01*
X005555Y012552D01*
X005656Y012552D01*
X005750Y012591D01*
X005822Y012663D01*
X005861Y012756D01*
X005861Y012858D01*
X005822Y012952D01*
X005750Y013023D01*
X005656Y013062D01*
X005555Y013062D01*
X005461Y013023D01*
X005406Y012968D01*
X005350Y013023D01*
X005256Y013062D01*
X005155Y013062D01*
X005061Y013023D01*
X004989Y012952D01*
X004951Y012850D02*
X003886Y012850D01*
X003952Y012751D02*
X004953Y012751D01*
X004999Y012653D02*
X003993Y012653D01*
X004006Y012554D02*
X005150Y012554D01*
X005261Y012554D02*
X005550Y012554D01*
X005661Y012554D02*
X007639Y012554D01*
X007580Y012456D02*
X004006Y012456D01*
X003978Y012357D02*
X007549Y012357D01*
X007652Y011963D02*
X002256Y011963D01*
X002256Y011864D02*
X007772Y011864D01*
X008226Y011076D02*
X010786Y011076D01*
X010675Y010978D02*
X008336Y010978D01*
X008394Y010879D02*
X010617Y010879D01*
X010581Y010781D02*
X008431Y010781D01*
X008431Y010682D02*
X010581Y010682D01*
X010597Y010583D02*
X008414Y010583D01*
X008374Y010485D02*
X010638Y010485D01*
X010726Y010386D02*
X008286Y010386D01*
X008254Y009499D02*
X010757Y009499D01*
X010765Y009508D02*
X010645Y009388D01*
X010581Y009232D01*
X010581Y009063D01*
X010645Y008906D01*
X010765Y008787D01*
X010921Y008722D01*
X011090Y008722D01*
X011246Y008787D01*
X011366Y008906D01*
X011431Y009063D01*
X011431Y009232D01*
X011366Y009388D01*
X011246Y009508D01*
X011090Y009572D01*
X010921Y009572D01*
X010765Y009508D01*
X010658Y009401D02*
X008353Y009401D01*
X008401Y009302D02*
X010610Y009302D01*
X010581Y009204D02*
X008431Y009204D01*
X008431Y009105D02*
X010581Y009105D01*
X010604Y009007D02*
X008407Y009007D01*
X008367Y008908D02*
X010645Y008908D01*
X010742Y008810D02*
X008269Y008810D01*
X005845Y008218D02*
X026716Y008218D01*
X026634Y008120D02*
X005779Y008120D01*
X005432Y008120D02*
X005379Y008120D01*
X005386Y010288D02*
X005426Y010288D01*
X005786Y010288D02*
X005826Y010288D01*
X005812Y012653D02*
X007745Y012653D01*
X006722Y013463D02*
X006761Y013556D01*
X006761Y013658D01*
X006722Y013752D01*
X006650Y013823D01*
X006556Y013862D01*
X006455Y013862D01*
X006361Y013823D01*
X006289Y013752D01*
X006256Y013670D01*
X006222Y013752D01*
X006150Y013823D01*
X006056Y013862D01*
X005955Y013862D01*
X005861Y013823D01*
X005789Y013752D01*
X005751Y013658D01*
X005751Y013556D01*
X005789Y013463D01*
X005861Y013391D01*
X005955Y013352D01*
X006056Y013352D01*
X006150Y013391D01*
X006222Y013463D01*
X006256Y013545D01*
X006289Y013463D01*
X006361Y013391D01*
X006455Y013352D01*
X006556Y013352D01*
X006650Y013391D01*
X006722Y013463D01*
X006700Y013441D02*
X026643Y013441D01*
X026645Y013448D02*
X026581Y013292D01*
X026581Y013123D01*
X026645Y012966D01*
X026765Y012847D01*
X026921Y012782D01*
X027090Y012782D01*
X027246Y012847D01*
X027366Y012966D01*
X027431Y013123D01*
X027431Y013292D01*
X027366Y013448D01*
X027246Y013568D01*
X027090Y013632D01*
X026921Y013632D01*
X026765Y013568D01*
X026645Y013448D01*
X026602Y013343D02*
X002256Y013343D01*
X002256Y013441D02*
X005811Y013441D01*
X005758Y013540D02*
X002256Y013540D01*
X002256Y013638D02*
X005751Y013638D01*
X005783Y013737D02*
X002256Y013737D01*
X002256Y013835D02*
X005890Y013835D01*
X006121Y013835D02*
X006390Y013835D01*
X006283Y013737D02*
X006228Y013737D01*
X006254Y013540D02*
X006258Y013540D01*
X006311Y013441D02*
X006200Y013441D01*
X006621Y013835D02*
X026793Y013835D01*
X026765Y013847D02*
X026921Y013782D01*
X027090Y013782D01*
X027246Y013847D01*
X027366Y013966D01*
X027431Y014123D01*
X027431Y014292D01*
X027366Y014448D01*
X027246Y014568D01*
X027090Y014632D01*
X026921Y014632D01*
X026765Y014568D01*
X026645Y014448D01*
X026581Y014292D01*
X026581Y014123D01*
X026645Y013966D01*
X026765Y013847D01*
X026678Y013934D02*
X002256Y013934D01*
X002256Y014032D02*
X003307Y014032D01*
X003222Y014068D02*
X003406Y013991D01*
X003605Y013991D01*
X003789Y014068D01*
X003930Y014208D01*
X004006Y014392D01*
X004006Y014591D01*
X003930Y014775D01*
X003789Y014915D01*
X003605Y014991D01*
X003406Y014991D01*
X003222Y014915D01*
X003082Y014775D01*
X003006Y014591D01*
X003006Y014392D01*
X003082Y014208D01*
X003222Y014068D01*
X003159Y014131D02*
X002256Y014131D01*
X002256Y014230D02*
X003073Y014230D01*
X003032Y014328D02*
X002256Y014328D01*
X002256Y014427D02*
X003006Y014427D01*
X003006Y014525D02*
X002256Y014525D01*
X002256Y014624D02*
X003019Y014624D01*
X003060Y014722D02*
X002256Y014722D01*
X002256Y014821D02*
X003128Y014821D01*
X003232Y014919D02*
X002256Y014919D01*
X002256Y015018D02*
X020776Y015018D01*
X020776Y015116D02*
X002256Y015116D01*
X002256Y015215D02*
X020776Y015215D01*
X020776Y015314D02*
X002256Y015314D01*
X002256Y015412D02*
X020776Y015412D01*
X020776Y015511D02*
X002256Y015511D01*
X002256Y015609D02*
X020776Y015609D01*
X020776Y015708D02*
X016167Y015708D01*
X016150Y015691D02*
X016222Y015763D01*
X016261Y015856D01*
X016261Y015958D01*
X016222Y016052D01*
X016150Y016123D01*
X016056Y016162D01*
X015955Y016162D01*
X015861Y016123D01*
X015789Y016052D01*
X015751Y015958D01*
X015751Y015856D01*
X015789Y015763D01*
X015861Y015691D01*
X015955Y015652D01*
X016056Y015652D01*
X016150Y015691D01*
X016240Y015806D02*
X020776Y015806D01*
X020776Y015905D02*
X016261Y015905D01*
X016242Y016003D02*
X018049Y016003D01*
X018061Y015991D02*
X018155Y015952D01*
X018256Y015952D01*
X018350Y015991D01*
X018422Y016063D01*
X018461Y016156D01*
X018461Y016258D01*
X018422Y016352D01*
X018350Y016423D01*
X018256Y016462D01*
X018155Y016462D01*
X018061Y016423D01*
X017989Y016352D01*
X017951Y016258D01*
X017951Y016156D01*
X017989Y016063D01*
X018061Y015991D01*
X017973Y016102D02*
X016172Y016102D01*
X015840Y016102D02*
X014461Y016102D01*
X014450Y016091D02*
X014522Y016163D01*
X014561Y016256D01*
X014561Y016358D01*
X014522Y016452D01*
X014450Y016523D01*
X014356Y016562D01*
X014255Y016562D01*
X014161Y016523D01*
X014089Y016452D01*
X014051Y016358D01*
X014051Y016256D01*
X014089Y016163D01*
X014161Y016091D01*
X014255Y016052D01*
X014356Y016052D01*
X014450Y016091D01*
X014537Y016200D02*
X017951Y016200D01*
X017968Y016299D02*
X014561Y016299D01*
X014544Y016397D02*
X018035Y016397D01*
X018376Y016397D02*
X020776Y016397D01*
X020776Y016299D02*
X018444Y016299D01*
X018461Y016200D02*
X020776Y016200D01*
X020776Y016102D02*
X018438Y016102D01*
X018362Y016003D02*
X020776Y016003D01*
X020776Y016496D02*
X014477Y016496D01*
X014134Y016496D02*
X007778Y016496D01*
X007766Y016466D02*
X007831Y016623D01*
X007831Y016792D01*
X007766Y016948D01*
X007646Y017068D01*
X007490Y017132D01*
X007321Y017132D01*
X007165Y017068D01*
X007045Y016948D01*
X006981Y016792D01*
X006981Y016623D01*
X007045Y016466D01*
X007165Y016347D01*
X007321Y016282D01*
X007490Y016282D01*
X007646Y016347D01*
X007766Y016466D01*
X007697Y016397D02*
X014067Y016397D01*
X014051Y016299D02*
X007530Y016299D01*
X007281Y016299D02*
X003788Y016299D01*
X003789Y016299D02*
X003930Y016440D01*
X004006Y016624D01*
X004006Y016822D01*
X003930Y017006D01*
X003789Y017147D01*
X003605Y017223D01*
X003406Y017223D01*
X003222Y017147D01*
X003082Y017006D01*
X003006Y016822D01*
X003006Y016624D01*
X003082Y016440D01*
X003222Y016299D01*
X003406Y016223D01*
X003605Y016223D01*
X003789Y016299D01*
X003887Y016397D02*
X007114Y016397D01*
X007033Y016496D02*
X003953Y016496D01*
X003994Y016595D02*
X006992Y016595D01*
X006981Y016693D02*
X004006Y016693D01*
X004006Y016792D02*
X006981Y016792D01*
X007021Y016890D02*
X003978Y016890D01*
X003937Y016989D02*
X007086Y016989D01*
X007213Y017087D02*
X003848Y017087D01*
X003695Y017186D02*
X013651Y017186D01*
X013651Y017156D02*
X013651Y017258D01*
X013689Y017352D01*
X013761Y017423D01*
X013855Y017462D01*
X013956Y017462D01*
X014050Y017423D01*
X014122Y017352D01*
X014161Y017258D01*
X014161Y017156D01*
X014122Y017063D01*
X014050Y016991D01*
X013956Y016952D01*
X013855Y016952D01*
X013761Y016991D01*
X013689Y017063D01*
X013651Y017156D01*
X013679Y017087D02*
X007599Y017087D01*
X007725Y016989D02*
X013767Y016989D01*
X014044Y016989D02*
X014827Y016989D01*
X014861Y017023D02*
X014789Y016952D01*
X014751Y016858D01*
X014751Y016756D01*
X014789Y016663D01*
X014861Y016591D01*
X014955Y016552D01*
X015056Y016552D01*
X015150Y016591D01*
X015222Y016663D01*
X015261Y016756D01*
X015261Y016858D01*
X015222Y016952D01*
X015150Y017023D01*
X015056Y017062D01*
X014955Y017062D01*
X014861Y017023D01*
X014764Y016890D02*
X007790Y016890D01*
X007831Y016792D02*
X014751Y016792D01*
X014777Y016693D02*
X007831Y016693D01*
X007819Y016595D02*
X014858Y016595D01*
X015154Y016595D02*
X020776Y016595D01*
X020776Y016693D02*
X018652Y016693D01*
X018650Y016691D02*
X018722Y016763D01*
X018761Y016856D01*
X018761Y016958D01*
X018722Y017052D01*
X018650Y017123D01*
X018556Y017162D01*
X018455Y017162D01*
X018361Y017123D01*
X018289Y017052D01*
X018251Y016958D01*
X018251Y016856D01*
X018289Y016763D01*
X018361Y016691D01*
X018455Y016652D01*
X018556Y016652D01*
X018650Y016691D01*
X018734Y016792D02*
X020776Y016792D01*
X020776Y016890D02*
X018761Y016890D01*
X018748Y016989D02*
X020776Y016989D01*
X020776Y017087D02*
X018686Y017087D01*
X018550Y017391D02*
X018622Y017463D01*
X018661Y017556D01*
X018661Y017658D01*
X018622Y017752D01*
X018550Y017823D01*
X018456Y017862D01*
X018355Y017862D01*
X018261Y017823D01*
X018189Y017752D01*
X018151Y017658D01*
X018151Y017556D01*
X018189Y017463D01*
X018261Y017391D01*
X018355Y017352D01*
X018456Y017352D01*
X018550Y017391D01*
X018530Y017383D02*
X020776Y017383D01*
X020776Y017481D02*
X018630Y017481D01*
X018661Y017580D02*
X020776Y017580D01*
X020776Y017679D02*
X018652Y017679D01*
X018596Y017777D02*
X020776Y017777D01*
X020776Y017876D02*
X015798Y017876D01*
X015822Y017852D02*
X015750Y017923D01*
X015656Y017962D01*
X015580Y017962D01*
X015650Y017991D01*
X015722Y018063D01*
X015761Y018156D01*
X015761Y018258D01*
X015722Y018352D01*
X015650Y018423D01*
X015568Y018457D01*
X015650Y018491D01*
X015722Y018563D01*
X015761Y018656D01*
X015761Y018758D01*
X015722Y018852D01*
X015650Y018923D01*
X015556Y018962D01*
X015455Y018962D01*
X015361Y018923D01*
X015289Y018852D01*
X015251Y018758D01*
X015251Y018656D01*
X015289Y018563D01*
X015361Y018491D01*
X015443Y018457D01*
X015361Y018423D01*
X015289Y018352D01*
X015251Y018258D01*
X015251Y018156D01*
X015289Y018063D01*
X015361Y017991D01*
X015455Y017952D01*
X015531Y017952D01*
X015461Y017923D01*
X015389Y017852D01*
X015351Y017758D01*
X015351Y017656D01*
X015389Y017563D01*
X015461Y017491D01*
X015555Y017452D01*
X015656Y017452D01*
X015750Y017491D01*
X015822Y017563D01*
X015861Y017656D01*
X015861Y017758D01*
X015822Y017852D01*
X015853Y017777D02*
X018215Y017777D01*
X018159Y017679D02*
X015861Y017679D01*
X015829Y017580D02*
X018151Y017580D01*
X018182Y017481D02*
X015727Y017481D01*
X015484Y017481D02*
X013130Y017481D01*
X013122Y017463D02*
X013161Y017556D01*
X013161Y017658D01*
X013122Y017752D01*
X013050Y017823D01*
X012956Y017862D01*
X012855Y017862D01*
X012761Y017823D01*
X012689Y017752D01*
X012651Y017658D01*
X012651Y017556D01*
X012689Y017463D01*
X012761Y017391D01*
X012855Y017352D01*
X012956Y017352D01*
X013050Y017391D01*
X013122Y017463D01*
X013030Y017383D02*
X013721Y017383D01*
X013662Y017284D02*
X007495Y017284D01*
X007490Y017282D02*
X007646Y017347D01*
X007766Y017466D01*
X007831Y017623D01*
X007831Y017792D01*
X007766Y017948D01*
X007646Y018068D01*
X007490Y018132D01*
X007321Y018132D01*
X007165Y018068D01*
X007045Y017948D01*
X006981Y017792D01*
X006981Y017623D01*
X007045Y017466D01*
X007165Y017347D01*
X007321Y017282D01*
X007490Y017282D01*
X007316Y017284D02*
X002256Y017284D01*
X002256Y017186D02*
X003317Y017186D01*
X003163Y017087D02*
X002256Y017087D01*
X002256Y016989D02*
X003075Y016989D01*
X003034Y016890D02*
X002256Y016890D01*
X002256Y016792D02*
X003006Y016792D01*
X003006Y016693D02*
X002256Y016693D01*
X002256Y016595D02*
X003018Y016595D01*
X003058Y016496D02*
X002256Y016496D01*
X002256Y016397D02*
X003124Y016397D01*
X003223Y016299D02*
X002256Y016299D01*
X002256Y016200D02*
X014074Y016200D01*
X014150Y016102D02*
X002256Y016102D01*
X002256Y016003D02*
X015769Y016003D01*
X015751Y015905D02*
X002256Y015905D01*
X002256Y015806D02*
X015771Y015806D01*
X015845Y015708D02*
X002256Y015708D01*
X003779Y014919D02*
X020776Y014919D01*
X020776Y014821D02*
X015853Y014821D01*
X015850Y014823D02*
X015756Y014862D01*
X015655Y014862D01*
X015561Y014823D01*
X015489Y014752D01*
X015451Y014658D01*
X015451Y014556D01*
X015489Y014463D01*
X015561Y014391D01*
X015655Y014352D01*
X015756Y014352D01*
X015850Y014391D01*
X015922Y014463D01*
X015961Y014556D01*
X015961Y014658D01*
X015922Y014752D01*
X015850Y014823D01*
X015934Y014722D02*
X020776Y014722D01*
X020776Y014624D02*
X015961Y014624D01*
X015948Y014525D02*
X020776Y014525D01*
X020776Y014427D02*
X015886Y014427D01*
X015526Y014427D02*
X006686Y014427D01*
X006722Y014463D02*
X006761Y014556D01*
X006761Y014658D01*
X006722Y014752D01*
X006650Y014823D01*
X006556Y014862D01*
X006455Y014862D01*
X006361Y014823D01*
X006289Y014752D01*
X006256Y014670D01*
X006222Y014752D01*
X006150Y014823D01*
X006056Y014862D01*
X005955Y014862D01*
X005861Y014823D01*
X005806Y014768D01*
X005750Y014823D01*
X005656Y014862D01*
X005555Y014862D01*
X005461Y014823D01*
X005406Y014768D01*
X005350Y014823D01*
X005256Y014862D01*
X005155Y014862D01*
X005061Y014823D01*
X004989Y014752D01*
X004951Y014658D01*
X004951Y014556D01*
X004989Y014463D01*
X005061Y014391D01*
X005155Y014352D01*
X005256Y014352D01*
X005350Y014391D01*
X005406Y014447D01*
X005461Y014391D01*
X005555Y014352D01*
X005656Y014352D01*
X005750Y014391D01*
X005806Y014447D01*
X005861Y014391D01*
X005955Y014352D01*
X006056Y014352D01*
X006150Y014391D01*
X006222Y014463D01*
X006256Y014545D01*
X006289Y014463D01*
X006361Y014391D01*
X006455Y014352D01*
X006556Y014352D01*
X006650Y014391D01*
X006722Y014463D01*
X006748Y014525D02*
X015464Y014525D01*
X015451Y014624D02*
X006761Y014624D01*
X006734Y014722D02*
X015477Y014722D01*
X015559Y014821D02*
X006653Y014821D01*
X006359Y014821D02*
X006153Y014821D01*
X006234Y014722D02*
X006277Y014722D01*
X006264Y014525D02*
X006248Y014525D01*
X006186Y014427D02*
X006326Y014427D01*
X005826Y014427D02*
X005786Y014427D01*
X005426Y014427D02*
X005386Y014427D01*
X005026Y014427D02*
X004006Y014427D01*
X004006Y014525D02*
X004964Y014525D01*
X004951Y014624D02*
X003992Y014624D01*
X003951Y014722D02*
X004977Y014722D01*
X005059Y014821D02*
X003883Y014821D01*
X003979Y014328D02*
X020776Y014328D01*
X020776Y014230D02*
X003938Y014230D01*
X003852Y014131D02*
X020776Y014131D01*
X020776Y014053D02*
X020852Y013977D01*
X023159Y013977D01*
X023236Y014053D01*
X023236Y019361D01*
X023159Y019437D01*
X020852Y019437D01*
X020776Y019361D01*
X020776Y014053D01*
X020797Y014032D02*
X003704Y014032D01*
X002256Y013244D02*
X026581Y013244D01*
X026581Y013146D02*
X002256Y013146D01*
X002256Y013047D02*
X005118Y013047D01*
X005293Y013047D02*
X005518Y013047D01*
X005693Y013047D02*
X026612Y013047D01*
X026663Y012948D02*
X005823Y012948D01*
X005861Y012850D02*
X026762Y012850D01*
X027249Y012850D02*
X027762Y012850D01*
X027765Y012847D02*
X027921Y012782D01*
X028090Y012782D01*
X028246Y012847D01*
X028366Y012966D01*
X028431Y013123D01*
X028431Y013292D01*
X028366Y013448D01*
X028246Y013568D01*
X028090Y013632D01*
X027921Y013632D01*
X027765Y013568D01*
X027645Y013448D01*
X027581Y013292D01*
X027581Y013123D01*
X027645Y012966D01*
X027765Y012847D01*
X027663Y012948D02*
X027348Y012948D01*
X027399Y013047D02*
X027612Y013047D01*
X027581Y013146D02*
X027431Y013146D01*
X027431Y013244D02*
X027581Y013244D01*
X027602Y013343D02*
X027410Y013343D01*
X027369Y013441D02*
X027643Y013441D01*
X027737Y013540D02*
X027274Y013540D01*
X027218Y013835D02*
X027793Y013835D01*
X027765Y013847D02*
X027921Y013782D01*
X028090Y013782D01*
X028246Y013847D01*
X028366Y013966D01*
X028431Y014123D01*
X028431Y014292D01*
X028366Y014448D01*
X028246Y014568D01*
X028090Y014632D01*
X027921Y014632D01*
X027765Y014568D01*
X027645Y014448D01*
X027581Y014292D01*
X027581Y014123D01*
X027645Y013966D01*
X027765Y013847D01*
X027678Y013934D02*
X027333Y013934D01*
X027393Y014032D02*
X027618Y014032D01*
X027581Y014131D02*
X027431Y014131D01*
X027431Y014230D02*
X027581Y014230D01*
X027596Y014328D02*
X027416Y014328D01*
X027375Y014427D02*
X027637Y014427D01*
X027723Y014525D02*
X027289Y014525D01*
X027111Y014624D02*
X027901Y014624D01*
X028111Y014624D02*
X028748Y014624D01*
X028748Y014722D02*
X023236Y014722D01*
X023236Y014624D02*
X026901Y014624D01*
X026723Y014525D02*
X023236Y014525D01*
X023236Y014427D02*
X026637Y014427D01*
X026596Y014328D02*
X023236Y014328D01*
X023236Y014230D02*
X026581Y014230D01*
X026581Y014131D02*
X023236Y014131D01*
X023215Y014032D02*
X026618Y014032D01*
X026737Y013540D02*
X006754Y013540D01*
X006761Y013638D02*
X028748Y013638D01*
X028748Y013540D02*
X028274Y013540D01*
X028369Y013441D02*
X028748Y013441D01*
X028748Y013343D02*
X028410Y013343D01*
X028431Y013244D02*
X028748Y013244D01*
X028748Y013146D02*
X028431Y013146D01*
X028399Y013047D02*
X028748Y013047D01*
X028748Y012948D02*
X028348Y012948D01*
X028249Y012850D02*
X028748Y012850D01*
X028748Y012751D02*
X005859Y012751D01*
X006728Y013737D02*
X028748Y013737D01*
X028748Y013835D02*
X028218Y013835D01*
X028333Y013934D02*
X028748Y013934D01*
X028748Y014032D02*
X028393Y014032D01*
X028431Y014131D02*
X028748Y014131D01*
X028748Y014230D02*
X028431Y014230D01*
X028416Y014328D02*
X028748Y014328D01*
X028748Y014427D02*
X028375Y014427D01*
X028289Y014525D02*
X028748Y014525D01*
X028748Y014821D02*
X023236Y014821D01*
X023236Y014919D02*
X028748Y014919D01*
X028748Y015018D02*
X023236Y015018D01*
X023236Y015116D02*
X028748Y015116D01*
X028748Y015215D02*
X023236Y015215D01*
X023236Y015314D02*
X028748Y015314D01*
X028748Y015412D02*
X023236Y015412D01*
X023236Y015511D02*
X028748Y015511D01*
X028748Y015609D02*
X023236Y015609D01*
X023236Y015708D02*
X028748Y015708D01*
X028748Y015806D02*
X028243Y015806D01*
X028249Y015810D02*
X028309Y015853D01*
X028360Y015904D01*
X028403Y015964D01*
X028437Y016029D01*
X028459Y016098D01*
X028469Y016157D01*
X028056Y016157D01*
X028056Y016257D01*
X028469Y016257D01*
X028459Y016316D01*
X028437Y016386D01*
X028403Y016451D01*
X028360Y016510D01*
X028309Y016562D01*
X028249Y016605D01*
X028184Y016638D01*
X028115Y016661D01*
X028056Y016670D01*
X028056Y016257D01*
X027956Y016257D01*
X027956Y016670D01*
X027897Y016661D01*
X027827Y016638D01*
X027762Y016605D01*
X027703Y016562D01*
X027651Y016510D01*
X027608Y016451D01*
X027575Y016386D01*
X027552Y016316D01*
X027543Y016257D01*
X027955Y016257D01*
X027955Y016157D01*
X027543Y016157D01*
X027552Y016098D01*
X027575Y016029D01*
X027608Y015964D01*
X027651Y015904D01*
X027703Y015853D01*
X027762Y015810D01*
X027827Y015776D01*
X027897Y015754D01*
X027956Y015744D01*
X027956Y016157D01*
X028056Y016157D01*
X028056Y015744D01*
X028115Y015754D01*
X028184Y015776D01*
X028249Y015810D01*
X028361Y015905D02*
X028748Y015905D01*
X028748Y016003D02*
X028424Y016003D01*
X028460Y016102D02*
X028748Y016102D01*
X028748Y016200D02*
X028056Y016200D01*
X028056Y016102D02*
X027956Y016102D01*
X027955Y016200D02*
X027056Y016200D01*
X027056Y016157D02*
X027056Y016257D01*
X027469Y016257D01*
X027459Y016316D01*
X027437Y016386D01*
X027403Y016451D01*
X027360Y016510D01*
X027309Y016562D01*
X027249Y016605D01*
X027184Y016638D01*
X027115Y016661D01*
X027056Y016670D01*
X027056Y016257D01*
X026956Y016257D01*
X026956Y016670D01*
X026897Y016661D01*
X026827Y016638D01*
X026762Y016605D01*
X026703Y016562D01*
X026651Y016510D01*
X026608Y016451D01*
X026575Y016386D01*
X026552Y016316D01*
X026543Y016257D01*
X026955Y016257D01*
X026955Y016157D01*
X026543Y016157D01*
X026552Y016098D01*
X026575Y016029D01*
X026608Y015964D01*
X026651Y015904D01*
X026703Y015853D01*
X026762Y015810D01*
X026827Y015776D01*
X026897Y015754D01*
X026956Y015744D01*
X026956Y016157D01*
X027056Y016157D01*
X027469Y016157D01*
X027459Y016098D01*
X027437Y016029D01*
X027403Y015964D01*
X027360Y015904D01*
X027309Y015853D01*
X027249Y015810D01*
X027184Y015776D01*
X027115Y015754D01*
X027056Y015744D01*
X027056Y016157D01*
X027056Y016102D02*
X026956Y016102D01*
X026955Y016200D02*
X023236Y016200D01*
X023236Y016102D02*
X026552Y016102D01*
X026588Y016003D02*
X023236Y016003D01*
X023236Y015905D02*
X026651Y015905D01*
X026768Y015806D02*
X023236Y015806D01*
X023236Y016299D02*
X026549Y016299D01*
X026581Y016397D02*
X023236Y016397D01*
X023236Y016496D02*
X026641Y016496D01*
X026748Y016595D02*
X023236Y016595D01*
X023236Y016693D02*
X028748Y016693D01*
X028748Y016595D02*
X028264Y016595D01*
X028371Y016496D02*
X028748Y016496D01*
X028748Y016397D02*
X028431Y016397D01*
X028462Y016299D02*
X028748Y016299D01*
X028748Y016792D02*
X028113Y016792D01*
X028090Y016782D02*
X028246Y016847D01*
X028366Y016966D01*
X028431Y017123D01*
X028431Y017292D01*
X028366Y017448D01*
X028246Y017568D01*
X028090Y017632D01*
X027921Y017632D01*
X027765Y017568D01*
X027645Y017448D01*
X027581Y017292D01*
X027581Y017123D01*
X027645Y016966D01*
X027765Y016847D01*
X027921Y016782D01*
X028090Y016782D01*
X028056Y016595D02*
X027956Y016595D01*
X027956Y016496D02*
X028056Y016496D01*
X028056Y016397D02*
X027956Y016397D01*
X027956Y016299D02*
X028056Y016299D01*
X028056Y016003D02*
X027956Y016003D01*
X027956Y015905D02*
X028056Y015905D01*
X028056Y015806D02*
X027956Y015806D01*
X027768Y015806D02*
X027243Y015806D01*
X027361Y015905D02*
X027651Y015905D01*
X027588Y016003D02*
X027424Y016003D01*
X027460Y016102D02*
X027552Y016102D01*
X027549Y016299D02*
X027462Y016299D01*
X027431Y016397D02*
X027581Y016397D01*
X027641Y016496D02*
X027371Y016496D01*
X027264Y016595D02*
X027748Y016595D01*
X027898Y016792D02*
X027113Y016792D01*
X027090Y016782D02*
X027246Y016847D01*
X027366Y016966D01*
X027431Y017123D01*
X027431Y017292D01*
X027366Y017448D01*
X027246Y017568D01*
X027090Y017632D01*
X026921Y017632D01*
X026765Y017568D01*
X026645Y017448D01*
X026581Y017292D01*
X026581Y017123D01*
X026645Y016966D01*
X026765Y016847D01*
X026921Y016782D01*
X027090Y016782D01*
X027056Y016595D02*
X026956Y016595D01*
X026956Y016496D02*
X027056Y016496D01*
X027056Y016397D02*
X026956Y016397D01*
X026956Y016299D02*
X027056Y016299D01*
X027056Y016003D02*
X026956Y016003D01*
X026956Y015905D02*
X027056Y015905D01*
X027056Y015806D02*
X026956Y015806D01*
X026898Y016792D02*
X023236Y016792D01*
X023236Y016890D02*
X026722Y016890D01*
X026636Y016989D02*
X023236Y016989D01*
X023236Y017087D02*
X026595Y017087D01*
X026581Y017186D02*
X023236Y017186D01*
X023236Y017284D02*
X026581Y017284D01*
X026618Y017383D02*
X023236Y017383D01*
X023236Y017481D02*
X026679Y017481D01*
X026795Y017580D02*
X023236Y017580D01*
X023236Y017679D02*
X028748Y017679D01*
X028748Y017777D02*
X023236Y017777D01*
X023236Y017876D02*
X026736Y017876D01*
X026765Y017847D02*
X026921Y017782D01*
X027090Y017782D01*
X027246Y017847D01*
X027366Y017966D01*
X027431Y018123D01*
X027431Y018292D01*
X027366Y018448D01*
X027246Y018568D01*
X027090Y018632D01*
X026921Y018632D01*
X026765Y018568D01*
X026645Y018448D01*
X026581Y018292D01*
X026581Y018123D01*
X026645Y017966D01*
X026765Y017847D01*
X026642Y017974D02*
X023236Y017974D01*
X023236Y018073D02*
X026601Y018073D01*
X026581Y018171D02*
X023236Y018171D01*
X023236Y018270D02*
X026581Y018270D01*
X026612Y018368D02*
X023236Y018368D01*
X023236Y018467D02*
X026664Y018467D01*
X026763Y018565D02*
X023236Y018565D01*
X023236Y018664D02*
X028748Y018664D01*
X028748Y018763D02*
X023236Y018763D01*
X023236Y018861D02*
X026751Y018861D01*
X026765Y018847D02*
X026921Y018782D01*
X027090Y018782D01*
X027246Y018847D01*
X027366Y018966D01*
X027431Y019123D01*
X027431Y019292D01*
X027366Y019448D01*
X027246Y019568D01*
X027090Y019632D01*
X026921Y019632D01*
X026765Y019568D01*
X026645Y019448D01*
X026581Y019292D01*
X026581Y019123D01*
X026645Y018966D01*
X026765Y018847D01*
X026652Y018960D02*
X023236Y018960D01*
X023236Y019058D02*
X026607Y019058D01*
X026581Y019157D02*
X023236Y019157D01*
X023236Y019255D02*
X026581Y019255D01*
X026606Y019354D02*
X023236Y019354D01*
X023090Y020782D02*
X022921Y020782D01*
X022765Y020847D01*
X022645Y020966D01*
X022581Y021123D01*
X022581Y021292D01*
X022645Y021448D01*
X022765Y021568D01*
X022921Y021632D01*
X023090Y021632D01*
X023246Y021568D01*
X023366Y021448D01*
X023431Y021292D01*
X023431Y021123D01*
X023366Y020966D01*
X023246Y020847D01*
X023090Y020782D01*
X023210Y020832D02*
X023801Y020832D01*
X023765Y020847D02*
X023921Y020782D01*
X024090Y020782D01*
X024246Y020847D01*
X024366Y020966D01*
X024431Y021123D01*
X024431Y021292D01*
X024366Y021448D01*
X024246Y021568D01*
X024090Y021632D01*
X023921Y021632D01*
X023765Y021568D01*
X023645Y021448D01*
X023581Y021292D01*
X023581Y021123D01*
X023645Y020966D01*
X023765Y020847D01*
X023681Y020930D02*
X023330Y020930D01*
X023392Y021029D02*
X023619Y021029D01*
X023581Y021128D02*
X023431Y021128D01*
X023431Y021226D02*
X023581Y021226D01*
X023594Y021325D02*
X023417Y021325D01*
X023376Y021423D02*
X023635Y021423D01*
X023719Y021522D02*
X023292Y021522D01*
X023119Y021620D02*
X023892Y021620D01*
X023921Y021782D02*
X024090Y021782D01*
X024246Y021847D01*
X024366Y021966D01*
X024431Y022123D01*
X024431Y022292D01*
X024366Y022448D01*
X024246Y022568D01*
X024090Y022632D01*
X023921Y022632D01*
X023765Y022568D01*
X023645Y022448D01*
X023581Y022292D01*
X023581Y022123D01*
X023645Y021966D01*
X023765Y021847D01*
X023921Y021782D01*
X023836Y021817D02*
X023175Y021817D01*
X023246Y021847D02*
X023366Y021966D01*
X023431Y022123D01*
X023431Y022292D01*
X023366Y022448D01*
X023246Y022568D01*
X023090Y022632D01*
X022921Y022632D01*
X022765Y022568D01*
X022645Y022448D01*
X022581Y022292D01*
X022581Y022123D01*
X022645Y021966D01*
X022765Y021847D01*
X022921Y021782D01*
X023090Y021782D01*
X023246Y021847D01*
X023315Y021916D02*
X023696Y021916D01*
X023625Y022014D02*
X023386Y022014D01*
X023427Y022113D02*
X023585Y022113D01*
X023581Y022212D02*
X023431Y022212D01*
X023423Y022310D02*
X023588Y022310D01*
X023629Y022409D02*
X023382Y022409D01*
X023307Y022507D02*
X023705Y022507D01*
X023857Y022606D02*
X023154Y022606D01*
X022857Y022606D02*
X022154Y022606D01*
X022090Y022632D02*
X021921Y022632D01*
X021765Y022568D01*
X021645Y022448D01*
X021581Y022292D01*
X021581Y022123D01*
X021645Y021966D01*
X021765Y021847D01*
X021921Y021782D01*
X022090Y021782D01*
X022246Y021847D01*
X022366Y021966D01*
X022431Y022123D01*
X022431Y022292D01*
X022366Y022448D01*
X022246Y022568D01*
X022090Y022632D01*
X021857Y022606D02*
X021154Y022606D01*
X021090Y022632D02*
X020921Y022632D01*
X020765Y022568D01*
X020645Y022448D01*
X020581Y022292D01*
X020581Y022123D01*
X020645Y021966D01*
X020765Y021847D01*
X020921Y021782D01*
X021090Y021782D01*
X021246Y021847D01*
X021366Y021966D01*
X021431Y022123D01*
X021431Y022292D01*
X021366Y022448D01*
X021246Y022568D01*
X021090Y022632D01*
X020857Y022606D02*
X020154Y022606D01*
X020090Y022632D02*
X019921Y022632D01*
X019765Y022568D01*
X019645Y022448D01*
X019581Y022292D01*
X019581Y022123D01*
X019645Y021966D01*
X019765Y021847D01*
X019921Y021782D01*
X020090Y021782D01*
X020246Y021847D01*
X020366Y021966D01*
X020431Y022123D01*
X020431Y022292D01*
X020366Y022448D01*
X020246Y022568D01*
X020090Y022632D01*
X019857Y022606D02*
X018554Y022606D01*
X018490Y022632D02*
X018321Y022632D01*
X018165Y022568D01*
X018045Y022448D01*
X017981Y022292D01*
X017981Y022123D01*
X018045Y021966D01*
X018165Y021847D01*
X018321Y021782D01*
X018490Y021782D01*
X018646Y021847D01*
X018766Y021966D01*
X018831Y022123D01*
X018831Y022292D01*
X018766Y022448D01*
X018646Y022568D01*
X018490Y022632D01*
X018257Y022606D02*
X017554Y022606D01*
X017490Y022632D02*
X017321Y022632D01*
X017165Y022568D01*
X017045Y022448D01*
X016981Y022292D01*
X016981Y022123D01*
X017045Y021966D01*
X017165Y021847D01*
X017321Y021782D01*
X017490Y021782D01*
X017646Y021847D01*
X017766Y021966D01*
X017831Y022123D01*
X017831Y022292D01*
X017766Y022448D01*
X017646Y022568D01*
X017490Y022632D01*
X017257Y022606D02*
X016554Y022606D01*
X016490Y022632D02*
X016321Y022632D01*
X016165Y022568D01*
X016045Y022448D01*
X015981Y022292D01*
X015981Y022123D01*
X016045Y021966D01*
X016165Y021847D01*
X016321Y021782D01*
X016490Y021782D01*
X016646Y021847D01*
X016766Y021966D01*
X016831Y022123D01*
X016831Y022292D01*
X016766Y022448D01*
X016646Y022568D01*
X016490Y022632D01*
X016257Y022606D02*
X015554Y022606D01*
X015490Y022632D02*
X015321Y022632D01*
X015165Y022568D01*
X015045Y022448D01*
X014981Y022292D01*
X014981Y022123D01*
X015045Y021966D01*
X015165Y021847D01*
X015321Y021782D01*
X015490Y021782D01*
X015646Y021847D01*
X015766Y021966D01*
X015831Y022123D01*
X015831Y022292D01*
X015766Y022448D01*
X015646Y022568D01*
X015490Y022632D01*
X015257Y022606D02*
X014554Y022606D01*
X014490Y022632D02*
X014646Y022568D01*
X014766Y022448D01*
X014831Y022292D01*
X014831Y022123D01*
X014766Y021966D01*
X014646Y021847D01*
X014490Y021782D01*
X014321Y021782D01*
X014165Y021847D01*
X014045Y021966D01*
X013981Y022123D01*
X013981Y022292D01*
X014045Y022448D01*
X014165Y022568D01*
X014321Y022632D01*
X014490Y022632D01*
X014257Y022606D02*
X013554Y022606D01*
X013490Y022632D02*
X013321Y022632D01*
X013165Y022568D01*
X013045Y022448D01*
X012981Y022292D01*
X012981Y022123D01*
X013045Y021966D01*
X013165Y021847D01*
X013321Y021782D01*
X013490Y021782D01*
X013646Y021847D01*
X013766Y021966D01*
X013831Y022123D01*
X013831Y022292D01*
X013766Y022448D01*
X013646Y022568D01*
X013490Y022632D01*
X013257Y022606D02*
X012554Y022606D01*
X012490Y022632D02*
X012321Y022632D01*
X012165Y022568D01*
X012045Y022448D01*
X011981Y022292D01*
X011981Y022123D01*
X012045Y021966D01*
X012165Y021847D01*
X012321Y021782D01*
X012490Y021782D01*
X012646Y021847D01*
X012766Y021966D01*
X012831Y022123D01*
X012831Y022292D01*
X012766Y022448D01*
X012646Y022568D01*
X012490Y022632D01*
X012257Y022606D02*
X011554Y022606D01*
X011490Y022632D02*
X011321Y022632D01*
X011165Y022568D01*
X011045Y022448D01*
X010981Y022292D01*
X010981Y022123D01*
X011045Y021966D01*
X011165Y021847D01*
X011321Y021782D01*
X011490Y021782D01*
X011646Y021847D01*
X011766Y021966D01*
X011831Y022123D01*
X011831Y022292D01*
X011766Y022448D01*
X011646Y022568D01*
X011490Y022632D01*
X011257Y022606D02*
X002256Y022606D01*
X002256Y022704D02*
X028748Y022704D01*
X028748Y022606D02*
X027154Y022606D01*
X027090Y022632D02*
X026921Y022632D01*
X026765Y022568D01*
X026645Y022448D01*
X026581Y022292D01*
X026581Y022123D01*
X026645Y021966D01*
X026765Y021847D01*
X026921Y021782D01*
X027090Y021782D01*
X027246Y021847D01*
X027366Y021966D01*
X027431Y022123D01*
X027431Y022292D01*
X027366Y022448D01*
X027246Y022568D01*
X027090Y022632D01*
X026857Y022606D02*
X026154Y022606D01*
X026090Y022632D02*
X025921Y022632D01*
X025765Y022568D01*
X025645Y022448D01*
X025581Y022292D01*
X025581Y022123D01*
X025645Y021966D01*
X025765Y021847D01*
X025921Y021782D01*
X026090Y021782D01*
X026246Y021847D01*
X026366Y021966D01*
X026431Y022123D01*
X026431Y022292D01*
X026366Y022448D01*
X026246Y022568D01*
X026090Y022632D01*
X025857Y022606D02*
X025154Y022606D01*
X025090Y022632D02*
X024921Y022632D01*
X024765Y022568D01*
X024645Y022448D01*
X024581Y022292D01*
X024581Y022123D01*
X024645Y021966D01*
X024765Y021847D01*
X024921Y021782D01*
X025090Y021782D01*
X025246Y021847D01*
X025366Y021966D01*
X025431Y022123D01*
X025431Y022292D01*
X025366Y022448D01*
X025246Y022568D01*
X025090Y022632D01*
X024857Y022606D02*
X024154Y022606D01*
X024307Y022507D02*
X024705Y022507D01*
X024629Y022409D02*
X024382Y022409D01*
X024423Y022310D02*
X024588Y022310D01*
X024581Y022212D02*
X024431Y022212D01*
X024427Y022113D02*
X024585Y022113D01*
X024625Y022014D02*
X024386Y022014D01*
X024315Y021916D02*
X024696Y021916D01*
X024836Y021817D02*
X024175Y021817D01*
X024119Y021620D02*
X024892Y021620D01*
X024921Y021632D02*
X024765Y021568D01*
X024645Y021448D01*
X024581Y021292D01*
X024581Y021123D01*
X024645Y020966D01*
X024765Y020847D01*
X024921Y020782D01*
X025090Y020782D01*
X025246Y020847D01*
X025366Y020966D01*
X025431Y021123D01*
X025431Y021292D01*
X025366Y021448D01*
X025246Y021568D01*
X025090Y021632D01*
X024921Y021632D01*
X025119Y021620D02*
X025892Y021620D01*
X025921Y021632D02*
X025765Y021568D01*
X025645Y021448D01*
X025581Y021292D01*
X025581Y021123D01*
X025645Y020966D01*
X025765Y020847D01*
X025921Y020782D01*
X026090Y020782D01*
X026246Y020847D01*
X026366Y020966D01*
X026431Y021123D01*
X026431Y021292D01*
X026366Y021448D01*
X026246Y021568D01*
X026090Y021632D01*
X025921Y021632D01*
X026119Y021620D02*
X026892Y021620D01*
X026921Y021632D02*
X026765Y021568D01*
X026645Y021448D01*
X026581Y021292D01*
X026581Y021123D01*
X026645Y020966D01*
X026765Y020847D01*
X026921Y020782D01*
X027090Y020782D01*
X027246Y020847D01*
X027366Y020966D01*
X027431Y021123D01*
X027431Y021292D01*
X027366Y021448D01*
X027246Y021568D01*
X027090Y021632D01*
X026921Y021632D01*
X027119Y021620D02*
X028748Y021620D01*
X028748Y021522D02*
X027292Y021522D01*
X027376Y021423D02*
X028748Y021423D01*
X028748Y021325D02*
X027417Y021325D01*
X027431Y021226D02*
X028748Y021226D01*
X028748Y021128D02*
X027431Y021128D01*
X027392Y021029D02*
X028748Y021029D01*
X028748Y020930D02*
X027330Y020930D01*
X027210Y020832D02*
X028748Y020832D01*
X028748Y020733D02*
X020229Y020733D01*
X020222Y020752D02*
X020162Y020812D01*
X020246Y020847D01*
X020366Y020966D01*
X020431Y021123D01*
X020431Y021292D01*
X020366Y021448D01*
X020246Y021568D01*
X020090Y021632D01*
X019921Y021632D01*
X019765Y021568D01*
X019645Y021448D01*
X019581Y021292D01*
X019581Y021123D01*
X019645Y020966D01*
X019765Y020847D01*
X019850Y020812D01*
X019789Y020752D01*
X019751Y020658D01*
X019751Y020556D01*
X019789Y020463D01*
X019861Y020391D01*
X019955Y020352D01*
X020056Y020352D01*
X020150Y020391D01*
X020222Y020463D01*
X020261Y020556D01*
X020261Y020658D01*
X020222Y020752D01*
X020210Y020832D02*
X020801Y020832D01*
X020765Y020847D02*
X020921Y020782D01*
X021090Y020782D01*
X021246Y020847D01*
X021366Y020966D01*
X021431Y021123D01*
X021431Y021292D01*
X021366Y021448D01*
X021246Y021568D01*
X021090Y021632D01*
X020921Y021632D01*
X020765Y021568D01*
X020645Y021448D01*
X020581Y021292D01*
X020581Y021123D01*
X020645Y020966D01*
X020765Y020847D01*
X020681Y020930D02*
X020330Y020930D01*
X020392Y021029D02*
X020619Y021029D01*
X020581Y021128D02*
X020431Y021128D01*
X020431Y021226D02*
X020581Y021226D01*
X020594Y021325D02*
X020417Y021325D01*
X020376Y021423D02*
X020635Y021423D01*
X020719Y021522D02*
X020292Y021522D01*
X020119Y021620D02*
X020892Y021620D01*
X020836Y021817D02*
X020175Y021817D01*
X020315Y021916D02*
X020696Y021916D01*
X020625Y022014D02*
X020386Y022014D01*
X020427Y022113D02*
X020585Y022113D01*
X020581Y022212D02*
X020431Y022212D01*
X020423Y022310D02*
X020588Y022310D01*
X020629Y022409D02*
X020382Y022409D01*
X020307Y022507D02*
X020705Y022507D01*
X021307Y022507D02*
X021705Y022507D01*
X021629Y022409D02*
X021382Y022409D01*
X021423Y022310D02*
X021588Y022310D01*
X021581Y022212D02*
X021431Y022212D01*
X021427Y022113D02*
X021585Y022113D01*
X021625Y022014D02*
X021386Y022014D01*
X021315Y021916D02*
X021696Y021916D01*
X021836Y021817D02*
X021175Y021817D01*
X021119Y021620D02*
X021892Y021620D01*
X021921Y021632D02*
X021765Y021568D01*
X021645Y021448D01*
X021581Y021292D01*
X021581Y021123D01*
X021645Y020966D01*
X021765Y020847D01*
X021921Y020782D01*
X022090Y020782D01*
X022246Y020847D01*
X022366Y020966D01*
X022431Y021123D01*
X022431Y021292D01*
X022366Y021448D01*
X022246Y021568D01*
X022090Y021632D01*
X021921Y021632D01*
X022119Y021620D02*
X022892Y021620D01*
X022719Y021522D02*
X022292Y021522D01*
X022376Y021423D02*
X022635Y021423D01*
X022594Y021325D02*
X022417Y021325D01*
X022431Y021226D02*
X022581Y021226D01*
X022581Y021128D02*
X022431Y021128D01*
X022392Y021029D02*
X022619Y021029D01*
X022681Y020930D02*
X022330Y020930D01*
X022210Y020832D02*
X022801Y020832D01*
X021801Y020832D02*
X021210Y020832D01*
X021330Y020930D02*
X021681Y020930D01*
X021619Y021029D02*
X021392Y021029D01*
X021431Y021128D02*
X021581Y021128D01*
X021581Y021226D02*
X021431Y021226D01*
X021417Y021325D02*
X021594Y021325D01*
X021635Y021423D02*
X021376Y021423D01*
X021292Y021522D02*
X021719Y021522D01*
X022175Y021817D02*
X022836Y021817D01*
X022696Y021916D02*
X022315Y021916D01*
X022386Y022014D02*
X022625Y022014D01*
X022585Y022113D02*
X022427Y022113D01*
X022431Y022212D02*
X022581Y022212D01*
X022588Y022310D02*
X022423Y022310D01*
X022382Y022409D02*
X022629Y022409D01*
X022705Y022507D02*
X022307Y022507D01*
X024292Y021522D02*
X024719Y021522D01*
X024635Y021423D02*
X024376Y021423D01*
X024417Y021325D02*
X024594Y021325D01*
X024581Y021226D02*
X024431Y021226D01*
X024431Y021128D02*
X024581Y021128D01*
X024619Y021029D02*
X024392Y021029D01*
X024330Y020930D02*
X024681Y020930D01*
X024801Y020832D02*
X024210Y020832D01*
X025210Y020832D02*
X025801Y020832D01*
X025681Y020930D02*
X025330Y020930D01*
X025392Y021029D02*
X025619Y021029D01*
X025581Y021128D02*
X025431Y021128D01*
X025431Y021226D02*
X025581Y021226D01*
X025594Y021325D02*
X025417Y021325D01*
X025376Y021423D02*
X025635Y021423D01*
X025719Y021522D02*
X025292Y021522D01*
X025175Y021817D02*
X025836Y021817D01*
X025696Y021916D02*
X025315Y021916D01*
X025386Y022014D02*
X025625Y022014D01*
X025585Y022113D02*
X025427Y022113D01*
X025431Y022212D02*
X025581Y022212D01*
X025588Y022310D02*
X025423Y022310D01*
X025382Y022409D02*
X025629Y022409D01*
X025705Y022507D02*
X025307Y022507D01*
X026307Y022507D02*
X026705Y022507D01*
X026629Y022409D02*
X026382Y022409D01*
X026423Y022310D02*
X026588Y022310D01*
X026581Y022212D02*
X026431Y022212D01*
X026427Y022113D02*
X026585Y022113D01*
X026625Y022014D02*
X026386Y022014D01*
X026315Y021916D02*
X026696Y021916D01*
X026836Y021817D02*
X026175Y021817D01*
X026292Y021522D02*
X026719Y021522D01*
X026635Y021423D02*
X026376Y021423D01*
X026417Y021325D02*
X026594Y021325D01*
X026581Y021226D02*
X026431Y021226D01*
X026431Y021128D02*
X026581Y021128D01*
X026619Y021029D02*
X026392Y021029D01*
X026330Y020930D02*
X026681Y020930D01*
X026801Y020832D02*
X026210Y020832D01*
X027175Y021817D02*
X028748Y021817D01*
X028748Y021719D02*
X015161Y021719D01*
X015161Y021758D02*
X015122Y021852D01*
X015050Y021923D01*
X014956Y021962D01*
X014855Y021962D01*
X014761Y021923D01*
X014689Y021852D01*
X014651Y021758D01*
X014651Y021656D01*
X014689Y021563D01*
X014761Y021491D01*
X014855Y021452D01*
X014956Y021452D01*
X015050Y021491D01*
X015122Y021563D01*
X015161Y021656D01*
X015161Y021758D01*
X015136Y021817D02*
X015236Y021817D01*
X015096Y021916D02*
X015058Y021916D01*
X015025Y022014D02*
X014786Y022014D01*
X014754Y021916D02*
X014715Y021916D01*
X014675Y021817D02*
X014575Y021817D01*
X014651Y021719D02*
X013161Y021719D01*
X013161Y021758D02*
X013122Y021852D01*
X013050Y021923D01*
X012956Y021962D01*
X012855Y021962D01*
X012761Y021923D01*
X012689Y021852D01*
X012651Y021758D01*
X012651Y021656D01*
X012689Y021563D01*
X012761Y021491D01*
X012855Y021452D01*
X012956Y021452D01*
X013050Y021491D01*
X013122Y021563D01*
X013161Y021656D01*
X013161Y021758D01*
X013136Y021817D02*
X013236Y021817D01*
X013096Y021916D02*
X013058Y021916D01*
X013025Y022014D02*
X012786Y022014D01*
X012754Y021916D02*
X012715Y021916D01*
X012675Y021817D02*
X012575Y021817D01*
X012651Y021719D02*
X009990Y021719D01*
X009990Y021807D02*
X009914Y021990D01*
X009773Y022131D01*
X009589Y022207D01*
X009390Y022207D01*
X009207Y022131D01*
X009066Y021990D01*
X008990Y021807D01*
X008990Y021608D01*
X009066Y021424D01*
X009207Y021283D01*
X009390Y021207D01*
X009589Y021207D01*
X009773Y021283D01*
X009914Y021424D01*
X009990Y021608D01*
X009990Y021807D01*
X009985Y021817D02*
X011236Y021817D01*
X011096Y021916D02*
X009945Y021916D01*
X009890Y022014D02*
X011025Y022014D01*
X010985Y022113D02*
X009791Y022113D01*
X009990Y021620D02*
X011292Y021620D01*
X011321Y021632D02*
X011165Y021568D01*
X011045Y021448D01*
X010981Y021292D01*
X010981Y021123D01*
X011045Y020966D01*
X011165Y020847D01*
X011321Y020782D01*
X011490Y020782D01*
X011646Y020847D01*
X011766Y020966D01*
X011831Y021123D01*
X011831Y021292D01*
X011766Y021448D01*
X011646Y021568D01*
X011490Y021632D01*
X011321Y021632D01*
X011519Y021620D02*
X012292Y021620D01*
X012321Y021632D02*
X012165Y021568D01*
X012045Y021448D01*
X011981Y021292D01*
X011981Y021123D01*
X012045Y020966D01*
X012165Y020847D01*
X012321Y020782D01*
X012490Y020782D01*
X012646Y020847D01*
X012766Y020966D01*
X012831Y021123D01*
X012831Y021292D01*
X012766Y021448D01*
X012646Y021568D01*
X012490Y021632D01*
X012321Y021632D01*
X012519Y021620D02*
X012666Y021620D01*
X012692Y021522D02*
X012731Y021522D01*
X012776Y021423D02*
X013035Y021423D01*
X013045Y021448D02*
X012981Y021292D01*
X012981Y021123D01*
X013045Y020966D01*
X013165Y020847D01*
X013321Y020782D01*
X013490Y020782D01*
X013646Y020847D01*
X013766Y020966D01*
X013831Y021123D01*
X013831Y021292D01*
X013766Y021448D01*
X013646Y021568D01*
X013490Y021632D01*
X013321Y021632D01*
X013165Y021568D01*
X013045Y021448D01*
X013081Y021522D02*
X013119Y021522D01*
X013146Y021620D02*
X013292Y021620D01*
X013519Y021620D02*
X014292Y021620D01*
X014321Y021632D02*
X014165Y021568D01*
X014045Y021448D01*
X013981Y021292D01*
X013981Y021123D01*
X014045Y020966D01*
X014165Y020847D01*
X014321Y020782D01*
X014490Y020782D01*
X014646Y020847D01*
X014766Y020966D01*
X014831Y021123D01*
X014831Y021292D01*
X014766Y021448D01*
X014646Y021568D01*
X014490Y021632D01*
X014321Y021632D01*
X014519Y021620D02*
X014666Y021620D01*
X014692Y021522D02*
X014731Y021522D01*
X014776Y021423D02*
X015035Y021423D01*
X015045Y021448D02*
X014981Y021292D01*
X014981Y021123D01*
X015045Y020966D01*
X015165Y020847D01*
X015321Y020782D01*
X015490Y020782D01*
X015646Y020847D01*
X015766Y020966D01*
X015831Y021123D01*
X015831Y021292D01*
X015766Y021448D01*
X015646Y021568D01*
X015490Y021632D01*
X015321Y021632D01*
X015165Y021568D01*
X015045Y021448D01*
X015081Y021522D02*
X015119Y021522D01*
X015146Y021620D02*
X015292Y021620D01*
X015519Y021620D02*
X016292Y021620D01*
X016321Y021632D02*
X016165Y021568D01*
X016045Y021448D01*
X015981Y021292D01*
X015981Y021123D01*
X016045Y020966D01*
X016165Y020847D01*
X016321Y020782D01*
X016490Y020782D01*
X016646Y020847D01*
X016766Y020966D01*
X016831Y021123D01*
X016831Y021292D01*
X016766Y021448D01*
X016646Y021568D01*
X016490Y021632D01*
X016321Y021632D01*
X016519Y021620D02*
X017292Y021620D01*
X017321Y021632D02*
X017165Y021568D01*
X017045Y021448D01*
X016981Y021292D01*
X016981Y021123D01*
X017045Y020966D01*
X017165Y020847D01*
X017321Y020782D01*
X017490Y020782D01*
X017646Y020847D01*
X017766Y020966D01*
X017831Y021123D01*
X017831Y021292D01*
X017766Y021448D01*
X017646Y021568D01*
X017490Y021632D01*
X017321Y021632D01*
X017519Y021620D02*
X018292Y021620D01*
X018321Y021632D02*
X018165Y021568D01*
X018045Y021448D01*
X017981Y021292D01*
X017981Y021123D01*
X018045Y020966D01*
X018165Y020847D01*
X018321Y020782D01*
X018490Y020782D01*
X018646Y020847D01*
X018766Y020966D01*
X018831Y021123D01*
X018831Y021292D01*
X018766Y021448D01*
X018646Y021568D01*
X018490Y021632D01*
X018321Y021632D01*
X018519Y021620D02*
X019892Y021620D01*
X019719Y021522D02*
X018692Y021522D01*
X018776Y021423D02*
X019635Y021423D01*
X019594Y021325D02*
X018817Y021325D01*
X018831Y021226D02*
X019581Y021226D01*
X019581Y021128D02*
X018831Y021128D01*
X018792Y021029D02*
X019619Y021029D01*
X019681Y020930D02*
X018730Y020930D01*
X018610Y020832D02*
X019801Y020832D01*
X019782Y020733D02*
X010361Y020733D01*
X010361Y020758D02*
X010322Y020852D01*
X010250Y020923D01*
X010156Y020962D01*
X010055Y020962D01*
X009961Y020923D01*
X009889Y020852D01*
X009851Y020758D01*
X009851Y020656D01*
X009889Y020563D01*
X009961Y020491D01*
X010055Y020452D01*
X010156Y020452D01*
X010250Y020491D01*
X010275Y020516D01*
X010251Y020458D01*
X010251Y020356D01*
X010289Y020263D01*
X010361Y020191D01*
X010455Y020152D01*
X010556Y020152D01*
X010650Y020191D01*
X010722Y020263D01*
X010761Y020356D01*
X010761Y020458D01*
X010722Y020552D01*
X010650Y020623D01*
X010556Y020662D01*
X010455Y020662D01*
X010361Y020623D01*
X010337Y020599D01*
X010361Y020656D01*
X010361Y020758D01*
X010330Y020832D02*
X011201Y020832D01*
X011081Y020930D02*
X010233Y020930D01*
X009978Y020930D02*
X002256Y020930D01*
X002256Y020832D02*
X009881Y020832D01*
X009851Y020733D02*
X002256Y020733D01*
X002256Y020635D02*
X009860Y020635D01*
X009916Y020536D02*
X002256Y020536D01*
X002256Y020438D02*
X010251Y020438D01*
X010258Y020339D02*
X009812Y020339D01*
X009850Y020323D02*
X009756Y020362D01*
X009655Y020362D01*
X009561Y020323D01*
X009489Y020252D01*
X009451Y020158D01*
X009451Y020056D01*
X009489Y019963D01*
X009561Y019891D01*
X009655Y019852D01*
X009756Y019852D01*
X009850Y019891D01*
X009922Y019963D01*
X009961Y020056D01*
X009961Y020158D01*
X009922Y020252D01*
X009850Y020323D01*
X009926Y020241D02*
X010312Y020241D01*
X009961Y020142D02*
X019386Y020142D01*
X019389Y020152D02*
X019351Y020058D01*
X019351Y019956D01*
X019389Y019863D01*
X019461Y019791D01*
X019555Y019752D01*
X019656Y019752D01*
X019750Y019791D01*
X019822Y019863D01*
X019861Y019956D01*
X019861Y020058D01*
X019822Y020152D01*
X019750Y020223D01*
X019656Y020262D01*
X019555Y020262D01*
X019461Y020223D01*
X019389Y020152D01*
X019351Y020044D02*
X011001Y020044D01*
X010956Y020062D02*
X011050Y020023D01*
X011122Y019952D01*
X011161Y019858D01*
X011161Y019756D01*
X011122Y019663D01*
X011050Y019591D01*
X010956Y019552D01*
X010855Y019552D01*
X010761Y019591D01*
X010689Y019663D01*
X010651Y019756D01*
X010651Y019858D01*
X010689Y019952D01*
X010761Y020023D01*
X010855Y020062D01*
X010956Y020062D01*
X010810Y020044D02*
X009955Y020044D01*
X009904Y019945D02*
X010687Y019945D01*
X010651Y019846D02*
X002256Y019846D01*
X002256Y019748D02*
X010654Y019748D01*
X010703Y019649D02*
X002256Y019649D01*
X002256Y019551D02*
X011751Y019551D01*
X011751Y019558D02*
X011751Y019456D01*
X011789Y019363D01*
X011861Y019291D01*
X011955Y019252D01*
X012056Y019252D01*
X012150Y019291D01*
X012222Y019363D01*
X012261Y019456D01*
X012261Y019558D01*
X012222Y019652D01*
X012150Y019723D01*
X012056Y019762D01*
X011955Y019762D01*
X011861Y019723D01*
X011789Y019652D01*
X011751Y019558D01*
X011789Y019649D02*
X011108Y019649D01*
X011157Y019748D02*
X011921Y019748D01*
X012091Y019748D02*
X028748Y019748D01*
X028748Y019846D02*
X019806Y019846D01*
X019856Y019945D02*
X028748Y019945D01*
X028748Y020044D02*
X019861Y020044D01*
X019826Y020142D02*
X028748Y020142D01*
X028748Y020241D02*
X019708Y020241D01*
X019503Y020241D02*
X010700Y020241D01*
X010753Y020339D02*
X028748Y020339D01*
X028748Y020438D02*
X020197Y020438D01*
X020252Y020536D02*
X028748Y020536D01*
X028748Y020635D02*
X020261Y020635D01*
X019815Y020438D02*
X010761Y020438D01*
X010728Y020536D02*
X019759Y020536D01*
X019751Y020635D02*
X010622Y020635D01*
X010389Y020635D02*
X010352Y020635D01*
X011019Y021029D02*
X002256Y021029D01*
X002256Y021128D02*
X010981Y021128D01*
X010981Y021226D02*
X009635Y021226D01*
X009814Y021325D02*
X010994Y021325D01*
X011035Y021423D02*
X009913Y021423D01*
X009954Y021522D02*
X011119Y021522D01*
X011575Y021817D02*
X012236Y021817D01*
X012096Y021916D02*
X011715Y021916D01*
X011786Y022014D02*
X012025Y022014D01*
X011985Y022113D02*
X011827Y022113D01*
X011831Y022212D02*
X011981Y022212D01*
X011988Y022310D02*
X011823Y022310D01*
X011782Y022409D02*
X012029Y022409D01*
X012105Y022507D02*
X011707Y022507D01*
X011105Y022507D02*
X002256Y022507D01*
X002256Y022409D02*
X011029Y022409D01*
X010988Y022310D02*
X002256Y022310D01*
X002256Y022212D02*
X010981Y022212D01*
X011692Y021522D02*
X012119Y021522D01*
X012035Y021423D02*
X011776Y021423D01*
X011817Y021325D02*
X011994Y021325D01*
X011981Y021226D02*
X011831Y021226D01*
X011831Y021128D02*
X011981Y021128D01*
X012019Y021029D02*
X011792Y021029D01*
X011730Y020930D02*
X012081Y020930D01*
X012201Y020832D02*
X011610Y020832D01*
X012610Y020832D02*
X013201Y020832D01*
X013081Y020930D02*
X012730Y020930D01*
X012792Y021029D02*
X013019Y021029D01*
X012981Y021128D02*
X012831Y021128D01*
X012831Y021226D02*
X012981Y021226D01*
X012994Y021325D02*
X012817Y021325D01*
X013692Y021522D02*
X014119Y021522D01*
X014035Y021423D02*
X013776Y021423D01*
X013817Y021325D02*
X013994Y021325D01*
X013981Y021226D02*
X013831Y021226D01*
X013831Y021128D02*
X013981Y021128D01*
X014019Y021029D02*
X013792Y021029D01*
X013730Y020930D02*
X014081Y020930D01*
X014201Y020832D02*
X013610Y020832D01*
X014610Y020832D02*
X015201Y020832D01*
X015081Y020930D02*
X014730Y020930D01*
X014792Y021029D02*
X015019Y021029D01*
X014981Y021128D02*
X014831Y021128D01*
X014831Y021226D02*
X014981Y021226D01*
X014994Y021325D02*
X014817Y021325D01*
X014236Y021817D02*
X013575Y021817D01*
X013715Y021916D02*
X014096Y021916D01*
X014025Y022014D02*
X013786Y022014D01*
X013827Y022113D02*
X013985Y022113D01*
X013981Y022212D02*
X013831Y022212D01*
X013823Y022310D02*
X013988Y022310D01*
X014029Y022409D02*
X013782Y022409D01*
X013707Y022507D02*
X014105Y022507D01*
X014707Y022507D02*
X015105Y022507D01*
X015029Y022409D02*
X014782Y022409D01*
X014823Y022310D02*
X014988Y022310D01*
X014981Y022212D02*
X014831Y022212D01*
X014827Y022113D02*
X014985Y022113D01*
X015575Y021817D02*
X016236Y021817D01*
X016096Y021916D02*
X015715Y021916D01*
X015786Y022014D02*
X016025Y022014D01*
X015985Y022113D02*
X015827Y022113D01*
X015831Y022212D02*
X015981Y022212D01*
X015988Y022310D02*
X015823Y022310D01*
X015782Y022409D02*
X016029Y022409D01*
X016105Y022507D02*
X015707Y022507D01*
X016707Y022507D02*
X017105Y022507D01*
X017029Y022409D02*
X016782Y022409D01*
X016823Y022310D02*
X016988Y022310D01*
X016981Y022212D02*
X016831Y022212D01*
X016827Y022113D02*
X016985Y022113D01*
X017025Y022014D02*
X016786Y022014D01*
X016715Y021916D02*
X017096Y021916D01*
X017236Y021817D02*
X016575Y021817D01*
X016692Y021522D02*
X017119Y021522D01*
X017035Y021423D02*
X016776Y021423D01*
X016817Y021325D02*
X016994Y021325D01*
X016981Y021226D02*
X016831Y021226D01*
X016831Y021128D02*
X016981Y021128D01*
X017019Y021029D02*
X016792Y021029D01*
X016730Y020930D02*
X017081Y020930D01*
X017201Y020832D02*
X016610Y020832D01*
X016201Y020832D02*
X015610Y020832D01*
X015730Y020930D02*
X016081Y020930D01*
X016019Y021029D02*
X015792Y021029D01*
X015831Y021128D02*
X015981Y021128D01*
X015981Y021226D02*
X015831Y021226D01*
X015817Y021325D02*
X015994Y021325D01*
X016035Y021423D02*
X015776Y021423D01*
X015692Y021522D02*
X016119Y021522D01*
X017575Y021817D02*
X018236Y021817D01*
X018096Y021916D02*
X017715Y021916D01*
X017786Y022014D02*
X018025Y022014D01*
X017985Y022113D02*
X017827Y022113D01*
X017831Y022212D02*
X017981Y022212D01*
X017988Y022310D02*
X017823Y022310D01*
X017782Y022409D02*
X018029Y022409D01*
X018105Y022507D02*
X017707Y022507D01*
X018707Y022507D02*
X019705Y022507D01*
X019629Y022409D02*
X018782Y022409D01*
X018823Y022310D02*
X019588Y022310D01*
X019581Y022212D02*
X018831Y022212D01*
X018827Y022113D02*
X019585Y022113D01*
X019625Y022014D02*
X018786Y022014D01*
X018715Y021916D02*
X019696Y021916D01*
X019836Y021817D02*
X018575Y021817D01*
X018119Y021522D02*
X017692Y021522D01*
X017776Y021423D02*
X018035Y021423D01*
X017994Y021325D02*
X017817Y021325D01*
X017831Y021226D02*
X017981Y021226D01*
X017981Y021128D02*
X017831Y021128D01*
X017792Y021029D02*
X018019Y021029D01*
X018081Y020930D02*
X017730Y020930D01*
X017610Y020832D02*
X018201Y020832D01*
X019355Y019945D02*
X011125Y019945D01*
X011161Y019846D02*
X019406Y019846D01*
X019050Y019423D02*
X018956Y019462D01*
X018855Y019462D01*
X018761Y019423D01*
X018689Y019352D01*
X018651Y019258D01*
X018651Y019156D01*
X018689Y019063D01*
X018761Y018991D01*
X018855Y018952D01*
X018956Y018952D01*
X019050Y018991D01*
X019122Y019063D01*
X019161Y019156D01*
X019161Y019258D01*
X019122Y019352D01*
X019050Y019423D01*
X018980Y019452D02*
X026650Y019452D01*
X026748Y019551D02*
X012261Y019551D01*
X012259Y019452D02*
X013331Y019452D01*
X013355Y019462D02*
X013261Y019423D01*
X013189Y019352D01*
X013151Y019258D01*
X013151Y019156D01*
X013189Y019063D01*
X013261Y018991D01*
X013355Y018952D01*
X013456Y018952D01*
X013550Y018991D01*
X013622Y019063D01*
X013661Y019156D01*
X013661Y019258D01*
X013622Y019352D01*
X013550Y019423D01*
X013456Y019462D01*
X013355Y019462D01*
X013480Y019452D02*
X018831Y019452D01*
X018692Y019354D02*
X013620Y019354D01*
X013661Y019255D02*
X018651Y019255D01*
X018651Y019157D02*
X013661Y019157D01*
X013617Y019058D02*
X018694Y019058D01*
X018837Y018960D02*
X015563Y018960D01*
X015449Y018960D02*
X013474Y018960D01*
X013337Y018960D02*
X003936Y018960D01*
X003930Y018975D02*
X003789Y019115D01*
X003605Y019191D01*
X003406Y019191D01*
X003222Y019115D01*
X003082Y018975D01*
X003006Y018791D01*
X003006Y018592D01*
X003082Y018408D01*
X003222Y018268D01*
X003406Y018191D01*
X003605Y018191D01*
X003789Y018268D01*
X003930Y018408D01*
X004006Y018592D01*
X004006Y018791D01*
X003930Y018975D01*
X003846Y019058D02*
X013194Y019058D01*
X013151Y019157D02*
X003689Y019157D01*
X003322Y019157D02*
X002256Y019157D01*
X002256Y019255D02*
X011948Y019255D01*
X012064Y019255D02*
X013151Y019255D01*
X013192Y019354D02*
X012213Y019354D01*
X012223Y019649D02*
X028748Y019649D01*
X028748Y019551D02*
X028263Y019551D01*
X028246Y019568D02*
X028090Y019632D01*
X027921Y019632D01*
X027765Y019568D01*
X027645Y019448D01*
X027581Y019292D01*
X027581Y019123D01*
X027645Y018966D01*
X027765Y018847D01*
X027921Y018782D01*
X028090Y018782D01*
X028246Y018847D01*
X028366Y018966D01*
X028431Y019123D01*
X028431Y019292D01*
X028366Y019448D01*
X028246Y019568D01*
X028362Y019452D02*
X028748Y019452D01*
X028748Y019354D02*
X028405Y019354D01*
X028431Y019255D02*
X028748Y019255D01*
X028748Y019157D02*
X028431Y019157D01*
X028404Y019058D02*
X028748Y019058D01*
X028748Y018960D02*
X028359Y018960D01*
X028261Y018861D02*
X028748Y018861D01*
X028748Y018565D02*
X028248Y018565D01*
X028246Y018568D02*
X028090Y018632D01*
X027921Y018632D01*
X027765Y018568D01*
X027645Y018448D01*
X027581Y018292D01*
X027581Y018123D01*
X027645Y017966D01*
X027765Y017847D01*
X027921Y017782D01*
X028090Y017782D01*
X028246Y017847D01*
X028366Y017966D01*
X028431Y018123D01*
X028431Y018292D01*
X028366Y018448D01*
X028246Y018568D01*
X028347Y018467D02*
X028748Y018467D01*
X028748Y018368D02*
X028399Y018368D01*
X028431Y018270D02*
X028748Y018270D01*
X028748Y018171D02*
X028431Y018171D01*
X028410Y018073D02*
X028748Y018073D01*
X028748Y017974D02*
X028369Y017974D01*
X028275Y017876D02*
X028748Y017876D01*
X028748Y017580D02*
X028216Y017580D01*
X028332Y017481D02*
X028748Y017481D01*
X028748Y017383D02*
X028393Y017383D01*
X028431Y017284D02*
X028748Y017284D01*
X028748Y017186D02*
X028431Y017186D01*
X028416Y017087D02*
X028748Y017087D01*
X028748Y016989D02*
X028375Y016989D01*
X028290Y016890D02*
X028748Y016890D01*
X027722Y016890D02*
X027290Y016890D01*
X027375Y016989D02*
X027636Y016989D01*
X027595Y017087D02*
X027416Y017087D01*
X027431Y017186D02*
X027581Y017186D01*
X027581Y017284D02*
X027431Y017284D01*
X027393Y017383D02*
X027618Y017383D01*
X027679Y017481D02*
X027332Y017481D01*
X027216Y017580D02*
X027795Y017580D01*
X027736Y017876D02*
X027275Y017876D01*
X027369Y017974D02*
X027642Y017974D01*
X027601Y018073D02*
X027410Y018073D01*
X027431Y018171D02*
X027581Y018171D01*
X027581Y018270D02*
X027431Y018270D01*
X027399Y018368D02*
X027612Y018368D01*
X027664Y018467D02*
X027347Y018467D01*
X027248Y018565D02*
X027763Y018565D01*
X027751Y018861D02*
X027261Y018861D01*
X027359Y018960D02*
X027652Y018960D01*
X027607Y019058D02*
X027404Y019058D01*
X027431Y019157D02*
X027581Y019157D01*
X027581Y019255D02*
X027431Y019255D01*
X027405Y019354D02*
X027606Y019354D01*
X027650Y019452D02*
X027362Y019452D01*
X027263Y019551D02*
X027748Y019551D01*
X027315Y021916D02*
X028748Y021916D01*
X028748Y022014D02*
X027386Y022014D01*
X027427Y022113D02*
X028748Y022113D01*
X028748Y022212D02*
X027431Y022212D01*
X027423Y022310D02*
X028748Y022310D01*
X028748Y022409D02*
X027382Y022409D01*
X027307Y022507D02*
X028748Y022507D01*
X028748Y022803D02*
X002256Y022803D01*
X002256Y022901D02*
X028748Y022901D01*
X020776Y019354D02*
X019120Y019354D01*
X019161Y019255D02*
X020776Y019255D01*
X020776Y019157D02*
X019161Y019157D01*
X019117Y019058D02*
X020776Y019058D01*
X020776Y018960D02*
X018974Y018960D01*
X018422Y018652D02*
X018350Y018723D01*
X018256Y018762D01*
X018155Y018762D01*
X018061Y018723D01*
X017989Y018652D01*
X017951Y018558D01*
X017951Y018456D01*
X017989Y018363D01*
X018061Y018291D01*
X018155Y018252D01*
X018256Y018252D01*
X018350Y018291D01*
X018422Y018363D01*
X018461Y018456D01*
X018461Y018558D01*
X018422Y018652D01*
X018409Y018664D02*
X020776Y018664D01*
X020776Y018763D02*
X015759Y018763D01*
X015761Y018664D02*
X018002Y018664D01*
X017954Y018565D02*
X015723Y018565D01*
X015592Y018467D02*
X017951Y018467D01*
X017987Y018368D02*
X015705Y018368D01*
X015756Y018270D02*
X018113Y018270D01*
X018299Y018270D02*
X020776Y018270D01*
X020776Y018368D02*
X018424Y018368D01*
X018461Y018467D02*
X020776Y018467D01*
X020776Y018565D02*
X018458Y018565D01*
X018281Y017383D02*
X014091Y017383D01*
X014150Y017284D02*
X020776Y017284D01*
X020776Y017186D02*
X014161Y017186D01*
X014132Y017087D02*
X015425Y017087D01*
X015389Y017052D02*
X015351Y016958D01*
X015351Y016856D01*
X015389Y016763D01*
X015461Y016691D01*
X015555Y016652D01*
X015656Y016652D01*
X015750Y016691D01*
X015822Y016763D01*
X015861Y016856D01*
X015861Y016958D01*
X015822Y017052D01*
X015750Y017123D01*
X015656Y017162D01*
X015555Y017162D01*
X015461Y017123D01*
X015389Y017052D01*
X015363Y016989D02*
X015185Y016989D01*
X015247Y016890D02*
X015351Y016890D01*
X015378Y016792D02*
X015261Y016792D01*
X015234Y016693D02*
X015459Y016693D01*
X015752Y016693D02*
X018359Y016693D01*
X018278Y016792D02*
X015834Y016792D01*
X015861Y016890D02*
X018251Y016890D01*
X018263Y016989D02*
X015848Y016989D01*
X015786Y017087D02*
X018325Y017087D01*
X020776Y017974D02*
X015609Y017974D01*
X015726Y018073D02*
X020776Y018073D01*
X020776Y018171D02*
X015761Y018171D01*
X015402Y017974D02*
X007740Y017974D01*
X007796Y017876D02*
X015413Y017876D01*
X015359Y017777D02*
X013096Y017777D01*
X013152Y017679D02*
X015351Y017679D01*
X015382Y017580D02*
X013161Y017580D01*
X012781Y017383D02*
X007682Y017383D01*
X007772Y017481D02*
X012682Y017481D01*
X012651Y017580D02*
X007813Y017580D01*
X007831Y017679D02*
X012659Y017679D01*
X012715Y017777D02*
X007831Y017777D01*
X007634Y018073D02*
X015285Y018073D01*
X015251Y018171D02*
X002256Y018171D01*
X002256Y018073D02*
X007177Y018073D01*
X007072Y017974D02*
X002256Y017974D01*
X002256Y017876D02*
X007015Y017876D01*
X006981Y017777D02*
X002256Y017777D01*
X002256Y017679D02*
X006981Y017679D01*
X006998Y017580D02*
X002256Y017580D01*
X002256Y017481D02*
X007039Y017481D01*
X007129Y017383D02*
X002256Y017383D01*
X002256Y018270D02*
X003220Y018270D01*
X003122Y018368D02*
X002256Y018368D01*
X002256Y018467D02*
X003057Y018467D01*
X003017Y018565D02*
X002256Y018565D01*
X002256Y018664D02*
X003006Y018664D01*
X003006Y018763D02*
X002256Y018763D01*
X002256Y018861D02*
X003035Y018861D01*
X003076Y018960D02*
X002256Y018960D01*
X002256Y019058D02*
X003165Y019058D01*
X002256Y019354D02*
X011799Y019354D01*
X011752Y019452D02*
X002256Y019452D01*
X002256Y019945D02*
X009507Y019945D01*
X009456Y020044D02*
X002256Y020044D01*
X002256Y020142D02*
X009451Y020142D01*
X009485Y020241D02*
X002256Y020241D01*
X002256Y020339D02*
X009599Y020339D01*
X009345Y021226D02*
X007666Y021226D01*
X007621Y021207D02*
X007805Y021283D01*
X007945Y021424D01*
X008021Y021608D01*
X008021Y021807D01*
X007945Y021990D01*
X007805Y022131D01*
X007621Y022207D01*
X007422Y022207D01*
X007238Y022131D01*
X007098Y021990D01*
X007021Y021807D01*
X007021Y021608D01*
X007098Y021424D01*
X007238Y021283D01*
X007422Y021207D01*
X007621Y021207D01*
X007376Y021226D02*
X005435Y021226D01*
X005389Y021207D02*
X005573Y021283D01*
X005714Y021424D01*
X005790Y021608D01*
X005790Y021807D01*
X005714Y021990D01*
X005573Y022131D01*
X005389Y022207D01*
X005190Y022207D01*
X005007Y022131D01*
X004866Y021990D01*
X004790Y021807D01*
X004790Y021608D01*
X004866Y021424D01*
X005007Y021283D01*
X005190Y021207D01*
X005389Y021207D01*
X005145Y021226D02*
X003466Y021226D01*
X003421Y021207D02*
X003605Y021283D01*
X003745Y021424D01*
X003821Y021608D01*
X003821Y021807D01*
X003745Y021990D01*
X003605Y022131D01*
X003421Y022207D01*
X003222Y022207D01*
X003038Y022131D01*
X002898Y021990D01*
X002821Y021807D01*
X002821Y021608D01*
X002898Y021424D01*
X003038Y021283D01*
X003222Y021207D01*
X003421Y021207D01*
X003176Y021226D02*
X002256Y021226D01*
X002256Y021325D02*
X002997Y021325D01*
X002898Y021423D02*
X002256Y021423D01*
X002256Y021522D02*
X002857Y021522D01*
X002821Y021620D02*
X002256Y021620D01*
X002256Y021719D02*
X002821Y021719D01*
X002826Y021817D02*
X002256Y021817D01*
X002256Y021916D02*
X002867Y021916D01*
X002922Y022014D02*
X002256Y022014D01*
X002256Y022113D02*
X003020Y022113D01*
X003623Y022113D02*
X004989Y022113D01*
X004890Y022014D02*
X003721Y022014D01*
X003776Y021916D02*
X004835Y021916D01*
X004794Y021817D02*
X003817Y021817D01*
X003821Y021719D02*
X004790Y021719D01*
X004790Y021620D02*
X003821Y021620D01*
X003786Y021522D02*
X004826Y021522D01*
X004867Y021423D02*
X003744Y021423D01*
X003646Y021325D02*
X004965Y021325D01*
X005614Y021325D02*
X007197Y021325D01*
X007098Y021423D02*
X005713Y021423D01*
X005754Y021522D02*
X007057Y021522D01*
X007021Y021620D02*
X005790Y021620D01*
X005790Y021719D02*
X007021Y021719D01*
X007026Y021817D02*
X005785Y021817D01*
X005745Y021916D02*
X007067Y021916D01*
X007122Y022014D02*
X005690Y022014D01*
X005591Y022113D02*
X007220Y022113D01*
X007823Y022113D02*
X009189Y022113D01*
X009090Y022014D02*
X007921Y022014D01*
X007976Y021916D02*
X009035Y021916D01*
X008994Y021817D02*
X008017Y021817D01*
X008021Y021719D02*
X008990Y021719D01*
X008990Y021620D02*
X008021Y021620D01*
X007986Y021522D02*
X009026Y021522D01*
X009067Y021423D02*
X007944Y021423D01*
X007846Y021325D02*
X009165Y021325D01*
X012707Y022507D02*
X013105Y022507D01*
X013029Y022409D02*
X012782Y022409D01*
X012823Y022310D02*
X012988Y022310D01*
X012981Y022212D02*
X012831Y022212D01*
X012827Y022113D02*
X012985Y022113D01*
X015299Y018861D02*
X003977Y018861D01*
X004006Y018763D02*
X015253Y018763D01*
X015251Y018664D02*
X004006Y018664D01*
X003995Y018565D02*
X015288Y018565D01*
X015420Y018467D02*
X003954Y018467D01*
X003890Y018368D02*
X015306Y018368D01*
X015256Y018270D02*
X003791Y018270D01*
X005353Y014821D02*
X005459Y014821D01*
X005753Y014821D02*
X005859Y014821D01*
X011226Y011076D02*
X013786Y011076D01*
X013675Y010978D02*
X011336Y010978D01*
X011394Y010879D02*
X013617Y010879D01*
X013581Y010781D02*
X011431Y010781D01*
X011431Y010682D02*
X013581Y010682D01*
X013597Y010583D02*
X011414Y010583D01*
X011374Y010485D02*
X013638Y010485D01*
X013726Y010386D02*
X011286Y010386D01*
X011254Y009499D02*
X013757Y009499D01*
X013765Y009508D02*
X013645Y009388D01*
X013581Y009232D01*
X013581Y009063D01*
X013645Y008906D01*
X013765Y008787D01*
X013921Y008722D01*
X014090Y008722D01*
X014246Y008787D01*
X014366Y008906D01*
X014431Y009063D01*
X014431Y009232D01*
X014366Y009388D01*
X014246Y009508D01*
X014090Y009572D01*
X013921Y009572D01*
X013765Y009508D01*
X013658Y009401D02*
X011353Y009401D01*
X011401Y009302D02*
X013610Y009302D01*
X013581Y009204D02*
X011431Y009204D01*
X011431Y009105D02*
X013581Y009105D01*
X013604Y009007D02*
X011407Y009007D01*
X011367Y008908D02*
X013645Y008908D01*
X013742Y008810D02*
X011269Y008810D01*
X014269Y008810D02*
X016742Y008810D01*
X016765Y008787D02*
X016921Y008722D01*
X017090Y008722D01*
X017246Y008787D01*
X017366Y008906D01*
X017431Y009063D01*
X017431Y009232D01*
X017366Y009388D01*
X017246Y009508D01*
X017090Y009572D01*
X016921Y009572D01*
X016765Y009508D01*
X016645Y009388D01*
X016581Y009232D01*
X016581Y009063D01*
X016645Y008906D01*
X016765Y008787D01*
X016645Y008908D02*
X014367Y008908D01*
X014407Y009007D02*
X016604Y009007D01*
X016581Y009105D02*
X014431Y009105D01*
X014431Y009204D02*
X016581Y009204D01*
X016610Y009302D02*
X014401Y009302D01*
X014353Y009401D02*
X016658Y009401D01*
X016757Y009499D02*
X014254Y009499D01*
X014286Y010386D02*
X016726Y010386D01*
X016638Y010485D02*
X014374Y010485D01*
X014414Y010583D02*
X016597Y010583D01*
X016581Y010682D02*
X014431Y010682D01*
X014431Y010781D02*
X016581Y010781D01*
X016617Y010879D02*
X014394Y010879D01*
X014336Y010978D02*
X016675Y010978D01*
X016786Y011076D02*
X014226Y011076D01*
X016956Y012456D02*
X017056Y012456D01*
X017056Y012554D02*
X016956Y012554D01*
X016956Y012653D02*
X017056Y012653D01*
X017226Y011076D02*
X028748Y011076D01*
X028748Y010978D02*
X017336Y010978D01*
X017394Y010879D02*
X028748Y010879D01*
X028748Y010781D02*
X017431Y010781D01*
X017431Y010682D02*
X026800Y010682D01*
X026681Y010583D02*
X017414Y010583D01*
X017374Y010485D02*
X026619Y010485D01*
X026581Y010386D02*
X017286Y010386D01*
X017254Y009499D02*
X020775Y009499D01*
X020796Y009521D02*
X020692Y009417D01*
X020636Y009281D01*
X020636Y009134D01*
X020692Y008998D01*
X020796Y008894D01*
X020932Y008837D01*
X021079Y008837D01*
X021215Y008894D01*
X021319Y008998D01*
X021376Y009134D01*
X021376Y009281D01*
X021319Y009417D01*
X021215Y009521D01*
X021079Y009577D01*
X020932Y009577D01*
X020796Y009521D01*
X020685Y009401D02*
X017353Y009401D01*
X017401Y009302D02*
X020645Y009302D01*
X020636Y009204D02*
X017431Y009204D01*
X017431Y009105D02*
X020647Y009105D01*
X020688Y009007D02*
X017407Y009007D01*
X017367Y008908D02*
X020781Y008908D01*
X021230Y008908D02*
X021781Y008908D01*
X021796Y008894D02*
X021932Y008837D01*
X022079Y008837D01*
X022215Y008894D01*
X022319Y008998D01*
X022376Y009134D01*
X022376Y009281D01*
X022319Y009417D01*
X022215Y009521D01*
X022079Y009577D01*
X021932Y009577D01*
X021796Y009521D01*
X021692Y009417D01*
X021636Y009281D01*
X021636Y009134D01*
X021692Y008998D01*
X021796Y008894D01*
X021688Y009007D02*
X021323Y009007D01*
X021364Y009105D02*
X021647Y009105D01*
X021636Y009204D02*
X021376Y009204D01*
X021367Y009302D02*
X021645Y009302D01*
X021685Y009401D02*
X021326Y009401D01*
X021237Y009499D02*
X021775Y009499D01*
X022237Y009499D02*
X022718Y009499D01*
X022644Y009401D02*
X022326Y009401D01*
X022367Y009302D02*
X022606Y009302D01*
X022608Y009105D02*
X022364Y009105D01*
X022376Y009204D02*
X022975Y009204D01*
X023036Y009204D02*
X026586Y009204D01*
X026626Y009302D02*
X023406Y009302D01*
X023036Y009302D02*
X022976Y009302D01*
X022976Y009401D02*
X023036Y009401D01*
X023036Y009499D02*
X022976Y009499D01*
X022976Y009105D02*
X023036Y009105D01*
X023036Y009007D02*
X022976Y009007D01*
X022976Y008908D02*
X023036Y008908D01*
X023036Y008810D02*
X022976Y008810D01*
X022902Y008810D02*
X017269Y008810D01*
X013951Y006149D02*
X028748Y006149D01*
X028748Y006050D02*
X026185Y006050D01*
X026027Y006050D02*
X024685Y006050D01*
X024527Y006050D02*
X023185Y006050D01*
X023027Y006050D02*
X021685Y006050D01*
X021527Y006050D02*
X020185Y006050D01*
X020027Y006050D02*
X018685Y006050D01*
X018527Y006050D02*
X017185Y006050D01*
X017027Y006050D02*
X015685Y006050D01*
X015527Y006050D02*
X013540Y006050D01*
X013894Y005853D02*
X015351Y005853D01*
X015351Y005755D02*
X013817Y005755D01*
X013672Y005656D02*
X015396Y005656D01*
X015390Y005952D02*
X013935Y005952D01*
X015308Y005065D02*
X016403Y005065D01*
X016354Y004966D02*
X015357Y004966D01*
X015361Y004868D02*
X016351Y004868D01*
X016387Y004769D02*
X015325Y004769D01*
X015815Y005656D02*
X016896Y005656D01*
X016851Y005755D02*
X015860Y005755D01*
X015861Y005853D02*
X016851Y005853D01*
X016890Y005952D02*
X015822Y005952D01*
X016808Y005065D02*
X017903Y005065D01*
X017854Y004966D02*
X016857Y004966D01*
X016861Y004868D02*
X017851Y004868D01*
X017887Y004769D02*
X016825Y004769D01*
X017315Y005656D02*
X018396Y005656D01*
X018351Y005755D02*
X017360Y005755D01*
X017361Y005853D02*
X018351Y005853D01*
X018390Y005952D02*
X017322Y005952D01*
X018308Y005065D02*
X019403Y005065D01*
X019354Y004966D02*
X018357Y004966D01*
X018361Y004868D02*
X019351Y004868D01*
X019387Y004769D02*
X018325Y004769D01*
X018815Y005656D02*
X019896Y005656D01*
X019851Y005755D02*
X018860Y005755D01*
X018861Y005853D02*
X019851Y005853D01*
X019890Y005952D02*
X018822Y005952D01*
X019808Y005065D02*
X020903Y005065D01*
X020854Y004966D02*
X019857Y004966D01*
X019861Y004868D02*
X020851Y004868D01*
X020887Y004769D02*
X019825Y004769D01*
X020315Y005656D02*
X021396Y005656D01*
X021351Y005755D02*
X020360Y005755D01*
X020361Y005853D02*
X021351Y005853D01*
X021390Y005952D02*
X020322Y005952D01*
X021308Y005065D02*
X022403Y005065D01*
X022354Y004966D02*
X021357Y004966D01*
X021361Y004868D02*
X022351Y004868D01*
X022387Y004769D02*
X021325Y004769D01*
X021815Y005656D02*
X022896Y005656D01*
X022851Y005755D02*
X021860Y005755D01*
X021861Y005853D02*
X022851Y005853D01*
X022890Y005952D02*
X021822Y005952D01*
X022808Y005065D02*
X023903Y005065D01*
X023854Y004966D02*
X022857Y004966D01*
X022861Y004868D02*
X023851Y004868D01*
X023887Y004769D02*
X022825Y004769D01*
X023315Y005656D02*
X024396Y005656D01*
X024351Y005755D02*
X023360Y005755D01*
X023361Y005853D02*
X024351Y005853D01*
X024390Y005952D02*
X023322Y005952D01*
X024308Y005065D02*
X025403Y005065D01*
X025354Y004966D02*
X024357Y004966D01*
X024361Y004868D02*
X025351Y004868D01*
X025387Y004769D02*
X024325Y004769D01*
X024815Y005656D02*
X025896Y005656D01*
X025851Y005755D02*
X024860Y005755D01*
X024861Y005853D02*
X025851Y005853D01*
X025890Y005952D02*
X024822Y005952D01*
X024721Y007331D02*
X002256Y007331D01*
X002256Y007430D02*
X024662Y007430D01*
X024651Y007529D02*
X002256Y007529D01*
X002256Y007627D02*
X024679Y007627D01*
X025142Y008711D02*
X026851Y008711D01*
X026702Y008810D02*
X025161Y008810D01*
X025140Y008908D02*
X026628Y008908D01*
X026698Y009401D02*
X025560Y009401D01*
X027292Y009992D02*
X027720Y009992D01*
X027635Y010091D02*
X027376Y010091D01*
X027417Y010189D02*
X027594Y010189D01*
X027581Y010288D02*
X027431Y010288D01*
X027431Y010386D02*
X027581Y010386D01*
X027619Y010485D02*
X027392Y010485D01*
X027330Y010583D02*
X027681Y010583D01*
X027800Y010682D02*
X027211Y010682D01*
X028211Y010682D02*
X028748Y010682D01*
X028748Y010583D02*
X028330Y010583D01*
X028392Y010485D02*
X028748Y010485D01*
X028748Y010386D02*
X028431Y010386D01*
X028431Y010288D02*
X028748Y010288D01*
X028748Y010189D02*
X028417Y010189D01*
X028376Y010091D02*
X028748Y010091D01*
X028748Y009992D02*
X028292Y009992D01*
X028169Y009499D02*
X028748Y009499D01*
X028748Y009401D02*
X028313Y009401D01*
X028385Y009302D02*
X028748Y009302D01*
X028748Y009204D02*
X028426Y009204D01*
X028431Y009105D02*
X028748Y009105D01*
X028748Y009007D02*
X028424Y009007D01*
X028383Y008908D02*
X028748Y008908D01*
X028748Y008810D02*
X028309Y008810D01*
X027716Y008218D02*
X027296Y008218D01*
X027378Y008120D02*
X027634Y008120D01*
X027593Y008021D02*
X027418Y008021D01*
X027431Y007923D02*
X027581Y007923D01*
X027581Y007824D02*
X027431Y007824D01*
X027390Y007726D02*
X027621Y007726D01*
X027685Y007627D02*
X027327Y007627D01*
X027202Y007529D02*
X027809Y007529D01*
X027429Y007134D02*
X028748Y007134D01*
X028748Y007036D02*
X027461Y007036D01*
X027453Y006937D02*
X028748Y006937D01*
X028748Y006839D02*
X027398Y006839D01*
X028748Y004375D02*
X013254Y004375D01*
X013927Y003685D02*
X028748Y003685D01*
X028748Y003587D02*
X027200Y003587D01*
X027326Y003488D02*
X028748Y003488D01*
X028748Y003390D02*
X027390Y003390D01*
X027431Y003291D02*
X028748Y003291D01*
X028748Y003193D02*
X027431Y003193D01*
X027419Y003094D02*
X028748Y003094D01*
X028748Y002996D02*
X027378Y002996D01*
X027296Y002897D02*
X028748Y002897D01*
X026715Y002897D02*
X026296Y002897D01*
X026378Y002996D02*
X026633Y002996D01*
X026592Y003094D02*
X026419Y003094D01*
X026431Y003193D02*
X026581Y003193D01*
X026581Y003291D02*
X026431Y003291D01*
X026390Y003390D02*
X026621Y003390D01*
X026686Y003488D02*
X026326Y003488D01*
X026200Y003587D02*
X026812Y003587D01*
X025812Y003587D02*
X025200Y003587D01*
X025326Y003488D02*
X025686Y003488D01*
X025621Y003390D02*
X025390Y003390D01*
X025431Y003291D02*
X025581Y003291D01*
X025581Y003193D02*
X025431Y003193D01*
X025419Y003094D02*
X025592Y003094D01*
X025633Y002996D02*
X025378Y002996D01*
X025296Y002897D02*
X025715Y002897D01*
X024715Y002897D02*
X024296Y002897D01*
X024378Y002996D02*
X024633Y002996D01*
X024592Y003094D02*
X024419Y003094D01*
X024431Y003193D02*
X024581Y003193D01*
X024581Y003291D02*
X024431Y003291D01*
X024390Y003390D02*
X024621Y003390D01*
X024686Y003488D02*
X024326Y003488D01*
X024200Y003587D02*
X024812Y003587D01*
X023812Y003587D02*
X023200Y003587D01*
X023326Y003488D02*
X023686Y003488D01*
X023621Y003390D02*
X023390Y003390D01*
X023431Y003291D02*
X023581Y003291D01*
X023581Y003193D02*
X023431Y003193D01*
X023419Y003094D02*
X023592Y003094D01*
X023633Y002996D02*
X023378Y002996D01*
X023296Y002897D02*
X023715Y002897D01*
X022715Y002897D02*
X022296Y002897D01*
X022378Y002996D02*
X022633Y002996D01*
X022592Y003094D02*
X022419Y003094D01*
X022431Y003193D02*
X022581Y003193D01*
X022581Y003291D02*
X022431Y003291D01*
X022390Y003390D02*
X022621Y003390D01*
X022686Y003488D02*
X022326Y003488D01*
X022200Y003587D02*
X022812Y003587D01*
X021812Y003587D02*
X020200Y003587D01*
X020326Y003488D02*
X021686Y003488D01*
X021621Y003390D02*
X020390Y003390D01*
X020431Y003291D02*
X021581Y003291D01*
X021581Y003193D02*
X020431Y003193D01*
X020419Y003094D02*
X021592Y003094D01*
X021633Y002996D02*
X020378Y002996D01*
X020296Y002897D02*
X021715Y002897D01*
X019715Y002897D02*
X019296Y002897D01*
X019378Y002996D02*
X019633Y002996D01*
X019592Y003094D02*
X019419Y003094D01*
X019431Y003193D02*
X019581Y003193D01*
X019581Y003291D02*
X019431Y003291D01*
X019390Y003390D02*
X019621Y003390D01*
X019686Y003488D02*
X019326Y003488D01*
X019200Y003587D02*
X019812Y003587D01*
X018812Y003587D02*
X018200Y003587D01*
X018326Y003488D02*
X018686Y003488D01*
X018621Y003390D02*
X018390Y003390D01*
X018431Y003291D02*
X018581Y003291D01*
X018581Y003193D02*
X018431Y003193D01*
X018419Y003094D02*
X018592Y003094D01*
X018633Y002996D02*
X018378Y002996D01*
X018296Y002897D02*
X018715Y002897D01*
X017715Y002897D02*
X017296Y002897D01*
X017378Y002996D02*
X017633Y002996D01*
X017592Y003094D02*
X017419Y003094D01*
X017431Y003193D02*
X017581Y003193D01*
X017581Y003291D02*
X017431Y003291D01*
X017390Y003390D02*
X017621Y003390D01*
X017686Y003488D02*
X017326Y003488D01*
X017200Y003587D02*
X017812Y003587D01*
X016812Y003587D02*
X016274Y003587D01*
X016376Y003488D02*
X016686Y003488D01*
X016621Y003390D02*
X016435Y003390D01*
X016463Y003291D02*
X016581Y003291D01*
X016056Y003390D02*
X015956Y003390D01*
X015956Y003488D02*
X016056Y003488D01*
X016056Y003587D02*
X015956Y003587D01*
X015737Y003587D02*
X015200Y003587D01*
X015326Y003488D02*
X015635Y003488D01*
X015577Y003390D02*
X015390Y003390D01*
X015431Y003291D02*
X015548Y003291D01*
X015956Y003094D02*
X016056Y003094D01*
X016056Y002996D02*
X015956Y002996D01*
X015956Y002897D02*
X016056Y002897D01*
X016056Y002799D02*
X015956Y002799D01*
X011451Y003193D02*
X010814Y003193D01*
X010892Y003291D02*
X011356Y003291D01*
X011315Y003390D02*
X010934Y003390D01*
X010951Y003587D02*
X011293Y003587D01*
X011293Y003488D02*
X010540Y003488D01*
X010540Y003390D02*
X010440Y003390D01*
X010440Y003488D02*
X009143Y003488D01*
X009143Y003442D02*
X009079Y003285D01*
X008959Y003166D01*
X008803Y003101D01*
X008634Y003101D01*
X008478Y003166D01*
X008358Y003285D01*
X008293Y003442D01*
X008293Y003611D01*
X008358Y003767D01*
X008478Y003886D01*
X008634Y003951D01*
X008803Y003951D01*
X008959Y003886D01*
X009079Y003767D01*
X009143Y003611D01*
X009143Y003442D01*
X009122Y003390D02*
X010045Y003390D01*
X010088Y003291D02*
X009081Y003291D01*
X008986Y003193D02*
X010166Y003193D01*
X010440Y003193D02*
X010540Y003193D01*
X010540Y003291D02*
X010440Y003291D01*
X010440Y003587D02*
X010540Y003587D01*
X010540Y003685D02*
X010440Y003685D01*
X010440Y003784D02*
X010540Y003784D01*
X010540Y003882D02*
X010440Y003882D01*
X010189Y003882D02*
X008963Y003882D01*
X009061Y003784D02*
X010102Y003784D01*
X010053Y003685D02*
X009112Y003685D01*
X009143Y003587D02*
X010029Y003587D01*
X010791Y003882D02*
X011474Y003882D01*
X011375Y003784D02*
X010877Y003784D01*
X010927Y003685D02*
X011324Y003685D01*
X008474Y003882D02*
X007791Y003882D01*
X007877Y003784D02*
X008375Y003784D01*
X008324Y003685D02*
X007927Y003685D01*
X007951Y003587D02*
X008293Y003587D01*
X008293Y003488D02*
X007540Y003488D01*
X007540Y003390D02*
X007440Y003390D01*
X007440Y003488D02*
X006143Y003488D01*
X006143Y003587D02*
X007029Y003587D01*
X007053Y003685D02*
X006112Y003685D01*
X006061Y003784D02*
X007102Y003784D01*
X007189Y003882D02*
X005963Y003882D01*
X006122Y003390D02*
X007045Y003390D01*
X007088Y003291D02*
X006081Y003291D01*
X005986Y003193D02*
X007166Y003193D01*
X007440Y003193D02*
X007540Y003193D01*
X007540Y003291D02*
X007440Y003291D01*
X007440Y003587D02*
X007540Y003587D01*
X007540Y003685D02*
X007440Y003685D01*
X007440Y003784D02*
X007540Y003784D01*
X007540Y003882D02*
X007440Y003882D01*
X007934Y003390D02*
X008315Y003390D01*
X008356Y003291D02*
X007892Y003291D01*
X007814Y003193D02*
X008451Y003193D01*
X022230Y008908D02*
X022725Y008908D01*
X022648Y009007D02*
X022323Y009007D01*
X027264Y011864D02*
X027747Y011864D01*
X027649Y011963D02*
X027362Y011963D01*
X027405Y012062D02*
X027606Y012062D01*
X027581Y012160D02*
X027431Y012160D01*
X027431Y012259D02*
X027581Y012259D01*
X027608Y012357D02*
X027404Y012357D01*
X027358Y012456D02*
X027653Y012456D01*
X027752Y012554D02*
X027260Y012554D01*
X020776Y018861D02*
X015712Y018861D01*
M02*
