G75*
G70*
%OFA0B0*%
%FSLAX24Y24*%
%IPPOS*%
%LPD*%
%AMOC8*
5,1,8,0,0,1.08239X$1,22.5*
%
%ADD10C,0.0000*%
%ADD11R,0.2000X0.5000*%
%ADD12C,0.0040*%
%ADD13C,0.0050*%
D10*
X002006Y000107D02*
X002006Y000607D01*
X002306Y000507D01*
X002306Y000707D01*
X002006Y000607D01*
X014106Y000607D01*
X016206Y000607D02*
X029006Y000607D01*
X028706Y000707D01*
X028706Y000507D01*
X029006Y000607D01*
X029006Y000107D01*
X029006Y000607D02*
X029006Y001907D01*
X028998Y002207D02*
X028998Y023177D01*
X002006Y023177D01*
X002006Y002207D01*
X028998Y002207D01*
X023006Y014207D02*
X021006Y014207D01*
X021006Y019207D01*
X023006Y019207D01*
X023006Y014207D01*
X021506Y019407D02*
X021706Y019907D01*
X021306Y019907D01*
X021506Y019407D01*
X021506Y023807D01*
X001806Y023207D02*
X000806Y023207D01*
X000706Y022807D01*
X000906Y022807D01*
X000806Y023207D01*
X000806Y014007D01*
X000806Y011507D02*
X000806Y002207D01*
X000906Y002407D01*
X000706Y002407D01*
X000806Y002207D01*
X000106Y002207D01*
X000806Y002207D02*
X001806Y002207D01*
X002006Y001907D02*
X002006Y000607D01*
X000806Y023207D02*
X000106Y023207D01*
D11*
X022006Y016707D03*
D12*
X000986Y013125D02*
X000986Y012818D01*
X000986Y012971D02*
X000525Y012971D01*
X000679Y012818D01*
X000909Y012664D02*
X000909Y012588D01*
X000986Y012588D01*
X000986Y012664D01*
X000909Y012664D01*
X000986Y012434D02*
X000986Y012127D01*
X000679Y012434D01*
X000602Y012434D01*
X000525Y012357D01*
X000525Y012204D01*
X000602Y012127D01*
X000679Y013278D02*
X000602Y013355D01*
X000449Y013355D01*
X000449Y013508D02*
X000602Y013508D01*
X000679Y013432D01*
X014526Y000811D02*
X014602Y000888D01*
X014756Y000888D01*
X014833Y000811D01*
X014833Y000734D01*
X014526Y000427D01*
X014833Y000427D01*
X014986Y000427D02*
X015063Y000427D01*
X015063Y000504D01*
X014986Y000504D01*
X014986Y000427D01*
X015216Y000427D02*
X015216Y000504D01*
X015523Y000811D01*
X015523Y000888D01*
X015216Y000888D01*
X015677Y000734D02*
X015753Y000811D01*
X015753Y000964D01*
X015907Y000964D02*
X015907Y000811D01*
X015830Y000734D01*
D13*
X020589Y024032D02*
X020531Y024091D01*
X020531Y024324D01*
X020589Y024383D01*
X020706Y024383D01*
X020764Y024324D01*
X020899Y024383D02*
X020899Y024091D01*
X020957Y024032D01*
X021074Y024032D01*
X021132Y024091D01*
X021132Y024383D01*
X021267Y024383D02*
X021501Y024383D01*
X021384Y024383D02*
X021384Y024032D01*
X021636Y024091D02*
X021636Y024324D01*
X021694Y024383D01*
X021811Y024383D01*
X021869Y024324D01*
X021869Y024091D01*
X021811Y024032D01*
X021694Y024032D01*
X021636Y024091D01*
X022004Y024091D02*
X022004Y024383D01*
X022237Y024383D02*
X022237Y024091D01*
X022179Y024032D01*
X022062Y024032D01*
X022004Y024091D01*
X022372Y024383D02*
X022606Y024383D01*
X022489Y024383D02*
X022489Y024032D01*
X022438Y024632D02*
X022322Y024632D01*
X022263Y024691D01*
X022497Y024924D01*
X022497Y024691D01*
X022438Y024632D01*
X022263Y024691D02*
X022263Y024924D01*
X022322Y024983D01*
X022438Y024983D01*
X022497Y024924D01*
X022632Y024691D02*
X022690Y024691D01*
X022690Y024632D01*
X022632Y024632D01*
X022632Y024691D01*
X022816Y024691D02*
X022874Y024632D01*
X022991Y024632D01*
X023049Y024691D01*
X023049Y024807D01*
X022991Y024866D01*
X022932Y024866D01*
X022816Y024807D01*
X022816Y024983D01*
X023049Y024983D01*
X023184Y024866D02*
X023242Y024924D01*
X023242Y025041D01*
X023359Y025041D02*
X023359Y024924D01*
X023301Y024866D01*
X021760Y024983D02*
X021527Y024632D01*
X021760Y024632D02*
X021527Y024983D01*
X021027Y025041D02*
X021027Y024924D01*
X020968Y024866D01*
X020910Y024924D02*
X020910Y025041D01*
X020910Y024924D02*
X020851Y024866D01*
X020717Y024866D02*
X020717Y024924D01*
X020658Y024983D01*
X020541Y024983D01*
X020483Y024924D01*
X020717Y024866D02*
X020483Y024632D01*
X020717Y024632D01*
X020357Y024632D02*
X020299Y024632D01*
X020299Y024691D01*
X020357Y024691D01*
X020357Y024632D01*
X020164Y024691D02*
X020164Y024924D01*
X019931Y024691D01*
X019989Y024632D01*
X020106Y024632D01*
X020164Y024691D01*
X020164Y024924D02*
X020106Y024983D01*
X019989Y024983D01*
X019931Y024924D01*
X019931Y024691D01*
X020589Y024032D02*
X020706Y024032D01*
X020764Y024091D01*
M02*
