G75*
G70*
%OFA0B0*%
%FSLAX24Y24*%
%IPPOS*%
%LPD*%
%AMOC8*
5,1,8,0,0,1.08239X$1,22.5*
%
%ADD10C,0.0000*%
%ADD11C,0.0050*%
%ADD12R,0.7300X0.1900*%
%ADD13C,0.0030*%
%ADD14C,0.0080*%
%ADD15C,0.0100*%
%ADD16R,0.0230X0.0010*%
%ADD17R,0.0160X0.0010*%
%ADD18R,0.0120X0.0010*%
%ADD19R,0.0310X0.0010*%
%ADD20R,0.0250X0.0010*%
%ADD21R,0.0410X0.0010*%
%ADD22R,0.0320X0.0010*%
%ADD23R,0.0480X0.0010*%
%ADD24R,0.0240X0.0010*%
%ADD25R,0.0380X0.0010*%
%ADD26R,0.0540X0.0010*%
%ADD27R,0.0600X0.0010*%
%ADD28R,0.0550X0.0010*%
%ADD29R,0.0430X0.0010*%
%ADD30R,0.0590X0.0010*%
%ADD31R,0.0640X0.0010*%
%ADD32R,0.0520X0.0010*%
%ADD33R,0.0680X0.0010*%
%ADD34R,0.0700X0.0010*%
%ADD35R,0.0580X0.0010*%
%ADD36R,0.0720X0.0010*%
%ADD37R,0.0610X0.0010*%
%ADD38R,0.0740X0.0010*%
%ADD39R,0.0660X0.0010*%
%ADD40R,0.0750X0.0010*%
%ADD41R,0.0690X0.0010*%
%ADD42R,0.0770X0.0010*%
%ADD43R,0.0710X0.0010*%
%ADD44R,0.0780X0.0010*%
%ADD45R,0.0730X0.0010*%
%ADD46R,0.0790X0.0010*%
%ADD47R,0.0760X0.0010*%
%ADD48R,0.0800X0.0010*%
%ADD49R,0.0810X0.0010*%
%ADD50R,0.0820X0.0010*%
%ADD51R,0.0530X0.0010*%
%ADD52R,0.0400X0.0010*%
%ADD53R,0.0170X0.0010*%
%ADD54R,0.0490X0.0010*%
%ADD55R,0.0370X0.0010*%
%ADD56R,0.0130X0.0010*%
%ADD57R,0.0460X0.0010*%
%ADD58R,0.0340X0.0010*%
%ADD59R,0.0090X0.0010*%
%ADD60R,0.0350X0.0010*%
%ADD61R,0.0060X0.0010*%
%ADD62R,0.0030X0.0010*%
%ADD63R,0.0010X0.0010*%
%ADD64R,0.0290X0.0010*%
%ADD65R,0.0330X0.0010*%
%ADD66R,0.0280X0.0010*%
%ADD67R,0.0300X0.0010*%
%ADD68R,0.0270X0.0010*%
%ADD69R,0.0260X0.0010*%
%ADD70R,0.0570X0.0010*%
%ADD71R,0.0560X0.0010*%
%ADD72R,0.1100X0.0010*%
%ADD73R,0.1090X0.0010*%
%ADD74R,0.0360X0.0010*%
%ADD75R,0.0390X0.0010*%
%ADD76R,0.0200X0.0010*%
%ADD77R,0.0210X0.0010*%
%ADD78R,0.0050X0.0010*%
%ADD79R,0.0220X0.0010*%
%ADD80R,0.0080X0.0010*%
%ADD81R,0.0180X0.0010*%
%ADD82R,0.0670X0.0010*%
%ADD83R,0.0650X0.0010*%
%ADD84R,0.0630X0.0010*%
%ADD85R,0.0510X0.0010*%
%ADD86R,0.0450X0.0010*%
%ADD87R,0.0500X0.0010*%
%ADD88R,0.1360X0.0010*%
%ADD89R,0.0420X0.0010*%
%ADD90R,0.0470X0.0010*%
%ADD91R,0.0440X0.0010*%
%ADD92R,0.0040X0.0010*%
%ADD93R,0.0190X0.0010*%
%ADD94C,0.0040*%
%ADD95R,0.0140X0.0010*%
%ADD96R,0.0100X0.0010*%
%ADD97R,0.0070X0.0010*%
%ADD98R,0.2140X0.0010*%
%ADD99R,0.0150X0.0010*%
%ADD100R,0.2170X0.0010*%
%ADD101R,0.2200X0.0010*%
%ADD102R,0.2220X0.0010*%
%ADD103R,0.2240X0.0010*%
%ADD104R,0.0110X0.0010*%
%ADD105R,0.2250X0.0010*%
%ADD106R,0.2270X0.0010*%
%ADD107R,0.2280X0.0010*%
%ADD108R,0.1870X0.0010*%
%ADD109R,0.1880X0.0010*%
%ADD110R,0.7310X0.0010*%
%ADD111R,0.7350X0.0010*%
%ADD112R,0.7370X0.0010*%
%ADD113R,0.7400X0.0010*%
%ADD114R,0.7410X0.0010*%
%ADD115R,0.7430X0.0010*%
%ADD116R,0.7450X0.0010*%
%ADD117R,0.1280X0.0010*%
%ADD118R,0.7460X0.0010*%
%ADD119R,0.1290X0.0010*%
%ADD120R,0.7480X0.0010*%
%ADD121R,0.7500X0.0010*%
%ADD122R,0.1030X0.0010*%
%ADD123R,0.1000X0.0010*%
%ADD124R,0.7520X0.0010*%
%ADD125R,0.0990X0.0010*%
%ADD126R,0.7530X0.0010*%
%ADD127R,0.0970X0.0010*%
%ADD128R,0.7540X0.0010*%
%ADD129R,0.0960X0.0010*%
%ADD130R,0.7550X0.0010*%
%ADD131R,0.0950X0.0010*%
%ADD132R,0.0940X0.0010*%
%ADD133R,0.7560X0.0010*%
%ADD134R,0.0920X0.0010*%
%ADD135R,0.7570X0.0010*%
%ADD136R,0.0910X0.0010*%
%ADD137R,0.0900X0.0010*%
%ADD138R,0.5200X0.0010*%
%ADD139R,0.0890X0.0010*%
%ADD140R,0.2190X0.0010*%
%ADD141R,0.5130X0.0010*%
%ADD142R,0.0880X0.0010*%
%ADD143R,0.2160X0.0010*%
%ADD144R,0.5090X0.0010*%
%ADD145R,0.0860X0.0010*%
%ADD146R,0.0620X0.0010*%
%ADD147R,0.0930X0.0010*%
%ADD148R,0.0850X0.0010*%
%ADD149R,0.0840X0.0010*%
%ADD150R,0.0830X0.0010*%
%ADD151R,0.0020X0.0010*%
%ADD152R,0.0870X0.0010*%
%ADD153R,0.0980X0.0010*%
%ADD154R,0.1010X0.0010*%
%ADD155R,0.1020X0.0010*%
%ADD156R,0.1040X0.0010*%
%ADD157R,0.2730X0.0010*%
%ADD158R,0.4570X0.0010*%
%ADD159R,0.1050X0.0010*%
%ADD160R,0.2790X0.0010*%
%ADD161R,0.4630X0.0010*%
%ADD162R,0.7630X0.0010*%
%ADD163R,0.1060X0.0010*%
%ADD164R,0.7640X0.0010*%
%ADD165R,0.7650X0.0010*%
%ADD166R,0.1070X0.0010*%
%ADD167R,0.7670X0.0010*%
%ADD168R,0.7690X0.0010*%
%ADD169R,0.7710X0.0010*%
%ADD170R,0.1080X0.0010*%
%ADD171R,0.7730X0.0010*%
%ADD172R,0.7750X0.0010*%
%ADD173R,0.7780X0.0010*%
%ADD174R,0.7810X0.0010*%
%ADD175R,0.7860X0.0010*%
%ADD176R,0.8190X0.0010*%
%ADD177R,0.8180X0.0010*%
%ADD178R,0.8170X0.0010*%
%ADD179R,0.8160X0.0010*%
%ADD180R,0.8150X0.0010*%
%ADD181R,0.8130X0.0010*%
%ADD182R,0.8100X0.0010*%
%ADD183R,0.1680X0.0040*%
%ADD184R,0.0080X0.0040*%
%ADD185R,0.0040X0.0040*%
%ADD186R,0.0160X0.0040*%
%ADD187R,0.0200X0.0040*%
%ADD188R,0.0320X0.0040*%
%ADD189R,0.0640X0.0040*%
%ADD190R,0.0120X0.0040*%
%ADD191R,0.0600X0.0040*%
%ADD192R,0.0400X0.0040*%
%ADD193R,0.0280X0.0040*%
%ADD194R,0.0360X0.0040*%
%ADD195R,0.0440X0.0040*%
%ADD196R,0.0240X0.0040*%
%ADD197R,0.1200X0.0040*%
%ADD198R,0.1240X0.0040*%
%ADD199R,0.1160X0.0040*%
%ADD200R,0.0800X0.0040*%
%ADD201R,0.1140X0.0010*%
%ADD202R,0.1210X0.0010*%
%ADD203R,0.1240X0.0010*%
%ADD204R,0.1340X0.0010*%
%ADD205R,0.1390X0.0010*%
%ADD206R,0.1420X0.0010*%
%ADD207R,0.1470X0.0010*%
%ADD208R,0.1520X0.0010*%
%ADD209R,0.1560X0.0010*%
%ADD210R,0.1580X0.0010*%
%ADD211R,0.1620X0.0010*%
%ADD212R,0.1660X0.0010*%
%ADD213R,0.1700X0.0010*%
%ADD214R,0.1740X0.0010*%
%ADD215R,0.1760X0.0010*%
%ADD216R,0.1800X0.0010*%
%ADD217R,0.1830X0.0010*%
%ADD218R,0.1920X0.0010*%
%ADD219R,0.1960X0.0010*%
%ADD220R,0.1980X0.0010*%
%ADD221R,0.2020X0.0010*%
%ADD222R,0.2040X0.0010*%
%ADD223R,0.2060X0.0010*%
%ADD224R,0.2090X0.0010*%
%ADD225R,0.2120X0.0010*%
%ADD226R,0.2260X0.0010*%
%ADD227R,0.2300X0.0010*%
%ADD228R,0.2320X0.0010*%
%ADD229R,0.2340X0.0010*%
%ADD230R,0.2360X0.0010*%
%ADD231R,0.2390X0.0010*%
%ADD232R,0.2410X0.0010*%
%ADD233R,0.2430X0.0010*%
%ADD234R,0.2450X0.0010*%
%ADD235R,0.2460X0.0010*%
%ADD236R,0.2480X0.0010*%
%ADD237R,0.2500X0.0010*%
%ADD238R,0.2520X0.0010*%
%ADD239R,0.1190X0.0010*%
%ADD240R,0.1180X0.0010*%
%ADD241R,0.1600X0.0010*%
%ADD242R,0.1610X0.0010*%
%ADD243R,0.1110X0.0010*%
%ADD244R,0.1130X0.0010*%
%ADD245R,0.1120X0.0010*%
%ADD246R,0.1400X0.0010*%
%ADD247R,0.1380X0.0010*%
%ADD248R,0.1370X0.0010*%
%ADD249R,0.1350X0.0010*%
%ADD250R,0.1320X0.0010*%
%ADD251R,0.1300X0.0010*%
%ADD252R,0.1260X0.0010*%
%ADD253R,0.1170X0.0010*%
%ADD254R,0.1150X0.0010*%
%ADD255R,0.1160X0.0010*%
%ADD256R,0.2530X0.0010*%
%ADD257R,0.2420X0.0010*%
%ADD258R,0.2400X0.0010*%
%ADD259R,0.2380X0.0010*%
%ADD260R,0.2350X0.0010*%
%ADD261R,0.2310X0.0010*%
%ADD262R,0.2100X0.0010*%
%ADD263R,0.1940X0.0010*%
%ADD264R,0.1900X0.0010*%
%ADD265R,0.1840X0.0010*%
%ADD266R,0.1780X0.0010*%
%ADD267R,0.1720X0.0010*%
%ADD268R,0.1680X0.0010*%
%ADD269R,0.1630X0.0010*%
%ADD270R,0.1570X0.0010*%
%ADD271R,0.1480X0.0010*%
%ADD272R,0.1440X0.0010*%
D10*
X002006Y002207D02*
X002006Y023177D01*
X028998Y023177D01*
X028998Y002207D01*
X002006Y002207D01*
D11*
X003122Y004121D02*
X003122Y004493D01*
X003889Y004493D01*
X003889Y004121D01*
X003122Y004121D01*
X003122Y005021D02*
X003122Y005393D01*
X003889Y005393D01*
X003889Y005021D01*
X003122Y005021D01*
X004406Y007307D02*
X004406Y007357D01*
X004406Y007307D02*
X005306Y007307D01*
X005306Y008107D01*
X004406Y008107D01*
X004406Y008057D01*
X005306Y008107D02*
X005356Y008107D01*
X005356Y008057D01*
X005356Y007357D01*
X005356Y007307D01*
X005306Y007307D01*
X005356Y007307D02*
X005406Y007307D01*
X005356Y007357D01*
X005456Y007357D01*
X005506Y007357D01*
X005556Y007357D01*
X005606Y007357D01*
X005606Y007307D01*
X005556Y007307D01*
X005556Y007357D01*
X005556Y007307D02*
X005506Y007307D01*
X005506Y007357D01*
X005506Y007307D02*
X005456Y007307D01*
X005456Y007357D01*
X005456Y007307D02*
X005406Y007307D01*
X005456Y008057D02*
X005356Y008057D01*
X005406Y008107D01*
X005356Y008107D01*
X005406Y008107D02*
X005456Y008107D01*
X005456Y008057D01*
X005506Y008057D01*
X005556Y008057D01*
X005606Y008057D01*
X005606Y008107D01*
X005556Y008107D01*
X005556Y008057D01*
X005556Y008107D02*
X005506Y008107D01*
X005506Y008057D01*
X005506Y008107D02*
X005456Y008107D01*
X005820Y008324D02*
X005820Y009091D01*
X006192Y009091D01*
X006192Y008324D01*
X005820Y008324D01*
X006320Y008324D02*
X006320Y009091D01*
X006692Y009091D01*
X006692Y008324D01*
X006320Y008324D01*
X006320Y009324D02*
X006320Y010091D01*
X006692Y010091D01*
X006692Y009324D01*
X006320Y009324D01*
X006192Y009324D02*
X005820Y009324D01*
X005820Y010091D01*
X006192Y010091D01*
X006192Y009324D01*
X005606Y010307D02*
X005556Y010307D01*
X005556Y010357D01*
X005506Y010357D01*
X005456Y010357D01*
X005356Y010357D01*
X005356Y010307D01*
X005306Y010307D01*
X005306Y011107D01*
X004406Y011107D01*
X004406Y011057D01*
X004406Y010357D02*
X004406Y010307D01*
X005306Y010307D01*
X005356Y010307D02*
X005406Y010307D01*
X005356Y010357D01*
X005356Y011057D01*
X005356Y011107D01*
X005306Y011107D01*
X005356Y011107D02*
X005406Y011107D01*
X005356Y011057D01*
X005456Y011057D01*
X005506Y011057D01*
X005556Y011057D01*
X005606Y011057D01*
X005606Y011107D01*
X005556Y011107D01*
X005556Y011057D01*
X005556Y011107D02*
X005506Y011107D01*
X005506Y011057D01*
X005506Y011107D02*
X005456Y011107D01*
X005456Y011057D01*
X005456Y011107D02*
X005406Y011107D01*
X005456Y010357D02*
X005456Y010307D01*
X005406Y010307D01*
X005456Y010307D02*
X005506Y010307D01*
X005506Y010357D01*
X005556Y010357D02*
X005606Y010357D01*
X005606Y010307D01*
X005556Y010307D02*
X005506Y010307D01*
X005506Y011807D02*
X005506Y011857D01*
X005456Y011857D01*
X005356Y011857D01*
X005356Y011807D01*
X005306Y011807D01*
X005306Y012607D01*
X004406Y012607D01*
X004406Y012557D01*
X005306Y012607D02*
X005356Y012607D01*
X005356Y012557D01*
X005356Y011857D01*
X005406Y011807D01*
X005356Y011807D01*
X005406Y011807D02*
X005456Y011807D01*
X005456Y011857D01*
X005506Y011857D02*
X005556Y011857D01*
X005606Y011857D01*
X005606Y011807D01*
X005556Y011807D01*
X005556Y011857D01*
X005556Y011807D02*
X005506Y011807D01*
X005456Y011807D01*
X005306Y011807D02*
X004406Y011807D01*
X004406Y011857D01*
X005356Y012557D02*
X005456Y012557D01*
X005506Y012557D01*
X005556Y012557D01*
X005606Y012557D01*
X005606Y012607D01*
X005556Y012607D01*
X005556Y012557D01*
X005556Y012607D02*
X005506Y012607D01*
X005506Y012557D01*
X005506Y012607D02*
X005456Y012607D01*
X005456Y012557D01*
X005456Y012607D02*
X005406Y012607D01*
X005356Y012557D01*
X005356Y012607D02*
X005406Y012607D01*
X005820Y012824D02*
X005820Y013591D01*
X006192Y013591D01*
X006192Y012824D01*
X005820Y012824D01*
X006320Y012824D02*
X006320Y013591D01*
X006692Y013591D01*
X006692Y012824D01*
X006320Y012824D01*
X006320Y013824D02*
X006320Y014591D01*
X006692Y014591D01*
X006692Y013824D01*
X006320Y013824D01*
X006192Y013824D02*
X005820Y013824D01*
X005820Y014591D01*
X006192Y014591D01*
X006192Y013824D01*
X006974Y013991D02*
X007032Y013932D01*
X007149Y013932D01*
X007207Y013991D01*
X007207Y014224D01*
X007149Y014283D01*
X007032Y014283D01*
X006974Y014224D01*
X007711Y014283D02*
X007711Y014049D01*
X007827Y013932D01*
X007944Y014049D01*
X007944Y014283D01*
X008079Y014283D02*
X008312Y014283D01*
X008312Y013932D01*
X008079Y013932D01*
X008196Y014107D02*
X008312Y014107D01*
X008447Y014107D02*
X008506Y014049D01*
X008681Y014049D01*
X008681Y013932D02*
X008681Y014283D01*
X008506Y014283D01*
X008447Y014224D01*
X008447Y014107D01*
X008564Y014049D02*
X008447Y013932D01*
X010901Y013991D02*
X010901Y014049D01*
X010959Y014107D01*
X011134Y014107D01*
X011134Y013991D01*
X011076Y013932D01*
X010959Y013932D01*
X010901Y013991D01*
X011017Y014224D02*
X010901Y014283D01*
X011017Y014224D02*
X011134Y014107D01*
X011269Y013932D02*
X011503Y013932D01*
X011386Y013932D02*
X011386Y014283D01*
X011503Y014166D01*
X011637Y014166D02*
X011637Y014224D01*
X011696Y014283D01*
X011812Y014283D01*
X011871Y014224D01*
X012006Y014107D02*
X012239Y014107D01*
X012374Y013991D02*
X012432Y013932D01*
X012549Y013932D01*
X012607Y013991D01*
X012374Y014224D01*
X012374Y013991D01*
X012374Y014224D02*
X012432Y014283D01*
X012549Y014283D01*
X012607Y014224D01*
X012607Y013991D01*
X012742Y013991D02*
X012801Y013932D01*
X012917Y013932D01*
X012976Y013991D01*
X012742Y014224D01*
X012742Y013991D01*
X012742Y014224D02*
X012801Y014283D01*
X012917Y014283D01*
X012976Y014224D01*
X012976Y013991D01*
X013111Y013932D02*
X013344Y013932D01*
X013111Y014166D01*
X013111Y014224D01*
X013169Y014283D01*
X013286Y014283D01*
X013344Y014224D01*
X013479Y014224D02*
X013479Y014166D01*
X013537Y014107D01*
X013712Y014107D01*
X013847Y014107D02*
X013847Y014224D01*
X013906Y014283D01*
X014081Y014283D01*
X014081Y013932D01*
X014081Y014049D02*
X013906Y014049D01*
X013847Y014107D01*
X013712Y013932D02*
X013712Y014283D01*
X013537Y014283D01*
X013479Y014224D01*
X013537Y014107D02*
X013479Y014049D01*
X013479Y013991D01*
X013537Y013932D01*
X013712Y013932D01*
X014322Y014521D02*
X015089Y014521D01*
X015089Y014893D01*
X014322Y014893D01*
X014322Y014521D01*
X014654Y015132D02*
X014957Y015132D01*
X014957Y015882D01*
X014654Y015882D01*
X014654Y015132D01*
X014766Y015153D02*
X014766Y015350D01*
X014688Y015350D01*
X014654Y015382D02*
X014806Y015382D01*
X014806Y015132D01*
X015520Y015391D02*
X015520Y014624D01*
X015892Y014624D01*
X015892Y015391D01*
X015520Y015391D01*
X015520Y015624D02*
X015520Y016391D01*
X015892Y016391D01*
X015892Y015624D01*
X015520Y015624D01*
X015089Y016121D02*
X014322Y016121D01*
X014322Y016493D01*
X015089Y016493D01*
X015089Y016121D01*
X015622Y016721D02*
X016389Y016721D01*
X016389Y017093D01*
X015622Y017093D01*
X015622Y016721D01*
X015622Y017521D02*
X016389Y017521D01*
X016389Y017893D01*
X015622Y017893D01*
X015622Y017521D01*
X015484Y017962D02*
X015484Y018453D01*
X016528Y018453D01*
X016528Y017962D01*
X015484Y017962D01*
X015484Y018462D02*
X015484Y018953D01*
X016528Y018953D01*
X016528Y018462D01*
X015484Y018462D01*
X017112Y018676D02*
X017112Y018971D01*
X020262Y018971D01*
X016692Y015591D02*
X016320Y015591D01*
X016320Y014824D01*
X016692Y014824D01*
X016692Y015591D01*
X017112Y014739D02*
X017112Y014640D01*
X017309Y014640D01*
X017309Y014443D01*
X020262Y014443D01*
X017309Y014443D02*
X017112Y014443D01*
X017112Y014640D01*
X017089Y014493D02*
X017089Y014121D01*
X016322Y014121D01*
X016322Y014493D01*
X017089Y014493D01*
X017820Y011091D02*
X017820Y010324D01*
X018192Y010324D01*
X018192Y011091D01*
X017820Y011091D01*
X015192Y011091D02*
X015192Y010324D01*
X014820Y010324D01*
X014820Y011091D01*
X015192Y011091D01*
X012192Y011091D02*
X012192Y010324D01*
X011820Y010324D01*
X011820Y011091D01*
X012192Y011091D01*
X009192Y011091D02*
X009192Y010324D01*
X008820Y010324D01*
X008820Y011091D01*
X009192Y011091D01*
X011637Y013932D02*
X011871Y013932D01*
X011637Y014166D01*
X005606Y014807D02*
X005556Y014807D01*
X005556Y014857D01*
X005506Y014857D01*
X005456Y014857D01*
X005356Y014857D01*
X005356Y014807D01*
X005306Y014807D01*
X005306Y015607D01*
X004406Y015607D01*
X004406Y015557D01*
X005306Y015607D02*
X005356Y015607D01*
X005356Y015557D01*
X005356Y014857D01*
X005406Y014807D01*
X005356Y014807D01*
X005406Y014807D02*
X005456Y014807D01*
X005456Y014857D01*
X005506Y014857D02*
X005506Y014807D01*
X005456Y014807D01*
X005506Y014807D02*
X005556Y014807D01*
X005606Y014807D02*
X005606Y014857D01*
X005556Y014857D01*
X005306Y014807D02*
X004406Y014807D01*
X004406Y014857D01*
X005356Y015557D02*
X005456Y015557D01*
X005506Y015557D01*
X005556Y015557D01*
X005606Y015557D01*
X005606Y015607D01*
X005556Y015607D01*
X005556Y015557D01*
X005556Y015607D02*
X005506Y015607D01*
X005506Y015557D01*
X005506Y015607D02*
X005456Y015607D01*
X005456Y015557D01*
X005456Y015607D02*
X005406Y015607D01*
X005356Y015557D01*
X005356Y015607D02*
X005406Y015607D01*
X005208Y016750D02*
X004403Y016750D01*
X004403Y018665D01*
X005208Y018665D01*
X005208Y016750D01*
X015220Y005991D02*
X015220Y005224D01*
X015592Y005224D01*
X015592Y005991D01*
X015220Y005991D01*
X016720Y005991D02*
X016720Y005224D01*
X017092Y005224D01*
X017092Y005991D01*
X016720Y005991D01*
X018220Y005991D02*
X018220Y005224D01*
X018592Y005224D01*
X018592Y005991D01*
X018220Y005991D01*
X019720Y005991D02*
X019720Y005224D01*
X020092Y005224D01*
X020092Y005991D01*
X019720Y005991D01*
X021220Y005991D02*
X021220Y005224D01*
X021592Y005224D01*
X021592Y005991D01*
X021220Y005991D01*
X021820Y004791D02*
X022192Y004791D01*
X022192Y004024D01*
X021820Y004024D01*
X021820Y004791D01*
X022720Y005224D02*
X022720Y005991D01*
X023092Y005991D01*
X023092Y005224D01*
X022720Y005224D01*
X024220Y005224D02*
X024220Y005991D01*
X024592Y005991D01*
X024592Y005224D01*
X024220Y005224D01*
X025720Y005224D02*
X025720Y005991D01*
X026092Y005991D01*
X026092Y005224D01*
X025720Y005224D01*
X026820Y005524D02*
X026820Y006291D01*
X027192Y006291D01*
X027192Y005524D01*
X026820Y005524D01*
X025089Y007521D02*
X024322Y007521D01*
X024322Y007893D01*
X025089Y007893D01*
X025089Y007521D01*
X025820Y007824D02*
X025820Y008591D01*
X026192Y008591D01*
X026192Y007824D01*
X025820Y007824D01*
X027122Y008321D02*
X027122Y008693D01*
X027889Y008693D01*
X027889Y008321D01*
X027122Y008321D01*
X026192Y009324D02*
X025820Y009324D01*
X025820Y010091D01*
X026192Y010091D01*
X026192Y009324D01*
X027122Y010821D02*
X027122Y011193D01*
X027889Y011193D01*
X027889Y010821D01*
X027122Y010821D01*
X012889Y005393D02*
X012889Y005021D01*
X012122Y005021D01*
X012122Y005393D01*
X012889Y005393D01*
X012889Y004493D02*
X012122Y004493D01*
X012122Y004121D01*
X012889Y004121D01*
X012889Y004493D01*
X009889Y004493D02*
X009889Y004121D01*
X009122Y004121D01*
X009122Y004493D01*
X009889Y004493D01*
X009889Y005021D02*
X009122Y005021D01*
X009122Y005393D01*
X009889Y005393D01*
X009889Y005021D01*
X006889Y005021D02*
X006122Y005021D01*
X006122Y005393D01*
X006889Y005393D01*
X006889Y005021D01*
X006889Y004493D02*
X006122Y004493D01*
X006122Y004121D01*
X006889Y004121D01*
X006889Y004493D01*
D12*
X010456Y015357D03*
D13*
X007700Y013530D02*
X007410Y013530D01*
X007410Y013626D02*
X007410Y013433D01*
X007410Y013332D02*
X007410Y013138D01*
X007604Y013332D01*
X007652Y013332D01*
X007700Y013283D01*
X007700Y013186D01*
X007652Y013138D01*
X007652Y013037D02*
X007555Y013037D01*
X007507Y012989D01*
X007507Y012844D01*
X007507Y012940D02*
X007410Y013037D01*
X007410Y012844D02*
X007700Y012844D01*
X007700Y012989D01*
X007652Y013037D01*
X007200Y012989D02*
X007200Y012844D01*
X006910Y012844D01*
X007007Y012844D02*
X007007Y012989D01*
X007055Y013037D01*
X007152Y013037D01*
X007200Y012989D01*
X007152Y013138D02*
X007200Y013186D01*
X007200Y013283D01*
X007152Y013332D01*
X007104Y013332D01*
X006910Y013138D01*
X006910Y013332D01*
X006958Y013433D02*
X007007Y013433D01*
X007055Y013481D01*
X007055Y013578D01*
X007007Y013626D01*
X006958Y013626D01*
X006910Y013578D01*
X006910Y013481D01*
X006958Y013433D01*
X007055Y013481D02*
X007104Y013433D01*
X007152Y013433D01*
X007200Y013481D01*
X007200Y013578D01*
X007152Y013626D01*
X007104Y013626D01*
X007055Y013578D01*
X006910Y013037D02*
X007007Y012940D01*
X006691Y012393D02*
X006506Y012393D01*
X006444Y012331D01*
X006444Y012084D01*
X006506Y012022D01*
X006691Y012022D01*
X006691Y012393D01*
X006322Y012393D02*
X006322Y012207D01*
X006199Y012269D01*
X006137Y012269D01*
X006076Y012207D01*
X006076Y012084D01*
X006137Y012022D01*
X006261Y012022D01*
X006322Y012084D01*
X006322Y012393D02*
X006076Y012393D01*
X007604Y013433D02*
X007700Y013530D01*
X006700Y014844D02*
X006700Y014989D01*
X006652Y015037D01*
X006555Y015037D01*
X006507Y014989D01*
X006507Y014844D01*
X006507Y014940D02*
X006410Y015037D01*
X006410Y015138D02*
X006604Y015332D01*
X006652Y015332D01*
X006700Y015283D01*
X006700Y015186D01*
X006652Y015138D01*
X006410Y015138D02*
X006410Y015332D01*
X006410Y015433D02*
X006604Y015626D01*
X006652Y015626D01*
X006700Y015578D01*
X006700Y015481D01*
X006652Y015433D01*
X006410Y015433D02*
X006410Y015626D01*
X006200Y015626D02*
X006152Y015626D01*
X005958Y015433D01*
X005910Y015433D01*
X005910Y015332D02*
X005910Y015138D01*
X006104Y015332D01*
X006152Y015332D01*
X006200Y015283D01*
X006200Y015186D01*
X006152Y015138D01*
X006152Y015037D02*
X006055Y015037D01*
X006007Y014989D01*
X006007Y014844D01*
X006007Y014940D02*
X005910Y015037D01*
X005910Y014844D02*
X006200Y014844D01*
X006200Y014989D01*
X006152Y015037D01*
X006410Y014844D02*
X006700Y014844D01*
X006200Y015433D02*
X006200Y015626D01*
X005091Y015722D02*
X004906Y015722D01*
X004844Y015784D01*
X004844Y016031D01*
X004906Y016093D01*
X005091Y016093D01*
X005091Y015722D01*
X004722Y015784D02*
X004722Y015907D01*
X004537Y015907D01*
X004476Y015846D01*
X004476Y015784D01*
X004537Y015722D01*
X004661Y015722D01*
X004722Y015784D01*
X004722Y015907D02*
X004599Y016031D01*
X004476Y016093D01*
X004257Y017482D02*
X004064Y017482D01*
X004015Y017531D01*
X004015Y017627D01*
X004064Y017676D01*
X004064Y017777D02*
X004015Y017825D01*
X004015Y017922D01*
X004064Y017970D01*
X004257Y017970D01*
X004305Y017922D01*
X004305Y017825D01*
X004257Y017777D01*
X004209Y017777D01*
X004160Y017825D01*
X004160Y017970D01*
X004257Y017676D02*
X004305Y017627D01*
X004305Y017531D01*
X004257Y017482D01*
X004242Y013787D02*
X004146Y013787D01*
X004097Y013739D01*
X004097Y013546D01*
X004146Y013497D01*
X004242Y013497D01*
X004291Y013546D01*
X004291Y013739D01*
X004242Y013787D01*
X004194Y013594D02*
X004097Y013497D01*
X003996Y013497D02*
X003803Y013691D01*
X003803Y013739D01*
X003851Y013787D01*
X003948Y013787D01*
X003996Y013739D01*
X003996Y013497D02*
X003803Y013497D01*
X006137Y010893D02*
X006076Y010831D01*
X006076Y010769D01*
X006137Y010707D01*
X006261Y010707D01*
X006322Y010769D01*
X006322Y010831D01*
X006261Y010893D01*
X006137Y010893D01*
X006137Y010707D02*
X006076Y010646D01*
X006076Y010584D01*
X006137Y010522D01*
X006261Y010522D01*
X006322Y010584D01*
X006322Y010646D01*
X006261Y010707D01*
X006444Y010584D02*
X006444Y010831D01*
X006506Y010893D01*
X006691Y010893D01*
X006691Y010522D01*
X006506Y010522D01*
X006444Y010584D01*
X006858Y010126D02*
X006810Y010078D01*
X006810Y009981D01*
X006858Y009933D01*
X006955Y009933D02*
X007004Y010030D01*
X007004Y010078D01*
X006955Y010126D01*
X006858Y010126D01*
X006955Y009933D02*
X007100Y009933D01*
X007100Y010126D01*
X007210Y010078D02*
X007500Y010078D01*
X007355Y009933D01*
X007355Y010126D01*
X007404Y009832D02*
X007452Y009832D01*
X007500Y009783D01*
X007500Y009686D01*
X007452Y009638D01*
X007452Y009537D02*
X007355Y009537D01*
X007307Y009489D01*
X007307Y009344D01*
X007307Y009440D02*
X007210Y009537D01*
X007210Y009638D02*
X007404Y009832D01*
X007210Y009832D02*
X007210Y009638D01*
X007100Y009686D02*
X007052Y009638D01*
X007100Y009686D02*
X007100Y009783D01*
X007052Y009832D01*
X007004Y009832D01*
X006810Y009638D01*
X006810Y009832D01*
X006810Y009537D02*
X006907Y009440D01*
X006907Y009489D02*
X006907Y009344D01*
X006810Y009344D02*
X007100Y009344D01*
X007100Y009489D01*
X007052Y009537D01*
X006955Y009537D01*
X006907Y009489D01*
X007210Y009344D02*
X007500Y009344D01*
X007500Y009489D01*
X007452Y009537D01*
X007452Y009126D02*
X007404Y009126D01*
X007355Y009078D01*
X007307Y009126D01*
X007258Y009126D01*
X007210Y009078D01*
X007210Y008981D01*
X007258Y008933D01*
X007210Y008832D02*
X007210Y008638D01*
X007404Y008832D01*
X007452Y008832D01*
X007500Y008783D01*
X007500Y008686D01*
X007452Y008638D01*
X007452Y008537D02*
X007355Y008537D01*
X007307Y008489D01*
X007307Y008344D01*
X007307Y008440D02*
X007210Y008537D01*
X007100Y008489D02*
X007052Y008537D01*
X006955Y008537D01*
X006907Y008489D01*
X006907Y008344D01*
X006907Y008440D02*
X006810Y008537D01*
X006810Y008638D02*
X007004Y008832D01*
X007052Y008832D01*
X007100Y008783D01*
X007100Y008686D01*
X007052Y008638D01*
X007100Y008489D02*
X007100Y008344D01*
X006810Y008344D01*
X006810Y008638D02*
X006810Y008832D01*
X006858Y008933D02*
X006810Y008981D01*
X006810Y009078D01*
X006858Y009126D01*
X006907Y009126D01*
X006955Y009078D01*
X006955Y008933D01*
X006858Y008933D01*
X006955Y008933D02*
X007052Y009030D01*
X007100Y009126D01*
X007355Y009078D02*
X007355Y009030D01*
X007452Y009126D02*
X007500Y009078D01*
X007500Y008981D01*
X007452Y008933D01*
X007452Y008537D02*
X007500Y008489D01*
X007500Y008344D01*
X007210Y008344D01*
X006591Y007893D02*
X006406Y007893D01*
X006344Y007831D01*
X006344Y007584D01*
X006406Y007522D01*
X006591Y007522D01*
X006591Y007893D01*
X006222Y007893D02*
X005976Y007893D01*
X005976Y007831D01*
X006222Y007584D01*
X006222Y007522D01*
X004291Y009146D02*
X004242Y009097D01*
X004146Y009097D01*
X004097Y009146D01*
X004097Y009339D01*
X004146Y009387D01*
X004242Y009387D01*
X004291Y009339D01*
X004291Y009146D01*
X004194Y009194D02*
X004097Y009097D01*
X003996Y009097D02*
X003803Y009097D01*
X003899Y009097D02*
X003899Y009387D01*
X003996Y009291D01*
X009311Y010217D02*
X009602Y010217D01*
X009602Y010362D01*
X009553Y010411D01*
X009456Y010411D01*
X009408Y010362D01*
X009408Y010217D01*
X009408Y010314D02*
X009311Y010411D01*
X009311Y010512D02*
X009505Y010705D01*
X009553Y010705D01*
X009602Y010657D01*
X009602Y010560D01*
X009553Y010512D01*
X009311Y010512D02*
X009311Y010705D01*
X009360Y010806D02*
X009553Y011000D01*
X009360Y011000D01*
X009311Y010951D01*
X009311Y010855D01*
X009360Y010806D01*
X009553Y010806D01*
X009602Y010855D01*
X009602Y010951D01*
X009553Y011000D01*
X012311Y010951D02*
X012311Y010855D01*
X012360Y010806D01*
X012456Y010855D02*
X012456Y011000D01*
X012360Y011000D02*
X012553Y011000D01*
X012602Y010951D01*
X012602Y010855D01*
X012553Y010806D01*
X012505Y010806D01*
X012456Y010855D01*
X012311Y010951D02*
X012360Y011000D01*
X012311Y010705D02*
X012311Y010512D01*
X012311Y010608D02*
X012602Y010608D01*
X012505Y010512D01*
X012553Y010411D02*
X012456Y010411D01*
X012408Y010362D01*
X012408Y010217D01*
X012311Y010217D02*
X012602Y010217D01*
X012602Y010362D01*
X012553Y010411D01*
X012408Y010314D02*
X012311Y010411D01*
X015311Y010411D02*
X015408Y010314D01*
X015408Y010362D02*
X015408Y010217D01*
X015311Y010217D02*
X015602Y010217D01*
X015602Y010362D01*
X015553Y010411D01*
X015456Y010411D01*
X015408Y010362D01*
X015311Y010512D02*
X015311Y010705D01*
X015311Y010608D02*
X015602Y010608D01*
X015505Y010512D01*
X015505Y010806D02*
X015553Y010806D01*
X015602Y010855D01*
X015602Y010951D01*
X015553Y011000D01*
X015505Y011000D01*
X015456Y010951D01*
X015456Y010855D01*
X015505Y010806D01*
X015456Y010855D02*
X015408Y010806D01*
X015360Y010806D01*
X015311Y010855D01*
X015311Y010951D01*
X015360Y011000D01*
X015408Y011000D01*
X015456Y010951D01*
X018311Y010806D02*
X018360Y010806D01*
X018553Y011000D01*
X018602Y011000D01*
X018602Y010806D01*
X018602Y010608D02*
X018311Y010608D01*
X018311Y010512D02*
X018311Y010705D01*
X018505Y010512D02*
X018602Y010608D01*
X018553Y010411D02*
X018456Y010411D01*
X018408Y010362D01*
X018408Y010217D01*
X018311Y010217D02*
X018602Y010217D01*
X018602Y010362D01*
X018553Y010411D01*
X018408Y010314D02*
X018311Y010411D01*
X016910Y013701D02*
X016814Y013701D01*
X016765Y013749D01*
X016664Y013749D02*
X016616Y013701D01*
X016519Y013701D01*
X016471Y013749D01*
X016471Y013798D01*
X016519Y013846D01*
X016567Y013846D01*
X016519Y013846D02*
X016471Y013894D01*
X016471Y013943D01*
X016519Y013991D01*
X016616Y013991D01*
X016664Y013943D01*
X016765Y013943D02*
X016814Y013991D01*
X016910Y013991D01*
X016959Y013943D01*
X016959Y013749D01*
X016910Y013701D01*
X015790Y014002D02*
X015741Y013954D01*
X015548Y013954D01*
X015499Y014002D01*
X015499Y014099D01*
X015548Y014148D01*
X015645Y014249D02*
X015645Y014442D01*
X015790Y014394D02*
X015645Y014249D01*
X015741Y014148D02*
X015790Y014099D01*
X015790Y014002D01*
X015790Y014394D02*
X015499Y014394D01*
X015388Y014572D02*
X015436Y014621D01*
X015436Y014717D01*
X015388Y014766D01*
X015194Y014766D01*
X015146Y014717D01*
X015146Y014621D01*
X015194Y014572D01*
X015388Y014572D01*
X015242Y014669D02*
X015146Y014766D01*
X015194Y014867D02*
X015146Y014915D01*
X015146Y015012D01*
X015194Y015060D01*
X015242Y015060D01*
X015291Y015012D01*
X015291Y014964D01*
X015291Y015012D02*
X015339Y015060D01*
X015388Y015060D01*
X015436Y015012D01*
X015436Y014915D01*
X015388Y014867D01*
X015069Y014402D02*
X014924Y014402D01*
X014876Y014353D01*
X014876Y014257D01*
X014924Y014208D01*
X015069Y014208D01*
X014973Y014208D02*
X014876Y014112D01*
X014775Y014160D02*
X014726Y014112D01*
X014630Y014112D01*
X014581Y014160D01*
X014581Y014208D01*
X014630Y014257D01*
X014678Y014257D01*
X014630Y014257D02*
X014581Y014305D01*
X014581Y014353D01*
X014630Y014402D01*
X014726Y014402D01*
X014775Y014353D01*
X015069Y014402D02*
X015069Y014112D01*
X014480Y014112D02*
X014480Y014160D01*
X014287Y014353D01*
X014287Y014402D01*
X014480Y014402D01*
X015999Y015002D02*
X015999Y015099D01*
X016048Y015148D01*
X016048Y015249D02*
X016096Y015249D01*
X016145Y015297D01*
X016145Y015394D01*
X016096Y015442D01*
X016048Y015442D01*
X015999Y015394D01*
X015999Y015297D01*
X016048Y015249D01*
X016145Y015297D02*
X016193Y015249D01*
X016241Y015249D01*
X016290Y015297D01*
X016290Y015394D01*
X016241Y015442D01*
X016193Y015442D01*
X016145Y015394D01*
X016107Y015644D02*
X016107Y015789D01*
X016155Y015837D01*
X016252Y015837D01*
X016300Y015789D01*
X016300Y015644D01*
X016010Y015644D01*
X016107Y015740D02*
X016010Y015837D01*
X016058Y015938D02*
X016010Y015986D01*
X016010Y016083D01*
X016058Y016132D01*
X016107Y016132D01*
X016155Y016083D01*
X016155Y016035D01*
X016155Y016083D02*
X016204Y016132D01*
X016252Y016132D01*
X016300Y016083D01*
X016300Y015986D01*
X016252Y015938D01*
X016155Y016233D02*
X016155Y016378D01*
X016107Y016426D01*
X016058Y016426D01*
X016010Y016378D01*
X016010Y016281D01*
X016058Y016233D01*
X016155Y016233D01*
X016252Y016330D01*
X016300Y016426D01*
X015369Y017012D02*
X015369Y017302D01*
X015224Y017302D01*
X015176Y017253D01*
X015176Y017157D01*
X015224Y017108D01*
X015369Y017108D01*
X015273Y017108D02*
X015176Y017012D01*
X015075Y017060D02*
X015026Y017012D01*
X014930Y017012D01*
X014881Y017060D01*
X014881Y017108D01*
X014930Y017157D01*
X014978Y017157D01*
X014930Y017157D02*
X014881Y017205D01*
X014881Y017253D01*
X014930Y017302D01*
X015026Y017302D01*
X015075Y017253D01*
X015026Y017512D02*
X015075Y017560D01*
X015026Y017512D02*
X014930Y017512D01*
X014881Y017560D01*
X014881Y017608D01*
X014930Y017657D01*
X014978Y017657D01*
X014930Y017657D02*
X014881Y017705D01*
X014881Y017753D01*
X014930Y017802D01*
X015026Y017802D01*
X015075Y017753D01*
X015176Y017753D02*
X015176Y017657D01*
X015224Y017608D01*
X015369Y017608D01*
X015273Y017608D02*
X015176Y017512D01*
X015369Y017512D02*
X015369Y017802D01*
X015224Y017802D01*
X015176Y017753D01*
X015192Y018122D02*
X015096Y018122D01*
X015047Y018171D01*
X014946Y018171D02*
X014898Y018122D01*
X014801Y018122D01*
X014753Y018171D01*
X014753Y018219D01*
X014801Y018267D01*
X014946Y018267D01*
X014946Y018171D01*
X014946Y018267D02*
X014849Y018364D01*
X014753Y018412D01*
X014946Y018622D02*
X014946Y018671D01*
X014753Y018864D01*
X014753Y018912D01*
X014946Y018912D01*
X015047Y018864D02*
X015096Y018912D01*
X015192Y018912D01*
X015241Y018864D01*
X015241Y018671D01*
X015192Y018622D01*
X015096Y018622D01*
X015047Y018671D01*
X015096Y018412D02*
X015192Y018412D01*
X015241Y018364D01*
X015241Y018171D01*
X015192Y018122D01*
X015047Y018364D02*
X015096Y018412D01*
X014732Y017802D02*
X014635Y017802D01*
X014587Y017753D01*
X014587Y017705D01*
X014635Y017657D01*
X014587Y017608D01*
X014587Y017560D01*
X014635Y017512D01*
X014732Y017512D01*
X014780Y017560D01*
X014683Y017657D02*
X014635Y017657D01*
X014780Y017753D02*
X014732Y017802D01*
X014635Y017302D02*
X014780Y017157D01*
X014587Y017157D01*
X014635Y017012D02*
X014635Y017302D01*
X014664Y016891D02*
X014471Y016891D01*
X014519Y016794D02*
X014471Y016746D01*
X014471Y016649D01*
X014519Y016601D01*
X014616Y016601D01*
X014664Y016649D01*
X014664Y016746D02*
X014567Y016794D01*
X014519Y016794D01*
X014664Y016746D02*
X014664Y016891D01*
X014765Y016843D02*
X014814Y016891D01*
X014910Y016891D01*
X014959Y016843D01*
X014959Y016649D01*
X014910Y016601D01*
X014814Y016601D01*
X014765Y016649D01*
X016241Y015148D02*
X016290Y015099D01*
X016290Y015002D01*
X016241Y014954D01*
X016048Y014954D01*
X015999Y015002D01*
X023553Y009493D02*
X023553Y009122D01*
X023430Y009122D02*
X023677Y009122D01*
X023798Y009184D02*
X023860Y009122D01*
X023983Y009122D01*
X024045Y009184D01*
X024045Y009431D01*
X023983Y009493D01*
X023860Y009493D01*
X023798Y009431D01*
X023677Y009369D02*
X023553Y009493D01*
X024167Y009493D02*
X024291Y009493D01*
X024229Y009493D02*
X024229Y009122D01*
X024291Y009122D02*
X024167Y009122D01*
X025910Y010244D02*
X026200Y010244D01*
X026200Y010389D01*
X026152Y010437D01*
X026055Y010437D01*
X026007Y010389D01*
X026007Y010244D01*
X026007Y010340D02*
X025910Y010437D01*
X025910Y010538D02*
X025910Y010732D01*
X025910Y010635D02*
X026200Y010635D01*
X026104Y010538D01*
X026055Y010833D02*
X026104Y010930D01*
X026104Y010978D01*
X026055Y011026D01*
X025958Y011026D01*
X025910Y010978D01*
X025910Y010881D01*
X025958Y010833D01*
X026055Y010833D02*
X026200Y010833D01*
X026200Y011026D01*
X027087Y011360D02*
X027135Y011312D01*
X027232Y011312D01*
X027280Y011360D01*
X027381Y011312D02*
X027575Y011312D01*
X027478Y011312D02*
X027478Y011602D01*
X027575Y011505D01*
X027676Y011457D02*
X027724Y011408D01*
X027869Y011408D01*
X027773Y011408D02*
X027676Y011312D01*
X027676Y011457D02*
X027676Y011553D01*
X027724Y011602D01*
X027869Y011602D01*
X027869Y011312D01*
X027280Y011553D02*
X027232Y011602D01*
X027135Y011602D01*
X027087Y011553D01*
X027087Y011505D01*
X027135Y011457D01*
X027087Y011408D01*
X027087Y011360D01*
X027135Y011457D02*
X027183Y011457D01*
X027135Y008202D02*
X027280Y008057D01*
X027087Y008057D01*
X027135Y007912D02*
X027135Y008202D01*
X027478Y008202D02*
X027478Y007912D01*
X027575Y007912D02*
X027381Y007912D01*
X027575Y008105D02*
X027478Y008202D01*
X027676Y008153D02*
X027676Y008057D01*
X027724Y008008D01*
X027869Y008008D01*
X027773Y008008D02*
X027676Y007912D01*
X027869Y007912D02*
X027869Y008202D01*
X027724Y008202D01*
X027676Y008153D01*
X026200Y007726D02*
X026152Y007630D01*
X026055Y007533D01*
X026055Y007678D01*
X026007Y007726D01*
X025958Y007726D01*
X025910Y007678D01*
X025910Y007581D01*
X025958Y007533D01*
X026055Y007533D01*
X025910Y007432D02*
X025910Y007238D01*
X025910Y007335D02*
X026200Y007335D01*
X026104Y007238D01*
X026152Y007137D02*
X026055Y007137D01*
X026007Y007089D01*
X026007Y006944D01*
X026007Y007040D02*
X025910Y007137D01*
X025910Y006944D02*
X026200Y006944D01*
X026200Y007089D01*
X026152Y007137D01*
X026458Y006326D02*
X026410Y006278D01*
X026410Y006181D01*
X026458Y006133D01*
X026555Y006133D02*
X026604Y006230D01*
X026604Y006278D01*
X026555Y006326D01*
X026458Y006326D01*
X026555Y006133D02*
X026700Y006133D01*
X026700Y006326D01*
X026652Y006032D02*
X026604Y006032D01*
X026555Y005983D01*
X026507Y006032D01*
X026458Y006032D01*
X026410Y005983D01*
X026410Y005886D01*
X026458Y005838D01*
X026502Y005851D02*
X026502Y005755D01*
X026453Y005706D01*
X026405Y005706D01*
X026356Y005755D01*
X026356Y005900D01*
X026260Y005900D02*
X026453Y005900D01*
X026502Y005851D01*
X026555Y005935D02*
X026555Y005983D01*
X026652Y006032D02*
X026700Y005983D01*
X026700Y005886D01*
X026652Y005838D01*
X026652Y005737D02*
X026555Y005737D01*
X026507Y005689D01*
X026507Y005544D01*
X026502Y005557D02*
X026502Y005412D01*
X026211Y005412D01*
X026308Y005412D02*
X026308Y005557D01*
X026356Y005605D01*
X026453Y005605D01*
X026502Y005557D01*
X026507Y005640D02*
X026410Y005737D01*
X026260Y005706D02*
X026211Y005755D01*
X026211Y005851D01*
X026260Y005900D01*
X026211Y005605D02*
X026308Y005508D01*
X026410Y005544D02*
X026700Y005544D01*
X026700Y005689D01*
X026652Y005737D01*
X025002Y005755D02*
X025002Y005851D01*
X024953Y005900D01*
X024760Y005706D01*
X024711Y005755D01*
X024711Y005851D01*
X024760Y005900D01*
X024953Y005900D01*
X025002Y005755D02*
X024953Y005706D01*
X024760Y005706D01*
X024711Y005605D02*
X024711Y005412D01*
X024711Y005508D02*
X025002Y005508D01*
X024905Y005412D01*
X024953Y005311D02*
X024856Y005311D01*
X024808Y005262D01*
X024808Y005117D01*
X024711Y005117D02*
X025002Y005117D01*
X025002Y005262D01*
X024953Y005311D01*
X024808Y005214D02*
X024711Y005311D01*
X023502Y005262D02*
X023453Y005311D01*
X023356Y005311D01*
X023308Y005262D01*
X023308Y005117D01*
X023211Y005117D02*
X023502Y005117D01*
X023502Y005262D01*
X023405Y005412D02*
X023502Y005508D01*
X023211Y005508D01*
X023211Y005412D02*
X023211Y005605D01*
X023211Y005706D02*
X023211Y005900D01*
X023211Y005803D02*
X023502Y005803D01*
X023405Y005706D01*
X023211Y005311D02*
X023308Y005214D01*
X022602Y004651D02*
X022553Y004700D01*
X022505Y004700D01*
X022456Y004651D01*
X022456Y004555D01*
X022505Y004506D01*
X022553Y004506D01*
X022602Y004555D01*
X022602Y004651D01*
X022456Y004651D02*
X022408Y004700D01*
X022360Y004700D01*
X022311Y004651D01*
X022311Y004555D01*
X022360Y004506D01*
X022408Y004506D01*
X022456Y004555D01*
X022408Y004405D02*
X022360Y004405D01*
X022311Y004357D01*
X022311Y004260D01*
X022360Y004212D01*
X022311Y004111D02*
X022408Y004014D01*
X022408Y004062D02*
X022408Y003917D01*
X022311Y003917D02*
X022602Y003917D01*
X022602Y004062D01*
X022553Y004111D01*
X022456Y004111D01*
X022408Y004062D01*
X022553Y004212D02*
X022602Y004260D01*
X022602Y004357D01*
X022553Y004405D01*
X022505Y004405D01*
X022456Y004357D01*
X022408Y004405D01*
X022456Y004357D02*
X022456Y004308D01*
X022002Y005117D02*
X021711Y005117D01*
X021808Y005117D02*
X021808Y005262D01*
X021856Y005311D01*
X021953Y005311D01*
X022002Y005262D01*
X022002Y005117D01*
X021808Y005214D02*
X021711Y005311D01*
X021711Y005412D02*
X021711Y005605D01*
X021711Y005508D02*
X022002Y005508D01*
X021905Y005412D01*
X021953Y005706D02*
X022002Y005755D01*
X022002Y005851D01*
X021953Y005900D01*
X021905Y005900D01*
X021711Y005706D01*
X021711Y005900D01*
X020502Y005851D02*
X020502Y005755D01*
X020453Y005706D01*
X020405Y005706D01*
X020356Y005755D01*
X020356Y005900D01*
X020260Y005900D02*
X020453Y005900D01*
X020502Y005851D01*
X020260Y005900D02*
X020211Y005851D01*
X020211Y005755D01*
X020260Y005706D01*
X020211Y005605D02*
X020211Y005412D01*
X020405Y005605D01*
X020453Y005605D01*
X020502Y005557D01*
X020502Y005460D01*
X020453Y005412D01*
X020453Y005311D02*
X020356Y005311D01*
X020308Y005262D01*
X020308Y005117D01*
X020211Y005117D02*
X020502Y005117D01*
X020502Y005262D01*
X020453Y005311D01*
X020308Y005214D02*
X020211Y005311D01*
X019002Y005262D02*
X018953Y005311D01*
X018856Y005311D01*
X018808Y005262D01*
X018808Y005117D01*
X018711Y005117D02*
X019002Y005117D01*
X019002Y005262D01*
X018953Y005412D02*
X019002Y005460D01*
X019002Y005557D01*
X018953Y005605D01*
X018905Y005605D01*
X018856Y005557D01*
X018808Y005605D01*
X018760Y005605D01*
X018711Y005557D01*
X018711Y005460D01*
X018760Y005412D01*
X018711Y005311D02*
X018808Y005214D01*
X018856Y005508D02*
X018856Y005557D01*
X018760Y005706D02*
X018953Y005706D01*
X019002Y005755D01*
X019002Y005851D01*
X018953Y005900D01*
X018760Y005706D01*
X018711Y005755D01*
X018711Y005851D01*
X018760Y005900D01*
X018953Y005900D01*
X017502Y005803D02*
X017211Y005803D01*
X017211Y005706D02*
X017211Y005900D01*
X017405Y005706D02*
X017502Y005803D01*
X017453Y005605D02*
X017405Y005605D01*
X017356Y005557D01*
X017308Y005605D01*
X017260Y005605D01*
X017211Y005557D01*
X017211Y005460D01*
X017260Y005412D01*
X017211Y005311D02*
X017308Y005214D01*
X017308Y005262D02*
X017308Y005117D01*
X017211Y005117D02*
X017502Y005117D01*
X017502Y005262D01*
X017453Y005311D01*
X017356Y005311D01*
X017308Y005262D01*
X017453Y005412D02*
X017502Y005460D01*
X017502Y005557D01*
X017453Y005605D01*
X017356Y005557D02*
X017356Y005508D01*
X016002Y005460D02*
X016002Y005557D01*
X015953Y005605D01*
X015905Y005605D01*
X015856Y005557D01*
X015808Y005605D01*
X015760Y005605D01*
X015711Y005557D01*
X015711Y005460D01*
X015760Y005412D01*
X015711Y005311D02*
X015808Y005214D01*
X015808Y005262D02*
X015808Y005117D01*
X015711Y005117D02*
X016002Y005117D01*
X016002Y005262D01*
X015953Y005311D01*
X015856Y005311D01*
X015808Y005262D01*
X015953Y005412D02*
X016002Y005460D01*
X015856Y005508D02*
X015856Y005557D01*
X015953Y005706D02*
X016002Y005755D01*
X016002Y005851D01*
X015953Y005900D01*
X015905Y005900D01*
X015711Y005706D01*
X015711Y005900D01*
X012869Y004902D02*
X012869Y004612D01*
X012869Y004708D02*
X012724Y004708D01*
X012676Y004757D01*
X012676Y004853D01*
X012724Y004902D01*
X012869Y004902D01*
X012773Y004708D02*
X012676Y004612D01*
X012575Y004660D02*
X012575Y004708D01*
X012526Y004757D01*
X012430Y004757D01*
X012381Y004708D01*
X012381Y004660D01*
X012430Y004612D01*
X012526Y004612D01*
X012575Y004660D01*
X012526Y004757D02*
X012575Y004805D01*
X012575Y004853D01*
X012526Y004902D01*
X012430Y004902D01*
X012381Y004853D01*
X012381Y004805D01*
X012430Y004757D01*
X012478Y004002D02*
X012478Y003712D01*
X012575Y003712D02*
X012381Y003712D01*
X012575Y003905D02*
X012478Y004002D01*
X012676Y003953D02*
X012676Y003857D01*
X012724Y003808D01*
X012869Y003808D01*
X012773Y003808D02*
X012676Y003712D01*
X012869Y003712D02*
X012869Y004002D01*
X012724Y004002D01*
X012676Y003953D01*
X009869Y004002D02*
X009869Y003712D01*
X009869Y003808D02*
X009724Y003808D01*
X009676Y003857D01*
X009676Y003953D01*
X009724Y004002D01*
X009869Y004002D01*
X009773Y003808D02*
X009676Y003712D01*
X009575Y003712D02*
X009381Y003905D01*
X009381Y003953D01*
X009430Y004002D01*
X009526Y004002D01*
X009575Y003953D01*
X009575Y003712D02*
X009381Y003712D01*
X009575Y004612D02*
X009575Y004660D01*
X009381Y004853D01*
X009381Y004902D01*
X009575Y004902D01*
X009676Y004853D02*
X009676Y004757D01*
X009724Y004708D01*
X009869Y004708D01*
X009773Y004708D02*
X009676Y004612D01*
X009869Y004612D02*
X009869Y004902D01*
X009724Y004902D01*
X009676Y004853D01*
X006869Y004902D02*
X006869Y004612D01*
X006869Y004708D02*
X006724Y004708D01*
X006676Y004757D01*
X006676Y004853D01*
X006724Y004902D01*
X006869Y004902D01*
X006773Y004708D02*
X006676Y004612D01*
X006575Y004660D02*
X006526Y004612D01*
X006430Y004612D01*
X006381Y004660D01*
X006381Y004708D01*
X006430Y004757D01*
X006575Y004757D01*
X006575Y004660D01*
X006575Y004757D02*
X006478Y004853D01*
X006381Y004902D01*
X006430Y004002D02*
X006381Y003953D01*
X006381Y003905D01*
X006430Y003857D01*
X006381Y003808D01*
X006381Y003760D01*
X006430Y003712D01*
X006526Y003712D01*
X006575Y003760D01*
X006676Y003712D02*
X006773Y003808D01*
X006724Y003808D02*
X006869Y003808D01*
X006869Y003712D02*
X006869Y004002D01*
X006724Y004002D01*
X006676Y003953D01*
X006676Y003857D01*
X006724Y003808D01*
X006575Y003953D02*
X006526Y004002D01*
X006430Y004002D01*
X006430Y003857D02*
X006478Y003857D01*
X003869Y003808D02*
X003724Y003808D01*
X003676Y003857D01*
X003676Y003953D01*
X003724Y004002D01*
X003869Y004002D01*
X003869Y003712D01*
X003773Y003808D02*
X003676Y003712D01*
X003575Y003857D02*
X003381Y003857D01*
X003430Y004002D02*
X003575Y003857D01*
X003430Y003712D02*
X003430Y004002D01*
X003430Y004612D02*
X003526Y004612D01*
X003575Y004660D01*
X003575Y004757D02*
X003478Y004805D01*
X003430Y004805D01*
X003381Y004757D01*
X003381Y004660D01*
X003430Y004612D01*
X003575Y004757D02*
X003575Y004902D01*
X003381Y004902D01*
X003676Y004853D02*
X003676Y004757D01*
X003724Y004708D01*
X003869Y004708D01*
X003773Y004708D02*
X003676Y004612D01*
X003869Y004612D02*
X003869Y004902D01*
X003724Y004902D01*
X003676Y004853D01*
X024471Y007001D02*
X024664Y007001D01*
X024567Y007001D02*
X024567Y007291D01*
X024664Y007194D01*
X024765Y007243D02*
X024814Y007291D01*
X024910Y007291D01*
X024959Y007243D01*
X024959Y007049D01*
X024910Y007001D01*
X024814Y007001D01*
X024765Y007049D01*
D14*
X024415Y008672D02*
X024415Y009404D01*
X024612Y009404D01*
X024612Y009743D01*
X025596Y009743D01*
X025596Y008672D01*
X024415Y008672D01*
X024415Y009404D02*
X024415Y009743D01*
X024612Y009743D01*
D15*
X005381Y009707D02*
X005381Y009832D01*
X005131Y009832D01*
X005131Y009582D01*
X005131Y009832D02*
X004631Y009832D01*
X004631Y009707D01*
X004631Y008707D02*
X004631Y008582D01*
X005381Y008582D01*
X005381Y008707D01*
X005381Y013082D02*
X004631Y013082D01*
X004631Y013207D01*
X005381Y013207D02*
X005381Y013082D01*
X005131Y014082D02*
X005131Y014332D01*
X004631Y014332D01*
X004631Y014207D01*
X005131Y014332D02*
X005381Y014332D01*
X005381Y014207D01*
D16*
X009566Y018577D03*
X010126Y018547D03*
X010126Y018747D03*
X010126Y019607D03*
X010126Y019617D03*
X010126Y019627D03*
X010126Y019637D03*
X010126Y019647D03*
X010126Y019657D03*
X010126Y019667D03*
X010126Y019677D03*
X010126Y019687D03*
X010126Y019697D03*
X010126Y019707D03*
X010596Y019757D03*
X010596Y019767D03*
X010596Y019777D03*
X010596Y019787D03*
X010596Y019797D03*
X010596Y019577D03*
X010596Y019567D03*
X010596Y019557D03*
X010596Y019547D03*
X011086Y019547D03*
X011086Y019557D03*
X011086Y019567D03*
X011086Y019577D03*
X011086Y019587D03*
X011086Y019597D03*
X011086Y019747D03*
X011086Y019757D03*
X011086Y019767D03*
X011086Y019777D03*
X011086Y019787D03*
X011086Y019797D03*
X011666Y019447D03*
X013256Y019747D03*
X009406Y019557D03*
X009406Y019547D03*
X009406Y019537D03*
X009406Y019527D03*
X009406Y019517D03*
X007336Y019407D03*
X007336Y019397D03*
X006866Y019467D03*
X006866Y019477D03*
X006666Y019867D03*
X006666Y019877D03*
X007336Y020137D03*
X022656Y012927D03*
X022886Y012637D03*
X022886Y012627D03*
X022886Y012617D03*
X022886Y012607D03*
X022886Y012597D03*
X022886Y012587D03*
X022886Y012577D03*
X022886Y012567D03*
X022886Y012557D03*
X022886Y012547D03*
X022886Y012537D03*
X022886Y012527D03*
X022886Y012517D03*
X022886Y012507D03*
X022886Y012497D03*
X022886Y012487D03*
X022886Y012477D03*
X022886Y012467D03*
X022886Y012457D03*
X022886Y012447D03*
X022886Y012437D03*
X022886Y012427D03*
X022886Y012417D03*
X022886Y012407D03*
X022886Y012397D03*
X022886Y012387D03*
X022886Y012377D03*
X022886Y012367D03*
X022886Y012357D03*
X022886Y012347D03*
X022886Y012337D03*
X022886Y012327D03*
X022886Y012317D03*
X022886Y012307D03*
X022886Y012297D03*
X022886Y012287D03*
X022886Y012277D03*
X022886Y012267D03*
X022886Y011977D03*
X022886Y011967D03*
X022886Y011957D03*
X022886Y011947D03*
X022886Y011937D03*
X022886Y011927D03*
X022886Y011917D03*
X022886Y011907D03*
X022886Y011897D03*
X022886Y011887D03*
X022886Y011877D03*
X022886Y011867D03*
X022886Y011857D03*
X022886Y011847D03*
X022886Y011837D03*
X022886Y011827D03*
X022886Y011817D03*
X022886Y011807D03*
X022886Y011797D03*
X022886Y011787D03*
X022886Y011777D03*
X022886Y011767D03*
X022886Y011757D03*
X022886Y011747D03*
X022886Y011737D03*
X022886Y011727D03*
X022886Y011717D03*
X022886Y011707D03*
X022886Y011697D03*
X022886Y011687D03*
X022886Y011677D03*
X022886Y011667D03*
X022886Y011657D03*
X022886Y011647D03*
X022886Y011637D03*
X022886Y011627D03*
X022886Y011617D03*
X022886Y011607D03*
X022886Y011597D03*
X022886Y011587D03*
X022886Y011577D03*
X022886Y011567D03*
X022886Y011557D03*
X022886Y011547D03*
X022886Y011537D03*
X022886Y011527D03*
X022886Y011517D03*
X022886Y011507D03*
X022886Y011497D03*
X022886Y011487D03*
X022886Y011477D03*
X022886Y011467D03*
X022886Y011457D03*
X022886Y011447D03*
X022886Y011437D03*
X022886Y011427D03*
X022886Y011417D03*
X022886Y011407D03*
X022886Y011397D03*
X022886Y011387D03*
X022886Y011377D03*
X022886Y011367D03*
X022886Y011357D03*
X022886Y011347D03*
X022886Y011337D03*
X022886Y011327D03*
X022886Y011317D03*
X022886Y011307D03*
X022886Y011297D03*
X024946Y011827D03*
X024946Y011837D03*
X024946Y011847D03*
X024946Y011857D03*
X024946Y011867D03*
X024946Y011877D03*
X024946Y011887D03*
X024946Y011897D03*
X024946Y011907D03*
X024946Y011917D03*
X024946Y011927D03*
X024946Y011937D03*
X024946Y011947D03*
X024946Y011957D03*
X024946Y011967D03*
X024946Y011977D03*
X024946Y011987D03*
X024946Y011997D03*
X024946Y012007D03*
X024946Y012017D03*
X024946Y012027D03*
X024946Y012037D03*
X024946Y012047D03*
X024946Y012057D03*
X024946Y012067D03*
X024946Y012077D03*
X024946Y012087D03*
X024946Y012097D03*
X024946Y012107D03*
X024946Y012117D03*
X024946Y012127D03*
X024946Y012137D03*
X024946Y012147D03*
X024946Y012157D03*
X024946Y012167D03*
X024946Y012177D03*
X024946Y012187D03*
X024946Y012197D03*
X024946Y012207D03*
X024946Y012217D03*
X024946Y012227D03*
X024946Y012237D03*
X024946Y012247D03*
X024946Y012257D03*
X024946Y012267D03*
X024946Y012277D03*
X024946Y012287D03*
X024946Y012297D03*
X024946Y012307D03*
X024946Y012317D03*
X024946Y012327D03*
X024946Y012337D03*
X024946Y012347D03*
X024946Y012357D03*
X024946Y012367D03*
X024946Y012377D03*
X024946Y012387D03*
X024946Y012397D03*
X024946Y012407D03*
X024946Y012417D03*
X024946Y012427D03*
X024946Y012437D03*
X024946Y012447D03*
X024946Y012457D03*
X024946Y012467D03*
X024946Y012477D03*
X024946Y012487D03*
X024946Y012497D03*
X024946Y012507D03*
X024946Y012517D03*
X024946Y012527D03*
X024946Y012537D03*
X024946Y012547D03*
X024946Y012557D03*
X024946Y012567D03*
X024946Y012577D03*
X024946Y012587D03*
X024946Y012597D03*
X024946Y012607D03*
X024946Y012617D03*
X024946Y012627D03*
X024946Y012637D03*
X024946Y012927D03*
X024946Y012937D03*
X024946Y012947D03*
X024946Y012957D03*
X024946Y012967D03*
X024946Y012977D03*
X024946Y012987D03*
X024946Y012997D03*
X024946Y013007D03*
X024946Y013017D03*
X024946Y013027D03*
X024946Y013037D03*
X024946Y013047D03*
X024946Y013057D03*
X024946Y013067D03*
X024946Y013077D03*
X024946Y013087D03*
X024946Y013097D03*
X024946Y013107D03*
X024946Y013117D03*
X024946Y013127D03*
X024946Y013137D03*
X024946Y013147D03*
X024946Y013157D03*
X024946Y013167D03*
X024946Y013177D03*
X024946Y013187D03*
X024946Y013197D03*
X024946Y013207D03*
X024946Y013217D03*
X024946Y013227D03*
X024946Y013237D03*
X024946Y013247D03*
X024946Y013257D03*
X024946Y013267D03*
X024946Y013277D03*
X024946Y013287D03*
X024946Y013297D03*
X024946Y013307D03*
X024946Y013317D03*
X024946Y013327D03*
X024946Y013337D03*
X024946Y013347D03*
X024946Y013357D03*
X024946Y013367D03*
X024946Y013377D03*
X024946Y013387D03*
X024946Y013397D03*
X024946Y013407D03*
X024946Y013417D03*
X024946Y013427D03*
X024946Y013437D03*
X024946Y013447D03*
X024946Y013457D03*
X024946Y013467D03*
X024946Y013477D03*
X024946Y013487D03*
X024946Y013497D03*
X024946Y013507D03*
X024946Y013517D03*
X024946Y013527D03*
X024946Y013537D03*
X024946Y013547D03*
X024946Y013557D03*
X024946Y013567D03*
X024946Y013577D03*
X024946Y013587D03*
X024946Y013597D03*
X024946Y013607D03*
X024946Y013617D03*
X024946Y013627D03*
X024946Y013637D03*
X024946Y013647D03*
X024946Y013657D03*
X024946Y013667D03*
X024946Y013677D03*
X024946Y013687D03*
X024946Y013697D03*
X024946Y013707D03*
X024946Y013717D03*
X024696Y012937D03*
X023496Y013387D03*
X023496Y013577D03*
X017896Y008837D03*
X017626Y008757D03*
X020156Y007777D03*
D17*
X018521Y007777D03*
X018501Y007787D03*
X018491Y007797D03*
X017911Y008787D03*
X023501Y013357D03*
X025691Y011797D03*
X009991Y019377D03*
X009551Y018637D03*
X008761Y018767D03*
X007191Y018767D03*
X006621Y018767D03*
X006271Y018767D03*
X006901Y019567D03*
X006631Y019777D03*
X005371Y019927D03*
X005371Y020097D03*
X005371Y020107D03*
D18*
X005041Y020097D03*
X005041Y020087D03*
X005041Y020077D03*
X005041Y020067D03*
X004901Y020007D03*
X004911Y019947D03*
X005041Y019877D03*
X005041Y019867D03*
X005051Y019807D03*
X004791Y019847D03*
X004791Y019857D03*
X004791Y020167D03*
X004791Y020177D03*
X005871Y018767D03*
X005831Y018727D03*
X006921Y019617D03*
X006921Y019627D03*
X006611Y019717D03*
X007191Y018777D03*
X008051Y018527D03*
X008761Y018777D03*
X010071Y018567D03*
X010171Y018537D03*
X010671Y018587D03*
X010671Y018597D03*
X010671Y018607D03*
X010671Y018617D03*
X010741Y018697D03*
X010741Y018707D03*
X010741Y018717D03*
X010831Y018617D03*
X010831Y018607D03*
X010831Y018597D03*
X011261Y018607D03*
X011541Y018607D03*
X011541Y018597D03*
X011611Y018687D03*
X011611Y018697D03*
X011611Y018707D03*
X011611Y018717D03*
X011701Y018607D03*
X012171Y018617D03*
X012181Y018607D03*
X014371Y018637D03*
X013461Y020557D03*
X013091Y020587D03*
X022371Y011797D03*
X025411Y012937D03*
X020141Y007847D03*
X020551Y007657D03*
X020561Y007667D03*
X018421Y007877D03*
X018411Y007887D03*
X018401Y007907D03*
X018391Y007917D03*
X018381Y007927D03*
X018381Y007937D03*
X018351Y007987D03*
X017921Y008757D03*
X017621Y008807D03*
X017621Y008817D03*
X017501Y008947D03*
X017511Y008957D03*
D19*
X017626Y008717D03*
X018676Y007697D03*
X020166Y007727D03*
X020446Y007887D03*
X025676Y011807D03*
X026076Y012077D03*
X024906Y012817D03*
X024906Y012827D03*
X024186Y012907D03*
X022846Y012817D03*
X022846Y012807D03*
X022846Y012117D03*
X022076Y012027D03*
X022066Y012037D03*
X022046Y012887D03*
X022056Y012897D03*
X026026Y012897D03*
X014466Y019017D03*
X013256Y019677D03*
X012186Y019237D03*
X012186Y019227D03*
X011626Y019537D03*
X011626Y019547D03*
X011626Y019557D03*
X011626Y019787D03*
X011626Y019797D03*
X011626Y019807D03*
X011126Y019967D03*
X010556Y019967D03*
X009996Y019897D03*
X009986Y019417D03*
X010556Y019377D03*
X011126Y019377D03*
X009446Y019347D03*
X009446Y019987D03*
X006826Y019367D03*
X006826Y019357D03*
X006706Y019977D03*
X006706Y019987D03*
D20*
X006676Y019897D03*
X006856Y019447D03*
X006856Y019437D03*
X007556Y018747D03*
X007556Y018737D03*
X008766Y018677D03*
X008766Y018667D03*
X008766Y018637D03*
X009536Y018547D03*
X009546Y018557D03*
X009986Y019397D03*
X010586Y019487D03*
X010586Y019497D03*
X010586Y019847D03*
X010586Y019857D03*
X009996Y019917D03*
X009416Y019467D03*
X009416Y019457D03*
X011096Y019487D03*
X011096Y019497D03*
X011096Y019837D03*
X011096Y019847D03*
X011096Y019857D03*
X011656Y019877D03*
X011656Y019457D03*
X013256Y019727D03*
X013256Y019737D03*
X014446Y018987D03*
X022646Y012937D03*
X022876Y012707D03*
X022876Y012697D03*
X022876Y012687D03*
X022876Y012227D03*
X022876Y012217D03*
X022876Y012207D03*
X022376Y011807D03*
X021976Y012167D03*
X021966Y012187D03*
X021956Y012207D03*
X021956Y012217D03*
X021946Y012227D03*
X021946Y012237D03*
X021946Y012247D03*
X021936Y012267D03*
X021936Y012277D03*
X021926Y012317D03*
X021916Y012387D03*
X021916Y012567D03*
X021916Y012577D03*
X021916Y012587D03*
X021926Y012627D03*
X021926Y012637D03*
X021926Y012647D03*
X021926Y012657D03*
X021936Y012667D03*
X021936Y012677D03*
X021936Y012687D03*
X021946Y012707D03*
X021946Y012717D03*
X023496Y013407D03*
X023496Y013557D03*
X024116Y012777D03*
X024116Y012767D03*
X024106Y012757D03*
X024106Y012747D03*
X024106Y012737D03*
X024106Y012727D03*
X024096Y012687D03*
X024096Y012677D03*
X024936Y012707D03*
X024936Y012717D03*
X024936Y012727D03*
X026146Y012737D03*
X026146Y012747D03*
X026156Y012727D03*
X026156Y012717D03*
X026166Y012697D03*
X026166Y012687D03*
X026176Y012667D03*
X026176Y012657D03*
X026186Y012627D03*
X026196Y012577D03*
X026196Y012357D03*
X026196Y012347D03*
X026196Y012337D03*
X026196Y012327D03*
X026186Y012307D03*
X026186Y012297D03*
X026186Y012287D03*
X026176Y012267D03*
X026176Y012257D03*
X020446Y007857D03*
X020166Y007757D03*
X018636Y007707D03*
X018626Y007717D03*
X017626Y008747D03*
X017896Y008847D03*
X004856Y019767D03*
D21*
X005456Y019847D03*
X005456Y019857D03*
X006756Y020117D03*
X006756Y020127D03*
X006776Y019227D03*
X009496Y019887D03*
X009986Y019467D03*
X010506Y019267D03*
X010506Y020067D03*
X011176Y020057D03*
X012236Y019407D03*
X013256Y019597D03*
X014466Y019097D03*
X013266Y020637D03*
X022346Y013107D03*
X022796Y012027D03*
X024256Y012947D03*
X024856Y012907D03*
X025676Y011817D03*
X020446Y007937D03*
X019626Y008477D03*
X019616Y008497D03*
X019616Y008507D03*
X019606Y008517D03*
X019606Y008527D03*
X019396Y007757D03*
X018446Y008517D03*
X018456Y008537D03*
X018466Y008547D03*
X018466Y008557D03*
X017626Y008667D03*
D22*
X020171Y007717D03*
X020171Y007707D03*
X022371Y011817D03*
X022091Y012017D03*
X022841Y012097D03*
X022841Y012107D03*
X022841Y012827D03*
X022061Y012907D03*
X024201Y012917D03*
X024421Y013117D03*
X024901Y012837D03*
X026061Y012067D03*
X012191Y019247D03*
X012191Y019257D03*
X011621Y019567D03*
X011621Y019577D03*
X011621Y019587D03*
X011621Y019597D03*
X011621Y019747D03*
X011621Y019757D03*
X011621Y019767D03*
X011621Y019777D03*
X011131Y019977D03*
X010551Y019977D03*
X010551Y019367D03*
X010551Y019357D03*
X011131Y019357D03*
X011131Y019367D03*
X009451Y019337D03*
X009451Y019997D03*
X006821Y019347D03*
X006711Y019997D03*
D23*
X010471Y019227D03*
X011211Y020097D03*
X012271Y019527D03*
X012271Y019517D03*
X014451Y019187D03*
X014451Y019177D03*
X022371Y011847D03*
X025671Y011827D03*
X025891Y012957D03*
X019551Y008617D03*
X018521Y008637D03*
X017871Y008997D03*
X019311Y007717D03*
X020181Y007617D03*
X020441Y007977D03*
D24*
X020441Y007847D03*
X020161Y007767D03*
X023491Y011827D03*
X023491Y011837D03*
X023491Y011847D03*
X023491Y011857D03*
X023491Y011867D03*
X023491Y011877D03*
X023491Y011887D03*
X023491Y011897D03*
X023491Y011907D03*
X023491Y011917D03*
X023491Y011927D03*
X023491Y011937D03*
X023491Y011947D03*
X023491Y011957D03*
X023491Y011967D03*
X023491Y011977D03*
X023491Y011987D03*
X023491Y011997D03*
X023491Y012007D03*
X023491Y012017D03*
X023491Y012027D03*
X023491Y012037D03*
X023491Y012047D03*
X023491Y012057D03*
X023491Y012067D03*
X023491Y012077D03*
X023491Y012087D03*
X023491Y012097D03*
X023491Y012107D03*
X023491Y012117D03*
X023491Y012127D03*
X023491Y012137D03*
X023491Y012147D03*
X023491Y012157D03*
X023491Y012167D03*
X023491Y012177D03*
X023491Y012187D03*
X023491Y012197D03*
X023491Y012207D03*
X023491Y012217D03*
X023491Y012227D03*
X023491Y012237D03*
X023491Y012247D03*
X023491Y012257D03*
X023491Y012267D03*
X023491Y012277D03*
X023491Y012287D03*
X023491Y012297D03*
X023491Y012307D03*
X023491Y012317D03*
X023491Y012327D03*
X023491Y012337D03*
X023491Y012347D03*
X023491Y012357D03*
X023491Y012367D03*
X023491Y012377D03*
X023491Y012387D03*
X023491Y012397D03*
X023491Y012407D03*
X023491Y012417D03*
X023491Y012427D03*
X023491Y012437D03*
X023491Y012447D03*
X023491Y012457D03*
X023491Y012467D03*
X023491Y012477D03*
X023491Y012487D03*
X023491Y012497D03*
X023491Y012507D03*
X023491Y012517D03*
X023491Y012527D03*
X023491Y012537D03*
X023491Y012547D03*
X023491Y012557D03*
X023491Y012567D03*
X023491Y012577D03*
X023491Y012587D03*
X023491Y012597D03*
X023491Y012607D03*
X023491Y012617D03*
X023491Y012627D03*
X023491Y012637D03*
X023491Y012647D03*
X023491Y012657D03*
X023491Y012667D03*
X023491Y012677D03*
X023491Y012687D03*
X023491Y012697D03*
X023491Y012707D03*
X023491Y012717D03*
X023491Y012727D03*
X023491Y012737D03*
X023491Y012747D03*
X023491Y012757D03*
X023491Y012767D03*
X023491Y012777D03*
X023491Y012787D03*
X023491Y012797D03*
X023491Y012807D03*
X023491Y012817D03*
X023491Y012827D03*
X023491Y012837D03*
X023491Y012847D03*
X023491Y012857D03*
X023491Y012867D03*
X023491Y012877D03*
X023491Y012887D03*
X023491Y012897D03*
X023491Y012907D03*
X023491Y012917D03*
X023491Y012927D03*
X023491Y012937D03*
X023491Y012947D03*
X023491Y012957D03*
X023491Y012967D03*
X023491Y012977D03*
X023491Y012987D03*
X023491Y012997D03*
X023491Y013007D03*
X023491Y013017D03*
X023491Y013027D03*
X023491Y013037D03*
X023491Y013047D03*
X023491Y013057D03*
X023491Y013067D03*
X023491Y013077D03*
X023491Y013087D03*
X023491Y013097D03*
X023491Y013107D03*
X023491Y013117D03*
X024101Y012717D03*
X024101Y012707D03*
X024101Y012697D03*
X024091Y012667D03*
X024091Y012657D03*
X024091Y012647D03*
X024091Y012637D03*
X024091Y012627D03*
X024091Y012617D03*
X024091Y012607D03*
X024091Y012597D03*
X024091Y012587D03*
X024091Y012577D03*
X024091Y012567D03*
X024091Y012557D03*
X024091Y012547D03*
X024091Y012537D03*
X024091Y012527D03*
X024091Y012517D03*
X024091Y012507D03*
X024091Y012497D03*
X024091Y012487D03*
X024091Y012477D03*
X024091Y012467D03*
X024091Y012457D03*
X024091Y012447D03*
X024091Y012437D03*
X024091Y012427D03*
X024091Y012417D03*
X024091Y012407D03*
X024091Y012397D03*
X024091Y012387D03*
X024091Y012377D03*
X024091Y012367D03*
X024091Y012357D03*
X024091Y012347D03*
X024091Y012337D03*
X024091Y012327D03*
X024091Y012317D03*
X024091Y012307D03*
X024091Y012297D03*
X024091Y012287D03*
X024091Y012277D03*
X024091Y012267D03*
X024091Y012257D03*
X024091Y012247D03*
X024091Y012237D03*
X024091Y012227D03*
X024091Y012217D03*
X024091Y012207D03*
X024091Y012197D03*
X024091Y012187D03*
X024091Y012177D03*
X024091Y012167D03*
X024091Y012157D03*
X024091Y012147D03*
X024091Y012137D03*
X024091Y012127D03*
X024091Y012117D03*
X024091Y012107D03*
X024091Y012097D03*
X024091Y012087D03*
X024091Y012077D03*
X024091Y012067D03*
X024091Y012057D03*
X024091Y012047D03*
X024091Y012037D03*
X024091Y012027D03*
X024091Y012017D03*
X024091Y012007D03*
X024091Y011997D03*
X024091Y011987D03*
X024091Y011977D03*
X024091Y011967D03*
X024091Y011957D03*
X024091Y011947D03*
X024091Y011937D03*
X024091Y011927D03*
X024091Y011917D03*
X024091Y011907D03*
X024091Y011897D03*
X024091Y011887D03*
X024091Y011877D03*
X024091Y011867D03*
X024091Y011857D03*
X024091Y011847D03*
X024091Y011837D03*
X024091Y011827D03*
X022881Y012237D03*
X022881Y012247D03*
X022881Y012257D03*
X022881Y012647D03*
X022881Y012657D03*
X022881Y012667D03*
X022881Y012677D03*
X023491Y013397D03*
X023491Y013567D03*
X024941Y012697D03*
X024941Y012687D03*
X024941Y012677D03*
X024941Y012667D03*
X024941Y012657D03*
X024941Y012647D03*
X026161Y012707D03*
X026171Y012677D03*
X026181Y012647D03*
X026181Y012637D03*
X026191Y012617D03*
X026191Y012607D03*
X026191Y012597D03*
X026191Y012587D03*
X026201Y012567D03*
X026201Y012557D03*
X026201Y012547D03*
X026201Y012537D03*
X026201Y012527D03*
X026201Y012517D03*
X026201Y012507D03*
X026201Y012497D03*
X026201Y012487D03*
X026201Y012477D03*
X026201Y012467D03*
X026201Y012457D03*
X026201Y012447D03*
X026201Y012437D03*
X026201Y012427D03*
X026201Y012417D03*
X026201Y012407D03*
X026201Y012397D03*
X026201Y012387D03*
X026201Y012377D03*
X026201Y012367D03*
X026191Y012317D03*
X021941Y012257D03*
X021931Y012287D03*
X021931Y012297D03*
X021931Y012307D03*
X021921Y012327D03*
X021921Y012337D03*
X021921Y012347D03*
X021921Y012357D03*
X021921Y012367D03*
X021921Y012377D03*
X021911Y012397D03*
X021911Y012407D03*
X021911Y012417D03*
X021911Y012427D03*
X021911Y012437D03*
X021911Y012447D03*
X021911Y012457D03*
X021911Y012467D03*
X021911Y012477D03*
X021911Y012487D03*
X021911Y012497D03*
X021911Y012507D03*
X021911Y012517D03*
X021911Y012527D03*
X021911Y012537D03*
X021911Y012547D03*
X021911Y012557D03*
X021921Y012597D03*
X021921Y012607D03*
X021921Y012617D03*
X011661Y019887D03*
X011091Y019827D03*
X011091Y019817D03*
X011091Y019807D03*
X011091Y019537D03*
X011091Y019527D03*
X011091Y019517D03*
X011091Y019507D03*
X010591Y019507D03*
X010591Y019517D03*
X010591Y019527D03*
X010591Y019537D03*
X010591Y019807D03*
X010591Y019817D03*
X010591Y019827D03*
X010591Y019837D03*
X009411Y019507D03*
X009411Y019497D03*
X009411Y019487D03*
X009411Y019477D03*
X010131Y018737D03*
X010131Y018557D03*
X009551Y018567D03*
X009531Y018537D03*
X009551Y018447D03*
X008401Y018737D03*
X008401Y018747D03*
X008401Y018757D03*
X007561Y018757D03*
X007341Y019577D03*
X007341Y019587D03*
X007341Y019597D03*
X007341Y019607D03*
X007341Y019617D03*
X007341Y019627D03*
X007341Y019637D03*
X007341Y019647D03*
X007341Y019657D03*
X007341Y019667D03*
X007341Y019677D03*
X007341Y019687D03*
X007341Y019697D03*
X007341Y019707D03*
X007341Y019717D03*
X007341Y019727D03*
X007341Y019737D03*
X007341Y019747D03*
X007341Y019757D03*
X007341Y019767D03*
X006861Y019457D03*
X006671Y019887D03*
X005051Y019837D03*
X005051Y020187D03*
D25*
X005471Y019907D03*
X005471Y019897D03*
X005841Y018757D03*
X005841Y018747D03*
X006791Y019267D03*
X006741Y020077D03*
X006741Y020087D03*
X009481Y020057D03*
X009991Y019857D03*
X009981Y019447D03*
X010521Y019297D03*
X011161Y019307D03*
X011161Y020037D03*
X010521Y020047D03*
X009481Y019277D03*
X012221Y019347D03*
X012221Y019357D03*
X014471Y019067D03*
X022811Y012047D03*
X022371Y011827D03*
X024421Y013107D03*
X024871Y012887D03*
X026001Y012017D03*
X019641Y008437D03*
X019641Y008427D03*
X019641Y008417D03*
X019651Y008397D03*
X019471Y007827D03*
X019461Y007817D03*
X019451Y007807D03*
X019441Y007797D03*
X018421Y008447D03*
X018421Y008457D03*
X018421Y008467D03*
X018431Y008477D03*
X017621Y008677D03*
D26*
X018571Y008677D03*
X018581Y008687D03*
X019261Y007697D03*
X020441Y008007D03*
X021261Y011827D03*
X021261Y011837D03*
X021261Y011847D03*
X021261Y011857D03*
X021261Y011867D03*
X021261Y011877D03*
X021261Y011887D03*
X021261Y011897D03*
X021261Y011907D03*
X021261Y011917D03*
X021261Y011927D03*
X021261Y011937D03*
X021261Y011947D03*
X021261Y011957D03*
X021261Y011967D03*
X021261Y011977D03*
X021261Y011987D03*
X021261Y011997D03*
X021261Y012007D03*
X021261Y012017D03*
X021261Y012027D03*
X021261Y012037D03*
X021261Y012047D03*
X021261Y012057D03*
X021261Y012067D03*
X021261Y012077D03*
X021261Y012087D03*
X021261Y012097D03*
X021261Y012107D03*
X021261Y012117D03*
X021261Y012127D03*
X021261Y012137D03*
X021261Y012147D03*
X021261Y012157D03*
X021261Y012167D03*
X021261Y012177D03*
X021261Y012187D03*
X021261Y012197D03*
X021261Y012207D03*
X021261Y012217D03*
X021261Y012227D03*
X021261Y012237D03*
X021261Y012247D03*
X021261Y012257D03*
X021261Y012267D03*
X021261Y012277D03*
X021261Y012287D03*
X021261Y012297D03*
X021261Y012307D03*
X021261Y012317D03*
X021261Y012327D03*
X021261Y012337D03*
X021261Y012347D03*
X021261Y012357D03*
X021261Y012367D03*
X021261Y012377D03*
X021261Y012387D03*
X021261Y012397D03*
X021261Y012407D03*
X021261Y012417D03*
X021261Y012427D03*
X021261Y012437D03*
X021261Y012447D03*
X021261Y012457D03*
X021261Y012467D03*
X021261Y012477D03*
X021261Y012487D03*
X021261Y012497D03*
X021261Y012507D03*
X021261Y012517D03*
X021261Y012527D03*
X021261Y012537D03*
X021261Y012547D03*
X021261Y012557D03*
X021261Y012567D03*
X021261Y012577D03*
X021261Y012587D03*
X021261Y012597D03*
X021261Y012607D03*
X021261Y012617D03*
X021261Y012627D03*
X021261Y012637D03*
X021261Y012647D03*
X021261Y012657D03*
X021261Y012667D03*
X021261Y012677D03*
X021261Y012687D03*
X021261Y012697D03*
X021261Y012707D03*
X021261Y012717D03*
X021261Y012727D03*
X021261Y012737D03*
X021261Y012747D03*
X021261Y012817D03*
X021261Y012827D03*
X021261Y012837D03*
X021261Y012847D03*
X021261Y012857D03*
X021261Y012867D03*
X021261Y012877D03*
X021261Y012887D03*
X021261Y012897D03*
X021261Y012907D03*
X021261Y012917D03*
X021261Y012927D03*
X021261Y012937D03*
X021261Y012947D03*
X021261Y012957D03*
X021261Y012967D03*
X021261Y012977D03*
X021261Y012987D03*
X021261Y012997D03*
X021261Y013007D03*
X021261Y013017D03*
X021261Y013027D03*
X021261Y013037D03*
X021261Y013047D03*
X021261Y013057D03*
X021261Y013067D03*
X021261Y013077D03*
X021261Y013087D03*
X021261Y013097D03*
X021261Y013107D03*
X021261Y013117D03*
X021261Y013127D03*
X021261Y013137D03*
X021261Y013147D03*
X021261Y013157D03*
X021261Y013167D03*
X021261Y013177D03*
X021261Y013187D03*
X021261Y013197D03*
X021261Y013207D03*
X021261Y013217D03*
X021261Y013227D03*
X021261Y013237D03*
X021261Y013247D03*
X021261Y013257D03*
X021261Y013267D03*
X021261Y013277D03*
X021261Y013287D03*
X021261Y013297D03*
X021261Y013307D03*
X021261Y013317D03*
X021261Y013327D03*
X021261Y013337D03*
X021261Y013347D03*
X021261Y013357D03*
X021261Y013367D03*
X021261Y013377D03*
X021261Y013387D03*
X021261Y013397D03*
X021261Y013407D03*
X021261Y013417D03*
X021261Y013427D03*
X021261Y013437D03*
X021261Y013447D03*
X021261Y013457D03*
X021261Y013467D03*
X021261Y013477D03*
X021261Y013487D03*
X021261Y013497D03*
X021261Y013507D03*
X021261Y013517D03*
X021261Y013527D03*
X021261Y013537D03*
X021261Y013547D03*
X021261Y013557D03*
X021261Y013567D03*
X021261Y013577D03*
X021261Y013587D03*
X021261Y013597D03*
X020511Y013147D03*
X020551Y013077D03*
X020591Y013007D03*
X020631Y012937D03*
X020671Y012867D03*
X020701Y012757D03*
X020471Y013217D03*
X020431Y013287D03*
X020391Y013357D03*
X020351Y013427D03*
X020311Y013497D03*
X020271Y013567D03*
X018391Y013067D03*
X018391Y013057D03*
X018391Y013047D03*
X018391Y013037D03*
X018391Y013027D03*
X018391Y013017D03*
X018391Y013007D03*
X018391Y012997D03*
X018391Y012987D03*
X018391Y012977D03*
X018391Y012967D03*
X018391Y012957D03*
X018391Y012947D03*
X018391Y012937D03*
X018391Y012927D03*
X018391Y012917D03*
X018391Y012907D03*
X018391Y012897D03*
X018391Y012887D03*
X018391Y012877D03*
X018391Y012867D03*
X018391Y012857D03*
X018391Y012847D03*
X018391Y012837D03*
X018391Y012827D03*
X018391Y012817D03*
X018391Y012807D03*
X018391Y012797D03*
X018391Y012787D03*
X018391Y012777D03*
X018391Y012767D03*
X018391Y012757D03*
X018391Y012747D03*
X018391Y012737D03*
X018391Y012727D03*
X018391Y012717D03*
X018391Y012707D03*
X018391Y012697D03*
X018391Y012687D03*
X018391Y012677D03*
X018391Y012667D03*
X018391Y012657D03*
X018391Y012647D03*
X018391Y012637D03*
X018391Y012627D03*
X018391Y012617D03*
X018391Y012607D03*
X018391Y012597D03*
X018391Y012587D03*
X018391Y012577D03*
X018391Y012567D03*
X018391Y012557D03*
X018391Y012547D03*
X018391Y012537D03*
X018391Y012527D03*
X018391Y012517D03*
X018391Y012507D03*
X018391Y012497D03*
X018391Y012487D03*
X018391Y012477D03*
X018391Y012467D03*
X018391Y012457D03*
X018391Y012447D03*
X018391Y012437D03*
X018391Y012427D03*
X018391Y012417D03*
X018391Y012407D03*
X018391Y012397D03*
X018391Y012387D03*
X018391Y012377D03*
X018391Y012367D03*
X018391Y012357D03*
X018391Y012347D03*
X018391Y012337D03*
X018391Y012327D03*
X018391Y012317D03*
X018391Y012307D03*
X018391Y012297D03*
X018391Y012287D03*
X018391Y012277D03*
X018391Y012267D03*
X018391Y012257D03*
X018391Y012247D03*
X018391Y012237D03*
X018391Y012227D03*
X018391Y012217D03*
X018391Y012207D03*
X018391Y012197D03*
X018391Y012187D03*
X018391Y012177D03*
X018391Y012167D03*
X018391Y012157D03*
X018391Y012147D03*
X018391Y012137D03*
X018391Y012127D03*
X018391Y012117D03*
X018391Y012107D03*
X018391Y012097D03*
X018391Y012087D03*
X018391Y012077D03*
X018391Y012067D03*
X018391Y012057D03*
X018391Y012047D03*
X018391Y012037D03*
X018391Y012027D03*
X018391Y012017D03*
X018391Y012007D03*
X018391Y011997D03*
X018391Y011987D03*
X018391Y011977D03*
X018391Y011967D03*
X018391Y011957D03*
X018391Y011947D03*
X018391Y011937D03*
X018391Y011927D03*
X018391Y011917D03*
X018391Y011907D03*
X018391Y011897D03*
X018391Y011887D03*
X018391Y011877D03*
X018391Y011867D03*
X018391Y011857D03*
X018391Y011847D03*
X018391Y011837D03*
X018391Y011827D03*
X022371Y011867D03*
X022351Y013077D03*
X025671Y011837D03*
X014421Y019287D03*
X013261Y019487D03*
X012301Y019627D03*
X012301Y019637D03*
X011241Y020117D03*
X010441Y020137D03*
X005391Y019767D03*
D27*
X012331Y019737D03*
X012331Y019727D03*
X014391Y019397D03*
X014391Y019387D03*
X022351Y013057D03*
X020331Y011937D03*
X020321Y011917D03*
X020311Y011897D03*
X020311Y011887D03*
X020301Y011877D03*
X020301Y011867D03*
X020291Y011857D03*
X020291Y011847D03*
X020281Y011837D03*
X020281Y011827D03*
X019031Y009987D03*
X018621Y008707D03*
X017671Y007877D03*
X017681Y007857D03*
X017691Y007827D03*
X017701Y007807D03*
X017701Y007797D03*
X020441Y008037D03*
X020381Y008757D03*
X020371Y008777D03*
X020371Y008787D03*
X020361Y008807D03*
X020361Y008817D03*
D28*
X019486Y008677D03*
X017626Y008597D03*
X019536Y011827D03*
X019536Y011837D03*
X019536Y011847D03*
X019536Y011857D03*
X019536Y011867D03*
X019536Y011877D03*
X019536Y011887D03*
X019536Y011897D03*
X019536Y011907D03*
X019536Y011917D03*
X019536Y011927D03*
X019536Y011937D03*
X019536Y011947D03*
X019536Y011957D03*
X019536Y011967D03*
X019536Y011977D03*
X019536Y011987D03*
X019536Y011997D03*
X019536Y012007D03*
X019536Y012017D03*
X019536Y012027D03*
X019536Y012037D03*
X019536Y012047D03*
X019536Y012057D03*
X019536Y012067D03*
X019536Y012077D03*
X019536Y012087D03*
X019536Y012097D03*
X019536Y012107D03*
X019536Y012117D03*
X019536Y012127D03*
X019536Y012137D03*
X019536Y012147D03*
X019536Y012157D03*
X019536Y012167D03*
X019536Y012177D03*
X019536Y012187D03*
X019536Y012197D03*
X019536Y012207D03*
X019536Y012217D03*
X019536Y012227D03*
X019536Y012237D03*
X019536Y012247D03*
X019536Y012257D03*
X019536Y012267D03*
X019536Y012277D03*
X019536Y012287D03*
X019536Y012297D03*
X019536Y012307D03*
X019536Y012317D03*
X019536Y012327D03*
X019536Y012337D03*
X019536Y012347D03*
X019536Y012357D03*
X019536Y012367D03*
X019536Y012377D03*
X019536Y012387D03*
X019536Y012397D03*
X019536Y012407D03*
X019536Y012417D03*
X019536Y012427D03*
X019536Y012437D03*
X019536Y012447D03*
X019536Y012457D03*
X019536Y012467D03*
X019536Y012477D03*
X019536Y012487D03*
X019536Y012497D03*
X019536Y012507D03*
X019536Y012517D03*
X019536Y012527D03*
X019536Y012537D03*
X019536Y012547D03*
X019536Y012557D03*
X019536Y012567D03*
X019536Y012577D03*
X019536Y012587D03*
X019536Y012597D03*
X019536Y012607D03*
X019536Y012617D03*
X019536Y012627D03*
X019536Y012637D03*
X019536Y012647D03*
X019536Y012657D03*
X019536Y012667D03*
X019536Y012677D03*
X019536Y012687D03*
X019536Y012697D03*
X019536Y012707D03*
X019536Y012717D03*
X019536Y012727D03*
X019536Y012737D03*
X019536Y012747D03*
X019536Y012757D03*
X019536Y012767D03*
X019536Y012777D03*
X019536Y012787D03*
X019536Y012797D03*
X019536Y012807D03*
X019536Y012817D03*
X019536Y012827D03*
X019536Y012837D03*
X019536Y012847D03*
X019536Y012857D03*
X019536Y012867D03*
X019536Y012877D03*
X019536Y012887D03*
X019536Y012897D03*
X019536Y012907D03*
X019536Y012917D03*
X019536Y012927D03*
X019536Y012937D03*
X019536Y012947D03*
X019536Y012957D03*
X019536Y012967D03*
X019536Y012977D03*
X019536Y012987D03*
X019536Y012997D03*
X019536Y013007D03*
X019536Y013017D03*
X019536Y013027D03*
X019536Y013037D03*
X019536Y013047D03*
X019536Y013057D03*
X019536Y013067D03*
X019536Y013077D03*
X019536Y013087D03*
X019536Y013097D03*
X019536Y013107D03*
X019536Y013117D03*
X019536Y013127D03*
X019536Y013137D03*
X019536Y013147D03*
X019536Y013157D03*
X019536Y013167D03*
X019536Y013177D03*
X019536Y013187D03*
X019536Y013197D03*
X019536Y013207D03*
X019536Y013217D03*
X019536Y013227D03*
X019536Y013237D03*
X019536Y013247D03*
X019536Y013257D03*
X019536Y013267D03*
X019536Y013277D03*
X019536Y013287D03*
X019536Y013297D03*
X019536Y013307D03*
X019536Y013317D03*
X019536Y013327D03*
X019536Y013337D03*
X019536Y013347D03*
X019536Y013357D03*
X019536Y013367D03*
X019536Y013377D03*
X019536Y013387D03*
X019536Y013397D03*
X019536Y013407D03*
X019536Y013417D03*
X019536Y013427D03*
X019536Y013437D03*
X019536Y013447D03*
X019536Y013457D03*
X019536Y013467D03*
X019536Y013477D03*
X019536Y013487D03*
X019536Y013497D03*
X019536Y013507D03*
X019536Y013517D03*
X019536Y013527D03*
X019536Y013537D03*
X019536Y013547D03*
X019536Y013557D03*
X019536Y013567D03*
X019536Y013577D03*
X019536Y013587D03*
X019536Y013597D03*
X020256Y013597D03*
X020256Y013587D03*
X020266Y013577D03*
X020276Y013557D03*
X020286Y013547D03*
X020286Y013537D03*
X020296Y013527D03*
X020296Y013517D03*
X020306Y013507D03*
X020316Y013487D03*
X020326Y013477D03*
X020326Y013467D03*
X020336Y013457D03*
X020336Y013447D03*
X020346Y013437D03*
X020356Y013417D03*
X020366Y013407D03*
X020366Y013397D03*
X020376Y013387D03*
X020376Y013377D03*
X020386Y013367D03*
X020396Y013347D03*
X020406Y013337D03*
X020406Y013327D03*
X020416Y013317D03*
X020416Y013307D03*
X020426Y013297D03*
X020436Y013277D03*
X020446Y013267D03*
X020446Y013257D03*
X020456Y013247D03*
X020456Y013237D03*
X020466Y013227D03*
X020476Y013207D03*
X020486Y013197D03*
X020486Y013187D03*
X020496Y013177D03*
X020496Y013167D03*
X020506Y013157D03*
X020516Y013137D03*
X020526Y013127D03*
X020526Y013117D03*
X020536Y013107D03*
X020536Y013097D03*
X020546Y013087D03*
X020556Y013067D03*
X020566Y013057D03*
X020566Y013047D03*
X020576Y013037D03*
X020576Y013027D03*
X020586Y013017D03*
X020596Y012997D03*
X020606Y012987D03*
X020606Y012977D03*
X020616Y012967D03*
X020616Y012957D03*
X020626Y012947D03*
X020636Y012927D03*
X020646Y012917D03*
X020646Y012907D03*
X020656Y012897D03*
X020656Y012887D03*
X020666Y012877D03*
X020676Y012857D03*
X020686Y012847D03*
X020686Y012837D03*
X020696Y012827D03*
X020696Y012817D03*
X020696Y012747D03*
X020696Y012737D03*
X020686Y012727D03*
X020686Y012717D03*
X020676Y012707D03*
X020676Y012697D03*
X020666Y012677D03*
X020656Y012657D03*
X020646Y012637D03*
X021256Y012757D03*
X024426Y013057D03*
X025636Y013097D03*
X014416Y019297D03*
X014416Y019307D03*
X013256Y019477D03*
X012306Y019647D03*
X007496Y019567D03*
X007496Y019557D03*
X007496Y019547D03*
X007496Y019537D03*
X007496Y019527D03*
X007496Y019517D03*
X007496Y019507D03*
X007496Y019497D03*
X007496Y019487D03*
X007496Y019477D03*
X007496Y019467D03*
X007496Y019457D03*
X007496Y019447D03*
X007496Y019437D03*
X007496Y019427D03*
X007496Y019417D03*
X007496Y019777D03*
X007496Y019787D03*
X007496Y019797D03*
X007496Y019807D03*
X007496Y019817D03*
X007496Y019827D03*
X007496Y019837D03*
X007496Y019847D03*
X007496Y019857D03*
X007496Y019867D03*
X007496Y019877D03*
X007496Y019887D03*
X007496Y019897D03*
X007496Y019907D03*
X007496Y019917D03*
X007496Y019927D03*
X007496Y019937D03*
D29*
X009506Y019877D03*
X009506Y020097D03*
X009986Y019487D03*
X010496Y019257D03*
X011186Y019267D03*
X012246Y019437D03*
X012246Y019447D03*
X013256Y019577D03*
X014466Y019117D03*
X014466Y019107D03*
X013266Y020627D03*
X009506Y019237D03*
X005446Y019827D03*
X017876Y008967D03*
X017626Y008657D03*
X018476Y008577D03*
X018486Y008587D03*
X018446Y008397D03*
X019356Y007737D03*
X019376Y007747D03*
X019596Y008547D03*
X022376Y011837D03*
X022786Y012017D03*
X024846Y012917D03*
X025956Y011997D03*
D30*
X025666Y011847D03*
X024426Y013037D03*
X020426Y012147D03*
X020416Y012127D03*
X020406Y012107D03*
X020396Y012087D03*
X020396Y012077D03*
X020386Y012067D03*
X020386Y012057D03*
X020376Y012047D03*
X020376Y012037D03*
X020366Y012027D03*
X020366Y012017D03*
X020366Y012007D03*
X020356Y011997D03*
X020356Y011987D03*
X020346Y011977D03*
X020346Y011967D03*
X020336Y011957D03*
X020336Y011947D03*
X020326Y011927D03*
X020316Y011907D03*
X020376Y008767D03*
X020386Y008747D03*
X020386Y008737D03*
X020396Y008717D03*
X020396Y008707D03*
X020406Y008687D03*
X020406Y008677D03*
X020406Y008667D03*
X019456Y008697D03*
X017626Y008577D03*
X017656Y007927D03*
X017656Y007917D03*
X017666Y007907D03*
X017666Y007897D03*
X017666Y007887D03*
X017676Y007867D03*
X017686Y007847D03*
X017686Y007837D03*
X014396Y019367D03*
X014396Y019377D03*
X013256Y019437D03*
X012326Y019707D03*
X012326Y019717D03*
X005366Y019757D03*
D31*
X012351Y019797D03*
X012351Y019807D03*
X013261Y019397D03*
X014371Y019457D03*
X014371Y019467D03*
X022371Y011897D03*
X025661Y011857D03*
X020291Y008967D03*
X020291Y008957D03*
X020301Y008947D03*
X020301Y008937D03*
X020281Y008977D03*
X020441Y008057D03*
X019031Y009077D03*
X017621Y008547D03*
X017761Y007667D03*
X017771Y007657D03*
X017781Y007637D03*
D32*
X018551Y008667D03*
X019511Y008657D03*
X020441Y007997D03*
X022371Y011857D03*
X014431Y019247D03*
X014431Y019257D03*
X012291Y019587D03*
X012291Y019597D03*
X011231Y019227D03*
X010451Y019207D03*
X010451Y020127D03*
X009551Y020137D03*
D33*
X012371Y019877D03*
X012371Y019867D03*
X013261Y019367D03*
X014351Y019527D03*
X022351Y013027D03*
X025661Y013057D03*
X025661Y011867D03*
X020231Y009057D03*
X020221Y009067D03*
X020211Y009087D03*
X020201Y009097D03*
X020441Y008077D03*
X020231Y007557D03*
X020221Y007547D03*
X020211Y007527D03*
X017861Y007517D03*
X017851Y007527D03*
X017841Y007537D03*
X017841Y007547D03*
X017621Y008527D03*
X017841Y009067D03*
X017841Y009077D03*
X017851Y009087D03*
X017861Y009097D03*
D34*
X017881Y009127D03*
X017621Y008517D03*
X017881Y007487D03*
X017891Y007477D03*
X019391Y008717D03*
X020171Y009137D03*
X020181Y009127D03*
X020441Y008087D03*
X020191Y007507D03*
X020181Y007497D03*
X020181Y007487D03*
X025671Y011877D03*
X025671Y013047D03*
X024431Y012977D03*
X022351Y013017D03*
X014341Y019557D03*
X014341Y019567D03*
X013261Y019347D03*
X012381Y019897D03*
X012381Y019907D03*
D35*
X012321Y019697D03*
X013261Y019447D03*
X014401Y019357D03*
X014401Y019347D03*
X011261Y020127D03*
X020521Y012357D03*
X020511Y012337D03*
X020501Y012317D03*
X020491Y012297D03*
X020491Y012287D03*
X020481Y012267D03*
X020471Y012247D03*
X020461Y012227D03*
X020461Y012217D03*
X020451Y012207D03*
X020451Y012197D03*
X020441Y012187D03*
X020441Y012177D03*
X020431Y012167D03*
X020431Y012157D03*
X020421Y012137D03*
X020411Y012117D03*
X020401Y012097D03*
X022371Y011877D03*
X019031Y009087D03*
X020391Y008727D03*
X020401Y008697D03*
X020411Y008657D03*
X020421Y008637D03*
X020421Y008627D03*
X020421Y008617D03*
X020431Y008577D03*
X020431Y008567D03*
X020441Y008027D03*
X019031Y007577D03*
X017651Y007937D03*
X017651Y007947D03*
X017651Y007957D03*
X017641Y007977D03*
X017641Y007987D03*
X017641Y007997D03*
X017631Y008037D03*
X017621Y008077D03*
X017621Y008087D03*
X017621Y008097D03*
D36*
X017621Y008507D03*
X017911Y009167D03*
X017931Y009187D03*
X019031Y009977D03*
X020141Y009177D03*
X020151Y009167D03*
X020151Y009157D03*
X020441Y008097D03*
X020161Y007467D03*
X020151Y007457D03*
X020141Y007437D03*
X019031Y007607D03*
X017921Y007437D03*
X017911Y007447D03*
X017911Y007457D03*
X017901Y007467D03*
X024431Y012967D03*
X025691Y013027D03*
X025681Y011887D03*
X014331Y019597D03*
X013261Y019327D03*
X012391Y019937D03*
X012391Y019947D03*
D37*
X012336Y019747D03*
X013256Y019427D03*
X014386Y019407D03*
X024426Y013027D03*
X025636Y013087D03*
X022366Y011887D03*
X020326Y008887D03*
X020346Y008857D03*
X020346Y008847D03*
X020356Y008837D03*
X020356Y008827D03*
X020366Y008797D03*
X019026Y007587D03*
X017716Y007757D03*
X017716Y007767D03*
X017706Y007777D03*
X017706Y007787D03*
X017696Y007817D03*
X017626Y008567D03*
D38*
X017941Y009197D03*
X020111Y009207D03*
X020121Y009197D03*
X020441Y008107D03*
X020121Y007417D03*
X020111Y007407D03*
X017951Y007407D03*
X017941Y007417D03*
X024431Y012957D03*
X025701Y013007D03*
X025701Y011907D03*
X025691Y011897D03*
X014321Y019627D03*
X014321Y019637D03*
X013261Y019317D03*
X012401Y019967D03*
X012401Y019977D03*
D39*
X012361Y019837D03*
X012361Y019827D03*
X011301Y020137D03*
X014361Y019497D03*
X014361Y019487D03*
X022371Y011907D03*
X020241Y009047D03*
X020251Y009027D03*
X020261Y009007D03*
X020441Y008067D03*
X020261Y007607D03*
X020251Y007587D03*
X019031Y007597D03*
X017821Y007567D03*
X017811Y007587D03*
X017801Y007607D03*
X017621Y008537D03*
X017811Y009027D03*
X017811Y009037D03*
X017821Y009047D03*
X019031Y009067D03*
D40*
X019036Y009047D03*
X017956Y009217D03*
X017946Y009207D03*
X017956Y007397D03*
X022366Y011947D03*
X022346Y012997D03*
X025716Y012997D03*
X025706Y011917D03*
X014316Y019647D03*
X013256Y019307D03*
X012406Y019987D03*
X012406Y019997D03*
D41*
X012376Y019887D03*
X013256Y019357D03*
X014346Y019537D03*
X014346Y019547D03*
X024426Y012987D03*
X022366Y011917D03*
X020186Y009117D03*
X020196Y009107D03*
X018666Y008717D03*
X017876Y009117D03*
X017866Y009107D03*
X017866Y007507D03*
X017876Y007497D03*
X019026Y006637D03*
X020196Y007517D03*
D42*
X020076Y007377D03*
X020066Y007367D03*
X017996Y007367D03*
X017976Y009237D03*
X017996Y009247D03*
X020066Y009247D03*
X022346Y012987D03*
X025726Y012977D03*
X025736Y012967D03*
X025716Y011927D03*
X014306Y019677D03*
X014306Y019687D03*
X013256Y019287D03*
X012416Y020017D03*
X012416Y020027D03*
D43*
X012386Y019927D03*
X012386Y019917D03*
X013256Y019337D03*
X014336Y019577D03*
X014336Y019587D03*
X022366Y011927D03*
X025676Y013037D03*
X020166Y009147D03*
X019036Y009057D03*
X017906Y009157D03*
X017896Y009147D03*
X017886Y009137D03*
X020166Y007477D03*
X020146Y007447D03*
D44*
X020061Y007357D03*
X020441Y008127D03*
X020061Y009257D03*
X020051Y009267D03*
X018011Y009267D03*
X018001Y009257D03*
X017621Y008477D03*
X018001Y007357D03*
X022361Y011967D03*
X022351Y012977D03*
X025721Y011937D03*
X025731Y011947D03*
X014301Y019697D03*
X014301Y019707D03*
X013261Y019277D03*
X012421Y020037D03*
X012421Y020047D03*
D45*
X012396Y019957D03*
X014326Y019617D03*
X014326Y019607D03*
X022346Y013007D03*
X022366Y011937D03*
X025696Y013017D03*
X020126Y009187D03*
X017916Y009177D03*
X017626Y008497D03*
X017936Y007427D03*
X020126Y007427D03*
D46*
X020046Y007347D03*
X019026Y007627D03*
X018016Y007347D03*
X019026Y006647D03*
X019026Y009037D03*
X025736Y011957D03*
X014296Y019717D03*
X013256Y019267D03*
X012426Y020057D03*
D47*
X012411Y020007D03*
X013261Y019297D03*
X014311Y019657D03*
X014311Y019667D03*
X022361Y011957D03*
X025721Y012987D03*
X020101Y009217D03*
X020091Y009227D03*
X020081Y009237D03*
X020441Y008117D03*
X020101Y007397D03*
X020091Y007387D03*
X019031Y007617D03*
X017981Y007377D03*
X017971Y007387D03*
X017621Y008487D03*
X017971Y009227D03*
D48*
X018021Y009277D03*
X017621Y008467D03*
X018021Y007337D03*
X020021Y007327D03*
X020441Y008137D03*
X020041Y009277D03*
X022361Y011977D03*
X022351Y012967D03*
X025741Y011967D03*
X014291Y019727D03*
X014291Y019737D03*
X012431Y020067D03*
X012431Y020077D03*
D49*
X012436Y020087D03*
X012436Y020097D03*
X013256Y019257D03*
X014286Y019747D03*
X014286Y019757D03*
X025746Y011977D03*
X020026Y009287D03*
X020016Y009297D03*
X018036Y009287D03*
X017626Y008457D03*
X018036Y007327D03*
X020016Y007317D03*
X020036Y007337D03*
D50*
X020441Y008147D03*
X020001Y009307D03*
X019031Y009027D03*
X018061Y009307D03*
X018041Y009297D03*
X019031Y009967D03*
X019031Y007637D03*
X018041Y007317D03*
X025751Y011987D03*
X014281Y019767D03*
X014281Y019777D03*
X013261Y019247D03*
X012441Y020107D03*
X012441Y020117D03*
D51*
X012296Y019617D03*
X012296Y019607D03*
X013256Y019497D03*
X014426Y019277D03*
X014426Y019267D03*
X022736Y011987D03*
X019026Y009997D03*
X019496Y008667D03*
X017626Y008607D03*
D52*
X017881Y008947D03*
X018451Y008527D03*
X019621Y008487D03*
X019631Y008467D03*
X019421Y007777D03*
X022151Y011987D03*
X022801Y012037D03*
X022801Y012897D03*
X025941Y012947D03*
X025981Y012007D03*
X014471Y019077D03*
X014471Y019087D03*
X012231Y019387D03*
X012231Y019397D03*
X011171Y019287D03*
X010511Y019277D03*
X009991Y019847D03*
X010511Y020057D03*
X009491Y020077D03*
X009491Y019257D03*
X006781Y019237D03*
X006111Y019237D03*
X006111Y019227D03*
X006111Y019217D03*
X006111Y019207D03*
X006111Y019247D03*
X006111Y019257D03*
X006111Y019267D03*
X006111Y019277D03*
X006111Y019287D03*
X006111Y019297D03*
X006111Y019307D03*
X006111Y019317D03*
X006111Y019327D03*
X006111Y019337D03*
X006111Y019347D03*
X006111Y019357D03*
X006111Y019367D03*
X006111Y019377D03*
X006111Y019387D03*
X006111Y019397D03*
X006111Y019407D03*
X006111Y019417D03*
X006111Y019427D03*
X006111Y019437D03*
X006111Y019447D03*
X006111Y019457D03*
X006111Y019467D03*
X006111Y019477D03*
X006111Y019487D03*
X006111Y019497D03*
X006111Y019507D03*
X006111Y019517D03*
X006111Y019527D03*
X006111Y019537D03*
X006111Y019547D03*
X006111Y019557D03*
X006111Y019567D03*
X006111Y019577D03*
X006111Y019587D03*
X006111Y019597D03*
X006111Y019607D03*
X006111Y019617D03*
X006111Y019627D03*
X006111Y019637D03*
X006111Y019647D03*
X006111Y019657D03*
X006111Y019667D03*
X006111Y019677D03*
X006111Y019687D03*
X006111Y019697D03*
X006111Y019707D03*
X006111Y019717D03*
X006111Y019727D03*
X006111Y019737D03*
X006111Y019747D03*
X006111Y019757D03*
X006111Y019767D03*
X006111Y019777D03*
X006111Y019787D03*
X006111Y019797D03*
X006111Y019807D03*
X006111Y019817D03*
X006111Y019827D03*
X006111Y019837D03*
X006111Y019847D03*
X006111Y019857D03*
X006111Y019867D03*
X006111Y019877D03*
X006111Y019887D03*
X006111Y019897D03*
X006111Y019907D03*
X006111Y019917D03*
X005461Y019867D03*
X006751Y020107D03*
D53*
X006636Y019787D03*
X006896Y019557D03*
X006896Y019547D03*
X007196Y018537D03*
X005366Y020117D03*
X005366Y020127D03*
X004826Y020227D03*
X004816Y020217D03*
X004816Y019807D03*
X009596Y018587D03*
X009996Y019937D03*
X011696Y019917D03*
X013116Y020597D03*
X013256Y019807D03*
X013256Y019797D03*
X023496Y013607D03*
X025436Y011997D03*
X020446Y007817D03*
X020146Y007817D03*
X018536Y007767D03*
X017626Y008787D03*
D54*
X017626Y008627D03*
X018536Y008647D03*
X019536Y008637D03*
X019536Y008627D03*
X019296Y007707D03*
X022756Y011997D03*
X024426Y013077D03*
X014446Y019197D03*
X014446Y019207D03*
X013256Y019527D03*
X012276Y019537D03*
X012276Y019547D03*
X010466Y020117D03*
X009536Y020127D03*
X009536Y019847D03*
X008266Y019417D03*
X005416Y019787D03*
D55*
X005476Y019917D03*
X006736Y020067D03*
X006796Y019277D03*
X009476Y019907D03*
X009476Y020047D03*
X009996Y019867D03*
X010526Y020037D03*
X011156Y020027D03*
X010526Y019307D03*
X009986Y019437D03*
X012216Y019337D03*
X013256Y019627D03*
X014466Y019057D03*
X022106Y012937D03*
X022346Y013117D03*
X022816Y012877D03*
X022816Y012057D03*
X022126Y011997D03*
X025636Y013127D03*
X025966Y012937D03*
X019646Y008407D03*
X019646Y008187D03*
X019496Y007847D03*
X019486Y007837D03*
X020176Y007687D03*
X020446Y007917D03*
X018416Y008437D03*
X017886Y008927D03*
X017626Y008687D03*
D56*
X017916Y008767D03*
X017526Y008977D03*
X017516Y008967D03*
X018426Y007867D03*
X018436Y007857D03*
X018436Y007847D03*
X018456Y007837D03*
X020536Y007637D03*
X020546Y007647D03*
X025416Y012007D03*
X023496Y013347D03*
X023496Y013617D03*
X013256Y019837D03*
X011716Y019927D03*
X011176Y018697D03*
X011176Y018687D03*
X011106Y018627D03*
X011106Y018617D03*
X011106Y018607D03*
X011266Y018617D03*
X011266Y018627D03*
X011266Y018637D03*
X011536Y018627D03*
X011536Y018617D03*
X011606Y018677D03*
X011696Y018627D03*
X011696Y018617D03*
X010746Y018677D03*
X010746Y018687D03*
X008356Y018767D03*
X008056Y018537D03*
X007516Y018767D03*
X006616Y018777D03*
X006276Y018777D03*
X005726Y018767D03*
X006916Y019607D03*
X006616Y019727D03*
X006616Y019737D03*
X004916Y019957D03*
X004796Y019837D03*
X004796Y020187D03*
D57*
X005431Y019807D03*
X009991Y019527D03*
X010481Y019237D03*
X010481Y020097D03*
X011201Y020087D03*
X012261Y019497D03*
X012261Y019487D03*
X014461Y019157D03*
X014461Y019147D03*
X022171Y012957D03*
X022771Y012007D03*
X019561Y008597D03*
X019571Y008587D03*
X018511Y008617D03*
X017871Y008987D03*
X020181Y007627D03*
X020441Y007967D03*
D58*
X019591Y007997D03*
X022101Y012007D03*
X022831Y012077D03*
X022831Y012847D03*
X022091Y012927D03*
X024211Y012927D03*
X024891Y012857D03*
X026001Y012917D03*
X026041Y012047D03*
X014471Y019037D03*
X012201Y019277D03*
X012201Y019287D03*
X011141Y019337D03*
X010541Y019337D03*
X009981Y019427D03*
X009461Y019317D03*
X009461Y019307D03*
X009461Y020017D03*
X009461Y020027D03*
X010541Y020007D03*
X010541Y019997D03*
X011141Y019997D03*
X006811Y019317D03*
X006721Y020027D03*
D59*
X006596Y019677D03*
X006936Y019667D03*
X006936Y019657D03*
X007126Y018727D03*
X007116Y018707D03*
X007116Y018697D03*
X007116Y018607D03*
X007116Y018597D03*
X007126Y018577D03*
X007266Y018587D03*
X007266Y018597D03*
X007276Y018607D03*
X007276Y018617D03*
X007276Y018627D03*
X007276Y018637D03*
X007276Y018647D03*
X007276Y018657D03*
X007276Y018667D03*
X007276Y018677D03*
X007276Y018687D03*
X007276Y018697D03*
X007266Y018707D03*
X007266Y018717D03*
X007476Y018717D03*
X007476Y018707D03*
X007476Y018697D03*
X007476Y018687D03*
X007476Y018677D03*
X007476Y018667D03*
X007476Y018657D03*
X007476Y018647D03*
X007476Y018637D03*
X007476Y018627D03*
X007476Y018617D03*
X007476Y018607D03*
X007476Y018597D03*
X007476Y018587D03*
X007476Y018577D03*
X007476Y018567D03*
X007476Y018557D03*
X007476Y018547D03*
X007476Y018537D03*
X007476Y018527D03*
X007636Y018527D03*
X007636Y018537D03*
X007636Y018547D03*
X007636Y018557D03*
X007636Y018567D03*
X007636Y018577D03*
X007636Y018587D03*
X007636Y018597D03*
X007636Y018607D03*
X007636Y018617D03*
X007636Y018627D03*
X007636Y018637D03*
X007636Y018647D03*
X007636Y018657D03*
X007636Y018667D03*
X007636Y018677D03*
X007636Y018687D03*
X007636Y018767D03*
X007636Y018777D03*
X007846Y018777D03*
X007846Y018767D03*
X007846Y018757D03*
X007846Y018747D03*
X007846Y018737D03*
X007846Y018727D03*
X007846Y018717D03*
X007846Y018707D03*
X007846Y018697D03*
X007846Y018687D03*
X007846Y018677D03*
X007846Y018667D03*
X007846Y018657D03*
X007846Y018647D03*
X007846Y018637D03*
X007846Y018627D03*
X007846Y018617D03*
X007846Y018607D03*
X007846Y018597D03*
X007846Y018587D03*
X007846Y018577D03*
X007846Y018567D03*
X007846Y018557D03*
X007846Y018547D03*
X007846Y018537D03*
X007846Y018527D03*
X008096Y018587D03*
X008096Y018597D03*
X008096Y018607D03*
X008096Y018617D03*
X008096Y018627D03*
X008096Y018637D03*
X008096Y018647D03*
X008096Y018657D03*
X008096Y018667D03*
X008096Y018677D03*
X008096Y018687D03*
X008096Y018697D03*
X008096Y018707D03*
X008096Y018717D03*
X008096Y018787D03*
X008096Y018797D03*
X008096Y018807D03*
X008096Y018817D03*
X008096Y018827D03*
X008096Y018837D03*
X008096Y018847D03*
X008096Y018857D03*
X007846Y018857D03*
X007846Y018847D03*
X007846Y018837D03*
X007846Y018827D03*
X007846Y018817D03*
X007846Y018807D03*
X007846Y018867D03*
X007846Y018877D03*
X008316Y018697D03*
X008316Y018687D03*
X008316Y018677D03*
X008316Y018667D03*
X008316Y018657D03*
X008316Y018647D03*
X008316Y018637D03*
X008316Y018627D03*
X008316Y018617D03*
X008316Y018607D03*
X008316Y018597D03*
X008316Y018587D03*
X008316Y018577D03*
X008316Y018567D03*
X008316Y018557D03*
X008316Y018547D03*
X008316Y018537D03*
X008316Y018527D03*
X008476Y018527D03*
X008476Y018537D03*
X008476Y018547D03*
X008476Y018557D03*
X008476Y018567D03*
X008476Y018577D03*
X008476Y018587D03*
X008476Y018597D03*
X008476Y018607D03*
X008476Y018617D03*
X008476Y018627D03*
X008476Y018637D03*
X008476Y018647D03*
X008476Y018657D03*
X008476Y018667D03*
X008476Y018677D03*
X008476Y018687D03*
X008476Y018697D03*
X008476Y018707D03*
X008476Y018767D03*
X008686Y018577D03*
X008696Y018567D03*
X008836Y018577D03*
X008836Y018587D03*
X008846Y018597D03*
X008846Y018607D03*
X008846Y018617D03*
X008846Y018627D03*
X008846Y018687D03*
X008846Y018697D03*
X008836Y018707D03*
X008836Y018717D03*
X009046Y018717D03*
X009046Y018707D03*
X009046Y018697D03*
X009046Y018687D03*
X009046Y018677D03*
X009046Y018667D03*
X009046Y018657D03*
X009046Y018647D03*
X009046Y018637D03*
X009046Y018627D03*
X009046Y018617D03*
X009046Y018607D03*
X009046Y018597D03*
X009046Y018587D03*
X009046Y018577D03*
X009046Y018567D03*
X009046Y018557D03*
X009046Y018547D03*
X009046Y018537D03*
X009046Y018527D03*
X009046Y018727D03*
X009046Y018737D03*
X009046Y018747D03*
X009046Y018757D03*
X009046Y018767D03*
X009046Y018777D03*
X009046Y018787D03*
X009046Y018797D03*
X009046Y018807D03*
X009046Y018817D03*
X009046Y018827D03*
X009046Y018837D03*
X009046Y018847D03*
X009046Y018857D03*
X009046Y018867D03*
X009266Y018867D03*
X009266Y018857D03*
X009266Y018847D03*
X009266Y018837D03*
X009266Y018827D03*
X009266Y018817D03*
X009266Y018807D03*
X009266Y018777D03*
X009266Y018767D03*
X009266Y018757D03*
X009266Y018747D03*
X009266Y018737D03*
X009266Y018727D03*
X009266Y018717D03*
X009266Y018707D03*
X009266Y018697D03*
X009266Y018687D03*
X009266Y018677D03*
X009266Y018667D03*
X009266Y018657D03*
X009266Y018647D03*
X009266Y018637D03*
X009266Y018627D03*
X009266Y018617D03*
X009266Y018607D03*
X009266Y018597D03*
X009266Y018587D03*
X009266Y018577D03*
X009266Y018567D03*
X009266Y018557D03*
X009266Y018547D03*
X009266Y018537D03*
X009266Y018527D03*
X009446Y018517D03*
X009456Y018477D03*
X009486Y018667D03*
X009476Y018687D03*
X009476Y018697D03*
X009476Y018707D03*
X009476Y018717D03*
X009476Y018727D03*
X009616Y018737D03*
X009626Y018717D03*
X009626Y018707D03*
X009626Y018697D03*
X009616Y018677D03*
X009836Y018677D03*
X009836Y018667D03*
X009836Y018657D03*
X009836Y018647D03*
X009836Y018637D03*
X009836Y018627D03*
X009836Y018617D03*
X009836Y018607D03*
X009836Y018597D03*
X009836Y018587D03*
X009836Y018577D03*
X009836Y018567D03*
X009836Y018557D03*
X009836Y018547D03*
X009836Y018537D03*
X009836Y018527D03*
X009836Y018687D03*
X009836Y018697D03*
X009836Y018707D03*
X009836Y018717D03*
X009836Y018727D03*
X009836Y018737D03*
X009836Y018747D03*
X009836Y018757D03*
X009836Y018767D03*
X010056Y018777D03*
X010056Y018787D03*
X010056Y018797D03*
X010056Y018807D03*
X010056Y018817D03*
X010056Y018827D03*
X010056Y018837D03*
X010056Y018847D03*
X010056Y018857D03*
X010056Y018867D03*
X010056Y018707D03*
X010056Y018697D03*
X010056Y018687D03*
X010056Y018677D03*
X010056Y018667D03*
X010056Y018657D03*
X010056Y018647D03*
X010056Y018637D03*
X010056Y018627D03*
X010056Y018617D03*
X010056Y018607D03*
X010056Y018597D03*
X010056Y018587D03*
X010206Y018577D03*
X010216Y018587D03*
X010216Y018597D03*
X010216Y018607D03*
X010216Y018617D03*
X010216Y018687D03*
X010216Y018697D03*
X010216Y018707D03*
X010216Y018717D03*
X010206Y018727D03*
X010676Y018547D03*
X010676Y018537D03*
X010826Y018537D03*
X010826Y018547D03*
X010826Y018557D03*
X010876Y018697D03*
X010886Y018727D03*
X010886Y018737D03*
X010896Y018767D03*
X010896Y018777D03*
X010736Y018777D03*
X011106Y018557D03*
X011106Y018547D03*
X011106Y018537D03*
X011266Y018547D03*
X011316Y018717D03*
X011316Y018727D03*
X011326Y018747D03*
X011326Y018757D03*
X011326Y018767D03*
X011176Y018767D03*
X011176Y018757D03*
X011176Y018777D03*
X011606Y018777D03*
X011606Y018767D03*
X011756Y018747D03*
X011756Y018737D03*
X011746Y018707D03*
X011766Y018767D03*
X011766Y018777D03*
X011696Y018557D03*
X011696Y018547D03*
X011696Y018537D03*
X012076Y018777D03*
X012096Y018897D03*
X013256Y019867D03*
X013386Y020087D03*
X013386Y020097D03*
X013746Y019037D03*
X013856Y018847D03*
X014456Y018817D03*
X009996Y019947D03*
X009266Y018877D03*
X006706Y018677D03*
X006706Y018667D03*
X006706Y018657D03*
X006706Y018647D03*
X006706Y018637D03*
X006706Y018627D03*
X006696Y018607D03*
X006696Y018597D03*
X006696Y018687D03*
X006696Y018697D03*
X006696Y018707D03*
X006556Y018727D03*
X006546Y018717D03*
X006546Y018587D03*
X006556Y018577D03*
X006356Y018607D03*
X006356Y018617D03*
X006356Y018627D03*
X006356Y018637D03*
X006356Y018647D03*
X006356Y018657D03*
X006356Y018667D03*
X006356Y018677D03*
X006356Y018687D03*
X006356Y018697D03*
X006346Y018707D03*
X006346Y018717D03*
X006346Y018597D03*
X006346Y018587D03*
X006346Y018577D03*
X006336Y018567D03*
X006196Y018587D03*
X006196Y018597D03*
X006196Y018607D03*
X006186Y018647D03*
X006186Y018657D03*
X006196Y018687D03*
X006196Y018697D03*
X006196Y018707D03*
X006196Y018717D03*
X006206Y018727D03*
X005986Y018707D03*
X005986Y018697D03*
X005986Y018687D03*
X005986Y018677D03*
X005986Y018667D03*
X005986Y018657D03*
X005986Y018647D03*
X005986Y018637D03*
X005986Y018627D03*
X005986Y018617D03*
X005986Y018607D03*
X005986Y018597D03*
X005986Y018587D03*
X005986Y018577D03*
X005986Y018567D03*
X005986Y018557D03*
X005986Y018547D03*
X005986Y018537D03*
X005986Y018527D03*
X005836Y018527D03*
X005836Y018537D03*
X005836Y018547D03*
X005836Y018557D03*
X005836Y018567D03*
X005836Y018577D03*
X005836Y018587D03*
X005836Y018597D03*
X005836Y018607D03*
X005836Y018617D03*
X005836Y018627D03*
X005836Y018637D03*
X005836Y018647D03*
X005836Y018657D03*
X005836Y018667D03*
X005836Y018677D03*
X005836Y018687D03*
X005836Y018697D03*
X005836Y018707D03*
X005686Y018707D03*
X005686Y018697D03*
X005686Y018687D03*
X005686Y018677D03*
X005686Y018667D03*
X005686Y018657D03*
X005686Y018647D03*
X005686Y018637D03*
X005686Y018627D03*
X005686Y018617D03*
X005686Y018607D03*
X005686Y018597D03*
X005686Y018587D03*
X005686Y018577D03*
X005686Y018567D03*
X005686Y018557D03*
X005686Y018547D03*
X005686Y018537D03*
X005686Y018527D03*
X005686Y018717D03*
X005986Y018767D03*
X005986Y018777D03*
X005196Y019927D03*
X005196Y019937D03*
X005056Y019917D03*
X004916Y019917D03*
X004896Y020027D03*
X004896Y020037D03*
X004946Y020157D03*
X005056Y020117D03*
X005196Y020097D03*
X005196Y020087D03*
X004776Y020117D03*
X004776Y020127D03*
X004776Y019907D03*
X004776Y019897D03*
X017476Y008907D03*
X017926Y008737D03*
X019026Y007527D03*
X020136Y007867D03*
X020446Y007777D03*
X020576Y007697D03*
X020586Y007707D03*
X025396Y012017D03*
D60*
X026016Y012027D03*
X026026Y012037D03*
X024886Y012867D03*
X025986Y012927D03*
X022826Y012857D03*
X022826Y012067D03*
X019026Y010007D03*
X019026Y009117D03*
X017886Y008917D03*
X017626Y008697D03*
X019026Y007547D03*
X019546Y007917D03*
X019556Y007927D03*
X019566Y007947D03*
X019576Y007957D03*
X019576Y007967D03*
X019586Y007977D03*
X019586Y007987D03*
X019596Y008007D03*
X019606Y008027D03*
X019606Y008037D03*
X019616Y008047D03*
X019616Y008057D03*
X019616Y008067D03*
X019626Y008077D03*
X019626Y008087D03*
X019626Y008097D03*
X019636Y008137D03*
X019636Y008147D03*
X020176Y007697D03*
X020446Y007907D03*
X012206Y019297D03*
X012206Y019307D03*
X011146Y019327D03*
X010536Y019327D03*
X009996Y019877D03*
X010536Y020017D03*
X011146Y020007D03*
X009466Y019917D03*
X009466Y019297D03*
X006806Y019307D03*
X006726Y020037D03*
X013256Y019647D03*
D61*
X013271Y019917D03*
X013271Y019927D03*
X013361Y020557D03*
X013771Y019017D03*
X013781Y019007D03*
X013861Y018867D03*
X013861Y018857D03*
X014261Y018637D03*
X012531Y019097D03*
X012531Y019107D03*
X011651Y018667D03*
X011491Y018677D03*
X011481Y018707D03*
X011541Y018517D03*
X011261Y018517D03*
X011221Y018647D03*
X011221Y018657D03*
X011141Y018647D03*
X011061Y018657D03*
X011051Y018697D03*
X010711Y018667D03*
X010631Y018647D03*
X010621Y018677D03*
X009631Y018617D03*
X009551Y018787D03*
X008761Y018787D03*
X007191Y018787D03*
X006621Y018787D03*
X006271Y018787D03*
X006581Y019637D03*
X006951Y019707D03*
X005181Y019877D03*
X005071Y019967D03*
X004911Y019887D03*
X004761Y019987D03*
X004761Y019997D03*
X004761Y020007D03*
X004761Y020017D03*
X004761Y020027D03*
X004761Y020037D03*
X005051Y020227D03*
X005181Y020147D03*
X017441Y008857D03*
X017621Y008847D03*
X017931Y008717D03*
X020131Y007887D03*
X020441Y007757D03*
X020621Y007757D03*
X020621Y007767D03*
X025381Y012027D03*
X025641Y013147D03*
X023501Y013337D03*
D62*
X025376Y012907D03*
X025376Y012037D03*
X020116Y007917D03*
X020646Y007807D03*
X020646Y007797D03*
X017936Y008697D03*
X017416Y008817D03*
X010166Y018787D03*
X008076Y018867D03*
X006966Y019747D03*
X006566Y019597D03*
X004916Y019867D03*
D63*
X006556Y019567D03*
X006976Y019767D03*
X017396Y008787D03*
X020116Y007927D03*
X020446Y007737D03*
X020666Y007827D03*
X025366Y012047D03*
D64*
X026096Y012107D03*
X026106Y012117D03*
X024916Y012797D03*
X024166Y012877D03*
X024156Y012867D03*
X023496Y013447D03*
X023496Y013457D03*
X023496Y013467D03*
X023496Y013477D03*
X023496Y013487D03*
X023496Y013497D03*
X023496Y013507D03*
X023496Y013517D03*
X022856Y012787D03*
X022856Y012777D03*
X022856Y012147D03*
X022856Y012137D03*
X022056Y012047D03*
X022046Y012057D03*
X022036Y012067D03*
X022016Y012857D03*
X022026Y012867D03*
X017896Y008877D03*
X017626Y008727D03*
X020166Y007737D03*
X020446Y007877D03*
X014456Y019007D03*
X013256Y019697D03*
X013266Y020677D03*
X011636Y019837D03*
X011636Y019507D03*
X011636Y019497D03*
X011116Y019407D03*
X011116Y019937D03*
X010566Y019937D03*
X009996Y019907D03*
X009986Y019407D03*
X010566Y019407D03*
X010566Y019397D03*
X009436Y019377D03*
X009436Y019947D03*
X009436Y019957D03*
X009436Y019967D03*
X006836Y019387D03*
X006696Y019957D03*
X005046Y020167D03*
D65*
X006716Y020017D03*
X006716Y020007D03*
X006816Y019337D03*
X006816Y019327D03*
X009456Y019327D03*
X009456Y019927D03*
X009456Y020007D03*
X009996Y019887D03*
X010546Y019987D03*
X011136Y019987D03*
X011616Y019737D03*
X011616Y019727D03*
X011616Y019717D03*
X011616Y019707D03*
X011616Y019697D03*
X011616Y019687D03*
X011616Y019677D03*
X011616Y019667D03*
X011616Y019657D03*
X011616Y019647D03*
X011616Y019637D03*
X011616Y019627D03*
X011616Y019617D03*
X011616Y019607D03*
X011136Y019347D03*
X010546Y019347D03*
X012196Y019267D03*
X013256Y019657D03*
X013256Y019667D03*
X014466Y019027D03*
X013266Y020667D03*
X022076Y012917D03*
X022586Y012957D03*
X022836Y012837D03*
X022836Y012087D03*
X024896Y012847D03*
X026016Y012907D03*
X026056Y012057D03*
X020446Y007897D03*
X017886Y008897D03*
X017886Y008907D03*
X017626Y008707D03*
D66*
X022021Y012087D03*
X022031Y012077D03*
X022861Y012157D03*
X022861Y012757D03*
X022861Y012767D03*
X022011Y012847D03*
X022001Y012837D03*
X022001Y012827D03*
X021991Y012817D03*
X023491Y013437D03*
X023491Y013527D03*
X024151Y012857D03*
X024921Y012787D03*
X024921Y012777D03*
X026071Y012857D03*
X026081Y012847D03*
X026131Y012157D03*
X026121Y012137D03*
X026111Y012127D03*
X011641Y019487D03*
X011641Y019847D03*
X011111Y019917D03*
X011111Y019927D03*
X011111Y019427D03*
X011111Y019417D03*
X010571Y019417D03*
X010571Y019427D03*
X010571Y019917D03*
X010571Y019927D03*
X009431Y019397D03*
X009431Y019387D03*
X006841Y019397D03*
X006841Y019407D03*
X006691Y019937D03*
X006691Y019947D03*
X005051Y019857D03*
D67*
X004881Y019757D03*
X006701Y019967D03*
X006831Y019377D03*
X009441Y019367D03*
X009441Y019357D03*
X009441Y019937D03*
X009441Y019977D03*
X010561Y019957D03*
X010561Y019947D03*
X011121Y019947D03*
X011121Y019957D03*
X011631Y019827D03*
X011631Y019817D03*
X011631Y019527D03*
X011631Y019517D03*
X011121Y019397D03*
X011121Y019387D03*
X010561Y019387D03*
X012181Y019217D03*
X012181Y019207D03*
X013261Y019687D03*
X022031Y012877D03*
X022341Y013127D03*
X022851Y012797D03*
X022851Y012127D03*
X024171Y012887D03*
X024181Y012897D03*
X024911Y012807D03*
X026041Y012887D03*
X026051Y012877D03*
X026061Y012867D03*
X026091Y012097D03*
X026081Y012087D03*
X019031Y009127D03*
X017891Y008887D03*
X019031Y007537D03*
X019031Y006607D03*
D68*
X020166Y007747D03*
X020446Y007867D03*
X017896Y008867D03*
X017626Y008737D03*
X022006Y012107D03*
X022016Y012097D03*
X021996Y012127D03*
X021966Y012767D03*
X021976Y012787D03*
X021986Y012797D03*
X021986Y012807D03*
X022626Y012947D03*
X022866Y012747D03*
X022866Y012737D03*
X022866Y012177D03*
X022866Y012167D03*
X024126Y012807D03*
X024136Y012827D03*
X024136Y012837D03*
X024146Y012847D03*
X024926Y012767D03*
X024926Y012757D03*
X025486Y012957D03*
X026086Y012837D03*
X026096Y012827D03*
X026106Y012817D03*
X026106Y012807D03*
X026116Y012797D03*
X026156Y012207D03*
X026146Y012187D03*
X026146Y012177D03*
X026136Y012167D03*
X026126Y012147D03*
X023496Y013417D03*
X023496Y013427D03*
X023496Y013537D03*
X023496Y013547D03*
X014456Y018997D03*
X013256Y019707D03*
X013256Y019717D03*
X011646Y019857D03*
X011646Y019867D03*
X011646Y019477D03*
X011106Y019447D03*
X011106Y019437D03*
X011106Y019897D03*
X011106Y019907D03*
X010576Y019907D03*
X010576Y019897D03*
X010576Y019447D03*
X010576Y019437D03*
X009426Y019417D03*
X009426Y019407D03*
X009546Y018467D03*
X006846Y019417D03*
X006686Y019927D03*
X005046Y020177D03*
X004886Y020267D03*
D69*
X005051Y019847D03*
X006681Y019907D03*
X006681Y019917D03*
X006851Y019427D03*
X008761Y018657D03*
X008761Y018647D03*
X009531Y018527D03*
X009551Y018457D03*
X009421Y019427D03*
X009421Y019437D03*
X009421Y019447D03*
X008901Y019447D03*
X008901Y019437D03*
X008901Y019427D03*
X008901Y019417D03*
X008901Y019407D03*
X008901Y019397D03*
X008901Y019387D03*
X008901Y019377D03*
X008901Y019367D03*
X008901Y019357D03*
X008901Y019347D03*
X008901Y019337D03*
X008901Y019327D03*
X008901Y019317D03*
X008901Y019307D03*
X008901Y019297D03*
X008901Y019287D03*
X008901Y019277D03*
X008901Y019267D03*
X008901Y019257D03*
X008901Y019247D03*
X008901Y019237D03*
X008901Y019227D03*
X008901Y019217D03*
X008901Y019207D03*
X008901Y019457D03*
X008901Y019467D03*
X008901Y019477D03*
X008901Y019487D03*
X008901Y019497D03*
X008901Y019507D03*
X008901Y019517D03*
X008901Y019527D03*
X008901Y019537D03*
X008901Y019547D03*
X008901Y019557D03*
X008901Y019567D03*
X008901Y019577D03*
X008901Y019587D03*
X008901Y019597D03*
X008901Y019607D03*
X008901Y019617D03*
X008901Y019627D03*
X008901Y019637D03*
X008901Y019647D03*
X008901Y019657D03*
X008901Y019667D03*
X008901Y019677D03*
X008901Y019687D03*
X008901Y019697D03*
X008901Y019707D03*
X008901Y019717D03*
X008901Y019727D03*
X008901Y019737D03*
X008901Y019747D03*
X008901Y019757D03*
X008901Y019767D03*
X008901Y019777D03*
X008901Y019787D03*
X008901Y019797D03*
X008901Y019807D03*
X008901Y019817D03*
X008901Y019827D03*
X008901Y019837D03*
X008901Y019847D03*
X008901Y019857D03*
X008901Y019867D03*
X008901Y019877D03*
X008901Y019887D03*
X008901Y019897D03*
X008901Y019907D03*
X008901Y019917D03*
X008901Y019927D03*
X008901Y019937D03*
X008901Y019947D03*
X008901Y019957D03*
X008901Y019967D03*
X008901Y019977D03*
X008901Y019987D03*
X008901Y019997D03*
X008901Y020007D03*
X008901Y020017D03*
X008901Y020027D03*
X008901Y020037D03*
X008901Y020047D03*
X008901Y020057D03*
X008901Y020067D03*
X008901Y020077D03*
X008901Y020087D03*
X008901Y020097D03*
X008901Y020107D03*
X008901Y020117D03*
X008901Y020127D03*
X008901Y020137D03*
X010581Y019887D03*
X010581Y019877D03*
X010581Y019867D03*
X010581Y019477D03*
X010581Y019467D03*
X010581Y019457D03*
X011101Y019457D03*
X011101Y019467D03*
X011101Y019477D03*
X011101Y019867D03*
X011101Y019877D03*
X011101Y019887D03*
X011651Y019467D03*
X021971Y012777D03*
X021961Y012757D03*
X021961Y012747D03*
X021951Y012737D03*
X021951Y012727D03*
X021941Y012697D03*
X021961Y012197D03*
X021971Y012177D03*
X021981Y012157D03*
X021981Y012147D03*
X021991Y012137D03*
X022001Y012117D03*
X022871Y012187D03*
X022871Y012197D03*
X022871Y012717D03*
X022871Y012727D03*
X024121Y012787D03*
X024121Y012797D03*
X024131Y012817D03*
X024671Y012947D03*
X024421Y013127D03*
X024931Y012747D03*
X024931Y012737D03*
X025641Y013137D03*
X026121Y012787D03*
X026131Y012777D03*
X026131Y012767D03*
X026141Y012757D03*
X026181Y012277D03*
X026171Y012247D03*
X026171Y012237D03*
X026161Y012227D03*
X026161Y012217D03*
X026151Y012197D03*
X017891Y008857D03*
D70*
X017626Y008587D03*
X017606Y008237D03*
X017606Y008227D03*
X017606Y008217D03*
X017606Y008207D03*
X017606Y008197D03*
X017606Y008187D03*
X017606Y008177D03*
X017616Y008127D03*
X017616Y008117D03*
X017616Y008107D03*
X017626Y008067D03*
X017626Y008057D03*
X017626Y008047D03*
X017636Y008027D03*
X017636Y008017D03*
X017636Y008007D03*
X017646Y007967D03*
X018596Y008697D03*
X019476Y008687D03*
X020416Y008647D03*
X020426Y008607D03*
X020426Y008597D03*
X020426Y008587D03*
X020436Y008557D03*
X020436Y008547D03*
X020436Y008537D03*
X020436Y008527D03*
X020436Y008517D03*
X020446Y008487D03*
X020446Y008477D03*
X020446Y008467D03*
X020446Y008457D03*
X020446Y008447D03*
X020446Y008437D03*
X020456Y008427D03*
X020456Y008417D03*
X020456Y008407D03*
X020456Y008397D03*
X020456Y008387D03*
X020456Y008377D03*
X020456Y008367D03*
X019026Y006627D03*
X020466Y012237D03*
X020476Y012257D03*
X020486Y012277D03*
X020496Y012307D03*
X020506Y012327D03*
X020516Y012347D03*
X020526Y012367D03*
X020526Y012377D03*
X020536Y012387D03*
X020536Y012397D03*
X020546Y012407D03*
X020546Y012417D03*
X020556Y012427D03*
X020556Y012437D03*
X020566Y012457D03*
X020576Y012477D03*
X022346Y013067D03*
X024426Y013047D03*
X014406Y019337D03*
X013256Y019457D03*
X012316Y019677D03*
X012316Y019687D03*
D71*
X012311Y019667D03*
X012311Y019657D03*
X013261Y019467D03*
X014411Y019327D03*
X014411Y019317D03*
X011251Y019217D03*
X018391Y013077D03*
X020561Y012447D03*
X020571Y012467D03*
X020581Y012487D03*
X020581Y012497D03*
X020591Y012507D03*
X020591Y012517D03*
X020601Y012527D03*
X020601Y012537D03*
X020611Y012547D03*
X020611Y012557D03*
X020611Y012567D03*
X020621Y012577D03*
X020621Y012587D03*
X020631Y012597D03*
X020631Y012607D03*
X020641Y012617D03*
X020641Y012627D03*
X020651Y012647D03*
X020661Y012667D03*
X020671Y012687D03*
X020441Y008507D03*
X020441Y008497D03*
X020461Y008357D03*
X020461Y008347D03*
X020461Y008337D03*
X020461Y008327D03*
X020461Y008317D03*
X020441Y008017D03*
X017611Y008137D03*
X017611Y008147D03*
X017611Y008157D03*
X017611Y008167D03*
X017601Y008247D03*
X017601Y008257D03*
X017601Y008267D03*
X017601Y008277D03*
X017601Y008287D03*
X017601Y008297D03*
D72*
X017621Y008317D03*
X018301Y007177D03*
X019761Y007177D03*
X020981Y012767D03*
X020981Y012807D03*
D73*
X020986Y012797D03*
X020986Y012787D03*
X020986Y012777D03*
X019036Y008927D03*
X014116Y020277D03*
D74*
X013271Y020657D03*
X013261Y019637D03*
X012211Y019327D03*
X012211Y019317D03*
X011151Y019317D03*
X010531Y019317D03*
X010531Y020027D03*
X011151Y020017D03*
X009471Y020037D03*
X009471Y019287D03*
X006801Y019297D03*
X006801Y019287D03*
X006731Y020047D03*
X006731Y020057D03*
X014471Y019047D03*
X022821Y012867D03*
X024231Y012937D03*
X024881Y012877D03*
X019641Y008177D03*
X019641Y008167D03*
X019641Y008157D03*
X019631Y008127D03*
X019631Y008117D03*
X019631Y008107D03*
X019601Y008017D03*
X019561Y007937D03*
X019541Y007907D03*
X019531Y007897D03*
X019531Y007887D03*
X019521Y007877D03*
X019511Y007867D03*
X019501Y007857D03*
X018411Y008407D03*
X018411Y008417D03*
X018411Y008427D03*
D75*
X018436Y008487D03*
X018436Y008497D03*
X018436Y008507D03*
X017876Y008937D03*
X019636Y008457D03*
X019636Y008447D03*
X020446Y007927D03*
X020176Y007677D03*
X020176Y007667D03*
X019426Y007787D03*
X022126Y012947D03*
X022806Y012887D03*
X024866Y012897D03*
X013256Y019607D03*
X013256Y019617D03*
X012226Y019377D03*
X012226Y019367D03*
X011166Y019297D03*
X010516Y019287D03*
X009986Y019457D03*
X009486Y019267D03*
X009486Y019897D03*
X009486Y020067D03*
X011166Y020047D03*
X013266Y020647D03*
X006746Y020097D03*
X006786Y019257D03*
X006786Y019247D03*
X005836Y018737D03*
X005466Y019877D03*
X005466Y019887D03*
D76*
X004831Y019787D03*
X006271Y018747D03*
X006271Y018547D03*
X006621Y018547D03*
X006621Y018557D03*
X006621Y018747D03*
X007191Y018747D03*
X006881Y019507D03*
X006881Y019517D03*
X006651Y019827D03*
X006651Y019837D03*
X008761Y018747D03*
X008761Y018547D03*
X009551Y018437D03*
X009551Y018657D03*
X009551Y018757D03*
X011681Y019907D03*
X022901Y013117D03*
X022901Y013107D03*
X022901Y013097D03*
X022901Y013087D03*
X022901Y013077D03*
X022901Y013067D03*
X022901Y013057D03*
X022901Y013047D03*
X022901Y013037D03*
X022901Y013027D03*
X022901Y013017D03*
X022901Y013007D03*
X022901Y012997D03*
X022901Y012987D03*
X022901Y012977D03*
X022901Y012967D03*
X022901Y012957D03*
X022901Y012947D03*
X022901Y012937D03*
X022901Y012927D03*
X022901Y012917D03*
X022901Y012907D03*
X017901Y008817D03*
X018561Y007747D03*
X018581Y007737D03*
X020151Y007797D03*
D77*
X020156Y007787D03*
X017626Y008767D03*
X022686Y012907D03*
X023496Y013377D03*
X023496Y013587D03*
X024716Y012927D03*
X014436Y018977D03*
X013256Y019767D03*
X013396Y020597D03*
X011676Y019437D03*
X009986Y019387D03*
X009996Y019927D03*
X009396Y019717D03*
X009396Y019707D03*
X009396Y019697D03*
X009396Y019687D03*
X009396Y019677D03*
X009396Y019667D03*
X010116Y018767D03*
X007196Y018557D03*
X006276Y018557D03*
X006876Y019497D03*
X006656Y019847D03*
X004846Y020247D03*
D78*
X005176Y020157D03*
X005076Y019987D03*
X005076Y019977D03*
X005176Y019867D03*
X005726Y018787D03*
X005866Y018787D03*
X006576Y019617D03*
X006576Y019627D03*
X006956Y019717D03*
X007516Y018787D03*
X008356Y018787D03*
X009426Y018827D03*
X010786Y018667D03*
X010786Y018657D03*
X010786Y018647D03*
X011216Y018667D03*
X011216Y018677D03*
X011656Y018657D03*
X011656Y018647D03*
X012536Y019117D03*
X012536Y019127D03*
X012546Y019137D03*
X012556Y019157D03*
X012566Y019177D03*
X012576Y019197D03*
X012586Y019207D03*
X012596Y019227D03*
X012606Y019247D03*
X012616Y019267D03*
X012626Y019277D03*
X012636Y019297D03*
X012646Y019317D03*
X012656Y019337D03*
X012666Y019347D03*
X012676Y019367D03*
X012686Y019387D03*
X012696Y019407D03*
X012706Y019417D03*
X012716Y019437D03*
X012726Y019457D03*
X012736Y019477D03*
X012746Y019487D03*
X012756Y019507D03*
X012766Y019527D03*
X012776Y019547D03*
X012786Y019557D03*
X012796Y019577D03*
X012806Y019597D03*
X012816Y019617D03*
X012826Y019627D03*
X012836Y019647D03*
X012846Y019667D03*
X012856Y019687D03*
X012866Y019697D03*
X012876Y019717D03*
X012886Y019737D03*
X012896Y019757D03*
X012906Y019767D03*
X012916Y019787D03*
X012926Y019807D03*
X012936Y019827D03*
X012946Y019837D03*
X012956Y019857D03*
X012966Y019877D03*
X012976Y019897D03*
X012996Y019927D03*
X013006Y019947D03*
X013016Y019967D03*
X013036Y019997D03*
X013046Y020017D03*
X013056Y020037D03*
X013076Y020067D03*
X013086Y020087D03*
X013096Y020107D03*
X013116Y020137D03*
X013126Y020157D03*
X013136Y020177D03*
X013166Y020227D03*
X013176Y020247D03*
X013196Y020277D03*
X013206Y020297D03*
X013216Y020317D03*
X013246Y020367D03*
X013256Y020387D03*
X013266Y020407D03*
X013286Y020437D03*
X013296Y020457D03*
X013326Y020507D03*
X013336Y020527D03*
X013346Y020547D03*
X013386Y020127D03*
X013386Y020117D03*
X013426Y020057D03*
X013436Y020047D03*
X013446Y020027D03*
X013456Y020007D03*
X013476Y019977D03*
X013486Y019957D03*
X013496Y019937D03*
X013506Y019927D03*
X013516Y019907D03*
X013526Y019887D03*
X013546Y019857D03*
X013556Y019837D03*
X013566Y019817D03*
X013576Y019807D03*
X013586Y019787D03*
X013596Y019767D03*
X013606Y019757D03*
X013616Y019737D03*
X013626Y019717D03*
X013636Y019697D03*
X013646Y019687D03*
X013656Y019667D03*
X013666Y019647D03*
X013676Y019637D03*
X013686Y019617D03*
X013696Y019597D03*
X013706Y019587D03*
X013716Y019567D03*
X013726Y019547D03*
X013736Y019527D03*
X013746Y019517D03*
X013756Y019497D03*
X013766Y019477D03*
X013786Y019447D03*
X013796Y019427D03*
X013806Y019407D03*
X013816Y019397D03*
X013826Y019377D03*
X013836Y019357D03*
X013846Y019347D03*
X013856Y019327D03*
X013866Y019307D03*
X013876Y019287D03*
X013886Y019277D03*
X013896Y019257D03*
X013906Y019237D03*
X013926Y019207D03*
X013936Y019187D03*
X013946Y019177D03*
X013956Y019157D03*
X013966Y019137D03*
X013976Y019117D03*
X013986Y019107D03*
X013996Y019087D03*
X014006Y019067D03*
X014026Y019037D03*
X014036Y019017D03*
X014056Y018987D03*
X014066Y018967D03*
X014076Y018947D03*
X014086Y018937D03*
X014096Y018917D03*
X014106Y018897D03*
X014116Y018877D03*
X014126Y018867D03*
X014136Y018847D03*
X014146Y018827D03*
X014156Y018817D03*
X014166Y018797D03*
X014176Y018777D03*
X014196Y018747D03*
X014206Y018727D03*
X014216Y018707D03*
X014226Y018697D03*
X014236Y018677D03*
X014246Y018657D03*
X014256Y018647D03*
X013856Y018877D03*
X013856Y018887D03*
X013846Y018907D03*
X013836Y018917D03*
X013826Y018937D03*
X013816Y018947D03*
X013816Y018957D03*
X013806Y018967D03*
X013806Y018977D03*
X013796Y018987D03*
X013786Y018997D03*
X013276Y019937D03*
X013286Y019957D03*
X013296Y019977D03*
X013326Y020027D03*
X013336Y020047D03*
X013346Y020057D03*
X022336Y013147D03*
X025386Y012917D03*
X020126Y007897D03*
X017936Y008707D03*
X017436Y008847D03*
X017426Y008837D03*
D79*
X017901Y008827D03*
X018601Y007727D03*
X020441Y007837D03*
X022671Y012917D03*
X022341Y013137D03*
X013261Y019757D03*
X011671Y019897D03*
X011081Y019737D03*
X011081Y019727D03*
X011081Y019717D03*
X011081Y019707D03*
X011081Y019697D03*
X011081Y019687D03*
X011081Y019677D03*
X011081Y019667D03*
X011081Y019657D03*
X011081Y019647D03*
X011081Y019637D03*
X011081Y019627D03*
X011081Y019617D03*
X011081Y019607D03*
X010601Y019607D03*
X010601Y019597D03*
X010601Y019587D03*
X010601Y019617D03*
X010601Y019627D03*
X010601Y019637D03*
X010601Y019647D03*
X010601Y019657D03*
X010601Y019667D03*
X010601Y019677D03*
X010601Y019687D03*
X010601Y019697D03*
X010601Y019707D03*
X010601Y019717D03*
X010601Y019727D03*
X010601Y019737D03*
X010601Y019747D03*
X010121Y019737D03*
X010121Y019727D03*
X010121Y019717D03*
X010121Y019597D03*
X010121Y019587D03*
X010121Y019577D03*
X010121Y019567D03*
X010121Y019557D03*
X010111Y019547D03*
X009401Y019567D03*
X009401Y019577D03*
X009401Y019587D03*
X009401Y019597D03*
X009401Y019607D03*
X009401Y019617D03*
X009401Y019627D03*
X009401Y019637D03*
X009401Y019647D03*
X009401Y019657D03*
X009401Y019727D03*
X009401Y019737D03*
X009551Y018747D03*
X010121Y018757D03*
X008761Y018557D03*
X007191Y018567D03*
X007191Y018737D03*
X007331Y019207D03*
X007331Y019217D03*
X007331Y019227D03*
X007331Y019237D03*
X007331Y019247D03*
X007331Y019257D03*
X007331Y019267D03*
X007331Y019277D03*
X007331Y019287D03*
X007331Y019297D03*
X007331Y019307D03*
X007331Y019317D03*
X007331Y019327D03*
X007331Y019337D03*
X007331Y019347D03*
X007331Y019357D03*
X007331Y019367D03*
X007331Y019377D03*
X007331Y019387D03*
X006871Y019487D03*
X006661Y019857D03*
X007331Y019947D03*
X007331Y019957D03*
X007331Y019967D03*
X007331Y019977D03*
X007331Y019987D03*
X007331Y019997D03*
X007331Y020007D03*
X007331Y020017D03*
X007331Y020027D03*
X007331Y020037D03*
X007331Y020047D03*
X007331Y020057D03*
X007331Y020067D03*
X007331Y020077D03*
X007331Y020087D03*
X007331Y020097D03*
X007331Y020107D03*
X007331Y020117D03*
X007331Y020127D03*
X006621Y018737D03*
X006621Y018567D03*
X006271Y018737D03*
X005051Y019827D03*
X004841Y019777D03*
X005051Y020197D03*
X004861Y020257D03*
D80*
X004771Y020107D03*
X004771Y020097D03*
X004891Y020077D03*
X004891Y020067D03*
X004891Y020057D03*
X004891Y020047D03*
X004911Y019907D03*
X004771Y019917D03*
X004771Y019927D03*
X005061Y019927D03*
X005061Y019937D03*
X005051Y020037D03*
X005191Y020107D03*
X005191Y020117D03*
X005191Y020127D03*
X005191Y019917D03*
X005191Y019907D03*
X005191Y019897D03*
X006591Y019667D03*
X006591Y019657D03*
X006941Y019677D03*
X007121Y018717D03*
X007111Y018687D03*
X007121Y018587D03*
X006911Y018587D03*
X006911Y018577D03*
X006911Y018567D03*
X006911Y018557D03*
X006911Y018547D03*
X006911Y018537D03*
X006911Y018527D03*
X006911Y018517D03*
X006911Y018597D03*
X006541Y018597D03*
X006541Y018607D03*
X006541Y018617D03*
X006541Y018687D03*
X006541Y018697D03*
X006541Y018707D03*
X005831Y018517D03*
X007471Y018517D03*
X007631Y018517D03*
X007851Y018517D03*
X008321Y018517D03*
X008481Y018777D03*
X008681Y018707D03*
X008681Y018697D03*
X008681Y018687D03*
X008691Y018727D03*
X008681Y018597D03*
X008681Y018587D03*
X008831Y018727D03*
X009051Y018877D03*
X009051Y018517D03*
X009271Y018517D03*
X009441Y018507D03*
X009441Y018497D03*
X009651Y018497D03*
X009651Y018487D03*
X009841Y018517D03*
X010051Y018517D03*
X010051Y018527D03*
X010051Y018537D03*
X009841Y018777D03*
X009841Y018807D03*
X009841Y018877D03*
X010051Y018877D03*
X010431Y018597D03*
X010431Y018587D03*
X010431Y018577D03*
X010431Y018567D03*
X010431Y018557D03*
X010431Y018547D03*
X010431Y018537D03*
X010431Y018527D03*
X010431Y018517D03*
X010671Y018527D03*
X010831Y018527D03*
X010861Y018647D03*
X010871Y018667D03*
X010871Y018677D03*
X010871Y018687D03*
X010881Y018707D03*
X010881Y018717D03*
X010891Y018747D03*
X010891Y018757D03*
X011031Y018767D03*
X011111Y018527D03*
X011261Y018527D03*
X011261Y018537D03*
X011301Y018647D03*
X011301Y018657D03*
X011301Y018667D03*
X011301Y018677D03*
X011311Y018687D03*
X011311Y018697D03*
X011311Y018707D03*
X011321Y018737D03*
X011331Y018777D03*
X011541Y018537D03*
X011541Y018527D03*
X011691Y018527D03*
X011731Y018647D03*
X011731Y018657D03*
X011731Y018667D03*
X011741Y018677D03*
X011741Y018687D03*
X011741Y018697D03*
X011751Y018717D03*
X011751Y018727D03*
X011761Y018757D03*
X013261Y019877D03*
X013261Y019887D03*
X009441Y018797D03*
X009441Y018787D03*
X017461Y008887D03*
X017621Y008837D03*
X020131Y007877D03*
X020591Y007717D03*
X025401Y012927D03*
X023491Y013627D03*
D81*
X024421Y013137D03*
X025441Y012947D03*
X020151Y007807D03*
X018541Y007757D03*
X017911Y008797D03*
X014321Y018607D03*
X014321Y018617D03*
X013421Y020577D03*
X013411Y020587D03*
X008761Y018757D03*
X008761Y018537D03*
X008081Y018727D03*
X008081Y018737D03*
X008081Y018747D03*
X008081Y018757D03*
X008081Y018767D03*
X008081Y018777D03*
X008111Y019207D03*
X008111Y019217D03*
X008111Y019227D03*
X008111Y019237D03*
X008111Y019247D03*
X008111Y019257D03*
X008111Y019267D03*
X008111Y019277D03*
X008111Y019287D03*
X008111Y019297D03*
X008111Y019307D03*
X008111Y019317D03*
X008111Y019327D03*
X008111Y019337D03*
X008111Y019347D03*
X008111Y019357D03*
X008111Y019367D03*
X008111Y019377D03*
X008111Y019387D03*
X008111Y019397D03*
X008111Y019407D03*
X007191Y018757D03*
X006621Y018537D03*
X006271Y018537D03*
X006891Y019537D03*
X006641Y019797D03*
X006641Y019807D03*
X005361Y020137D03*
X005051Y020207D03*
X005051Y019817D03*
X004821Y019797D03*
D82*
X012366Y019847D03*
X012366Y019857D03*
X013256Y019377D03*
X014356Y019507D03*
X014356Y019517D03*
X024426Y012997D03*
X025646Y013067D03*
X020246Y009037D03*
X020216Y009077D03*
X020246Y007577D03*
X020236Y007567D03*
X020216Y007537D03*
X017826Y007557D03*
X017816Y007577D03*
X017826Y009057D03*
D83*
X017806Y009017D03*
X017796Y009007D03*
X017776Y007647D03*
X017786Y007627D03*
X017786Y007617D03*
X017806Y007597D03*
X020256Y007597D03*
X020276Y008987D03*
X020266Y008997D03*
X020256Y009017D03*
X022346Y013037D03*
X024426Y013007D03*
X025636Y013077D03*
X014366Y019477D03*
X013256Y019387D03*
X012356Y019817D03*
D84*
X012346Y019787D03*
X012346Y019777D03*
X013256Y019407D03*
X014376Y019437D03*
X014376Y019447D03*
X022346Y013047D03*
X024426Y013017D03*
X020316Y008917D03*
X020306Y008927D03*
X017756Y007687D03*
X017756Y007677D03*
X017746Y007697D03*
X017736Y007717D03*
D85*
X019026Y007567D03*
X019526Y008647D03*
X019036Y009097D03*
X017626Y008617D03*
X024426Y013067D03*
X025636Y013107D03*
X014436Y019237D03*
X013256Y019507D03*
X012286Y019577D03*
X005406Y019777D03*
D86*
X009516Y019867D03*
X009516Y020107D03*
X009986Y019517D03*
X009986Y019507D03*
X009986Y019497D03*
X009516Y019227D03*
X011196Y019257D03*
X012256Y019467D03*
X012256Y019477D03*
X013256Y019557D03*
X013256Y019567D03*
X014466Y019137D03*
X013266Y020607D03*
X024426Y013087D03*
X018496Y008607D03*
X017876Y008977D03*
X017626Y008647D03*
X019336Y007727D03*
X020186Y007637D03*
X019576Y008577D03*
D87*
X020441Y007987D03*
X019031Y006617D03*
X018541Y008657D03*
X022351Y013087D03*
X014441Y019217D03*
X014441Y019227D03*
X013261Y019517D03*
X012281Y019557D03*
X012281Y019567D03*
X011221Y019237D03*
X010461Y019217D03*
X009541Y019207D03*
X008271Y019427D03*
X008271Y019437D03*
X008271Y019447D03*
X008271Y019457D03*
X008271Y019467D03*
X008271Y019477D03*
X008271Y019487D03*
X008271Y019497D03*
X008271Y019507D03*
X008271Y019517D03*
X008271Y019527D03*
X008271Y019537D03*
X008271Y019547D03*
X008271Y019557D03*
X008271Y019567D03*
X008271Y019577D03*
X008271Y019587D03*
X008271Y019597D03*
X008271Y019607D03*
X008271Y019617D03*
X008271Y019627D03*
X008271Y019637D03*
X008271Y019647D03*
X008271Y019657D03*
X008271Y019667D03*
X008271Y019677D03*
X008271Y019687D03*
X008271Y019697D03*
X008271Y019707D03*
X008271Y019717D03*
X008271Y019727D03*
X008271Y019737D03*
X008271Y019747D03*
X008271Y019757D03*
X008271Y019767D03*
X008271Y019777D03*
X008271Y019787D03*
X008271Y019797D03*
X008271Y019807D03*
X008271Y019817D03*
X008271Y019827D03*
X008271Y019837D03*
X008271Y019847D03*
X008271Y019857D03*
X008271Y019867D03*
X008271Y019877D03*
X008271Y019887D03*
X008271Y019897D03*
X008271Y019907D03*
X008271Y019917D03*
X008271Y019927D03*
X008271Y019937D03*
X008271Y019947D03*
X008271Y019957D03*
X008271Y019967D03*
X008271Y019977D03*
X008271Y019987D03*
X008271Y019997D03*
X008271Y020007D03*
X008271Y020017D03*
X008271Y020027D03*
X008271Y020037D03*
X008271Y020047D03*
X008271Y020057D03*
X008271Y020067D03*
X008271Y020077D03*
X008271Y020087D03*
X008271Y020097D03*
X008271Y020107D03*
X008271Y020117D03*
X008271Y020127D03*
X008271Y020137D03*
X011221Y020107D03*
D88*
X018391Y013597D03*
X018391Y013587D03*
X018391Y013577D03*
X018391Y013567D03*
X018391Y013557D03*
X018391Y013547D03*
X018391Y013537D03*
X018391Y013527D03*
X018391Y013517D03*
X018391Y013507D03*
X018391Y013497D03*
X018391Y013487D03*
X018391Y013477D03*
X018391Y013467D03*
X018391Y013457D03*
X018391Y013447D03*
X018391Y013437D03*
X018391Y013427D03*
X018391Y013417D03*
X018391Y013407D03*
X018391Y013397D03*
X018391Y013387D03*
X018391Y013377D03*
X018391Y013367D03*
X018391Y013357D03*
X018391Y013347D03*
X018391Y013337D03*
X018391Y013327D03*
X018391Y013317D03*
X018391Y013307D03*
X018391Y013297D03*
X018391Y013287D03*
X018391Y013277D03*
X018391Y013267D03*
X018391Y013257D03*
X018391Y013247D03*
X018391Y013237D03*
X018391Y013227D03*
X018391Y013217D03*
X018391Y013207D03*
X018391Y013197D03*
X018391Y013187D03*
X018391Y013177D03*
X018391Y013167D03*
X018391Y013157D03*
X018391Y013147D03*
X018391Y013137D03*
X018391Y013127D03*
X018391Y013117D03*
X018391Y013107D03*
X018391Y013097D03*
X018391Y013087D03*
X019031Y009877D03*
X019031Y008767D03*
D89*
X018471Y008567D03*
X017881Y008957D03*
X019601Y008537D03*
X020441Y007947D03*
X020181Y007657D03*
X019401Y007767D03*
X024421Y013097D03*
X013261Y019587D03*
X012241Y019427D03*
X012241Y019417D03*
X011181Y019277D03*
X011181Y020067D03*
X010501Y020077D03*
X009981Y019477D03*
X009501Y019247D03*
X009501Y020087D03*
X006761Y020137D03*
X006771Y019217D03*
X006771Y019207D03*
X005451Y019837D03*
D90*
X005426Y019797D03*
X009526Y019857D03*
X009526Y020117D03*
X009986Y019537D03*
X009526Y019217D03*
X010476Y020107D03*
X011206Y019247D03*
X012266Y019507D03*
X013256Y019537D03*
X013256Y019547D03*
X014456Y019167D03*
X022346Y013097D03*
X019556Y008607D03*
X018516Y008627D03*
X017626Y008637D03*
D91*
X018491Y008597D03*
X019031Y009107D03*
X019581Y008567D03*
X019591Y008557D03*
X020441Y007957D03*
X020181Y007647D03*
X019031Y007557D03*
X025641Y013117D03*
X014461Y019127D03*
X013271Y020617D03*
X012251Y019457D03*
X011191Y020077D03*
X010491Y020087D03*
X010491Y019247D03*
X005441Y019817D03*
D92*
X004911Y019877D03*
X006571Y019607D03*
X006961Y019727D03*
X006961Y019737D03*
X008691Y018607D03*
X012551Y019147D03*
X012561Y019167D03*
X012571Y019187D03*
X012591Y019217D03*
X012601Y019237D03*
X012611Y019257D03*
X012631Y019287D03*
X012641Y019307D03*
X012651Y019327D03*
X012671Y019357D03*
X012681Y019377D03*
X012691Y019397D03*
X012711Y019427D03*
X012721Y019447D03*
X012731Y019467D03*
X012751Y019497D03*
X012761Y019517D03*
X012771Y019537D03*
X012791Y019567D03*
X012801Y019587D03*
X012811Y019607D03*
X012831Y019637D03*
X012841Y019657D03*
X012851Y019677D03*
X012871Y019707D03*
X012881Y019727D03*
X012891Y019747D03*
X012911Y019777D03*
X012921Y019797D03*
X012931Y019817D03*
X012951Y019847D03*
X012961Y019867D03*
X012971Y019887D03*
X012981Y019907D03*
X012991Y019917D03*
X013001Y019937D03*
X013011Y019957D03*
X013021Y019977D03*
X013031Y019987D03*
X013041Y020007D03*
X013051Y020027D03*
X013061Y020047D03*
X013071Y020057D03*
X013081Y020077D03*
X013091Y020097D03*
X013101Y020117D03*
X013111Y020127D03*
X013121Y020147D03*
X013131Y020167D03*
X013141Y020187D03*
X013151Y020197D03*
X013151Y020207D03*
X013161Y020217D03*
X013171Y020237D03*
X013181Y020257D03*
X013191Y020267D03*
X013201Y020287D03*
X013211Y020307D03*
X013221Y020327D03*
X013231Y020337D03*
X013231Y020347D03*
X013241Y020357D03*
X013251Y020377D03*
X013261Y020397D03*
X013271Y020417D03*
X013281Y020427D03*
X013291Y020447D03*
X013301Y020467D03*
X013311Y020477D03*
X013311Y020487D03*
X013321Y020497D03*
X013331Y020517D03*
X013341Y020537D03*
X013331Y020037D03*
X013321Y020017D03*
X013311Y020007D03*
X013311Y019997D03*
X013301Y019987D03*
X013291Y019967D03*
X013281Y019947D03*
X013441Y020037D03*
X013451Y020017D03*
X013461Y019997D03*
X013471Y019987D03*
X013481Y019967D03*
X013491Y019947D03*
X013511Y019917D03*
X013521Y019897D03*
X013531Y019877D03*
X013541Y019867D03*
X013551Y019847D03*
X013561Y019827D03*
X013581Y019797D03*
X013591Y019777D03*
X013611Y019747D03*
X013621Y019727D03*
X013631Y019707D03*
X013651Y019677D03*
X013661Y019657D03*
X013681Y019627D03*
X013691Y019607D03*
X013711Y019577D03*
X013721Y019557D03*
X013731Y019537D03*
X013751Y019507D03*
X013761Y019487D03*
X013771Y019467D03*
X013781Y019457D03*
X013791Y019437D03*
X013801Y019417D03*
X013821Y019387D03*
X013831Y019367D03*
X013851Y019337D03*
X013861Y019317D03*
X013871Y019297D03*
X013891Y019267D03*
X013901Y019247D03*
X013911Y019227D03*
X013921Y019217D03*
X013931Y019197D03*
X013951Y019167D03*
X013961Y019147D03*
X013971Y019127D03*
X013991Y019097D03*
X014001Y019077D03*
X014011Y019057D03*
X014021Y019047D03*
X014031Y019027D03*
X014041Y019007D03*
X014051Y018997D03*
X014061Y018977D03*
X014071Y018957D03*
X014091Y018927D03*
X014101Y018907D03*
X014111Y018887D03*
X014131Y018857D03*
X014141Y018837D03*
X014161Y018807D03*
X014171Y018787D03*
X014181Y018767D03*
X014191Y018757D03*
X014201Y018737D03*
X014211Y018717D03*
X014231Y018687D03*
X014241Y018667D03*
X013851Y018897D03*
X013831Y018927D03*
X024421Y013147D03*
X017621Y008857D03*
X017421Y008827D03*
X020121Y007907D03*
X020441Y007747D03*
X020631Y007777D03*
X020641Y007787D03*
D93*
X020446Y007827D03*
X017906Y008807D03*
X017626Y008777D03*
X023496Y013367D03*
X023496Y013597D03*
X014326Y018627D03*
X013256Y019777D03*
X013256Y019787D03*
X013426Y020567D03*
X011686Y019427D03*
X009546Y018767D03*
X009526Y018777D03*
X009546Y018647D03*
X007196Y018547D03*
X006616Y018757D03*
X006276Y018757D03*
X006886Y019527D03*
X006646Y019817D03*
X006216Y019927D03*
X006216Y019937D03*
X006216Y019947D03*
X006216Y019957D03*
X006216Y019967D03*
X006216Y019977D03*
X006216Y019987D03*
X006216Y019997D03*
X006216Y020007D03*
X006216Y020017D03*
X006216Y020027D03*
X006216Y020037D03*
X006216Y020047D03*
X006216Y020057D03*
X006216Y020067D03*
X006216Y020077D03*
X006216Y020087D03*
X006216Y020097D03*
X006216Y020107D03*
X006216Y020117D03*
X006216Y020127D03*
X006216Y020137D03*
X004836Y020237D03*
D94*
X017231Y013577D02*
X017231Y013377D01*
X017365Y013377D02*
X017365Y013577D01*
X017298Y013511D01*
X017231Y013577D01*
X017452Y013577D02*
X017586Y013577D01*
X017519Y013577D02*
X017519Y013377D01*
D95*
X017531Y008987D03*
X017911Y008777D03*
X018461Y007827D03*
X018471Y007817D03*
X020141Y007837D03*
X020441Y007797D03*
X020531Y007627D03*
X020521Y007617D03*
X009561Y018427D03*
X008761Y018527D03*
X008061Y018547D03*
X008061Y018557D03*
X006621Y018527D03*
X006911Y019597D03*
X006621Y019747D03*
X005381Y019987D03*
X005381Y019997D03*
X005381Y020007D03*
X005381Y020017D03*
X005381Y020027D03*
X005381Y020037D03*
X005381Y020047D03*
X005051Y020217D03*
X004801Y020197D03*
X004921Y019997D03*
X004921Y019977D03*
X004921Y019967D03*
X004801Y019827D03*
X010671Y018637D03*
X010671Y018627D03*
X010831Y018627D03*
X010831Y018637D03*
X011101Y018637D03*
X011541Y018637D03*
X011701Y018637D03*
X012091Y018807D03*
X012101Y018847D03*
X013261Y019827D03*
D96*
X012961Y020377D03*
X012961Y020387D03*
X012971Y020397D03*
X012971Y020407D03*
X012981Y020417D03*
X012981Y020427D03*
X012991Y020437D03*
X013001Y020447D03*
X013001Y020457D03*
X013011Y020467D03*
X013011Y020477D03*
X013021Y020487D03*
X013031Y020507D03*
X013041Y020517D03*
X013041Y020527D03*
X013051Y020537D03*
X013061Y020557D03*
X013071Y020567D03*
X012131Y018957D03*
X012121Y018947D03*
X012121Y018937D03*
X012111Y018927D03*
X012111Y018917D03*
X012101Y018907D03*
X012091Y018887D03*
X012091Y018877D03*
X012081Y018797D03*
X012081Y018787D03*
X012081Y018767D03*
X012081Y018757D03*
X012091Y018747D03*
X012091Y018737D03*
X012101Y018727D03*
X012101Y018717D03*
X012111Y018707D03*
X012121Y018697D03*
X012121Y018687D03*
X012131Y018677D03*
X012131Y018667D03*
X012141Y018657D03*
X012141Y018647D03*
X012151Y018637D03*
X012161Y018627D03*
X011701Y018567D03*
X011541Y018567D03*
X011541Y018557D03*
X011541Y018547D03*
X011541Y018577D03*
X011611Y018737D03*
X011611Y018747D03*
X011611Y018757D03*
X011261Y018577D03*
X011261Y018567D03*
X011261Y018557D03*
X010831Y018567D03*
X010831Y018577D03*
X010671Y018577D03*
X010671Y018567D03*
X010671Y018557D03*
X010741Y018737D03*
X010741Y018747D03*
X010741Y018757D03*
X010741Y018767D03*
X010221Y018677D03*
X010221Y018667D03*
X010221Y018657D03*
X010221Y018647D03*
X010221Y018637D03*
X010221Y018627D03*
X010201Y018567D03*
X010171Y018527D03*
X010061Y018577D03*
X010061Y018717D03*
X010061Y018727D03*
X010161Y018777D03*
X009841Y018817D03*
X009841Y018827D03*
X009841Y018837D03*
X009841Y018847D03*
X009841Y018857D03*
X009841Y018867D03*
X009621Y018727D03*
X009621Y018687D03*
X009611Y018667D03*
X009481Y018677D03*
X009481Y018737D03*
X009641Y018477D03*
X008821Y018567D03*
X008761Y018517D03*
X008821Y018737D03*
X008701Y018737D03*
X008471Y018717D03*
X008331Y018727D03*
X008321Y018717D03*
X008321Y018707D03*
X008091Y018577D03*
X008041Y018517D03*
X007631Y018697D03*
X007631Y018707D03*
X007631Y018717D03*
X007481Y018727D03*
X007261Y018577D03*
X007191Y018517D03*
X006701Y018617D03*
X006691Y018587D03*
X006681Y018577D03*
X006621Y018517D03*
X006691Y018717D03*
X006681Y018727D03*
X006341Y018727D03*
X006191Y018677D03*
X006191Y018667D03*
X006191Y018637D03*
X006191Y018627D03*
X006191Y018617D03*
X006201Y018577D03*
X006211Y018567D03*
X006271Y018517D03*
X005981Y018717D03*
X005871Y018777D03*
X005831Y018717D03*
X005721Y018777D03*
X005691Y018727D03*
X006601Y019687D03*
X006601Y019697D03*
X006931Y019647D03*
X005201Y019947D03*
X005201Y019957D03*
X005201Y019967D03*
X005201Y019977D03*
X005201Y019987D03*
X005201Y019997D03*
X005201Y020027D03*
X005201Y020037D03*
X005201Y020047D03*
X005201Y020057D03*
X005201Y020067D03*
X005201Y020077D03*
X005051Y019907D03*
X005051Y019897D03*
X004911Y019927D03*
X004781Y019887D03*
X004781Y019877D03*
X004781Y020137D03*
X004781Y020147D03*
X014421Y018917D03*
X014451Y018857D03*
X014451Y018847D03*
X014451Y018837D03*
X014451Y018827D03*
X014451Y018807D03*
X014451Y018797D03*
X014451Y018787D03*
X014451Y018777D03*
X014441Y018757D03*
X014401Y018687D03*
X014391Y018667D03*
X017491Y008927D03*
X017481Y008917D03*
X017471Y008897D03*
X017621Y008827D03*
X017921Y008747D03*
X018321Y008077D03*
X018321Y008067D03*
X018361Y007967D03*
X020571Y007687D03*
D97*
X020596Y007727D03*
X020606Y007737D03*
X020616Y007747D03*
X020446Y007767D03*
X017926Y008727D03*
X017456Y008877D03*
X017446Y008867D03*
X011696Y018517D03*
X011576Y018647D03*
X011576Y018657D03*
X011576Y018667D03*
X011496Y018667D03*
X011496Y018657D03*
X011496Y018647D03*
X011486Y018687D03*
X011486Y018697D03*
X011476Y018717D03*
X011476Y018727D03*
X011476Y018737D03*
X011466Y018747D03*
X011466Y018757D03*
X011466Y018767D03*
X011466Y018777D03*
X011146Y018677D03*
X011146Y018667D03*
X011146Y018657D03*
X011066Y018647D03*
X011056Y018667D03*
X011056Y018677D03*
X011056Y018687D03*
X011046Y018707D03*
X011046Y018717D03*
X011046Y018727D03*
X011036Y018737D03*
X011036Y018747D03*
X011036Y018757D03*
X011026Y018777D03*
X010866Y018657D03*
X010826Y018517D03*
X010676Y018517D03*
X010706Y018647D03*
X010706Y018657D03*
X010626Y018657D03*
X010626Y018667D03*
X010616Y018687D03*
X010616Y018697D03*
X010616Y018707D03*
X010616Y018717D03*
X010606Y018727D03*
X010606Y018737D03*
X010606Y018747D03*
X010596Y018757D03*
X010596Y018767D03*
X010596Y018777D03*
X010166Y018517D03*
X009646Y018507D03*
X009636Y018517D03*
X009636Y018597D03*
X009636Y018607D03*
X009446Y018487D03*
X009436Y018807D03*
X009436Y018817D03*
X008686Y018717D03*
X008476Y018517D03*
X007116Y018617D03*
X006946Y019687D03*
X006946Y019697D03*
X006586Y019647D03*
X005986Y018517D03*
X005686Y018517D03*
X005186Y019887D03*
X005066Y019947D03*
X005066Y019957D03*
X004906Y019897D03*
X004766Y019937D03*
X004766Y019947D03*
X004766Y019957D03*
X004766Y019967D03*
X004766Y019977D03*
X004766Y020047D03*
X004766Y020057D03*
X004766Y020067D03*
X004766Y020077D03*
X004766Y020087D03*
X004896Y020087D03*
X004896Y020097D03*
X004896Y020107D03*
X004906Y020117D03*
X004906Y020127D03*
X004916Y020137D03*
X004926Y020147D03*
X005186Y020137D03*
X011106Y018517D03*
X012526Y019087D03*
X013266Y019897D03*
X013266Y019907D03*
X013386Y020107D03*
X013766Y019027D03*
D98*
X013261Y018527D03*
X019031Y009637D03*
X019031Y006977D03*
D99*
X018486Y007807D03*
X017626Y008797D03*
X017536Y008997D03*
X020146Y007827D03*
X020446Y007807D03*
X009576Y018627D03*
X008066Y018567D03*
X007196Y018527D03*
X006276Y018527D03*
X006906Y019577D03*
X006906Y019587D03*
X006626Y019757D03*
X006626Y019767D03*
X005376Y019937D03*
X005376Y019947D03*
X005376Y019957D03*
X005376Y019967D03*
X005376Y019977D03*
X005376Y020057D03*
X005376Y020067D03*
X005376Y020077D03*
X005376Y020087D03*
X004926Y019987D03*
X004806Y019817D03*
X004806Y020207D03*
X011706Y019417D03*
X013256Y019817D03*
D100*
X013266Y018537D03*
X019026Y009627D03*
D101*
X019031Y009617D03*
X019031Y006997D03*
X013261Y018547D03*
D102*
X013261Y018557D03*
X019031Y009607D03*
X019031Y007017D03*
X019031Y007007D03*
D103*
X019031Y009597D03*
X013261Y018567D03*
D104*
X014376Y018647D03*
X014386Y018657D03*
X014396Y018677D03*
X014406Y018697D03*
X014416Y018707D03*
X014416Y018717D03*
X014426Y018727D03*
X014426Y018737D03*
X014436Y018747D03*
X014446Y018767D03*
X014446Y018867D03*
X014446Y018877D03*
X014436Y018887D03*
X014436Y018897D03*
X014426Y018907D03*
X014416Y018927D03*
X014406Y018937D03*
X014406Y018947D03*
X014396Y018957D03*
X014396Y018967D03*
X013256Y019847D03*
X013256Y019857D03*
X013386Y020067D03*
X013386Y020077D03*
X013576Y020377D03*
X013566Y020387D03*
X013556Y020397D03*
X013556Y020407D03*
X013546Y020417D03*
X013546Y020427D03*
X013536Y020437D03*
X013536Y020447D03*
X013526Y020457D03*
X013516Y020467D03*
X013516Y020477D03*
X013506Y020487D03*
X013506Y020497D03*
X013496Y020507D03*
X013486Y020517D03*
X013486Y020527D03*
X013476Y020537D03*
X013476Y020547D03*
X013076Y020577D03*
X013056Y020547D03*
X013026Y020497D03*
X012136Y018967D03*
X012086Y018867D03*
X012086Y018857D03*
X011696Y018597D03*
X011696Y018587D03*
X011696Y018577D03*
X011536Y018587D03*
X011606Y018727D03*
X011266Y018597D03*
X011266Y018587D03*
X011176Y018707D03*
X011176Y018717D03*
X011176Y018727D03*
X011176Y018737D03*
X011176Y018747D03*
X011106Y018597D03*
X011106Y018587D03*
X011106Y018577D03*
X011106Y018567D03*
X010826Y018587D03*
X010746Y018727D03*
X008466Y018727D03*
X008356Y018777D03*
X007626Y018727D03*
X007516Y018777D03*
X007256Y018727D03*
X006926Y019637D03*
X006606Y019707D03*
X005976Y018727D03*
X005046Y019887D03*
X004916Y019937D03*
X004896Y020017D03*
X005046Y020047D03*
X005046Y020057D03*
X005046Y020107D03*
X005206Y020017D03*
X005206Y020007D03*
X004786Y019867D03*
X004786Y020157D03*
X019036Y009137D03*
X018316Y008097D03*
X018316Y008087D03*
X018326Y008057D03*
X018326Y008047D03*
X018336Y008037D03*
X018336Y008027D03*
X018336Y008017D03*
X018346Y008007D03*
X018346Y007997D03*
X018356Y007977D03*
X018366Y007957D03*
X018376Y007947D03*
X018406Y007897D03*
X017496Y008937D03*
X020136Y007857D03*
X020446Y007787D03*
X020566Y007677D03*
D105*
X013266Y018577D03*
X011186Y019177D03*
D106*
X013266Y018587D03*
D107*
X013261Y018597D03*
X019031Y009577D03*
X019031Y007037D03*
D108*
X019026Y006877D03*
X012956Y018817D03*
X012966Y018837D03*
D109*
X012961Y018827D03*
X019031Y009737D03*
X019031Y006887D03*
D110*
X008536Y018977D03*
D111*
X008526Y018987D03*
D112*
X008516Y018997D03*
D113*
X008511Y019007D03*
D114*
X008506Y019017D03*
D115*
X008506Y019027D03*
D116*
X008506Y019037D03*
D117*
X013131Y019067D03*
X013131Y019077D03*
X013141Y019047D03*
X019031Y008827D03*
X019031Y006727D03*
D118*
X008501Y019047D03*
D119*
X013136Y019057D03*
X019036Y008817D03*
D120*
X008501Y019057D03*
X008501Y019067D03*
D121*
X008501Y019077D03*
X008501Y019087D03*
D122*
X013246Y019087D03*
X014176Y020127D03*
X014176Y020137D03*
X014046Y020357D03*
X020446Y008257D03*
X019806Y007197D03*
D123*
X019031Y006677D03*
X018221Y007207D03*
X020441Y008237D03*
X020441Y008247D03*
X019031Y008967D03*
X013251Y019097D03*
X014191Y020077D03*
X014191Y020087D03*
D124*
X008501Y019097D03*
D125*
X013256Y019107D03*
X014196Y020057D03*
X014196Y020067D03*
X014016Y020367D03*
X018216Y009407D03*
X017626Y008367D03*
X019836Y007207D03*
D126*
X008506Y019107D03*
D127*
X013256Y019117D03*
X014206Y020027D03*
X019036Y008977D03*
X020446Y008227D03*
X018196Y007217D03*
D128*
X008501Y019117D03*
D129*
X013261Y019127D03*
X014211Y020007D03*
X014211Y020017D03*
X018191Y009397D03*
X017621Y008387D03*
X019871Y009397D03*
D130*
X008506Y019127D03*
X008506Y019137D03*
D131*
X013256Y019137D03*
X014216Y019987D03*
X014216Y019997D03*
X019886Y009387D03*
X019026Y008987D03*
X020446Y008217D03*
X019026Y007677D03*
D132*
X018181Y007227D03*
X017621Y008397D03*
X018171Y009387D03*
X019031Y009947D03*
X019891Y007237D03*
X019881Y007227D03*
X013261Y019147D03*
X014221Y019967D03*
X014221Y019977D03*
X009761Y019767D03*
X009761Y019757D03*
X009761Y019747D03*
D133*
X008511Y019147D03*
D134*
X009751Y019807D03*
X009751Y019817D03*
X013261Y019157D03*
X014231Y019937D03*
X014231Y019947D03*
X019031Y008997D03*
X017621Y008407D03*
X018151Y007247D03*
X019031Y006667D03*
X019911Y007247D03*
D135*
X008516Y019157D03*
X008516Y019167D03*
D136*
X009746Y019827D03*
X009746Y019837D03*
X013256Y019167D03*
X014236Y019917D03*
X014236Y019927D03*
X018146Y009367D03*
X019916Y009367D03*
D137*
X019031Y009957D03*
X017621Y008417D03*
X018131Y007257D03*
X013261Y019177D03*
X014241Y019907D03*
D138*
X007331Y019177D03*
D139*
X013256Y019187D03*
X014246Y019887D03*
X014246Y019897D03*
X018126Y009357D03*
X019036Y009007D03*
X019936Y009357D03*
X020446Y008187D03*
X019926Y007257D03*
X019026Y007657D03*
D140*
X011216Y019187D03*
D141*
X007296Y019187D03*
D142*
X013261Y019197D03*
X014251Y019867D03*
X014251Y019877D03*
X019951Y009347D03*
X017621Y008427D03*
X018111Y007267D03*
X019031Y006657D03*
X019951Y007267D03*
D143*
X019031Y006987D03*
X011241Y019197D03*
D144*
X007276Y019197D03*
D145*
X013261Y019207D03*
X014261Y019837D03*
X018091Y009337D03*
X017621Y008437D03*
X019021Y007647D03*
X018091Y007287D03*
X019961Y007277D03*
X019971Y007287D03*
X019971Y009337D03*
D146*
X020321Y008907D03*
X020321Y008897D03*
X020331Y008877D03*
X020341Y008867D03*
X019441Y008707D03*
X020441Y008047D03*
X017741Y007707D03*
X017731Y007727D03*
X017731Y007737D03*
X017721Y007747D03*
X017621Y008557D03*
X014381Y019417D03*
X014381Y019427D03*
X013261Y019417D03*
X012341Y019757D03*
X012341Y019767D03*
X011281Y019207D03*
D147*
X009756Y019777D03*
X009756Y019787D03*
X009756Y019797D03*
X014226Y019957D03*
X005196Y019747D03*
X005196Y019737D03*
X005196Y019727D03*
X005196Y019717D03*
X005196Y019707D03*
X005196Y019697D03*
X005196Y019687D03*
X005196Y019677D03*
X005196Y019667D03*
X005196Y019657D03*
X005196Y019647D03*
X005196Y019637D03*
X005196Y019627D03*
X005196Y019617D03*
X005196Y019607D03*
X005196Y019597D03*
X005196Y019587D03*
X005196Y019577D03*
X005196Y019567D03*
X005196Y019557D03*
X005196Y019547D03*
X005196Y019537D03*
X005196Y019527D03*
X005196Y019517D03*
X005196Y019507D03*
X005196Y019497D03*
X005196Y019487D03*
X005196Y019477D03*
X005196Y019467D03*
X005196Y019457D03*
X005196Y019447D03*
X005196Y019437D03*
X005196Y019427D03*
X005196Y019417D03*
X005196Y019407D03*
X005196Y019397D03*
X005196Y019387D03*
X005196Y019377D03*
X005196Y019367D03*
X005196Y019357D03*
X005196Y019347D03*
X005196Y019337D03*
X005196Y019327D03*
X005196Y019317D03*
X005196Y019307D03*
X005196Y019297D03*
X005196Y019287D03*
X005196Y019277D03*
X005196Y019267D03*
X005196Y019257D03*
X005196Y019247D03*
X005196Y019237D03*
X005196Y019227D03*
X005196Y019217D03*
X005196Y019207D03*
X018166Y009377D03*
X019896Y009377D03*
X020446Y008207D03*
X020446Y008197D03*
X019026Y007667D03*
X018166Y007237D03*
D148*
X020446Y008167D03*
X019976Y009327D03*
X019036Y009017D03*
X018086Y009327D03*
X013256Y019217D03*
X014266Y019817D03*
X014266Y019827D03*
D149*
X014271Y019807D03*
X014271Y019797D03*
X013261Y019227D03*
X012451Y020137D03*
X018071Y009317D03*
X017621Y008447D03*
X018071Y007297D03*
X019991Y007297D03*
X020441Y008157D03*
X019991Y009317D03*
D150*
X019996Y007307D03*
X018066Y007307D03*
X013256Y019237D03*
X014276Y019787D03*
X012446Y020127D03*
D151*
X006971Y019757D03*
X006561Y019587D03*
X006561Y019577D03*
X005051Y019797D03*
X017621Y008867D03*
X017411Y008807D03*
X017401Y008797D03*
X017941Y008687D03*
X020661Y007817D03*
D152*
X020446Y008177D03*
X018096Y007277D03*
X018106Y009347D03*
X014256Y019847D03*
X014256Y019857D03*
D153*
X014201Y020037D03*
X014201Y020047D03*
X019841Y009407D03*
X017621Y008377D03*
X019031Y007687D03*
X019861Y007217D03*
D154*
X014186Y020097D03*
D155*
X014181Y020107D03*
X014181Y020117D03*
X019031Y009937D03*
X019821Y009417D03*
X019031Y008957D03*
X018241Y009417D03*
X017621Y008357D03*
X018251Y007197D03*
D156*
X017621Y008347D03*
X018261Y009427D03*
X019801Y009427D03*
X014171Y020147D03*
D157*
X011506Y020147D03*
D158*
X007556Y020147D03*
D159*
X014056Y020347D03*
X014166Y020167D03*
X014166Y020157D03*
X019026Y008947D03*
X020446Y008267D03*
X019796Y007187D03*
X018266Y007187D03*
D160*
X011486Y020157D03*
D161*
X007576Y020157D03*
D162*
X009066Y020167D03*
D163*
X014071Y020337D03*
X014081Y020327D03*
X014161Y020187D03*
X014161Y020177D03*
X019031Y008937D03*
X017621Y008337D03*
D164*
X009071Y020177D03*
D165*
X009066Y020187D03*
D166*
X014086Y020317D03*
X014096Y020307D03*
X014146Y020217D03*
X014156Y020207D03*
X014156Y020197D03*
X017626Y008327D03*
X020446Y008277D03*
D167*
X009066Y020197D03*
D168*
X009066Y020207D03*
D169*
X009056Y020217D03*
D170*
X014101Y020297D03*
X014111Y020287D03*
X014121Y020267D03*
X014131Y020257D03*
X014131Y020247D03*
X014141Y020237D03*
X014141Y020227D03*
X019031Y009927D03*
X019771Y009437D03*
X018291Y009437D03*
X020441Y008287D03*
X019031Y006687D03*
D171*
X009056Y020227D03*
D172*
X009046Y020237D03*
D173*
X009041Y020247D03*
D174*
X009036Y020257D03*
D175*
X009011Y020267D03*
D176*
X008876Y020307D03*
X008866Y020297D03*
X008856Y020277D03*
D177*
X008861Y020287D03*
X008881Y020317D03*
D178*
X008896Y020327D03*
D179*
X008901Y020337D03*
D180*
X008916Y020347D03*
D181*
X008926Y020357D03*
D182*
X008951Y020367D03*
D183*
X012566Y007147D03*
X012566Y007107D03*
X012566Y007067D03*
X012566Y007027D03*
X012566Y006987D03*
X012566Y006947D03*
X012566Y006907D03*
X012566Y006867D03*
X012566Y006827D03*
X012566Y006787D03*
D184*
X012806Y007667D03*
X013126Y007947D03*
X013166Y007907D03*
X013206Y007867D03*
X013246Y007827D03*
X013286Y007787D03*
X013326Y007747D03*
X013366Y007707D03*
X013406Y007667D03*
X013446Y007627D03*
X013086Y007987D03*
X013046Y008027D03*
X013006Y008067D03*
X012886Y008187D03*
X012766Y008307D03*
X012726Y008347D03*
X012686Y008387D03*
X012646Y008427D03*
X012606Y008467D03*
X012606Y008587D03*
X012646Y008627D03*
X012686Y008667D03*
X012726Y008707D03*
X012766Y008747D03*
X012806Y008787D03*
X012846Y008827D03*
X012926Y008907D03*
X012966Y008947D03*
X012966Y009067D03*
X012966Y009107D03*
X013086Y009067D03*
X013126Y009107D03*
X013166Y009147D03*
X013206Y009187D03*
X013246Y009227D03*
X013286Y009267D03*
X013326Y009307D03*
X013366Y009347D03*
X013406Y009387D03*
X013446Y009427D03*
X012966Y009267D03*
X012806Y009267D03*
X012806Y009307D03*
X012926Y008707D03*
X012926Y008667D03*
X012926Y008627D03*
X012926Y008587D03*
X012926Y008547D03*
X012486Y008587D03*
X012446Y008627D03*
X012406Y008667D03*
X012366Y008707D03*
X012486Y008467D03*
X012446Y008427D03*
X012406Y008387D03*
X012366Y008347D03*
X012326Y008307D03*
X012286Y008267D03*
X012246Y008227D03*
X012166Y008147D03*
X012126Y008107D03*
X012126Y008267D03*
X012126Y008307D03*
X012126Y008347D03*
X012126Y008387D03*
X012086Y008787D03*
X012086Y008827D03*
X012086Y008867D03*
X012086Y008987D03*
X011926Y008987D03*
X011926Y009027D03*
X011846Y009227D03*
X011806Y009267D03*
X011766Y009307D03*
X011726Y009347D03*
X011686Y009387D03*
X011646Y009427D03*
X011606Y009467D03*
X011966Y007947D03*
X011926Y007907D03*
X011886Y007867D03*
X011846Y007827D03*
X011806Y007787D03*
X011766Y007747D03*
X011726Y007707D03*
X011686Y007667D03*
X012086Y007907D03*
X012206Y007907D03*
X012206Y007827D03*
D185*
X012146Y008227D03*
X012106Y008427D03*
X012106Y008467D03*
X012106Y008507D03*
X012106Y008547D03*
X012106Y008587D03*
X012106Y008627D03*
X012106Y008667D03*
X012106Y008707D03*
X012106Y008747D03*
X012906Y008507D03*
X012906Y008467D03*
X012906Y008427D03*
X012906Y008387D03*
X012906Y008347D03*
X012906Y008307D03*
X012866Y008067D03*
X012866Y008027D03*
X012866Y007987D03*
X012866Y007947D03*
X012866Y007907D03*
X012866Y007867D03*
X012946Y008747D03*
X012946Y008787D03*
X012946Y008827D03*
X013466Y009467D03*
X011666Y007627D03*
D186*
X012806Y007707D03*
X012806Y007747D03*
X012926Y008107D03*
X012846Y008267D03*
X013006Y009027D03*
X012006Y009107D03*
X012006Y009267D03*
D187*
X012226Y007707D03*
D188*
X012206Y007747D03*
X012446Y008747D03*
X012486Y009427D03*
D189*
X012566Y009387D03*
X012566Y007787D03*
D190*
X012346Y007907D03*
X012306Y007947D03*
X012106Y007947D03*
X012106Y008067D03*
X012186Y008187D03*
X012066Y007827D03*
X012106Y007787D03*
X012906Y008147D03*
X012866Y008227D03*
X012546Y008507D03*
X012546Y008547D03*
X012906Y008867D03*
X012986Y008987D03*
X012946Y009307D03*
X012066Y009027D03*
D191*
X012586Y007827D03*
D192*
X012206Y007867D03*
X012166Y007987D03*
X012406Y008827D03*
D193*
X012066Y008907D03*
X012026Y008947D03*
X012066Y009307D03*
X012466Y009307D03*
X012146Y008027D03*
D194*
X012426Y008787D03*
D195*
X012386Y008867D03*
D196*
X012006Y009067D03*
D197*
X012486Y009147D03*
D198*
X012466Y009187D03*
D199*
X012506Y009227D03*
D200*
X012526Y009347D03*
D201*
X019031Y008907D03*
X019031Y006697D03*
D202*
X019026Y006707D03*
X019026Y008867D03*
X019026Y009907D03*
D203*
X019031Y009897D03*
X019031Y008857D03*
X019031Y008847D03*
X019031Y006717D03*
D204*
X019031Y006737D03*
X019031Y008787D03*
D205*
X019026Y006747D03*
D206*
X019031Y006757D03*
X019031Y008727D03*
D207*
X019026Y006767D03*
D208*
X019031Y006777D03*
X019031Y009837D03*
D209*
X019031Y006787D03*
D210*
X019031Y006797D03*
D211*
X019031Y006807D03*
X019031Y008307D03*
X019031Y008317D03*
X019031Y008327D03*
X019031Y008337D03*
X019031Y008347D03*
D212*
X019031Y006817D03*
D213*
X019031Y006827D03*
D214*
X019031Y006837D03*
D215*
X019031Y006847D03*
X019031Y009777D03*
D216*
X019031Y009757D03*
X019031Y006857D03*
D217*
X019026Y006867D03*
D218*
X019031Y006897D03*
D219*
X019031Y006907D03*
X019031Y009707D03*
D220*
X019031Y009697D03*
X019031Y006917D03*
D221*
X019031Y006927D03*
X019031Y009687D03*
D222*
X019031Y009677D03*
X019031Y006937D03*
D223*
X019031Y006947D03*
X019031Y009667D03*
D224*
X019026Y006957D03*
D225*
X019031Y006967D03*
X019031Y009647D03*
D226*
X019031Y009587D03*
X019031Y007027D03*
D227*
X019031Y007047D03*
D228*
X019031Y007057D03*
D229*
X019031Y007067D03*
X019031Y009557D03*
D230*
X019031Y007077D03*
D231*
X019026Y007087D03*
D232*
X019026Y007097D03*
D233*
X019026Y007107D03*
X019026Y009507D03*
D234*
X019026Y007117D03*
D235*
X019031Y007127D03*
X019031Y009497D03*
D236*
X019031Y009487D03*
X019031Y007137D03*
D237*
X019031Y007147D03*
X019031Y009467D03*
X019031Y009477D03*
D238*
X019031Y007157D03*
D239*
X019706Y007167D03*
X019036Y008877D03*
D240*
X018351Y007167D03*
D241*
X019031Y008197D03*
X019031Y008207D03*
X019031Y008217D03*
X019031Y008227D03*
X019031Y008237D03*
X019031Y008247D03*
X019031Y008257D03*
X019031Y009817D03*
D242*
X019036Y008387D03*
X019036Y008377D03*
X019036Y008367D03*
X019036Y008357D03*
X019036Y008297D03*
X019036Y008287D03*
X019036Y008277D03*
X019036Y008267D03*
D243*
X019036Y008917D03*
X020446Y008297D03*
D244*
X020446Y008307D03*
D245*
X017621Y008307D03*
D246*
X019031Y008737D03*
X019031Y009867D03*
D247*
X019031Y008747D03*
D248*
X019036Y008757D03*
D249*
X019036Y008777D03*
D250*
X019031Y008797D03*
D251*
X019031Y008807D03*
X019031Y009887D03*
D252*
X019031Y008837D03*
D253*
X019036Y008887D03*
D254*
X019036Y008897D03*
D255*
X019721Y009447D03*
X019031Y009917D03*
X018341Y009447D03*
D256*
X019026Y009457D03*
D257*
X019031Y009517D03*
D258*
X019031Y009527D03*
D259*
X019031Y009537D03*
D260*
X019026Y009547D03*
D261*
X019026Y009567D03*
D262*
X019031Y009657D03*
D263*
X019031Y009717D03*
D264*
X019031Y009727D03*
D265*
X019031Y009747D03*
D266*
X019031Y009767D03*
D267*
X019031Y009787D03*
D268*
X019031Y009797D03*
D269*
X019026Y009807D03*
D270*
X019026Y009827D03*
D271*
X019031Y009847D03*
D272*
X019031Y009857D03*
M02*
