G75*
G70*
%OFA0B0*%
%FSLAX24Y24*%
%IPPOS*%
%LPD*%
%AMOC8*
5,1,8,0,0,1.08239X$1,22.5*
%
%ADD10R,0.0197X0.0197*%
%ADD11R,0.0177X0.0433*%
%ADD12R,0.0260X0.0177*%
%ADD13R,0.0360X0.0480*%
%ADD14R,0.0787X0.0157*%
%ADD15R,0.0276X0.0315*%
%ADD16R,0.0300X0.0157*%
%ADD17R,0.0630X0.0472*%
D10*
X003309Y004307D03*
X003703Y004307D03*
X003703Y005207D03*
X003309Y005207D03*
X006309Y005207D03*
X006703Y005207D03*
X006703Y004307D03*
X006309Y004307D03*
X009309Y004307D03*
X009703Y004307D03*
X009703Y005207D03*
X009309Y005207D03*
X012309Y005207D03*
X012703Y005207D03*
X012703Y004307D03*
X012309Y004307D03*
X015406Y005410D03*
X015406Y005804D03*
X016906Y005804D03*
X016906Y005410D03*
X018406Y005410D03*
X018406Y005804D03*
X019906Y005804D03*
X019906Y005410D03*
X021406Y005410D03*
X021406Y005804D03*
X022006Y004604D03*
X022006Y004210D03*
X022906Y005410D03*
X022906Y005804D03*
X024406Y005804D03*
X024406Y005410D03*
X025906Y005410D03*
X025906Y005804D03*
X027006Y005710D03*
X027006Y006104D03*
X024903Y007707D03*
X024509Y007707D03*
X026006Y008010D03*
X026006Y008404D03*
X026006Y009510D03*
X026006Y009904D03*
X027309Y011007D03*
X027703Y011007D03*
X027703Y008507D03*
X027309Y008507D03*
X018006Y010510D03*
X018006Y010904D03*
X015006Y010904D03*
X015006Y010510D03*
X012006Y010510D03*
X012006Y010904D03*
X009006Y010904D03*
X009006Y010510D03*
X006506Y009904D03*
X006506Y009510D03*
X006006Y009510D03*
X006006Y009904D03*
X006006Y008904D03*
X006006Y008510D03*
X006506Y008510D03*
X006506Y008904D03*
X006506Y013010D03*
X006506Y013404D03*
X006006Y013404D03*
X006006Y013010D03*
X006006Y014010D03*
X006006Y014404D03*
X006506Y014404D03*
X006506Y014010D03*
X014509Y014707D03*
X014903Y014707D03*
X015706Y014810D03*
X015706Y015204D03*
X015706Y015810D03*
X015706Y016204D03*
X015809Y016907D03*
X016203Y016907D03*
X014903Y016307D03*
X014509Y016307D03*
X015809Y017707D03*
X016203Y017707D03*
X016506Y015404D03*
X016506Y015010D03*
X016509Y014307D03*
X016903Y014307D03*
D11*
X024622Y010054D03*
X024878Y010054D03*
X025134Y010054D03*
X025390Y010054D03*
X025390Y008361D03*
X025134Y008361D03*
X024878Y008361D03*
X024622Y008361D03*
D12*
X005315Y008832D03*
X005315Y009082D03*
X005315Y009332D03*
X005315Y009582D03*
X004696Y009582D03*
X004696Y009332D03*
X004696Y009082D03*
X004696Y008832D03*
X004696Y013332D03*
X004696Y013582D03*
X004696Y013832D03*
X004696Y014082D03*
X005315Y014082D03*
X005315Y013832D03*
X005315Y013582D03*
X005315Y013332D03*
D13*
X005651Y012207D03*
X004361Y012207D03*
X004361Y010707D03*
X005651Y010707D03*
X005651Y007707D03*
X004361Y007707D03*
X004361Y015207D03*
X005651Y015207D03*
D14*
X017506Y015172D03*
X017506Y015428D03*
X017506Y015684D03*
X017506Y015940D03*
X017506Y016195D03*
X017506Y016451D03*
X017506Y016707D03*
X017506Y016963D03*
X017506Y017219D03*
X017506Y017475D03*
X017506Y017731D03*
X017506Y017987D03*
X017506Y018243D03*
X017506Y018499D03*
X017506Y014916D03*
D15*
X016301Y018207D03*
X015710Y018207D03*
X015710Y018707D03*
X016301Y018707D03*
D16*
X015181Y015757D03*
X015181Y015507D03*
X015181Y015257D03*
X014431Y015257D03*
X014431Y015507D03*
X014431Y015757D03*
D17*
X004806Y017077D03*
X004806Y018337D03*
M02*
