%
M48
M72
T01C0.0090
T02C0.0320
T03C0.0420
T04C0.0520
%
T01
X4006Y4307
X7006Y4307
X10006Y4307
X13006Y4307
X15106Y4907
X15606Y5807
X15106Y6507
X16606Y6507
X17106Y5807
X18106Y6507
X18606Y5807
X19606Y6507
X20106Y5807
X21106Y6507
X21606Y5807
X22606Y6507
X23106Y5807
X24106Y6507
X24606Y5807
X25606Y6507
X26106Y5807
X26706Y6107
X27306Y5707
X27106Y4807
X27506Y4007
X27906Y4007
X25606Y4907
X24106Y4907
X22606Y4907
X21106Y4907
X19606Y4907
X18106Y4907
X16606Y4907
X24506Y7507
X24906Y7507
X24906Y8807
X24906Y9607
X25406Y9607
X27006Y8507
X27206Y7007
X27006Y11007
X18506Y16907
X18206Y16207
X18406Y17607
X18206Y18507
X18906Y19207
X19606Y20007
X20006Y20607
X15606Y17707
X15506Y18207
X15506Y18707
X13406Y19207
X12006Y19507
X10906Y19807
X10506Y20407
X10106Y20707
X9706Y20107
X12906Y21707
X14906Y21707
X12906Y17607
X13906Y17207
X15006Y16807
X15606Y16907
X15206Y16007
X14306Y16307
X14706Y15107
X15706Y14607
X16006Y15907
X6506Y14607
X6006Y14607
X5606Y14607
X5206Y14607
X6006Y13607
X6506Y13607
X5606Y12807
X5206Y12807
X5206Y10107
X5606Y10107
X6006Y10107
X6506Y10107
X6506Y9107
X6006Y9107
X5606Y8307
X5206Y8307
T02
X21006Y9207
X22006Y9207
X23006Y9207
T03
X2718Y3526
X4490Y3526
X5718Y3526
X7490Y3526
X8718Y3526
X10490Y3526
X11718Y3526
X13490Y3526
X15006Y3207
X16006Y3207
X17006Y3207
X18006Y3207
X19006Y3207
X20006Y3207
X22006Y3207
X23006Y3207
X24006Y3207
X25006Y3207
X26006Y3207
X27006Y3207
X27006Y7907
X28006Y7907
X28006Y9107
X27006Y9107
X27006Y10307
X28006Y10307
X28006Y12207
X27006Y12207
X27006Y13207
X28006Y13207
X28006Y14207
X27006Y14207
X27006Y16207
X28006Y16207
X28006Y17207
X27006Y17207
X27006Y18207
X28006Y18207
X28006Y19207
X27006Y19207
X27006Y21207
X27006Y22207
X26006Y22207
X26006Y21207
X25006Y21207
X25006Y22207
X24006Y22207
X24006Y21207
X23006Y21207
X22006Y21207
X22006Y22207
X23006Y22207
X21006Y22207
X21006Y21207
X20006Y21207
X20006Y22207
X18406Y22207
X17406Y22207
X17406Y21207
X18406Y21207
X16406Y21207
X16406Y22207
X15406Y22207
X15406Y21207
X14406Y21207
X14406Y22207
X13406Y22207
X13406Y21207
X12406Y21207
X11406Y21207
X11406Y22207
X12406Y22207
X7406Y17707
X7406Y16707
X8006Y12267
X8006Y10707
X8006Y9147
X11006Y9147
X11006Y10707
X11006Y12267
X14006Y12267
X14006Y10707
X14006Y9147
X17006Y9147
X17006Y10707
X17006Y12267
X13490Y6085
X11718Y6085
X10490Y6085
X8718Y6085
X7490Y6085
X5718Y6085
X4490Y6085
X2718Y6085
T04
X3506Y8323
X3506Y10291
X3506Y12523
X3506Y14491
X3506Y16723
X3506Y18691
X3321Y21707
X5290Y21707
X7521Y21707
X9490Y21707
M30
