G75*
G70*
%OFA0B0*%
%FSLAX24Y24*%
%IPPOS*%
%LPD*%
%AMOC8*
5,1,8,0,0,1.08239X$1,22.5*
%
%ADD10R,0.0630X0.0630*%
%ADD11C,0.0630*%
%ADD12OC8,0.0630*%
%ADD13C,0.0780*%
%ADD14R,0.0433X0.0394*%
%ADD15R,0.0520X0.0520*%
%ADD16C,0.0520*%
%ADD17R,0.0177X0.0433*%
%ADD18R,0.0197X0.0197*%
%ADD19C,0.0250*%
%ADD20C,0.0080*%
%ADD21C,0.0160*%
%ADD22C,0.0700*%
D10*
X002718Y003526D03*
X005718Y003526D03*
X008718Y003526D03*
X011718Y003526D03*
X011718Y006085D03*
X008718Y006085D03*
X005718Y006085D03*
X002718Y006085D03*
X007406Y017707D03*
X018406Y022207D03*
X027006Y022207D03*
X027006Y019207D03*
X027006Y014207D03*
X027006Y010307D03*
X027006Y009107D03*
X027006Y007907D03*
D11*
X028006Y007907D03*
X028006Y009107D03*
X028006Y010307D03*
X028006Y012207D03*
X027006Y012207D03*
X027006Y013207D03*
X028006Y013207D03*
X028006Y014207D03*
X028006Y016207D03*
X027006Y016207D03*
X027006Y017207D03*
X028006Y017207D03*
X028006Y018207D03*
X027006Y018207D03*
X028006Y019207D03*
X027006Y021207D03*
X026006Y021207D03*
X026006Y022207D03*
X025006Y022207D03*
X025006Y021207D03*
X024006Y021207D03*
X024006Y022207D03*
X023006Y022207D03*
X022006Y022207D03*
X022006Y021207D03*
X023006Y021207D03*
X021006Y021207D03*
X021006Y022207D03*
X020006Y022207D03*
X020006Y021207D03*
X018406Y021207D03*
X017406Y021207D03*
X017406Y022207D03*
X016406Y022207D03*
X016406Y021207D03*
X015406Y021207D03*
X015406Y022207D03*
X014406Y022207D03*
X014406Y021207D03*
X013406Y021207D03*
X013406Y022207D03*
X012406Y022207D03*
X011406Y022207D03*
X011406Y021207D03*
X012406Y021207D03*
X007406Y016707D03*
X008006Y012267D03*
X008006Y010707D03*
X008006Y009147D03*
X011006Y009147D03*
X011006Y010707D03*
X011006Y012267D03*
X014006Y012267D03*
X014006Y010707D03*
X014006Y009147D03*
X017006Y009147D03*
X017006Y010707D03*
X017006Y012267D03*
X013490Y006085D03*
X010490Y006085D03*
X007490Y006085D03*
X004490Y006085D03*
X004490Y003526D03*
X007490Y003526D03*
X010490Y003526D03*
X013490Y003526D03*
X016006Y003207D03*
X017006Y003207D03*
X018006Y003207D03*
X019006Y003207D03*
X020006Y003207D03*
X023006Y003207D03*
X024006Y003207D03*
X025006Y003207D03*
X026006Y003207D03*
X027006Y003207D03*
D12*
X022006Y003207D03*
X015006Y003207D03*
D13*
X003506Y008323D03*
X003506Y010291D03*
X003506Y012523D03*
X003506Y014491D03*
X003506Y016723D03*
X003506Y018691D03*
X003321Y021707D03*
X005290Y021707D03*
X007521Y021707D03*
X009490Y021707D03*
D14*
X015106Y006142D03*
X015106Y005473D03*
X016606Y005473D03*
X016606Y006142D03*
X018106Y006142D03*
X018106Y005473D03*
X019606Y005473D03*
X019606Y006142D03*
X021106Y006142D03*
X021106Y005473D03*
X022606Y005473D03*
X022606Y006142D03*
X024106Y006142D03*
X024106Y005473D03*
X025606Y005473D03*
X025606Y006142D03*
D15*
X021006Y009207D03*
D16*
X022006Y009207D03*
X023006Y009207D03*
D17*
X027322Y006554D03*
X027578Y006554D03*
X027834Y006554D03*
X028090Y006554D03*
X028090Y004861D03*
X027834Y004861D03*
X027578Y004861D03*
X027322Y004861D03*
D18*
X027509Y004207D03*
X027903Y004207D03*
D19*
X027906Y004007D03*
X027506Y004007D03*
X027106Y004807D03*
X027306Y005707D03*
X026706Y006107D03*
X026106Y005807D03*
X025606Y006507D03*
X024606Y005807D03*
X024106Y006507D03*
X023106Y005807D03*
X022606Y006507D03*
X021606Y005807D03*
X021106Y006507D03*
X020106Y005807D03*
X019606Y006507D03*
X018606Y005807D03*
X018106Y006507D03*
X017106Y005807D03*
X016606Y006507D03*
X015606Y005807D03*
X015106Y006507D03*
X015106Y004907D03*
X016606Y004907D03*
X018106Y004907D03*
X019606Y004907D03*
X021106Y004907D03*
X022606Y004907D03*
X024106Y004907D03*
X025606Y004907D03*
X027206Y007007D03*
X027006Y008507D03*
X025406Y009607D03*
X024906Y009607D03*
X024906Y008807D03*
X024906Y007507D03*
X024506Y007507D03*
X027006Y011007D03*
X018506Y016907D03*
X018206Y016207D03*
X018406Y017607D03*
X018206Y018507D03*
X018906Y019207D03*
X019606Y020007D03*
X020006Y020607D03*
X015606Y017707D03*
X015506Y018207D03*
X015506Y018707D03*
X013406Y019207D03*
X012006Y019507D03*
X010906Y019807D03*
X010506Y020407D03*
X010106Y020707D03*
X009706Y020107D03*
X012906Y021707D03*
X014906Y021707D03*
X012906Y017607D03*
X013906Y017207D03*
X015006Y016807D03*
X015606Y016907D03*
X015206Y016007D03*
X014306Y016307D03*
X014706Y015107D03*
X015706Y014607D03*
X016006Y015907D03*
X006506Y014607D03*
X006006Y014607D03*
X005606Y014607D03*
X005206Y014607D03*
X006006Y013607D03*
X006506Y013607D03*
X005606Y012807D03*
X005206Y012807D03*
X005206Y010107D03*
X005606Y010107D03*
X006006Y010107D03*
X006506Y010107D03*
X006506Y009107D03*
X006006Y009107D03*
X005606Y008307D03*
X005206Y008307D03*
X004006Y004307D03*
X007006Y004307D03*
X010006Y004307D03*
X013006Y004307D03*
D20*
X015106Y004907D02*
X015106Y005473D01*
X015106Y006142D02*
X015106Y006507D01*
X016606Y006507D02*
X016606Y006142D01*
X016606Y005473D02*
X016606Y004907D01*
X018106Y004907D02*
X018106Y005473D01*
X018106Y006142D02*
X018106Y006507D01*
X019606Y006507D02*
X019606Y006142D01*
X019606Y005473D02*
X019606Y004907D01*
X021106Y004907D02*
X021106Y005473D01*
X021106Y006142D02*
X021106Y006507D01*
X022606Y006507D02*
X022606Y006142D01*
X022606Y005473D02*
X022606Y004907D01*
X024106Y004907D02*
X024106Y005473D01*
X024106Y006142D02*
X024106Y006507D01*
X025606Y006507D02*
X025606Y006142D01*
X025606Y005473D02*
X025606Y004907D01*
X027306Y005707D02*
X027578Y005979D01*
X027578Y006554D01*
X027578Y007479D01*
X028006Y007907D01*
X028506Y007651D02*
X028506Y008307D01*
X028206Y008607D01*
X027506Y008607D01*
X027006Y009107D01*
X027506Y009807D02*
X027006Y010307D01*
X027506Y009807D02*
X028306Y009807D01*
X028706Y009407D01*
X028706Y007407D01*
X028090Y006791D01*
X028090Y006554D01*
X028106Y006538D01*
X028106Y005907D01*
X028606Y005407D01*
X028606Y003607D01*
X027706Y002707D01*
X026506Y002707D01*
X026006Y003207D01*
X027006Y003207D02*
X027806Y003207D01*
X028406Y003807D01*
X028406Y005207D01*
X027834Y005779D01*
X027834Y006554D01*
X027834Y006979D01*
X028506Y007651D01*
X027006Y012207D02*
X020906Y012207D01*
X018506Y014607D01*
X018506Y016907D01*
X018906Y017107D02*
X018406Y017607D01*
X018006Y017207D01*
X013906Y017207D01*
X012906Y017607D02*
X015106Y017607D01*
X015306Y017407D01*
X017506Y017407D01*
X018106Y018007D01*
X018506Y018007D01*
X019206Y017307D01*
X019206Y015007D01*
X020606Y013607D01*
X021006Y013607D01*
X026406Y013607D01*
X027006Y014207D01*
X027506Y014607D02*
X027306Y014807D01*
X026606Y014807D01*
X025706Y013907D01*
X021106Y013907D01*
X020806Y013907D01*
X019606Y015107D01*
X019606Y017507D01*
X018606Y018507D01*
X018206Y018507D01*
X018906Y019207D02*
X013406Y019207D01*
X012006Y019507D02*
X017606Y019507D01*
X017706Y019607D01*
X019006Y020907D01*
X019006Y021607D01*
X018406Y022207D01*
X018406Y021207D02*
X017006Y019807D01*
X010906Y019807D01*
X010506Y020407D02*
X015606Y020407D01*
X016406Y021207D01*
X015906Y021707D02*
X016406Y022207D01*
X015906Y021707D02*
X014906Y021707D01*
X015406Y021207D02*
X014906Y020707D01*
X010106Y020707D01*
X009706Y020107D02*
X016306Y020107D01*
X017406Y021207D01*
X019606Y020007D02*
X023606Y020007D01*
X024506Y020907D01*
X024506Y021707D01*
X025006Y022207D01*
X024006Y022207D02*
X023306Y022907D01*
X006490Y022907D01*
X005290Y021707D01*
X005306Y021691D01*
X005306Y019707D01*
X005706Y019307D01*
X005706Y015907D01*
X006806Y014807D01*
X006806Y013907D01*
X006506Y013607D01*
X007206Y013507D02*
X007206Y014907D01*
X006206Y015907D01*
X006206Y019307D01*
X007506Y020607D01*
X007506Y021691D01*
X007521Y021707D01*
X009206Y021407D02*
X009206Y021391D01*
X009490Y021707D01*
X010490Y022707D01*
X020506Y022707D01*
X021006Y022207D01*
X022506Y021707D02*
X022506Y021007D01*
X022106Y020607D01*
X020006Y020607D01*
X022506Y021707D02*
X023006Y022207D01*
X018906Y017107D02*
X018906Y014707D01*
X020406Y013207D01*
X027006Y013207D01*
X027506Y013707D02*
X027506Y014607D01*
X027506Y013707D02*
X028006Y013207D01*
X016006Y015907D02*
X015306Y016607D01*
X015106Y016807D01*
X015006Y016807D01*
X009206Y021407D02*
X006706Y018907D01*
X006706Y016007D01*
X007606Y015107D01*
X007606Y013307D01*
X006806Y012507D01*
X006806Y009407D01*
X006506Y009107D01*
X006506Y010107D02*
X006506Y012807D01*
X007206Y013507D01*
X006506Y014607D02*
X005206Y015907D01*
X005206Y019107D01*
X003321Y020991D01*
X003321Y021707D01*
X012906Y021707D02*
X013906Y021707D01*
X014406Y022207D01*
D21*
X027206Y007007D02*
X027322Y006891D01*
X027322Y006554D01*
X027322Y004861D02*
X027159Y004861D01*
X027106Y004807D01*
X027322Y004861D02*
X027578Y004861D01*
X027834Y004861D01*
X028090Y004861D02*
X028090Y004394D01*
X027903Y004207D01*
X027903Y004010D01*
X027906Y004007D01*
X027509Y004010D02*
X027509Y004207D01*
X027509Y004010D02*
X027506Y004007D01*
D22*
X017006Y004207D02*
X017006Y003207D01*
X017006Y004207D02*
X014206Y004207D01*
X014206Y005107D01*
X009606Y005107D01*
X009606Y017707D01*
X007406Y017707D01*
M02*
